<svg width="15" height="15" viewBox="0 0 15 15" fill="none" xmlns="http://www.w3.org/2000/svg">
<path d="M3.03 7.73237L6.65353 11.3559C6.90059 11.603 7.23001 11.603 7.47706 11.3559L11.1006 7.73238C11.3477 7.48532 11.3477 7.1559 11.1006 6.90885C10.8535 6.66179 10.4418 6.66179 10.2771 6.90885L7.72412 9.46179L7.72412 1.55591C7.72412 1.22649 7.47706 0.979436 7.14765 0.979436C6.81824 0.979436 6.57118 1.22649 6.57118 1.55591L6.57118 9.46179L4.01824 6.90885C3.93589 6.82649 3.77118 6.74414 3.60648 6.74414C3.44177 6.74414 3.27706 6.82649 3.19471 6.90885C2.78295 7.1559 2.78295 7.48532 3.03 7.73237Z" fill="#2AAEE4"/>
<path d="M13.5882 9.81177C13.2588 9.81177 13.0118 10.0588 13.0118 10.3882V13.7647H1.23529V10.3882C1.23529 10.0588 0.988235 9.81177 0.658824 9.81177C0.329412 9.81177 0 10.0588 0 10.3882V14.4235C0 14.7529 0.247059 15 0.576471 15H13.5882C13.9176 15 14.1647 14.7529 14.1647 14.4235V10.3882C14.1647 10.0588 13.9176 9.81177 13.5882 9.81177Z" fill="#2AAEE4"/>
</svg>
