<svg width="85" height="85" viewBox="0 0 85 85" fill="none" xmlns="http://www.w3.org/2000/svg">
<g clip-path="url(#clip0)">
<path d="M42.5 85C19.0659 85 0 65.9341 0 42.5C0 19.0659 19.0659 0 42.5 0C65.9341 0 85 19.0659 85 42.5C85 65.9341 65.9341 85 42.5 85Z" fill="#2AAEE4"/>
<path d="M62.3334 70.8334C38.8993 70.8334 19.8334 51.7675 19.8334 28.3334C19.8334 18.5241 23.2065 9.50559 28.81 2.30499C12.0806 8.02041 0 23.8598 0 42.5C0 65.9341 19.0659 85 42.5 85C56.1247 85 68.2406 78.5297 76.0234 68.5285C71.7207 69.9985 67.1271 70.8334 62.3334 70.8334Z" fill="#009AD9"/>
<path d="M33.7068 64.4828C32.9567 64.4828 32.2063 64.1964 31.6344 63.624L14.0482 46.0378C12.9032 44.8936 12.9032 43.0374 14.0482 41.893C15.1917 40.748 17.0494 40.748 18.193 41.893L33.7069 57.4062L63.876 27.2378C65.0195 26.0928 66.8772 26.0928 68.0207 27.2378C69.1657 28.382 69.1657 30.2382 68.0207 31.3826L35.7792 63.624C35.2074 64.1964 34.4568 64.4828 33.7068 64.4828Z" fill="white"/>
</g>
<defs>
<clipPath id="clip0">
<rect width="85" height="85" fill="white"/>
</clipPath>
</defs>
</svg>
