<svg width="85" height="85" viewBox="0 0 85 85" fill="none" xmlns="http://www.w3.org/2000/svg">
<path d="M20.0879 16.3525H7.4707C6.09427 16.3525 4.98047 15.2387 4.98047 13.8623C4.98047 12.4859 6.09427 11.3721 7.4707 11.3721H20.0879C21.4643 11.3721 22.5781 12.4859 22.5781 13.8623C22.5781 15.2387 21.4643 16.3525 20.0879 16.3525Z" fill="#19CFFC"/>
<path d="M20.0879 36.2744H7.4707C6.09427 36.2744 4.98047 35.1606 4.98047 33.7842C4.98047 32.4077 6.09427 31.2939 7.4707 31.2939H20.0879C21.4643 31.2939 22.5781 32.4077 22.5781 33.7842C22.5781 35.1606 21.4643 36.2744 20.0879 36.2744Z" fill="#19CFFC"/>
<path d="M15.1074 26.3135H2.49023C1.1138 26.3135 0 25.1997 0 23.8232C0 22.4468 1.1138 21.333 2.49023 21.333H15.1074C16.4839 21.333 17.5977 22.4468 17.5977 23.8232C17.5977 25.1997 16.4839 26.3135 15.1074 26.3135Z" fill="#19CFFC"/>
<path d="M46.5078 8.47324C44.5283 7.15756 41.9019 7.41788 40.2238 9.0958L26.5275 22.7921C24.582 24.7376 24.582 27.8893 26.5275 29.8348C28.473 31.7803 31.6247 31.7803 33.5702 29.8348L44.3798 19.0252L52.115 24.5972L62.6942 19.6793L46.5078 8.47324Z" fill="#009AD9"/>
<path d="M36.4885 40.2237L4.1154 72.5967C2.16987 74.5423 2.16987 77.6939 4.1154 79.6395C6.06077 81.5848 9.21258 81.585 11.1581 79.6395L40.0098 50.7878L36.4885 40.2237Z" fill="#009AD9"/>
<path d="M80.0196 33.7842H64.9121V23.8232C64.9121 21.8654 63.7278 20.0123 61.8349 19.2272C59.929 18.439 57.7839 18.9264 56.4088 20.3033L36.4884 40.2237C34.5429 42.1693 34.5429 45.3209 36.4884 47.2665L47.9085 58.6865L33.9982 72.5968C32.0527 74.5423 32.0527 77.694 33.9982 79.6395C35.9436 81.5849 39.0954 81.585 41.0409 79.6395L58.4726 62.2079C60.4181 60.2623 60.4181 57.1107 58.4726 55.1651L47.0525 43.7451L54.9512 35.8464V38.7646C54.9512 41.515 57.1813 43.7451 59.9317 43.7451H80.0196C82.7699 43.7451 85 41.515 85 38.7646C85 36.0142 82.7699 33.7842 80.0196 33.7842Z" fill="#2AAEE4"/>
<path d="M72.3828 18.8428C76.5088 18.8428 79.8535 15.498 79.8535 11.3721C79.8535 7.24611 76.5088 3.90137 72.3828 3.90137C68.2569 3.90137 64.9121 7.24611 64.9121 11.3721C64.9121 15.498 68.2569 18.8428 72.3828 18.8428Z" fill="#2AAEE4"/>
</svg>
