<svg width="85" height="85" viewBox="0 0 85 85" fill="none" xmlns="http://www.w3.org/2000/svg">
<g clip-path="url(#clip0)">
<path d="M83.1973 6.46708L64.6035 0.141667C64.051 -0.0495825 63.449 -0.0495825 62.8965 0.141667L44.3027 6.46708C43.2225 6.83188 42.5 7.84125 42.5 8.98167V23.2121C42.5 40.5804 61.8871 49.0238 62.7123 49.3744C63.0452 49.5125 63.3958 49.5833 63.75 49.5833C64.1042 49.5833 64.4548 49.5125 64.7877 49.3708C65.6129 49.0202 85 40.5804 85 23.2121V8.98167C85 7.84125 84.2775 6.83188 83.1973 6.46708Z" fill="#2AAEE4"/>
<path d="M75.3873 19.897L65.6477 32.2929C65.0527 33.0508 64.1709 33.536 63.2111 33.6281L62.864 33.6458C62.0246 33.6458 61.2029 33.3483 60.5619 32.7923L54.364 27.4798C52.8765 26.2083 52.7029 23.97 53.9815 22.486C55.2529 21.002 57.4913 20.832 58.9717 22.1035L62.3646 25.0112L69.8198 15.5231C71.0275 13.986 73.2517 13.7133 74.7923 14.9281C76.3294 16.1323 76.5986 18.36 75.3873 19.897Z" fill="white"/>
<path d="M63.75 0H63.6827C63.4171 0.00708333 63.1515 0.053125 62.8965 0.141667L44.3027 6.46708C43.2225 6.83187 42.5 7.84125 42.5 8.98167V23.2121C42.5 40.5804 61.8871 49.0238 62.7123 49.3744C63.0452 49.5125 63.3958 49.5833 63.75 49.5833V33.5325C63.5729 33.5785 63.3923 33.6104 63.2117 33.6281L62.8646 33.6458C62.0252 33.6458 61.2035 33.3483 60.5625 32.7923L54.3646 27.4798C52.8771 26.2083 52.7035 23.97 53.9821 22.486C54.6798 21.6715 55.6715 21.25 56.6702 21.25C57.4848 21.25 58.3065 21.5298 58.9687 22.1L62.3617 25.0077L63.75 23.244V0Z" fill="#009AD9"/>
<path d="M56.6697 21.25C55.671 21.25 54.6793 21.6679 53.9781 22.486C52.7031 23.97 52.8731 26.2083 54.3606 27.4798L60.5585 32.7923C61.2031 33.3483 62.0247 33.6458 62.8641 33.6458L63.2112 33.6281C63.3918 33.6104 63.5725 33.5785 63.7495 33.5325V23.244L62.3612 25.0077L58.9683 22.1035C58.3025 21.5298 57.4843 21.25 56.6697 21.25Z" fill="#DEDEDE"/>
<path d="M77.9169 61.9792C70.8336 61.9792 56.6669 70.9431 49.5836 70.9431C42.5003 70.9431 34.5315 65.5208 34.5315 65.5208C34.5315 65.5208 44.0692 67.2917 49.5836 67.2917C55.098 67.2917 56.6669 65.411 56.6669 62.8646C56.6669 56.6667 46.1376 55.7033 40.8144 54.8958C35.5834 51.9846 30.0584 50.1748 21.4026 49.4417C21.3494 49.9446 21.2715 50.4475 21.1299 50.9469L14.0146 76.0219C22.0719 79.691 38.7567 85 46.0419 85C56.6669 85 85.0003 70.8333 85.0003 67.2917C85.0003 63.75 81.4586 61.9792 77.9169 61.9792Z" fill="#FFCC80"/>
<path d="M12.3958 77.9167H2.65625C1.19 77.9167 0 76.7267 0 75.2604V45.1563C0 43.69 1.19 42.5 2.65625 42.5C15.0698 42.5 20.8533 46.8067 21.0906 46.9908C21.9477 47.646 22.3267 48.7546 22.0469 49.7958L14.9635 75.9546C14.6483 77.1127 13.5965 77.9167 12.3958 77.9167Z" fill="#2196F3"/>
<path d="M77.9166 61.9792C70.8332 61.9792 56.6666 70.9431 49.5832 70.9431C42.4999 70.9431 34.5312 65.5208 34.5312 65.5208L18.6928 62.1775L14.9634 75.9546C14.9245 76.1033 14.8714 76.2414 14.8076 76.3796C23.1235 80.0204 38.9901 85 46.0416 85C56.6666 85 84.9999 70.8333 84.9999 67.2917C84.9999 63.75 81.4582 61.9792 77.9166 61.9792Z" fill="#DEB26F"/>
<path d="M0 58.2321V75.2604C0 76.7267 1.19 77.9167 2.65625 77.9167H12.3958C13.4442 77.9167 14.3792 77.304 14.8077 76.3761C14.8715 76.2415 14.921 76.0998 14.9635 75.951L18.6929 62.174L0 58.2321Z" fill="#1D83D4"/>
</g>
<defs>
<clipPath id="clip0">
<rect width="85" height="85" fill="white"/>
</clipPath>
</defs>
</svg>
