<svg width="57" height="57" viewBox="0 0 57 57" fill="none" xmlns="http://www.w3.org/2000/svg">
<g clip-path="url(#clip0)">
<path d="M57 11.6703V45.3298C57 47.5041 55.2433 49.2608 53.069 49.2608H3.93103C1.75668 49.2608 0 47.5041 0 45.3298V11.6703C0 9.49594 1.75668 7.73926 3.93103 7.73926H53.069C55.2433 7.73926 57 9.49594 57 11.6703Z" fill="#009BDB"/>
<path d="M57 11.6703V14.7168C57 15.8716 56.0172 16.6824 55.1328 16.6824C34.4948 17.702 18.3776 30.0602 11.6334 47.9955C11.3509 48.7571 10.6138 49.2731 9.79073 49.2731H3.93103C1.75668 49.2731 0 47.5164 0 45.3421V11.6703C0 9.49594 1.75668 7.73926 3.93103 7.73926H53.069C55.2433 7.73926 57 9.49594 57 11.6703Z" fill="#2AAEE4"/>
<path d="M0 16.584H57V24.9374H0V16.584Z" fill="#42434D"/>
<path d="M55.6487 16.584C54.4325 16.9771 42.3078 16.3751 29.6916 24.9129C29.6425 24.9497 31.0306 24.9374 0 24.9374V16.584H55.6487Z" fill="#4D4E59"/>
<path d="M16.2153 35.1336H7.98471C7.44419 35.1336 7.00195 34.6914 7.00195 34.1508C7.00195 33.6103 7.44419 33.1681 7.98471 33.1681H16.2153C16.7558 33.1681 17.1981 33.6103 17.1981 34.1508C17.1981 34.6914 16.7558 35.1336 16.2153 35.1336Z" fill="white"/>
<path d="M16.2153 41.2758H7.98471C7.44419 41.2758 7.00195 40.8336 7.00195 40.2931C7.00195 39.7525 7.44419 39.3103 7.98471 39.3103H16.2153C16.7558 39.3103 17.1981 39.7525 17.1981 40.2931C17.1981 40.8336 16.7558 41.2758 16.2153 41.2758Z" fill="white"/>
</g>
<defs>
<clipPath id="clip0">
<rect width="57" height="57" fill="white"/>
</clipPath>
</defs>
</svg>
