<svg width="57" height="57" viewBox="0 0 57 57" fill="none" xmlns="http://www.w3.org/2000/svg">
<path d="M3.5625 8.90625H53.4375C55.4049 8.90625 57 10.5014 57 12.4688V44.5312C57 46.4986 55.4049 48.0938 53.4375 48.0938H3.5625C1.59512 48.0938 0 46.4986 0 44.5312V12.4688C0 10.5014 1.59512 8.90625 3.5625 8.90625Z" fill="#2AAEE4"/>
<path d="M20.4844 19.5938C20.4844 23.0371 17.6933 25.8281 14.25 25.8281C10.8067 25.8281 8.01562 23.0371 8.01562 19.5938C8.01562 16.1504 10.8067 13.3594 14.25 13.3594C17.6933 13.3594 20.4844 16.1504 20.4844 19.5938Z" fill="#E4EDFB"/>
<path d="M24.9375 40.9688H3.5625V35.625C3.5625 32.6739 5.95518 30.2812 8.90625 30.2812H19.5938C22.5448 30.2812 24.9375 32.6739 24.9375 35.625V40.9688Z" fill="#E4EDFB"/>
<path d="M30.2812 16.0312H51.6562C52.6399 16.0312 53.4375 16.8288 53.4375 17.8125C53.4375 18.7962 52.6399 19.5938 51.6562 19.5938H30.2812C29.2976 19.5938 28.5 18.7962 28.5 17.8125C28.5 16.8288 29.2976 16.0312 30.2812 16.0312Z" fill="#009BDA"/>
<path d="M30.2812 23.1562H33.8438C34.8274 23.1562 35.625 23.9538 35.625 24.9375C35.625 25.9212 34.8274 26.7188 33.8438 26.7188H30.2812C29.2976 26.7188 28.5 25.9212 28.5 24.9375C28.5 23.9538 29.2976 23.1562 30.2812 23.1562Z" fill="#009BDA"/>
<path d="M40.9688 23.1562H51.6562C52.6399 23.1562 53.4375 23.9538 53.4375 24.9375C53.4375 25.9212 52.6399 26.7188 51.6562 26.7188H40.9688C39.9851 26.7188 39.1875 25.9212 39.1875 24.9375C39.1875 23.9538 39.9851 23.1562 40.9688 23.1562Z" fill="#009BDA"/>
<path d="M30.2812 30.2812H33.8438C34.8274 30.2812 35.625 31.0788 35.625 32.0625C35.625 33.0462 34.8274 33.8438 33.8438 33.8438H30.2812C29.2976 33.8438 28.5 33.0462 28.5 32.0625C28.5 31.0788 29.2976 30.2812 30.2812 30.2812Z" fill="#009BDA"/>
<path d="M40.9688 30.2812H51.6562C52.6399 30.2812 53.4375 31.0788 53.4375 32.0625C53.4375 33.0462 52.6399 33.8438 51.6562 33.8438H40.9688C39.9851 33.8438 39.1875 33.0462 39.1875 32.0625C39.1875 31.0788 39.9851 30.2812 40.9688 30.2812Z" fill="#009BDA"/>
<path d="M42.75 37.4062H46.3125V40.9688H42.75V37.4062Z" fill="white"/>
<path d="M35.625 37.4062H39.1875V40.9688H35.625V37.4062Z" fill="white"/>
<path d="M28.5 37.4062H32.0625V40.9688H28.5V37.4062Z" fill="white"/>
</svg>
