<svg width="57" height="57" viewBox="0 0 57 57" fill="none" xmlns="http://www.w3.org/2000/svg">
<path d="M46.612 27.1291C46.4524 26.9602 46.9802 27.4909 37.7912 18.3018C37.3137 17.824 36.5952 17.6814 35.9713 17.9397C35.3473 18.1982 34.9404 18.8072 34.9404 19.4825V55.3302C34.9404 56.2524 35.6881 57.0001 36.6104 57.0001H45.5166C46.3129 57.0001 46.9986 56.4378 47.1542 55.6568L50.2659 40.0542C51.2094 35.3564 49.8417 30.5228 46.612 27.1291Z" fill="#F5DCCC"/>
<path d="M40.5918 32.1713L35.4296 27.009C34.7774 26.3569 34.7774 25.2996 35.4296 24.6474C36.0816 23.9953 37.139 23.9953 37.7912 24.6474L42.9534 29.8097C43.6056 30.4619 43.6056 31.5192 42.9534 32.1713C42.3015 32.8234 41.244 32.8235 40.5918 32.1713Z" fill="#F0CABB"/>
<path d="M38.2803 5.00977V51.9902C38.2803 54.7523 36.0326 57 33.2705 57H11.4502C8.68814 57 6.44043 54.7523 6.44043 51.9902V5.00977C6.44043 2.24771 8.68814 0 11.4502 0H33.2705C36.0326 0 38.2803 2.24771 38.2803 5.00977Z" fill="#BCEAF9"/>
<path d="M38.2803 5.00977V51.9902C38.2803 54.7523 36.0326 57 33.2705 57H22.3604V0H33.2705C36.0326 0 38.2803 2.24771 38.2803 5.00977Z" fill="#2AAEE4"/>
<path d="M33.2705 0H11.4502C8.68814 0 6.44043 2.24771 6.44043 5.00977V51.9902C6.44043 54.7523 8.68814 57 11.4502 57H33.2705C36.0326 57 38.2803 54.7523 38.2803 51.9902V5.00977C38.2803 2.24771 36.0326 0 33.2705 0ZM34.9404 46.4238H9.78027V5.00977C9.78027 4.08908 10.5295 3.33984 11.4502 3.33984H33.2705C34.1912 3.33984 34.9404 4.08908 34.9404 5.00977V46.4238Z" fill="#2AAEE4"/>
<path d="M38.2803 5.00977V51.9902C38.2803 54.7523 36.0326 57 33.2705 57H22.3604V46.4238H34.9404V5.00977C34.9404 4.08908 34.1912 3.33984 33.2705 3.33984H22.3604V0H33.2705C36.0326 0 38.2803 2.24771 38.2803 5.00977Z" fill="#0085BB"/>
<path d="M34.9887 26.4864C34.0363 25.5199 32.7217 24.9313 31.2666 24.9313C28.3775 24.9313 26.0342 27.2681 26.0342 30.1631C26.0342 31.5546 26.5732 32.8628 27.5526 33.8493L33.9497 40.5271C33.2243 41.0798 32.383 41.849 31.561 42.8907C29.0757 46.0404 27.8155 50.2256 27.8155 55.33V56.9999H40.0616V31.753L34.9887 26.4864Z" fill="#F5DCCC"/>
</svg>
