<svg width="57" height="57" viewBox="0 0 57 57" fill="none" xmlns="http://www.w3.org/2000/svg">
<g clip-path="url(#clip0)">
<path d="M47.4156 51.1949V56.0173C47.4156 56.5602 46.9759 56.9999 46.433 56.9999H10.5666C10.0237 56.9999 9.58398 56.5602 9.58398 56.0173V51.1949C9.58398 46.1356 13.6853 42.0367 18.7459 42.0355C20.5343 42.0343 22.109 41.1143 23.0154 39.7189C23.9261 38.3194 23.8323 37.1024 23.8323 36.1188L23.8507 36.0733C19.4411 34.2481 16.3396 29.9036 16.3396 24.8344V24.4499C14.5887 24.4499 13.2689 23.0663 13.2689 21.4357V16.3309C13.2296 14.5535 13.3106 8.28551 17.8382 3.92136C23.1027 -1.15275 31.4453 -0.737583 37.4885 1.97696C37.685 2.0654 37.6789 2.34668 37.4799 2.42897L35.904 3.07752C35.6682 3.17455 35.7185 3.52216 35.9716 3.54918L36.7368 3.63148C40.4008 4.02331 43.8044 6.01315 45.9146 9.32465C45.9711 9.41432 45.9552 9.55066 45.8827 9.62804C44.5807 11.005 43.8536 12.8327 43.8536 14.7329V21.4357C43.8536 23.1 42.5037 24.4499 40.8393 24.4499H40.66V24.8344C40.66 29.9036 37.5585 34.2481 33.1489 36.0733L33.1673 36.1188C33.1673 37.074 33.0658 38.3076 33.9842 39.7189C34.8906 41.1143 36.4653 42.0343 38.2537 42.0355C43.3143 42.0367 47.4156 46.1356 47.4156 51.1949Z" fill="#FFDFBA"/>
<path d="M47.4156 51.195V56.0173C47.4156 56.56 46.9756 56.9999 46.433 56.9999H10.5666C10.024 56.9999 9.58398 56.56 9.58398 56.0173V51.195C9.58398 46.1356 13.6859 42.0374 18.7453 42.0356C20.5342 42.035 22.1092 41.1139 23.0154 39.719C26.1788 42.4215 30.819 42.4231 33.9842 39.719C34.8903 41.1139 36.4655 42.035 38.2543 42.0356C43.3137 42.0374 47.4156 46.1356 47.4156 51.195Z" fill="#2AB2EA"/>
<path d="M45.9149 9.3258C45.9719 9.41535 45.9559 9.55095 45.8831 9.62809C44.5815 11.006 43.8543 12.8331 43.8543 14.7334V21.4362C43.8543 22.9578 42.708 24.4505 40.6607 24.4505V16.8633C40.6607 13.607 38.0211 10.9674 34.7649 10.9674H22.2362C18.98 10.9674 16.3404 13.607 16.3404 16.8633V24.4505C14.5895 24.4505 13.2697 23.0668 13.2697 21.4362V16.3314C13.2303 14.5541 13.3114 8.28605 17.8389 3.9219C23.1031 -1.15233 31.4465 -0.73692 37.4888 1.97787C37.6853 2.06618 37.6802 2.34759 37.4808 2.42964L35.9048 3.07843C35.6692 3.17546 35.7188 3.5227 35.9721 3.54985L36.7376 3.63202C40.4022 4.02348 43.8049 6.01333 45.9149 9.3258Z" fill="#42434D"/>
<path d="M40.6602 24.8345C40.6602 31.5529 35.2129 36.9947 28.5 36.9947C22.1752 36.9947 16.3398 32.0777 16.3398 24.4501V16.8629C16.3398 13.6067 18.9795 10.967 22.2357 10.967H34.7643C38.0206 10.967 40.6602 13.6067 40.6602 16.8629V24.8345Z" fill="#FFEBD2"/>
<path d="M38.4491 54.9119H35.5012C34.9585 54.9119 34.5186 54.472 34.5186 53.9293C34.5186 53.3866 34.9585 52.9467 35.5012 52.9467H38.4491C38.9918 52.9467 39.4318 53.3866 39.4318 53.9293C39.4318 54.472 38.9919 54.9119 38.4491 54.9119Z" fill="white"/>
<path d="M25.7467 32.6868C27.746 33.9376 26.1694 37.005 23.9809 36.1265C19.4811 34.3204 16.3398 29.9354 16.3398 24.8345V16.8629C16.3398 15.6242 16.7218 14.4748 17.3743 13.5258C18.1744 12.3622 20.0247 12.8763 20.0247 14.4063V22.3779C20.0247 26.8625 22.3821 30.5817 25.7467 32.6868Z" fill="#FFF3E4"/>
<path d="M33.306 38.1358C30.2799 39.4025 26.9543 39.5008 23.6934 38.1358C23.8599 37.4448 23.8322 36.9972 23.8322 36.1189L23.8506 36.0735C26.8086 37.3013 30.1851 37.3038 33.1488 36.0735L33.1672 36.1189C33.1672 36.9975 33.1395 37.445 33.306 38.1358Z" fill="#FFD6A6"/>
<path d="M23.6949 45.0028C23.2407 45.1456 22.7536 45.2244 22.2313 45.2289C17.1589 45.2736 13.0232 49.2844 13.0232 54.357V55.2803C13.0232 56.23 12.2533 56.9999 11.3036 56.9999H10.5666C10.024 56.9999 9.58398 56.56 9.58398 56.0173V51.195C9.58398 46.1355 13.6859 42.0374 18.7453 42.0356C20.5342 42.035 22.1092 41.1139 23.0154 39.719C23.3807 40.031 23.7718 40.3114 24.1838 40.5569C25.9959 41.6367 25.7071 44.3701 23.6949 45.0028Z" fill="#00A5E9"/>
<path d="M33.3056 45.0028C33.7598 45.1456 34.247 45.2244 34.7692 45.2289C39.8416 45.2736 43.9773 49.2844 43.9773 54.357V55.2803C43.9773 56.23 44.7472 56.9999 45.6969 56.9999H46.4339C46.9766 56.9999 47.4165 56.56 47.4165 56.0173V51.195C47.4165 46.1355 43.3146 42.0374 38.2553 42.0356C36.4664 42.035 34.8913 41.1139 33.9851 39.719C33.6198 40.031 33.2287 40.3114 32.8167 40.5569C31.0047 41.6367 31.2934 44.3701 33.3056 45.0028Z" fill="#00A5E9"/>
<path d="M37.4807 2.42897C36.0364 3.02335 35.8306 3.15441 35.3302 3.07678C27.2634 1.82637 20.186 5.16403 17.7824 12.9997V13.001C16.8833 14.0352 16.3404 15.3863 16.3404 16.8627V21.4717C16.3404 23.4601 13.2697 23.5985 13.2697 21.4357V16.3309C13.2303 14.5535 13.3114 8.28551 17.8389 3.92136C23.1034 -1.15275 31.446 -0.737583 37.4893 1.97696C37.6858 2.0654 37.6796 2.34668 37.4807 2.42897Z" fill="#4D4E59"/>
</g>
<defs>
<clipPath id="clip0">
<rect width="57" height="57" fill="white"/>
</clipPath>
</defs>
</svg>
