<svg width="47" height="47" viewBox="0 0 47 47" fill="none" xmlns="http://www.w3.org/2000/svg">
<circle cx="23.5" cy="23.5" r="23.5" fill="#F2CA51"/>
<path d="M23.016 32.33C22.62 32.33 22.202 32.3007 21.762 32.242C21.322 32.198 20.8967 32.132 20.486 32.044C20.0753 31.956 19.7013 31.8607 19.364 31.758C19.0267 31.6553 18.7627 31.56 18.572 31.472L19.21 28.744C19.5913 28.9053 20.0753 29.0813 20.662 29.272C21.2633 29.448 22.004 29.536 22.884 29.536C23.896 29.536 24.6367 29.3453 25.106 28.964C25.5753 28.5827 25.81 28.0693 25.81 27.424C25.81 27.028 25.722 26.698 25.546 26.434C25.3847 26.1553 25.1573 25.9353 24.864 25.774C24.5707 25.598 24.2187 25.4807 23.808 25.422C23.412 25.3487 22.9867 25.312 22.532 25.312H21.256V22.672H22.708C23.0307 22.672 23.3387 22.6427 23.632 22.584C23.94 22.5253 24.2113 22.43 24.446 22.298C24.6807 22.1513 24.864 21.9607 24.996 21.726C25.1427 21.4767 25.216 21.1687 25.216 20.802C25.216 20.5233 25.1573 20.2813 25.04 20.076C24.9227 19.8707 24.7687 19.702 24.578 19.57C24.402 19.438 24.1893 19.3427 23.94 19.284C23.7053 19.2107 23.4633 19.174 23.214 19.174C22.5833 19.174 21.9967 19.2693 21.454 19.46C20.926 19.6507 20.442 19.8853 20.002 20.164L18.836 17.766C19.0707 17.6193 19.342 17.4653 19.65 17.304C19.9727 17.1427 20.3247 16.996 20.706 16.864C21.0873 16.732 21.4907 16.622 21.916 16.534C22.356 16.446 22.818 16.402 23.302 16.402C24.1967 16.402 24.9667 16.512 25.612 16.732C26.272 16.9373 26.8147 17.238 27.24 17.634C27.6653 18.0153 27.9807 18.47 28.186 18.998C28.3913 19.5113 28.494 20.076 28.494 20.692C28.494 21.2933 28.3253 21.88 27.988 22.452C27.6507 23.0093 27.196 23.4347 26.624 23.728C27.416 24.0507 28.0247 24.5347 28.45 25.18C28.89 25.8107 29.11 26.5733 29.11 27.468C29.11 28.172 28.9927 28.8247 28.758 29.426C28.5233 30.0127 28.1567 30.526 27.658 30.966C27.1593 31.3913 26.5213 31.7287 25.744 31.978C24.9813 32.2127 24.072 32.33 23.016 32.33Z" fill="white"/>
</svg>
