<svg width="47" height="47" viewBox="0 0 47 47" fill="none" xmlns="http://www.w3.org/2000/svg">
<circle cx="23.5" cy="23.5" r="23.5" fill="#F2CA51"/>
<path d="M28.912 20.758C28.912 21.3153 28.802 21.8507 28.582 22.364C28.362 22.8773 28.076 23.376 27.724 23.86C27.372 24.3293 26.976 24.784 26.536 25.224C26.096 25.664 25.6633 26.082 25.238 26.478C25.018 26.6833 24.776 26.918 24.512 27.182C24.2627 27.4313 24.0207 27.688 23.786 27.952C23.5513 28.216 23.3387 28.4653 23.148 28.7C22.972 28.92 22.862 29.1033 22.818 29.25H29.374V32H19.21C19.1807 31.8387 19.166 31.6333 19.166 31.384C19.166 31.1347 19.166 30.9587 19.166 30.856C19.166 30.152 19.276 29.5067 19.496 28.92C19.7307 28.3333 20.0313 27.7907 20.398 27.292C20.7647 26.7787 21.1753 26.302 21.63 25.862C22.0993 25.422 22.5613 24.982 23.016 24.542C23.368 24.2047 23.698 23.8893 24.006 23.596C24.314 23.288 24.5853 22.9947 24.82 22.716C25.0547 22.4227 25.238 22.1367 25.37 21.858C25.502 21.5647 25.568 21.2713 25.568 20.978C25.568 20.3327 25.3847 19.878 25.018 19.614C24.6513 19.35 24.1967 19.218 23.654 19.218C23.258 19.218 22.884 19.284 22.532 19.416C22.1947 19.5333 21.8793 19.68 21.586 19.856C21.3073 20.0173 21.0653 20.186 20.86 20.362C20.6547 20.5233 20.5007 20.6553 20.398 20.758L18.77 18.47C19.4153 17.8687 20.1633 17.3773 21.014 16.996C21.8793 16.6 22.8033 16.402 23.786 16.402C24.6807 16.402 25.4507 16.5047 26.096 16.71C26.7413 16.9153 27.2693 17.2087 27.68 17.59C28.1053 17.9567 28.4133 18.4113 28.604 18.954C28.8093 19.482 28.912 20.0833 28.912 20.758Z" fill="white"/>
</svg>
