<svg width="149" height="62" viewBox="0 0 149 62" fill="none" xmlns="http://www.w3.org/2000/svg">
<path fill-rule="evenodd" clip-rule="evenodd" d="M32.6228 15.1237C33.2144 11.8165 34.1585 11.0803 37.207 10.1333C37.9195 9.912 37.9193 9.88317 38.347 10.1636C38.4095 11.1697 34.0075 14.8815 32.6228 15.1237ZM34.45 8.84921C33.8473 8.18674 34.0785 7.77925 32.9847 7.74125C32.3808 8.39454 31.2634 13.3902 30.8361 14.7855L27.4051 25.402C27.2095 27.3902 29.2007 27.737 29.69 26.1336C30.3917 23.8341 30.7513 20.7151 31.5307 18.5987C32.5502 18.5263 33.92 19.7016 34.702 20.1822C35.7309 20.8146 36.5706 21.3947 37.6317 22.0232C39.1807 22.9403 43.9897 24.6981 44.4779 21.8708C43.8324 20.9424 43.1809 21.1173 41.9576 20.8002C39.5496 20.1759 35.8683 18.4482 34.5029 16.7579C36.5824 15.1214 39.5132 13.639 41.179 10.6405C42.2326 8.74361 41.2816 7.05385 39.2103 7.01075C36.8873 6.96238 35.7051 8.70598 34.45 8.84921Z" fill="#060709"/>
<path fill-rule="evenodd" clip-rule="evenodd" d="M65.2056 21.5294C63.7757 19.1835 68.3895 17.4232 69.8395 16.7902C70.9842 16.2905 72.1594 15.8264 73.4422 15.4517C74.5686 15.1226 76.7782 14.9153 76.2665 13.5909C75.3984 12.5316 67.6239 15.2178 66.2001 15.2212C66.0738 10.7409 73.3327 12.4683 74.7288 10.3036C75.2408 9.5099 75.7235 7.81812 72.9245 8.30501C65.7037 9.56103 65.0664 11.0822 63.7374 17.4849C63.3436 19.382 62.1944 24.0985 65.2115 24.1735C68.5597 24.2567 73.8823 21.7567 74.4951 19.6013C75.2393 16.9842 70.0071 20.8824 66.2109 21.6262C65.8888 21.6893 65.4995 21.7265 65.2056 21.5294Z" fill="#060709"/>
<path fill-rule="evenodd" clip-rule="evenodd" d="M96.2556 18.9566L96.0296 18.764C94.5126 17.347 91.7199 13.6243 90.7018 11.9579C90.2221 11.1725 89.8372 9.92387 89.033 9.36694C87.2643 10.1545 84.241 19.8844 84.9252 22.729C87.5879 23.6169 87.3829 21.6081 87.7117 19.3185C88.0441 17.0043 88.5418 15.7466 89.1509 13.8159L89.7048 14.4371C91.2494 16.6983 93.1376 20.3228 95.4625 21.7108C96.8067 22.5133 98.1322 21.9941 98.4296 20.6916C98.6349 19.7924 98.556 17.2439 98.6389 16.1407C98.8556 13.2555 99.047 10.6096 99.9993 7.90871C100.366 6.8701 101.395 5.37921 101.012 4.36931C99.9504 4.00893 99.7629 5.10609 98.8927 6.81137C97.2241 10.0813 96.4507 15.2485 96.2556 18.9566Z" fill="#060709"/>
<path fill-rule="evenodd" clip-rule="evenodd" d="M111.023 18.6328C111.092 16.7474 112.15 13.6735 112.76 11.8943C112.999 11.1954 113.117 11.216 113.821 10.9362C115.151 10.4078 117.851 9.25922 118.95 10.4482C121.615 13.3311 114.107 18.2507 111.023 18.6328ZM107.86 23.1085C108.333 23.4355 108.721 23.6325 109.586 23.5637C110.064 22.5543 110.03 22.0174 111.081 21.4211C114.681 19.3803 119.759 17.1535 121.271 12.9029C122.402 9.72462 120.369 6.8524 115.847 7.66292C114.687 7.87078 113.773 8.54525 113.184 7.5991C112.358 6.27486 111.748 6.3118 111.461 8.01633C110.993 10.7921 109.955 14.4153 109.134 17.0798C108.647 18.6617 107.526 21.5744 107.86 23.1085Z" fill="#060709"/>
<path fill-rule="evenodd" clip-rule="evenodd" d="M131.491 15.3154C134.056 16.1727 138.351 14.0511 139.677 15.1961C140.381 16.3854 135.979 19.102 135.122 19.6315C134.026 20.3093 133.191 20.6301 132.059 21.1462C130.905 21.6723 129.709 22.2261 130.103 23.9259C131.586 25.3584 134.349 23.1037 135.572 22.292C137.041 21.3175 145.182 14.9916 141.455 13.4128C139.438 12.558 135.456 13.8505 133.958 12.898C134.566 11.9897 136.099 10.8363 137.195 10.1263C138.9 9.02239 139.654 9.04827 141.466 8.38594C142.333 3.86999 136.49 8.18065 135.568 8.86221C134.119 9.93279 130.356 12.3888 131.491 15.3154Z" fill="#060709"/>
<path fill-rule="evenodd" clip-rule="evenodd" d="M9.78915 26.137C11.3526 23.9298 11.4972 17.3252 12.9951 15.8181C13.8112 14.997 18.9132 13.5015 20.494 13.0506C21.5861 12.7391 22.4227 12.6498 22.1074 11.3181C20.2354 10.5803 15.6841 13.1703 13.9619 12.9448C13.9402 12.9039 13.9193 12.7884 13.9156 12.8137C13.901 12.9164 13.5555 10.3097 16.2222 9.12647C17.8112 8.42142 20.0135 8.62884 21.3334 7.63747C21.8035 7.28444 22.6344 6.20355 21.7026 5.6573C20.2506 4.80607 14.7037 7.08795 13.9573 7.58841C13.3397 8.00268 12.284 11.3189 11.9511 12.1961C11.5787 13.1775 11.4999 13.801 10.7393 14.2769C9.19389 15.2439 10.177 14.906 10.2066 16.3839C10.2416 18.1261 5.87212 26.3446 9.78915 26.137Z" fill="#060709"/>
<path fill-rule="evenodd" clip-rule="evenodd" d="M111.022 18.6329C114.107 18.2507 121.615 13.3311 118.95 10.4482C117.851 9.25924 115.151 10.4078 113.821 10.9363C113.117 11.216 112.999 11.1954 112.759 11.8943C112.15 13.6735 111.091 16.7474 111.022 18.6329Z" fill="white"/>
<path fill-rule="evenodd" clip-rule="evenodd" d="M52.5694 24.6415C53.0238 23.8517 53.3149 21.4591 53.6087 20.3633C54.3576 17.5701 57.5808 9.11901 56.7064 7.47767C56.146 6.81169 55.7111 6.67551 54.6588 6.89386C54.1843 7.81626 54.0129 10.4872 53.7009 11.8175C52.8653 15.3791 51.7746 17.8859 50.9187 20.9713C50.4004 22.8396 50.1204 24.8857 52.5694 24.6415Z" fill="#060709"/>
<path fill-rule="evenodd" clip-rule="evenodd" d="M32.623 15.1236C34.0077 14.8815 38.4097 11.1696 38.3472 10.1635C37.9196 9.88308 37.9197 9.91191 37.2073 10.1332C34.1587 11.0802 33.2146 11.8164 32.623 15.1236Z" fill="white"/>
<path fill-rule="evenodd" clip-rule="evenodd" d="M80.4826 13.7774C78.3972 14.5592 79.3977 17.4098 81.367 16.7956C83.4145 16.1569 82.3038 13.0946 80.4826 13.7774Z" fill="#ED5C2A"/>
<path fill-rule="evenodd" clip-rule="evenodd" d="M24.4374 13.7927C22.4043 14.6749 23.4913 17.522 25.5386 16.6531C27.2074 15.9448 26.3051 12.9824 24.4374 13.7927Z" fill="#ED5C2A"/>
<path fill-rule="evenodd" clip-rule="evenodd" d="M125.286 14.28C123.282 15.2155 124.691 17.9125 126.421 17.1647C128.172 16.408 127.147 13.4115 125.286 14.28Z" fill="#2AAEE4"/>
<path fill-rule="evenodd" clip-rule="evenodd" d="M45.3389 14.0459C43.3735 15.2734 45.1756 17.5949 46.793 16.6534C48.4958 15.6619 47.173 12.9004 45.3389 14.0459Z" fill="#2AAEE4"/>
<path fill-rule="evenodd" clip-rule="evenodd" d="M59.1397 13.9629C59.2341 14.2816 59.2723 14.198 58.9382 14.1281C59.0084 14.4633 59.1064 14.4361 58.798 14.355C58.5486 15.5731 58.5457 15.3929 59.041 16.4242C60.964 17.6916 62.8014 15.248 60.7385 13.826L59.4982 13.7705C59.4089 14.0206 59.7319 13.9777 59.1397 13.9629Z" fill="#F2CA51"/>
<path fill-rule="evenodd" clip-rule="evenodd" d="M105.038 16.7739C105.038 16.3962 104.953 16.48 105.331 16.5711C105.244 16.2524 105.191 16.3217 105.517 16.3894L105.709 16.0303C105.696 14.7695 105.662 14.5367 104.895 14.0714L103.79 14.0208C101.748 14.415 102.859 17.7875 105.038 16.7739Z" fill="#F2CA51"/>
<path fill-rule="evenodd" clip-rule="evenodd" d="M59.1391 13.9629C58.8108 13.8889 58.8546 13.81 58.9376 14.1281C58.6035 14.044 58.6979 14.0102 58.7974 14.355C58.7704 14.3708 58.2613 14.0861 58.4469 15.461C58.5636 16.3262 58.9756 16.3684 59.0404 16.4242C58.5451 15.3929 58.548 15.5731 58.7974 14.355C59.1059 14.4361 59.0078 14.4633 58.9376 14.1281C59.2717 14.198 59.2336 14.2817 59.1391 13.9629C59.7313 13.9777 59.4083 14.0206 59.4977 13.7705L60.7379 13.826C60.5779 13.6996 61.0817 13.5542 60.0929 13.5453C59.5216 13.5401 59.5233 13.7541 59.4977 13.7705C58.8715 13.6436 59.2542 13.6826 59.1391 13.9629Z" fill="#F6E8A8"/>
<path fill-rule="evenodd" clip-rule="evenodd" d="M104.896 14.0713C105.663 14.5366 105.696 14.7694 105.71 16.0302L105.518 16.3893C105.192 16.3216 105.245 16.2524 105.332 16.571C104.954 16.48 105.039 16.3961 105.039 16.7739C105.458 16.7851 105.437 16.9184 105.332 16.571C105.653 16.6668 105.585 16.7205 105.518 16.3893C105.777 16.292 105.788 16.6605 105.71 16.0302C105.901 15.8784 105.907 16.1028 105.937 15.4695C105.946 15.2658 105.886 14.9914 105.815 14.8029C105.627 14.3077 105.42 14.1695 104.896 14.0713C104.837 13.9124 105.148 13.7979 104.417 13.7858C103.418 13.7693 103.977 13.9041 103.791 14.0207L104.896 14.0713Z" fill="#F6E8A8"/>
<path fill-rule="evenodd" clip-rule="evenodd" d="M5.87997 57.3716C7.44345 55.1645 7.588 48.5598 9.08594 47.0527C9.90205 46.2316 15.004 44.7362 16.5849 44.2853C17.677 43.9737 18.5135 43.8844 18.1982 42.5528C16.3262 41.8149 11.775 44.4049 10.0527 44.1794C10.0311 44.1385 10.0101 44.0231 10.0065 44.0484C9.99181 44.151 9.64633 41.5444 12.313 40.3611C13.902 39.656 16.1043 39.8635 17.4242 38.8721C17.8944 38.5191 18.7252 37.4382 17.7935 36.8919C16.3414 36.0407 10.7945 38.3226 10.0482 38.823C9.43049 39.2373 8.37481 42.5535 8.0419 43.4307C7.66956 44.4121 7.59069 45.0357 6.83011 45.5116C5.28472 46.4786 6.26777 46.1407 6.29745 47.6185C6.33238 49.3607 1.96294 57.5793 5.87997 57.3716Z" fill="#060709"/>
<path fill-rule="evenodd" clip-rule="evenodd" d="M29.8477 56.6725C30.3021 55.8826 30.5932 53.4901 30.887 52.3942C31.6359 49.601 34.8591 41.15 33.9847 39.5087C33.4243 38.8427 32.9894 38.7065 31.9371 38.9249C31.4626 39.8473 31.2912 42.5182 30.9792 43.8486C30.1437 47.4101 29.0529 49.9169 28.197 53.0022C27.6787 54.8705 27.3987 56.9167 29.8477 56.6725Z" fill="#060709"/>
<path fill-rule="evenodd" clip-rule="evenodd" d="M55.3787 52.0296L55.1527 51.837C53.6356 50.42 50.8429 46.6973 49.8249 45.0309C49.3451 44.2455 48.9603 42.9969 48.1561 42.4399C46.3873 43.2275 43.3641 52.9574 44.0482 55.802C46.7109 56.6899 46.5059 54.6811 46.8348 52.3915C47.1672 50.0773 47.6648 48.8196 48.2739 46.8889L48.8279 47.5101C50.3724 49.7713 52.2607 53.3958 54.5856 54.7838C55.9297 55.5863 57.2553 55.0671 57.5527 53.7646C57.758 52.8654 57.6791 50.3169 57.7619 49.2137C57.9787 46.3285 58.1701 43.6826 59.1224 40.9817C59.4886 39.9431 60.5181 38.4522 60.1348 37.4423C59.0735 37.0819 58.8859 38.1791 58.0158 39.8844C56.3471 43.1543 55.5737 48.3215 55.3787 52.0296Z" fill="#060709"/>
<path fill-rule="evenodd" clip-rule="evenodd" d="M96.4372 53.1863L96.2113 52.9937C94.6942 51.5768 91.9015 47.8541 90.8835 46.1876C90.4037 45.4023 90.0189 44.1536 89.2147 43.5967C87.4459 44.3843 84.4227 54.1141 85.1068 56.9587C87.7695 57.8466 87.5645 55.8379 87.8934 53.5482C88.2258 51.234 88.7234 49.9763 89.3325 48.0456L89.8865 48.6669C91.431 50.9281 93.3193 54.5525 95.6442 55.9405C96.9883 56.743 98.3138 56.2239 98.6112 54.9214C98.8166 54.0222 98.7376 51.4736 98.8205 50.3704C99.0372 47.4853 99.2287 44.8393 100.181 42.1384C100.547 41.0998 101.577 39.6089 101.193 38.599C100.132 38.2387 99.9445 39.3358 99.0744 41.0411C97.4057 44.311 96.6323 49.4782 96.4372 53.1863Z" fill="#060709"/>
<path fill-rule="evenodd" clip-rule="evenodd" d="M131.706 53.1845C130.131 50.6019 135.211 48.664 136.807 47.9671C138.067 47.417 139.361 46.906 140.773 46.4935C142.013 46.1313 144.446 45.903 143.883 44.445C142.927 43.2788 134.368 46.236 132.8 46.2398C132.661 41.3074 140.653 43.2092 142.19 40.826C142.753 39.9522 143.285 38.0897 140.203 38.6258C132.254 40.0085 131.552 41.6832 130.089 48.7319C129.656 50.8204 128.391 56.0128 131.712 56.0954C135.398 56.187 141.258 53.4347 141.933 51.0619C142.752 48.1807 136.992 52.4722 132.812 53.2911C132.458 53.3606 132.029 53.4016 131.706 53.1845Z" fill="#060709"/>
<path fill-rule="evenodd" clip-rule="evenodd" d="M66.1304 55.3408C66.8457 53.1237 67.758 51.1098 68.7303 49.1598C68.6362 49.1 68.5389 49.0377 68.4383 48.9727C67.5859 48.4218 67.9491 47.8511 69.0708 47.8576C69.1764 47.8582 69.2828 47.859 69.3898 47.8601C70.6988 45.3162 72.0589 42.8297 73.1556 40.0811C73.3887 39.4971 73.659 38.2573 74.6138 38.6528C75.4666 39.006 75.1755 41.1489 75.1674 41.7408C75.1439 43.4462 75.0781 45.7137 75.126 48.0428C76.5037 48.1065 77.8673 48.1776 79.1473 48.241V48.2411C78.4243 48.5044 78.0597 48.4947 77.2747 48.5426C76.8721 48.5672 76.0834 48.5818 75.1395 48.5929C75.2268 51.6492 75.5301 54.7436 76.3991 56.7543C76.4272 56.8193 76.4188 56.816 76.4476 56.9299L75.3807 57.4415C74.9533 56.8984 73.9507 54.7607 73.527 54.01C71.9933 51.2927 71.7052 50.9818 70.3281 50.1405C69.4601 52.0016 68.661 53.8966 68.0534 55.8981C67.9 56.431 67.3451 56.7382 66.8142 56.5843C66.2831 56.4304 65.977 55.8736 66.1304 55.3408ZM71.4046 47.8995C72.1493 47.9204 72.9087 47.9478 73.6711 47.9791C73.6136 46.4137 73.6151 44.8676 73.602 43.3274C72.901 44.8749 72.1461 46.3856 71.4046 47.8995ZM73.6975 48.6073C72.7982 48.6154 71.8647 48.6233 71.0457 48.6353C70.9462 48.8404 70.8472 49.0455 70.7488 49.2511C71.2 49.4974 71.6386 49.7597 72.0081 50.0593C72.6139 50.5503 73.3458 51.5574 74.0535 52.6733C73.909 51.6064 73.8213 50.5622 73.7607 49.6918C73.7354 49.3291 73.7147 48.9676 73.6975 48.6073Z" fill="#2B2A29"/>
<path fill-rule="evenodd" clip-rule="evenodd" d="M80.4826 45.1856C78.3972 45.9674 79.3977 48.818 81.367 48.2038C83.4145 47.5651 82.3038 44.5028 80.4826 45.1856Z" fill="#ED5C2A"/>
<path fill-rule="evenodd" clip-rule="evenodd" d="M24.4374 45.2009C22.4043 46.0831 23.4913 48.9302 25.5386 48.0613C27.2074 47.353 26.3051 44.3906 24.4374 45.2009Z" fill="#ED5C2A"/>
<path fill-rule="evenodd" clip-rule="evenodd" d="M125.286 45.6884C123.282 46.6239 124.691 49.3209 126.421 48.5732C128.172 47.8164 127.147 44.82 125.286 45.6884Z" fill="#2AAEE4"/>
<path fill-rule="evenodd" clip-rule="evenodd" d="M39.0791 45.4544C37.1137 46.6819 38.9159 49.0034 40.5332 48.0618C42.2361 47.0704 40.9133 44.3088 39.0791 45.4544Z" fill="#2AAEE4"/>
<path fill-rule="evenodd" clip-rule="evenodd" d="M62.2696 45.3711C62.364 45.6899 62.4022 45.6062 62.0681 45.5363C62.1383 45.8715 62.2363 45.8443 61.9279 45.7632C61.6784 46.9813 61.6756 46.8011 62.1708 47.8324C64.0939 49.0998 65.9313 46.6562 63.8684 45.2342L62.6281 45.1787C62.5387 45.4288 62.8618 45.3859 62.2696 45.3711Z" fill="#F2CA51"/>
<path fill-rule="evenodd" clip-rule="evenodd" d="M105.038 48.1824C105.038 47.8046 104.953 47.8885 105.331 47.9795C105.244 47.6609 105.191 47.7301 105.517 47.7978L105.709 47.4387C105.696 46.1779 105.662 45.9451 104.895 45.4798L103.79 45.4292C101.748 45.8234 102.859 49.1959 105.038 48.1824Z" fill="#F2CA51"/>
<path fill-rule="evenodd" clip-rule="evenodd" d="M118.926 53.3234C118.672 55.3237 117.941 56.4646 116.044 57.3132C113.689 58.3664 110.261 58.1624 108.805 55.7357C106.114 51.2502 107.044 46.5414 110.385 42.7727C111.538 41.473 116.819 36.3406 118.759 38.695C118.773 38.7129 118.787 38.7315 118.801 38.7504C119.156 38.0427 119.585 37.2726 119.852 37.1353C119.916 37.5154 119.491 38.8451 119.08 40.0533C119.023 40.9719 118.61 41.9841 118.171 42.3539L117.464 42.1865C117.41 42.0034 117.406 41.8219 117.437 41.6401L117.436 41.6404L117.437 41.6396C117.467 41.4611 117.53 41.2822 117.612 41.1009C117.792 40.5145 118.002 39.6648 117.736 39.5617C116.322 39.0135 112.614 43.0681 111.86 44.0227C109.345 47.2108 108.623 50.9141 111.018 54.458C111.894 55.7541 115.847 55.3072 115.984 53.3234C115.984 52.5083 116.642 51.8475 117.455 51.8475C118.267 51.8475 118.926 52.5083 118.926 53.3234Z" fill="#2B2A29"/>
</svg>
