<svg width="89" height="95" viewBox="0 0 89 95" fill="none" xmlns="http://www.w3.org/2000/svg">
<path opacity="0.8" d="M88.8471 92.4396C88.8471 92.4396 68.9607 94.8001 44.4235 94.8001C19.8911 94.8001 0 92.4396 0 92.4396C0 92.4396 19.8864 90.0791 44.4235 90.0791C68.956 90.0744 88.8471 92.4396 88.8471 92.4396Z" fill="#E5E5E5"/>
<path d="M79.7795 16.566L79.7748 16.5426L79.6952 16.2944L78.6227 16.5145L77.5033 16.744L76.8008 16.8845L76.8055 17.011L76.8101 17.1608L77.0912 25.8301C77.0912 25.8301 74.4543 25.3243 72.5481 24.9402L72.0376 30.1858C75.466 30.598 81.3579 31.0616 81.8965 29.4599C82.4772 27.755 80.201 18.2989 79.7795 16.566Z" fill="#CC7256"/>
<path d="M79.7792 16.566L79.7745 16.5426L79.6949 16.2944L78.6224 16.5051C78.6224 16.5051 78.6224 16.5098 78.6224 16.5145C78.702 16.8377 81.3154 27.5958 80.9361 28.4154C80.6176 29.0992 74.3791 28.9447 72.1685 28.865L72.042 30.1858C75.4704 30.598 81.3623 31.0616 81.9009 29.4599C82.477 27.755 80.2007 18.2989 79.7792 16.566Z" fill="#E1836C"/>
<path d="M79.3299 15.1189L79.639 14.407C79.7935 13.8684 78.7819 8.7118 78.4306 8.67433C78.337 8.66496 78.2292 8.66496 78.1309 8.66964C78.0513 8.67433 77.981 8.67901 77.9108 8.68838C77.8405 8.69306 77.7796 8.70243 77.7328 8.70711C77.6578 8.71648 77.6157 8.72585 77.6157 8.72585C77.6157 8.72585 77.4377 8.64623 77.2176 8.58534C77.1895 8.57597 77.152 8.56661 77.1192 8.55724C77.0865 8.54787 77.049 8.5385 77.0162 8.53382C76.9834 8.52445 76.9506 8.51977 76.9178 8.51509C76.8851 8.5104 76.8523 8.50572 76.8195 8.50104C76.6837 8.48699 76.5666 8.50104 76.501 8.57129C76.4354 8.63686 76.3933 8.96471 76.3558 9.40028C76.2668 10.4775 76.234 12.1917 76.131 12.1214C75.9858 12.0184 75.1147 8.32774 75.1147 8.32774C75.1147 8.32774 75.0116 8.26686 74.8571 8.24812C74.7634 8.23876 74.651 8.23876 74.5339 8.27623C74.2107 8.37458 74.7306 13.8403 74.7306 13.8403C74.0983 13.2408 73.2553 12.8614 72.3888 12.7865C72.3795 12.7865 72.3701 12.7865 72.3607 12.7865C72.3045 12.7865 72.239 12.7912 72.1921 12.8193C72.1828 12.824 72.1781 12.8286 72.1734 12.8333C72.1687 12.8333 72.164 12.838 72.164 12.8427C72.1594 12.8474 72.1594 12.8521 72.1547 12.8567C72.15 12.8614 72.15 12.8708 72.1453 12.8755C72.1312 12.9036 72.1313 12.9317 72.1266 12.9645C72.1172 13.1986 72.2202 13.4188 72.3654 13.6014C72.3888 13.6342 72.4169 13.6623 72.4404 13.6904C72.4685 13.7185 72.4966 13.7466 72.5247 13.77C72.7542 13.9808 73.0305 14.1307 73.2834 14.3133C73.5878 14.5335 73.8267 14.8098 74.0375 15.1142C74.1218 15.236 74.2061 15.3578 74.2857 15.4842C74.3278 15.5498 74.3653 15.6107 74.4075 15.6716C74.4309 15.709 74.459 15.7465 74.4871 15.784C74.5199 15.8167 74.548 15.8542 74.5808 15.887C74.8524 16.1446 75.2552 16.2992 75.6392 16.3975C75.6767 16.4069 75.7142 16.4162 75.747 16.4256C75.8453 16.449 75.9343 16.4631 76.0233 16.4818C76.0654 16.4865 76.1076 16.4912 76.1497 16.5006C76.501 16.5521 76.7586 16.5521 76.7586 16.5521C76.7586 16.5521 76.7586 16.5521 76.7586 16.5568C76.7586 16.5568 76.7773 16.6973 76.782 16.8659C76.782 16.8752 76.7867 16.8893 76.7867 16.9033L76.7961 17.0251L77.4892 16.7628L79.6811 16.3132L79.3299 15.1189Z" fill="#CC7256"/>
<path d="M76.3604 9.39093C76.6273 9.56422 76.9692 9.67194 77.2081 9.84991C77.5734 10.1262 77.8778 10.4822 78.0839 10.8897C78.4164 11.5594 78.4914 12.3275 78.482 13.0769C78.4726 13.8263 78.393 14.5756 78.4399 15.3203C78.468 15.7231 78.5335 16.1212 78.6225 16.5099L79.695 16.2992L79.3297 15.1189L79.6388 14.407C79.7934 13.8684 78.7817 8.71181 78.4305 8.67434C78.3368 8.66498 78.2291 8.66498 78.1307 8.66966C77.9762 8.67903 77.831 8.69308 77.7326 8.70713C77.6577 8.71649 77.6155 8.72586 77.6155 8.72586C77.6155 8.72586 77.4376 8.64624 77.2174 8.58536C77.091 8.5432 76.9505 8.51042 76.824 8.50105C76.6882 8.487 76.5711 8.50105 76.5055 8.5713C76.44 8.62751 76.3978 8.95536 76.3604 9.39093Z" fill="#E1836C"/>
<path d="M77.2176 8.58087C77.227 8.67922 77.2364 8.77758 77.2411 8.88062C77.2785 9.47543 77.2411 10.014 77.1942 10.4028C77.1474 10.7681 77.0959 10.9976 77.0912 11.0257C77.0865 10.9976 77.0443 10.7634 76.9928 10.4028C76.9413 10.0187 76.8757 9.48948 76.8429 8.90404C76.8336 8.76353 76.8289 8.62771 76.8242 8.49188C76.946 8.50593 77.0865 8.53872 77.2176 8.58087Z" fill="#A04F39"/>
<path d="M78.1308 8.6698C78.2058 9.61119 78.1074 10.3793 78.098 10.4308C78.0793 10.384 77.8357 9.64866 77.728 8.70727C77.8264 8.69322 77.9763 8.67917 78.1308 8.6698Z" fill="#A04F39"/>
<path d="M78.112 15.3299C78.112 15.3299 78.1073 15.2924 78.0933 15.2221C78.0792 15.1519 78.0558 15.0535 78.0043 14.9364C77.9106 14.7023 77.7092 14.3885 77.3814 14.1637C77.0535 13.9388 76.6882 13.8545 76.4353 13.8499C76.3088 13.8452 76.2058 13.8545 76.1356 13.8686C76.07 13.8826 76.0278 13.8873 76.0278 13.8873C76.0278 13.8873 76.0653 13.9014 76.1309 13.9248C76.1964 13.9482 76.2854 13.9857 76.3931 14.0325C76.6086 14.1262 76.8802 14.2807 77.1613 14.4728C77.4376 14.6648 77.6764 14.8662 77.845 15.0395C77.9294 15.1238 77.9949 15.194 78.0371 15.2502C78.0839 15.3018 78.112 15.3299 78.112 15.3299Z" fill="#A04F39"/>
<path d="M71.9534 24.4018L76.5199 25.4322L76.3606 19.3435L80.6976 19.1749C80.6976 19.1749 82.4305 28.4765 82.3087 29.165C82.1917 29.8534 81.5313 30.8042 81.1753 30.926C80.8194 31.0431 70.731 30.5934 70.731 30.5934L69.1479 27.2119L71.9534 24.4018Z" fill="#456997"/>
<path d="M48.1843 21.6007C47.9361 21.2213 47.6223 20.8888 47.3694 20.5141C47.1165 20.1394 46.9151 19.7039 46.9338 19.2496C46.9572 18.7297 47.2617 18.2707 47.4303 17.7742C47.8658 16.505 47.271 14.9641 46.1001 14.3084L37.8758 15.3294C37.4496 16.1678 37.4168 17.1982 37.8009 18.0599C37.9601 18.4159 38.1849 18.7625 38.2083 19.1512C38.2411 19.7788 37.7447 20.2846 37.3747 20.7951C36.3677 22.1674 36.1616 24.0877 36.8548 25.6426H48.367C49.0227 24.4015 48.9571 22.7763 48.1843 21.6007Z" fill="#FF8035"/>
<path d="M46.6717 21.6006C46.489 21.2213 46.2642 20.8887 46.0769 20.5141C45.8895 20.1394 45.7443 19.7038 45.7584 19.2495C45.7724 18.7296 45.9972 18.2706 46.119 17.7742C46.4328 16.5049 46.0066 14.964 45.1495 14.3083L39.1639 15.3294C38.8548 16.1677 38.8314 17.1981 39.1077 18.0599C39.2201 18.4158 39.3887 18.7624 39.4028 19.1511C39.4262 19.7787 39.0656 20.2846 38.7939 20.7951C38.0633 22.1674 37.9134 24.0876 38.4146 25.6426H46.7934C47.2805 24.4014 47.2337 22.7762 46.6717 21.6006Z" fill="#E94E21"/>
<path d="M35.7497 14.8423L34.1338 17.9522L33.0988 19.9474L29.7969 18.2332L31.3425 16.2895L34.7708 11.9947L35.7497 14.8423Z" fill="#FFA07F"/>
<path d="M34.1338 17.952L33.0988 19.9472L29.7969 18.233L31.3425 16.2893L34.1338 17.952Z" fill="#FF7D6F"/>
<path d="M38.8174 22.9072L36.0587 30.2276L35.3422 32.1338C35.3422 32.1338 35.0846 32.1993 34.6677 32.2977C32.977 32.7052 28.64 33.7168 28.0171 33.5107C27.6986 33.403 26.879 32.5787 26.0219 31.5062C24.7901 29.9606 23.4834 27.9045 23.4834 26.7336C23.4881 25.3801 26.2795 21.3897 28.2513 18.7482C28.4246 18.5187 28.5838 18.3032 28.743 18.0971C28.8508 17.9566 28.9491 17.8255 29.0475 17.699C29.2301 17.4602 29.3987 17.24 29.5439 17.0527C29.9233 16.5609 30.1622 16.2659 30.1622 16.2659L33.9792 19.4413L33.7076 20.008L33.3095 20.8417L33.1315 21.2164L32.7334 22.0547L31.2581 25.1412L38.8174 22.9072Z" fill="#FFB15F"/>
<path d="M33.7026 20.0034L33.3045 20.8371L29.0425 17.6944C29.2251 17.4556 29.3937 17.2354 29.5389 17.0481L33.7026 20.0034Z" fill="#FFE6E2"/>
<path d="M33.1266 21.2072L32.7285 22.0456L28.251 18.7437C28.4243 18.5142 28.5835 18.2987 28.7427 18.0927L33.1266 21.2072Z" fill="#FFE6E2"/>
<path d="M55.2189 17.4695L52.0435 19.6942L50.9616 17.8957L49.1865 14.9545L50.1654 12.1069L53.4767 15.6195L55.2189 17.4695Z" fill="#FFA07F"/>
<path d="M55.2193 17.4695L52.0438 19.6941L50.9619 17.8957L53.477 15.6194L55.2193 17.4695Z" fill="#FF7D6F"/>
<path d="M52.2031 31.2487C52.2031 31.2487 54.7931 35.136 55.7907 35.1594C56.793 35.1875 59.8561 33.2017 59.8561 33.2017L60.2401 28.0779L52.2031 31.2487Z" fill="#254F79"/>
<path d="M61.6076 26.4434C61.6122 28.4292 57.8513 32.9629 57.0739 33.2252C56.2964 33.4828 49.4537 31.9559 49.4537 31.9559L46.6904 23.3476L54.5635 25.502L52.6432 21.9565L52.2077 21.1463L52.011 20.7903L51.5754 19.9848L51.1258 19.1511L54.9429 15.9756C54.9429 15.9756 55.2613 16.3738 55.7578 17.0201C55.9077 17.2121 56.0716 17.4322 56.2543 17.6664C56.3479 17.7929 56.451 17.9287 56.554 18.0645C56.7132 18.2706 56.8772 18.4907 57.0411 18.7155C58.9801 21.3524 61.6029 25.132 61.6076 26.4434Z" fill="#FFB15F"/>
<path d="M56.2354 17.6615L52.0015 20.7854L51.5659 19.9798L55.7437 17.0151C55.8935 17.2072 56.0574 17.4273 56.2354 17.6615Z" fill="#FFE6E2"/>
<path d="M57.0267 18.7153L52.6382 21.9516L52.2026 21.1414L56.5396 18.0596C56.6942 18.2656 56.8581 18.4858 57.0267 18.7153Z" fill="#FFE6E2"/>
<path d="M51.3317 49.5519C51.3224 49.58 51.313 49.6034 51.2989 49.6315C50.8915 50.5917 49.9735 51.8188 49.9735 51.8188C47.8987 52.3995 33.3937 52.1981 33.3937 52.1981C33.3937 52.1981 32.1432 51.046 31.9465 50.4043C31.7872 49.5051 33.3984 39.7024 34.6676 32.2977C34.7707 31.7029 34.869 31.1221 34.9674 30.5601C35.6184 26.7711 36.1149 23.9656 36.1149 23.9656L38.8173 22.9072L46.6856 23.3427L48.7417 23.9001C48.7417 23.9048 51.7205 48.5777 51.3317 49.5519Z" fill="#FFB15F"/>
<path d="M37.0752 23.4222C37.0752 23.4222 37.4499 26.7053 38.8643 27.066C40.2787 27.4219 42.6299 25.6422 42.6299 25.6422C42.6299 25.6422 44.4096 27.7685 45.9505 27.5109C47.4914 27.2533 48.2783 23.7781 48.2783 23.7781C48.2783 23.7781 41.5527 21.7361 37.0752 23.4222Z" fill="#FFE6E2"/>
<path d="M40.4283 60.4876C40.3768 63.1619 40.3159 65.4662 40.2691 65.7426C40.2691 65.7426 41.3978 69.0679 41.735 70.8196C41.9832 72.0982 40.714 87.952 40.714 87.952H37.4777C37.4777 87.952 36.363 68.3466 35.9368 67.1149C35.7401 66.5481 35.2623 63.6818 34.8408 60.4033C36.6861 60.5579 38.5596 60.5766 40.4283 60.4876Z" fill="#FFA07F"/>
<path d="M40.2641 65.7427C40.2641 65.7427 41.3929 69.068 41.7301 70.8197C41.9783 72.0983 40.7091 87.9521 40.7091 87.9521H39.9878L40.9526 71.733L39.3228 65.3821L39.3602 60.5299C39.7162 60.5205 40.0721 60.5065 40.4281 60.4924C40.3719 63.1621 40.3157 65.4664 40.2641 65.7427Z" fill="#FF7D6F"/>
<path d="M48.5729 64.918C48.5729 64.918 51.1114 69.8077 51.2613 71.7794C51.3409 72.8051 52.0856 86.3828 52.0856 86.3828H48.9101C48.9101 86.3828 45.7066 69.7234 44.9104 68.0045C44.5544 67.2317 43.8098 63.8127 43.1025 60.286C44.9619 60.1033 46.8026 59.8223 48.6151 59.4851C48.5964 62.4451 48.5729 64.918 48.5729 64.918Z" fill="#FFA07F"/>
<path d="M48.573 64.9177C48.573 64.9177 51.1115 69.8074 51.2614 71.7791C51.341 72.8048 52.0857 86.3825 52.0857 86.3825H51.5658C51.3691 82.9447 50.6104 71.7745 50.3809 71.5497C50.1045 71.2733 47.271 64.4025 47.271 64.4025C47.271 64.4025 47.3694 62.3558 47.4583 59.6956C47.8424 59.63 48.2311 59.5598 48.6105 59.4895C48.5964 62.4448 48.573 64.9177 48.573 64.9177Z" fill="#FF7D6F"/>
<path d="M32.2798 91.47C32.3032 91.3014 32.3781 91.1 32.5795 90.997C33.1743 90.7066 35.3569 89.7933 35.947 89.2828C36.406 88.8847 36.7994 88.0323 36.954 87.6716L41.038 87.8262C41.2863 88.9456 41.4642 91.1094 41.497 91.559L32.2798 91.47Z" fill="#424242"/>
<path d="M32.2646 92.4536L41.4819 92.5473L41.4959 91.5638L32.2787 91.4701L32.2646 92.4536Z" fill="#FDE4D9"/>
<path d="M36.7186 89.568C36.7233 89.5773 36.7327 89.5914 36.7373 89.6007C36.7795 89.685 36.8076 89.8209 36.6999 89.8724C36.6437 89.9005 36.5828 89.8911 36.5219 89.8771C36.3205 89.8349 36.1332 89.7366 35.9552 89.6288C35.7632 89.5118 35.5618 89.3853 35.44 89.1839C35.3135 88.9778 35.4962 88.7858 35.7116 88.8373C36.091 88.9216 36.5172 89.2073 36.7186 89.568Z" fill="#FDE4D9"/>
<path d="M36.0165 90.0879C36.0211 90.0972 36.0305 90.1113 36.0352 90.1206C36.0773 90.2049 36.1055 90.3408 35.9977 90.3923C35.9415 90.4204 35.8806 90.411 35.8198 90.397C35.6184 90.3548 35.431 90.2565 35.253 90.1487C35.061 90.0317 34.8596 89.9052 34.7379 89.7038C34.6114 89.4977 34.7941 89.3057 35.0095 89.3572C35.3936 89.4415 35.8198 89.7225 36.0165 90.0879Z" fill="#FDE4D9"/>
<path d="M35.159 90.4251C35.1637 90.4345 35.1731 90.4486 35.1778 90.4579C35.2199 90.5422 35.248 90.6781 35.1403 90.7296C35.0841 90.7577 35.0232 90.7483 34.9623 90.7343C34.7609 90.6921 34.5736 90.5937 34.3956 90.486C34.2036 90.3689 34.0022 90.2425 33.8804 90.0411C33.754 89.835 33.9366 89.643 34.1521 89.6945C34.5314 89.7788 34.9577 90.0645 35.159 90.4251Z" fill="#FDE4D9"/>
<path d="M47.8326 91.4698C47.7717 92.088 50.46 93.479 50.9471 93.2963C51.4342 93.1137 53.3919 91.8304 53.5746 91.0061C53.6308 90.7438 53.5324 90.1911 53.3685 89.5495C53.0126 88.1632 52.3522 86.3834 52.3522 86.3834L48.5866 86.3459C48.5866 86.3459 48.1698 89.0811 47.959 90.5565C47.8934 90.992 47.8466 91.3293 47.8326 91.4698Z" fill="#424242"/>
<path d="M47.8326 91.4697C47.7717 92.0879 50.46 93.4789 50.9471 93.2963C51.4342 93.1136 53.3919 91.8303 53.5746 91.006C53.6308 90.7437 53.5324 90.1911 53.3685 89.5494C52.6613 90.3456 51.5092 91.4744 50.7129 91.4697C50.0479 91.465 48.8864 90.992 47.959 90.5564C47.8934 90.992 47.8466 91.3292 47.8326 91.4697Z" fill="#FDE4D9"/>
<path d="M51.1633 87.7607C51.0087 87.8965 50.8214 87.9855 50.6246 88.0605C50.4139 88.1401 50.1938 88.2291 49.9596 88.2056C49.716 88.1822 49.6739 87.9199 49.8472 87.7794C50.1422 87.5312 50.6293 87.3626 51.0368 87.4188C51.0508 87.4188 51.0602 87.4235 51.0743 87.4235C51.1679 87.4422 51.2897 87.4984 51.2663 87.6155C51.2522 87.6764 51.2054 87.7232 51.1633 87.7607Z" fill="#FDE4D9"/>
<path d="M49.9498 89.0765C49.7063 89.0531 49.6641 88.7908 49.8374 88.6503C50.1325 88.4021 50.6196 88.2334 51.027 88.2896C51.0411 88.2896 51.0504 88.2943 51.0645 88.2943C51.1582 88.3131 51.2799 88.3693 51.2565 88.4864C51.2425 88.5473 51.2003 88.5894 51.1535 88.6316C50.9989 88.7674 50.8116 88.8564 50.6149 88.9313C50.4088 89.0156 50.184 89.0999 49.9498 89.0765Z" fill="#FDE4D9"/>
<path d="M50.0528 89.5871C50.3479 89.3388 50.835 89.1702 51.2425 89.2264C51.2565 89.2264 51.2659 89.2311 51.2799 89.2311C51.3736 89.2498 51.4954 89.306 51.4719 89.4231C51.4579 89.484 51.4157 89.5262 51.3689 89.5683C51.2143 89.7041 51.027 89.7931 50.8303 89.8681C50.6195 89.9477 50.3994 90.0367 50.1652 90.0133C49.9264 89.9945 49.8795 89.7322 50.0528 89.5871Z" fill="#FDE4D9"/>
<path d="M46.5679 23.436L44.2449 22.0263L43.8889 21.8109L43.6922 21.8202L41.0226 21.9186L40.8071 21.9279L40.4887 22.0919L38.8447 22.9396C40.8587 25.3657 44.3011 25.3235 46.5679 23.436Z" fill="#FFA07F"/>
<path d="M43.1256 20.9775C42.4044 21.1087 41.6503 20.9682 40.9946 20.6403C41.0368 19.7879 41.0321 18.7622 41.0321 18.7622L43.9031 18.7997C43.9031 18.7997 43.8516 19.7177 43.9265 20.5654C43.7064 20.7902 43.3832 20.926 43.1256 20.9775Z" fill="#FF7D6F"/>
<path d="M43.6502 22.7479C43.9547 22.5278 44.1233 22.1999 44.3294 21.9095C44.3247 21.9049 44.32 21.9002 44.3153 21.9002C44.0858 21.7128 43.9781 21.1555 43.9266 20.5654C43.7064 20.7949 43.388 20.926 43.1257 20.9822C42.4044 21.1133 41.6504 20.9728 40.9947 20.645C40.9712 21.0993 40.9385 21.5068 40.8823 21.6754C40.8542 21.769 40.6949 21.9049 40.4561 22.0641C40.9619 22.5793 41.5099 23.0336 42.1749 23.1928C42.6761 23.324 43.1819 23.0804 43.6502 22.7479Z" fill="#FFA07F"/>
<path d="M44.3247 21.9094C44.32 21.9047 44.3153 21.9 44.3106 21.9C44.3013 21.8907 44.2872 21.8813 44.2779 21.8673C44.2732 21.8626 44.2685 21.8579 44.2638 21.8532C44.2544 21.8392 44.2404 21.8251 44.231 21.8111C44.2263 21.8017 44.217 21.7923 44.2123 21.783C44.2076 21.7736 44.1982 21.7642 44.1936 21.7548C44.1889 21.7455 44.1842 21.7361 44.1795 21.7267C44.1561 21.6846 44.1327 21.6331 44.1139 21.5816C44.1046 21.5628 44.0999 21.5441 44.0952 21.5254C44.0765 21.4645 44.0577 21.4036 44.039 21.3333C44.0343 21.3146 44.0296 21.2959 44.0249 21.2724C44.0203 21.2443 44.0109 21.2162 44.0062 21.1881C44.0015 21.1647 43.9968 21.1413 43.9922 21.1179C43.9922 21.1085 43.9875 21.1038 43.9875 21.0945C43.9828 21.0757 43.9828 21.0617 43.9781 21.043C43.9687 20.9727 43.9594 20.9024 43.95 20.8322C43.95 20.8275 43.95 20.8275 43.95 20.8228C43.9453 20.7947 43.9453 20.7666 43.9406 20.7432C43.9406 20.7292 43.936 20.7104 43.936 20.6964C43.9313 20.6683 43.9313 20.6449 43.9266 20.6167C43.9266 20.6121 43.9266 20.6121 43.9266 20.6074C43.9266 20.5933 43.9219 20.5746 43.9219 20.5605C43.9219 20.5465 43.9219 20.5324 43.9172 20.5184C43.9125 20.4435 43.9079 20.3685 43.9032 20.2936C43.9032 20.2748 43.9032 20.2561 43.8985 20.2327C43.8891 20.0735 43.8844 19.9189 43.8844 19.7737C43.8844 19.7456 43.8844 19.7175 43.8844 19.6941C43.8798 19.1883 43.8985 18.7948 43.8985 18.7948L43.4863 18.7902C43.4676 19.2117 43.4442 20.1016 43.5051 20.8462C43.5379 21.2397 43.5941 21.5956 43.6877 21.8157C43.7299 21.9188 43.7814 21.9937 43.8376 22.0312C43.8938 22.0686 43.9922 22.1295 44.1186 22.2045C44.6244 22.5089 45.5939 23.0756 46.4136 23.5533C46.5025 23.4831 46.5915 23.4128 46.6805 23.3332C45.8047 22.8461 44.6713 22.1857 44.3247 21.9094Z" fill="#FFBF90"/>
<path d="M40.9714 22.0028C40.9902 21.9794 41.0042 21.9513 41.023 21.9232C41.14 21.6937 41.2009 21.2488 41.229 20.7523C41.2712 20.017 41.2431 19.1739 41.2244 18.7712L41.0323 18.7665C41.0323 18.7665 41.0323 18.8929 41.0323 19.0943C41.0323 19.1177 41.0323 19.1412 41.0323 19.1646C41.0323 19.2957 41.0276 19.4503 41.0276 19.6189C41.0276 19.6376 41.0276 19.6564 41.0276 19.6751C41.0276 19.7032 41.0276 19.7313 41.0276 19.7547C41.0276 19.7828 41.0276 19.8156 41.0276 19.8437C41.0276 19.8577 41.0276 19.8671 41.0276 19.8812C41.0276 19.9233 41.0276 19.9655 41.023 20.0076C41.023 20.031 41.023 20.0498 41.023 20.0732C41.023 20.0966 41.023 20.12 41.023 20.1434V20.1481C41.023 20.1669 41.023 20.1856 41.023 20.2043C41.023 20.209 41.023 20.209 41.023 20.2137C41.023 20.2605 41.0183 20.3121 41.0183 20.3589C41.0136 20.4338 41.0136 20.5041 41.0089 20.5743C41.0089 20.5978 41.0042 20.6212 41.0042 20.6446C41.0042 20.6493 41.0042 20.6586 41.0042 20.6633C41.0042 20.6867 41.0042 20.7102 40.9995 20.7289C40.9995 20.771 40.9949 20.8132 40.9949 20.8553C40.9949 20.8975 40.9902 20.935 40.9855 20.9771C40.9714 21.1645 40.9574 21.3284 40.9387 21.4642C40.9387 21.4736 40.9387 21.4783 40.934 21.4876C40.9293 21.511 40.9293 21.5298 40.9246 21.5485C40.9246 21.5579 40.9199 21.5672 40.9199 21.5813C40.9199 21.5907 40.9152 21.6 40.9152 21.6094C40.9152 21.6188 40.9106 21.6281 40.9106 21.6375C40.9059 21.6562 40.9012 21.6703 40.8965 21.6843C40.6483 21.8998 39.7116 22.4337 38.8311 22.9208C38.9013 23.0098 38.9762 23.0941 39.0512 23.1737C39.6881 22.8552 40.3017 22.5227 40.6717 22.2745C40.8075 22.1574 40.9152 22.0684 40.9714 22.0028Z" fill="#FFBF90"/>
<path d="M39.3041 17.3245C38.7187 17.3152 38.2644 16.9124 38.0068 16.5611C37.9506 16.4815 37.9037 16.4066 37.8663 16.341C37.6696 15.9757 37.5197 14.6549 37.9178 14.3177C38.1988 14.0788 38.4423 14.3739 38.5594 14.5706C38.611 14.6549 38.6391 14.7205 38.6391 14.7205L39.3041 17.3245Z" fill="#FFBF90"/>
<path d="M39.3041 17.3245C38.7186 17.3151 38.2643 16.9123 38.0067 16.5611C37.9833 16.5236 37.9646 16.4908 37.9459 16.458C37.7491 16.0927 37.5993 14.7719 37.9974 14.4347C38.2269 14.2427 38.4283 14.3973 38.5594 14.5706C38.6109 14.6549 38.639 14.7204 38.639 14.7204L39.3041 17.3245Z" fill="#FFA07F"/>
<path d="M37.8708 15.3762C37.8568 15.4839 37.8802 15.5917 37.9177 15.6947C38.0675 16.1303 38.4469 16.4394 38.8028 16.7251C38.6858 16.519 38.6296 16.2802 38.6296 16.0413C38.6296 15.957 38.6389 15.8774 38.6296 15.7931C38.6061 15.4605 37.9458 14.7393 37.8708 15.3762Z" fill="#FF7D6F"/>
<path d="M38.9761 16.8375C38.9761 16.8375 38.9714 16.8328 38.9574 16.8234C38.9433 16.814 38.9246 16.8047 38.9012 16.7859C38.8543 16.7532 38.7888 16.697 38.7232 16.608C38.6576 16.5237 38.5967 16.4066 38.5593 16.2661C38.5265 16.1256 38.5171 15.9616 38.564 15.7977C38.5686 15.779 38.578 15.7556 38.5827 15.7368L38.5874 15.7228C38.5874 15.7181 38.5874 15.7228 38.5874 15.7228L38.5827 15.7087L38.5686 15.6853C38.5593 15.6713 38.5499 15.6525 38.5405 15.6385C38.5031 15.5776 38.4656 15.5167 38.4235 15.4652C38.386 15.4137 38.3438 15.3621 38.3017 15.3153C38.2595 15.2732 38.2221 15.231 38.1846 15.1982C38.1471 15.1654 38.1097 15.1514 38.0722 15.1467C38.0347 15.1467 38.0019 15.1561 37.9832 15.1748C37.9598 15.1935 37.9504 15.2123 37.9457 15.2263C37.941 15.2404 37.941 15.2497 37.941 15.2497C37.941 15.2497 37.9364 15.2404 37.941 15.2263C37.941 15.2123 37.9504 15.1888 37.9692 15.1654C37.9926 15.142 38.0254 15.1186 38.0722 15.1139C38.119 15.1092 38.1705 15.1233 38.2174 15.1561C38.2642 15.1842 38.3111 15.2216 38.3579 15.2638C38.4047 15.3059 38.4516 15.3528 38.4984 15.4043C38.5452 15.4558 38.5921 15.5167 38.6342 15.5823C38.6436 15.5963 38.6529 15.6151 38.667 15.6338L38.681 15.6572L38.6998 15.6947L38.7138 15.7181C38.7138 15.7275 38.7092 15.7368 38.7045 15.7462L38.6904 15.7837C38.6857 15.8024 38.6764 15.8164 38.6717 15.8352C38.6295 15.9757 38.6295 16.1209 38.6529 16.252C38.6764 16.3785 38.7185 16.4909 38.77 16.5799C38.8216 16.6689 38.8731 16.7344 38.9105 16.7719C38.9293 16.7953 38.948 16.8094 38.9574 16.8187C38.9714 16.8328 38.9761 16.8375 38.9761 16.8375Z" fill="#CF4A57"/>
<path d="M46.002 16.7904C46.578 16.6874 46.9621 16.2143 47.1588 15.835C47.2009 15.7507 47.2384 15.6664 47.2618 15.5961C47.3977 15.2027 47.3368 13.8772 46.8871 13.6056C46.5733 13.4136 46.3813 13.7414 46.2923 13.9569C46.2549 14.0459 46.2361 14.1161 46.2361 14.1161L46.002 16.7904Z" fill="#FFBF90"/>
<path d="M46.0015 16.7907C46.5775 16.6877 46.9616 16.2146 47.1583 15.8353C47.177 15.7978 47.1911 15.7603 47.2005 15.7228C47.3363 15.3294 47.2754 14.004 46.8258 13.7323C46.5682 13.5778 46.3949 13.7651 46.2918 13.9525C46.2544 14.0415 46.2356 14.1117 46.2356 14.1117L46.0015 16.7907Z" fill="#FFA07F"/>
<path d="M47.1066 14.6405C47.1347 14.7435 47.1301 14.8559 47.1113 14.9637C47.0317 15.418 46.7085 15.7833 46.3994 16.1205C46.4837 15.8957 46.5025 15.6522 46.4603 15.418C46.4463 15.3384 46.4275 15.2541 46.4182 15.1744C46.3947 14.8372 46.9333 14.0223 47.1066 14.6405Z" fill="#FF7D6F"/>
<path d="M46.2446 16.2566C46.2446 16.2566 46.2493 16.2519 46.2634 16.2426C46.2727 16.2332 46.2915 16.2192 46.3149 16.1957C46.357 16.1536 46.4132 16.088 46.4647 15.9944C46.5163 15.9007 46.5584 15.7742 46.5725 15.6337C46.5818 15.4885 46.5678 15.3246 46.4929 15.17C46.4835 15.1513 46.4741 15.1326 46.4647 15.1138L46.4554 15.0998C46.4554 15.0951 46.4554 15.0998 46.4554 15.0998C46.4554 15.0998 46.4554 15.0998 46.4554 15.0951L46.4601 15.0811L46.4694 15.053C46.4741 15.0342 46.4835 15.0202 46.4882 15.0014C46.5163 14.9359 46.5444 14.8703 46.5725 14.8094C46.6053 14.7485 46.6334 14.697 46.6661 14.6455C46.6989 14.594 46.7317 14.5471 46.7598 14.5144C46.7926 14.4769 46.8301 14.4535 46.8629 14.4441C46.9003 14.4347 46.9331 14.4441 46.9565 14.4581C46.9799 14.4722 46.994 14.4862 47.0034 14.5003C47.008 14.5143 47.0127 14.5237 47.0127 14.5237C47.0127 14.5237 47.0127 14.5143 47.008 14.5003C47.0034 14.4862 46.994 14.4628 46.9706 14.4441C46.9472 14.4254 46.9097 14.4066 46.8629 14.4113C46.816 14.416 46.7645 14.4394 46.7223 14.4769C46.6802 14.5143 46.6427 14.5565 46.6006 14.6033C46.5631 14.6502 46.521 14.7064 46.4835 14.7673C46.446 14.8281 46.4132 14.8937 46.3804 14.964C46.3711 14.9827 46.3664 15.0014 46.357 15.0155L46.3477 15.0436L46.3336 15.0811L46.3242 15.1092C46.3289 15.1185 46.3336 15.1279 46.3383 15.1326L46.357 15.17C46.3664 15.1841 46.3758 15.2028 46.3804 15.2169C46.4413 15.3527 46.4648 15.4932 46.4694 15.6244C46.4694 15.7555 46.4413 15.8726 46.4085 15.9663C46.3758 16.0599 46.3336 16.1349 46.3008 16.1817C46.2868 16.2051 46.268 16.2238 46.2587 16.2332C46.2493 16.252 46.2446 16.2566 46.2446 16.2566Z" fill="#CF4A57"/>
<path d="M46.25 13.8726C46.25 13.8726 46.3484 16.4486 45.7442 17.4556C45.2384 18.2986 44.5312 19.6334 43.2713 20.1673C43.0231 20.2704 42.7514 20.2938 42.4892 20.2282C41.159 19.9004 40.2504 18.692 39.6181 17.9426C38.8594 17.0434 38.5503 14.4862 38.5503 14.4862C38.5315 14.3176 38.5175 14.1537 38.5081 13.9897V13.985C38.199 9.11883 41.9974 9.08605 41.9974 9.08605C41.9974 9.08605 45.7208 8.82377 46.2266 13.6197C46.236 13.704 46.2407 13.7883 46.25 13.8726Z" fill="#FFBF90"/>
<path d="M46.2266 13.6197C46.236 14.0319 46.2688 16.2238 45.7208 17.1324C45.215 17.9754 44.5078 19.3102 43.2479 19.8442C42.9997 19.9472 42.728 19.9706 42.4657 19.9051C41.1356 19.5772 40.227 18.3689 39.5947 17.6195C38.836 16.7202 38.5269 14.163 38.5269 14.163C38.5222 14.1021 38.5128 14.0459 38.5081 13.9897V13.985C38.199 9.11883 41.9974 9.08605 41.9974 9.08605C41.9974 9.08605 45.7161 8.82377 46.2266 13.6197Z" fill="#FFA07F"/>
<path d="M39.5386 13.2918C39.6135 13.4464 39.8243 13.5541 39.9741 13.615C40.0397 13.526 40.1287 13.4698 40.2271 13.4604C40.4753 13.4417 40.7001 13.7508 40.7329 14.1536C40.761 14.5517 40.583 14.8936 40.3348 14.9123C40.0865 14.9311 39.8617 14.6219 39.829 14.2192C39.8196 14.0974 39.829 13.9756 39.8571 13.8726C39.6557 13.718 39.5386 13.2918 39.5386 13.2918Z" fill="#161818"/>
<path d="M40.3111 14.2611C40.3111 14.2611 40.0395 14.3829 39.7491 14.322C39.4587 14.2611 39.2573 14.0456 39.2573 14.0456C39.2573 14.0456 39.529 13.9239 39.8193 13.9848C40.1097 14.041 40.3111 14.2611 40.3111 14.2611Z" fill="white"/>
<path d="M44.9012 12.9499C44.8543 13.1138 44.6576 13.2543 44.5218 13.3386C44.4422 13.259 44.3438 13.2169 44.2501 13.2262C44.0019 13.2496 43.8286 13.5915 43.8614 13.9896C43.8942 14.3877 44.1284 14.6969 44.3766 14.6734C44.6248 14.65 44.7981 14.3081 44.7653 13.91C44.756 13.7882 44.7232 13.6712 44.681 13.5728C44.8543 13.3901 44.9012 12.9499 44.9012 12.9499Z" fill="#161818"/>
<path d="M44.2969 14.0268C44.2969 14.0268 44.5826 14.1018 44.8636 13.9987C45.1399 13.8957 45.3085 13.6475 45.3085 13.6475C45.3085 13.6475 45.0228 13.5725 44.7418 13.6756C44.4608 13.7833 44.2969 14.0268 44.2969 14.0268Z" fill="white"/>
<path d="M42.3953 15.3759C42.592 15.3666 42.784 15.4743 42.8824 15.6429C42.8964 15.6616 42.9058 15.6897 42.9011 15.7131C42.8917 15.7506 42.8543 15.7694 42.8215 15.7787C42.5826 15.8677 42.325 15.9099 42.0674 15.8911C41.6038 15.8677 42.1705 15.39 42.3953 15.3759Z" fill="#FF7D6F"/>
<path d="M42.1843 15.7696C42.1843 15.7696 42.1843 15.7415 42.1843 15.6947C42.1843 15.6713 42.1843 15.6385 42.1843 15.6057C42.1843 15.5729 42.1843 15.5308 42.1796 15.4886C42.1796 15.4465 42.175 15.3996 42.175 15.3481C42.175 15.2966 42.1703 15.2451 42.1656 15.1935C42.1562 15.0858 42.1469 14.964 42.1375 14.8376C42.1234 14.7111 42.1094 14.594 42.1 14.4863C42.0907 14.4301 42.086 14.3786 42.0766 14.3318C42.0719 14.2849 42.0625 14.2381 42.0532 14.1959C42.0485 14.1538 42.0391 14.1163 42.0344 14.0835C42.0298 14.0508 42.0251 14.0227 42.0204 13.9946C42.011 13.9477 42.0063 13.9196 42.0063 13.9196C42.0063 13.9196 42.0251 13.9384 42.0532 13.9805C42.0672 13.9992 42.086 14.0227 42.1047 14.0554C42.1234 14.0835 42.1469 14.121 42.1656 14.1585C42.189 14.1959 42.2077 14.2428 42.2312 14.2896C42.2546 14.3365 42.2733 14.388 42.292 14.4442C42.3295 14.5566 42.3576 14.683 42.3717 14.8189C42.3857 14.9547 42.381 15.0858 42.367 15.2029C42.3576 15.2591 42.3482 15.3153 42.3389 15.3668C42.3295 15.4184 42.3155 15.4652 42.3014 15.5073C42.2874 15.5495 42.2733 15.587 42.2593 15.6197C42.2452 15.6525 42.2358 15.6806 42.2218 15.7041C42.1984 15.7462 42.1843 15.7696 42.1843 15.7696Z" fill="#FC5B68"/>
<path d="M44.2359 16.5751C44.2359 16.5751 42.2969 16.2754 40.9902 17.6149C40.9902 17.6149 42.1424 18.7155 42.9761 18.4204C43.9924 18.0692 44.2359 16.5751 44.2359 16.5751Z" fill="#FC5B68"/>
<path d="M44.156 16.6454C44.156 16.6454 42.9008 16.6923 41.0977 17.6103C41.0977 17.6103 41.8845 18.5329 42.9758 18.1301C44.067 17.7227 44.156 16.6454 44.156 16.6454Z" fill="white"/>
<path d="M46.0298 16.1535C46.0298 16.1535 46.0345 16.0926 46.0485 15.9896C46.0532 15.9615 46.0532 15.9334 46.0579 15.9053C46.0626 15.8725 46.0626 15.8397 46.0673 15.8022C46.0719 15.7273 46.086 15.6477 46.0907 15.554C46.0954 15.5072 46.1 15.4603 46.1047 15.4088C46.1094 15.3573 46.1094 15.3058 46.1141 15.2543C46.1235 15.1465 46.1281 15.0341 46.1328 14.9124C46.1422 14.6735 46.1516 14.4112 46.1562 14.1396C46.1609 13.8679 46.1562 13.6057 46.1516 13.3668C46.1469 13.245 46.1469 13.1326 46.1422 13.0249C46.1375 12.9734 46.1375 12.9172 46.1375 12.8703C46.1328 12.8188 46.1328 12.772 46.1281 12.7252C46.1235 12.6315 46.1188 12.5472 46.1141 12.4769C46.1094 12.4395 46.1094 12.4067 46.1094 12.3739C46.1047 12.3411 46.1047 12.313 46.1 12.2849C46.0907 12.1819 46.086 12.121 46.086 12.121C46.086 12.121 46.1094 12.1725 46.1516 12.2662C46.1609 12.2896 46.175 12.3177 46.1843 12.3458C46.1984 12.3739 46.2078 12.4067 46.2218 12.4441C46.2452 12.5144 46.278 12.594 46.3014 12.683C46.3155 12.7298 46.3295 12.7767 46.3436 12.8235C46.3576 12.875 46.367 12.9265 46.3811 12.9781C46.4092 13.0858 46.4279 13.2029 46.4513 13.3293C46.4888 13.5776 46.5122 13.8586 46.5122 14.1536C46.5075 14.444 46.4747 14.7203 46.4279 14.9686C46.4045 15.0903 46.381 15.2074 46.3483 15.3105C46.3342 15.362 46.3202 15.4135 46.3061 15.465C46.2921 15.5119 46.2733 15.5587 46.2593 15.6055C46.2312 15.6945 46.1984 15.7695 46.1703 15.8397C46.1562 15.8725 46.1422 15.9053 46.1328 15.9334C46.1188 15.9615 46.1094 15.9849 46.0954 16.0083C46.0532 16.102 46.0298 16.1535 46.0298 16.1535Z" fill="#E94E21"/>
<path d="M39.3089 17.4694C39.3089 17.4694 39.2808 17.4226 39.234 17.3289C39.1871 17.2399 39.1169 17.1041 39.0419 16.9402C38.967 16.7715 38.8827 16.5702 38.8031 16.336C38.7235 16.1018 38.6485 15.8442 38.5829 15.5632C38.5221 15.2822 38.4799 15.0152 38.4518 14.767C38.4237 14.5188 38.4143 14.2939 38.4097 14.1066C38.405 13.9193 38.4097 13.7647 38.4143 13.6617C38.419 13.5586 38.4237 13.4977 38.4237 13.4977C38.4237 13.4977 38.4424 13.5539 38.4705 13.6523C38.4986 13.7553 38.5408 13.9005 38.5876 14.0785C38.6345 14.2565 38.6907 14.4672 38.7469 14.7014C38.8031 14.9356 38.8686 15.1932 38.9248 15.4648C38.9857 15.7365 39.0373 15.9941 39.0841 16.2329C39.1309 16.4718 39.1684 16.6872 39.2059 16.8699C39.2386 17.0526 39.2621 17.2024 39.2808 17.3055C39.3042 17.4085 39.3089 17.4694 39.3089 17.4694Z" fill="#E94E21"/>
<path d="M40.4141 16.3594C40.3626 16.5327 39.8989 16.5514 39.3791 16.4016C38.8545 16.2517 38.4751 15.9894 38.522 15.8161C38.5735 15.6428 39.0372 15.6241 39.557 15.774C40.0816 15.9238 40.461 16.1861 40.4141 16.3594Z" fill="#FF7D6F"/>
<path d="M46.4934 15.1511C46.5777 15.3103 46.2498 15.6428 45.7674 15.8911C45.285 16.1393 44.826 16.2096 44.7417 16.0503C44.6574 15.8911 44.9853 15.5585 45.4677 15.3103C45.9501 15.0621 46.4091 14.9918 46.4934 15.1511Z" fill="#FF7D6F"/>
<path d="M42.3953 11.2367C42.578 11.513 42.756 11.7894 42.9386 12.0657C41.4165 11.7191 40.5969 11.4756 39.7585 10.1595C39.8006 12.1078 38.9763 14.0656 37.5151 15.3442C37.3933 14.9367 37.2809 14.5199 37.1919 14.103C36.9671 13.0399 36.9156 11.9627 37.3746 10.9932C37.6977 10.3047 38.2598 9.73328 38.9436 9.40075C39.1309 8.6467 39.7444 7.91138 40.4282 7.54138C41.112 7.17138 41.9129 7.05429 42.681 7.12923C43.2243 7.18543 43.7583 7.33062 44.2407 7.57885C45.2336 8.09872 45.9595 9.05885 46.3529 10.1127C46.4326 10.3234 46.5028 10.6091 46.5731 10.9276C46.84 12.1922 47.0086 14.0094 47.0086 14.0094C47.0086 14.0094 43.6833 12.1687 42.3953 11.2367Z" fill="#E94E21"/>
<path d="M38.6343 12.9263C38.6343 12.9263 40.578 12.1254 41.065 12.6827C41.3507 13.0106 41.0369 13.1136 41.0369 13.1136L38.6343 12.9263Z" fill="#FF8035"/>
<path d="M45.7861 12.3177C45.7861 12.3177 43.7394 11.8352 43.346 12.4628C43.1165 12.8282 43.4397 12.8844 43.4397 12.8844L45.7861 12.3177Z" fill="#FF8035"/>
<path d="M44.3405 10.7115C43.179 10.4446 42.0783 9.96215 41.0199 9.42354C41.0386 9.69987 41.0854 9.9762 41.165 10.2385C40.5187 10.0184 39.9005 9.72329 39.3197 9.36734C39.3057 10.3603 39.0106 11.3485 38.4814 12.1868C38.4861 11.8777 38.3971 11.5686 38.2285 11.311C38.2753 11.3813 38.1629 11.7325 38.1488 11.8168C38.1161 11.9948 38.0786 12.1681 38.0364 12.3414C37.8866 12.9409 37.6571 13.5357 37.2636 14.0181C37.2449 14.0415 37.2215 14.0696 37.1981 14.0977C37.0482 13.3999 36.9779 12.6927 37.0763 12.0136C37.1278 11.6623 37.2215 11.3204 37.3807 10.9879C37.7039 10.3087 38.2612 9.73734 38.9357 9.40481C38.9404 9.40013 38.945 9.40013 38.9497 9.40013C39.0481 8.99734 39.2729 8.60392 39.5586 8.26202C39.8115 7.96227 40.1112 7.70936 40.4344 7.53607C41.1182 7.16607 41.9191 7.04898 42.6872 7.12392C43.2305 7.18012 43.7644 7.32531 44.2468 7.57354C44.9634 7.94822 45.5395 8.5524 45.9516 9.25494C46.1156 9.52658 46.2467 9.81228 46.3591 10.1073C46.4387 10.3181 46.509 10.6038 46.5792 10.9223C45.8252 10.9644 45.0665 10.8801 44.3405 10.7115Z" fill="#FF8035"/>
<path d="M38.9292 9.40424C38.9292 9.42297 38.9245 9.43702 38.9198 9.45107C38.8402 9.94753 38.6435 10.4393 38.2782 10.7906C38.2688 10.6454 38.2594 10.5049 38.2454 10.3597C37.9503 10.9685 37.5475 11.5353 37.0698 12.0177C37.1213 11.6664 37.215 11.3245 37.3743 10.992C37.6974 10.3082 38.2548 9.74145 38.9292 9.40424Z" fill="#FFA049"/>
<path d="M40.7231 7.97109C40.7512 8.1678 40.784 8.35983 40.8168 8.55185C40.3859 8.51907 39.955 8.42071 39.5522 8.26147C39.8052 7.96172 40.1049 7.70881 40.4281 7.53552C41.1119 7.16552 41.9128 7.04843 42.6809 7.12337C43.2242 7.17957 43.7581 7.32476 44.2405 7.57299C44.9571 7.94768 45.5331 8.55185 45.9453 9.25439C44.1562 9.48388 42.2921 8.90312 40.7231 7.97109Z" fill="#FFA049"/>
<path d="M38.0115 7.07667L38.1426 11.7836C38.152 12.1068 38.419 12.3597 38.7421 12.3503L46.3342 12.1349C46.6573 12.1255 46.9102 11.8586 46.9009 11.5354L46.7697 6.82844C46.7604 6.50527 46.4934 6.25236 46.1702 6.26173L38.5782 6.47717C38.255 6.48654 38.0021 6.7535 38.0115 7.07667Z" fill="#254F79"/>
<path d="M45.2476 7.46087C45.2523 7.70441 45.4584 7.89644 45.6973 7.88707C45.9408 7.88239 46.1328 7.67631 46.1235 7.43745C46.1141 7.19859 45.9127 7.00188 45.6738 7.01125C45.4303 7.01593 45.243 7.21732 45.2476 7.46087Z" fill="#FDE4D9"/>
<path d="M38.8405 7.69941C39.1403 8.046 36.5503 9.82106 36.5503 9.82106L36.7563 10.6641L37.9085 10.0225L39.8288 9.99904C39.8288 9.99904 39.988 10.3363 40.1613 10.7578C40.18 10.7952 40.1941 10.8374 40.2081 10.8749C40.2081 10.8795 40.2128 10.8795 40.2128 10.8842C40.2175 10.8936 40.2222 10.9123 40.2269 10.9217C40.2456 10.9685 40.269 11.0201 40.2831 11.0716C40.3627 11.2823 40.4376 11.4978 40.4891 11.6945C40.4938 11.7179 40.5032 11.746 40.5125 11.7647C40.5407 11.8865 40.5594 11.9989 40.5687 12.0973C40.5781 12.205 40.5734 12.2893 40.5406 12.3549L39.0841 12.6921C39.0841 12.6921 38.1848 14.5515 37.9272 14.7294C37.8242 14.7997 37.2809 14.8278 36.6627 14.8372C36.4425 14.8372 36.2224 14.8372 36.0023 14.8372C36.0023 14.8372 35.9976 14.8372 35.9836 14.8372C35.9086 14.8325 35.829 14.8372 35.7541 14.8372L35.0047 14.1721L34.7705 11.9896C34.7799 11.9427 34.7939 11.8959 34.808 11.8444C34.8501 11.6711 34.911 11.465 34.9813 11.2402C35.0281 11.0997 35.0749 10.9545 35.1265 10.8046C35.3138 10.2613 35.5573 9.68992 35.8384 9.29651C35.9554 9.1279 36.0819 8.98739 36.213 8.90309C37.131 8.28954 38.5408 7.35751 38.8405 7.69941Z" fill="#FFA07F"/>
<path d="M40.1613 10.767C40.1847 10.8185 40.2035 10.8747 40.2269 10.9309C40.2128 10.9356 40.1988 10.9356 40.1894 10.9356C39.9693 10.959 39.6695 10.9918 39.3464 11.0387C39.0232 11.0855 38.7328 11.1464 38.5221 11.2166C38.4706 11.2354 38.4237 11.2494 38.3816 11.2682C38.3394 11.2869 38.302 11.3009 38.2738 11.315C38.213 11.3431 38.1802 11.3571 38.1802 11.3571C38.1802 11.3571 38.2036 11.329 38.2504 11.2775C38.2738 11.2541 38.302 11.2213 38.3394 11.1885C38.3769 11.1558 38.419 11.123 38.4706 11.0855C38.6673 10.9356 38.9811 10.7858 39.337 10.7389C39.6555 10.678 39.9459 10.7155 40.1613 10.767Z" fill="#CF4A57"/>
<path d="M40.4843 11.6991C40.4937 11.7225 40.4984 11.7459 40.5031 11.7694C40.4422 11.774 40.3579 11.7834 40.2595 11.7928C40.0394 11.8162 39.7397 11.849 39.4165 11.8911C39.0933 11.938 38.8076 11.9988 38.5922 12.0691C38.5407 12.0878 38.4892 12.1066 38.447 12.1206C38.4048 12.1394 38.3674 12.1534 38.3393 12.1675C38.2784 12.1909 38.2456 12.2096 38.2456 12.2096C38.2456 12.2096 38.269 12.1815 38.3159 12.13C38.3393 12.1066 38.3674 12.0738 38.4048 12.041C38.4423 12.0082 38.4845 11.9754 38.536 11.938C38.7327 11.7928 39.0465 11.6429 39.4024 11.5914C39.7537 11.5445 40.0675 11.5867 40.283 11.6429C40.3673 11.6616 40.4328 11.6804 40.4843 11.6991Z" fill="#CF4A57"/>
<path d="M46.0953 7.80733C45.7955 8.15391 48.3855 9.92898 48.3855 9.92898L48.1795 10.772L47.0273 10.1304L45.1071 10.107C45.1071 10.107 44.9478 10.4442 44.7745 10.8657C44.7558 10.9032 44.7417 10.9453 44.7277 10.9828C44.7277 10.9875 44.723 10.9875 44.723 10.9921C44.7183 11.0015 44.7136 11.0202 44.709 11.0296C44.6902 11.0765 44.6668 11.128 44.6528 11.1795C44.5731 11.3902 44.4982 11.6057 44.4467 11.8024C44.442 11.8258 44.4326 11.8539 44.4233 11.8727C44.3952 11.9944 44.3764 12.1068 44.3671 12.2052C44.3577 12.3129 44.3624 12.3972 44.3952 12.4628L45.8517 12.8C45.8517 12.8 46.751 14.6594 47.0086 14.8373C47.1116 14.9076 47.6549 14.9357 48.2731 14.9451C48.4933 14.9451 48.7134 14.9451 48.9335 14.9451C48.9335 14.9451 48.9382 14.9451 48.9523 14.9451C49.0272 14.9404 49.1068 14.9451 49.1818 14.9451L50.1325 14.2379L50.1606 12.0975C50.1512 12.0506 50.1372 12.0038 50.1231 11.9523C50.081 11.779 50.0201 11.5729 49.9499 11.3481C49.903 11.2076 49.8562 11.0624 49.8047 10.9125C49.6173 10.3692 49.3738 9.79784 49.0928 9.40442C48.9757 9.23582 48.8492 9.09531 48.7181 9.011C47.8048 8.40214 46.395 7.47011 46.0953 7.80733Z" fill="#FFA07F"/>
<path d="M44.7746 10.875C44.7511 10.9265 44.7324 10.9827 44.709 11.0389C44.723 11.0436 44.7371 11.0436 44.7465 11.0436C44.9666 11.067 45.2663 11.0998 45.5895 11.1466C45.9127 11.1935 46.203 11.2543 46.4138 11.3246C46.4653 11.3433 46.5122 11.3574 46.5543 11.3761C46.5965 11.3949 46.6339 11.4089 46.662 11.423C46.7229 11.4511 46.7557 11.4651 46.7557 11.4651C46.7557 11.4651 46.7323 11.437 46.6854 11.3855C46.662 11.3621 46.6339 11.3293 46.5965 11.2965C46.559 11.2637 46.5168 11.2309 46.4653 11.1935C46.2686 11.0436 45.9548 10.8937 45.5989 10.8469C45.2804 10.7907 44.9853 10.8281 44.7746 10.875Z" fill="#CF4A57"/>
<path d="M44.4514 11.8116C44.442 11.835 44.4373 11.8584 44.4326 11.8818C44.4935 11.8865 44.5778 11.8959 44.6762 11.9053C44.8963 11.9287 45.196 11.9615 45.5192 12.0036C45.8424 12.0504 46.1281 12.1113 46.3435 12.1816C46.395 12.2003 46.4465 12.2191 46.4887 12.2331C46.5309 12.2518 46.5683 12.2659 46.5964 12.2799C46.6573 12.3034 46.6901 12.3221 46.6901 12.3221C46.6901 12.3221 46.6667 12.294 46.6198 12.2425C46.5964 12.2191 46.5683 12.1863 46.5308 12.1535C46.4934 12.1207 46.4512 12.0879 46.3997 12.0504C46.203 11.9053 45.8892 11.7554 45.5333 11.7039C45.1773 11.657 44.8682 11.6992 44.6527 11.7554C44.5684 11.7694 44.5029 11.7929 44.4514 11.8116Z" fill="#CF4A57"/>
<path d="M49.5376 61.1719H42.3905L41.9362 57.6733L41.065 57.7716V61.2047L39.7349 61.2375L34.4612 61.3686C33.9554 58.1088 33.6463 55.0645 33.4964 53.4347C33.4261 52.6525 33.3887 52.1982 33.3887 52.1982L48.8538 51.8422L49.9685 51.8141C49.9685 51.8141 50.0715 52.4839 50.1652 53.2707C50.2448 53.9171 50.3197 54.6383 50.3385 55.1348C50.3712 56.2401 49.5376 61.1719 49.5376 61.1719Z" fill="#82473E"/>
<path d="M50.3385 55.1391C50.3244 54.6426 50.2495 53.9167 50.1652 53.275C50.0715 52.4882 49.9685 51.8184 49.9685 51.8184L33.3887 52.1978C33.3887 52.1978 33.4215 52.6521 33.4964 53.4342C36.6203 53.4811 44.4934 53.5607 49.1629 53.3312C49.3268 54.2164 49.458 55.1063 49.3877 55.4716C49.2612 56.146 48.835 59.743 48.6664 61.1715H49.5376C49.5376 61.1715 50.3712 56.2397 50.3385 55.1391Z" fill="#59302D"/>
<path d="M39.7349 61.2408L41.065 61.208V57.7749L41.9408 57.6766L42.7839 56.3464L39.7349 56.59V61.2408Z" fill="#59302D"/>
<path d="M51.2991 49.627C50.8917 50.5871 49.9737 51.8142 49.9737 51.8142C47.8989 52.3949 33.3939 52.1935 33.3939 52.1935C33.3939 52.1935 32.1434 51.0414 31.9467 50.3997C31.7874 49.5005 33.3986 39.6978 34.6678 32.2931C32.9771 32.7006 28.6401 33.7122 28.0172 33.5062C27.6987 33.3984 26.8791 32.5741 26.022 31.5016C27.0851 31.9793 28.1249 32.3727 28.6026 32.3212C29.366 32.2369 32.7288 31.2393 34.9676 30.5602C35.375 30.4337 35.7497 30.3213 36.0588 30.2277C36.6536 30.045 37.0283 29.9279 37.0283 29.9279C37.0283 29.9279 34.2838 46.119 35.7497 47.8051C37.0377 49.2851 44.7328 51.2147 51.2991 49.627Z" fill="#F79244"/>
<path d="M21.6243 21.7462C21.5072 22.4675 21.0997 23.1138 20.6267 23.6712C18.9453 25.6523 16.374 26.7576 13.7934 26.5328C13.7606 26.5328 13.7325 26.5281 13.6997 26.5281C14.0182 24.8186 14.88 23.2215 16.1305 22.0179C17.381 20.8142 19.0155 20.0133 20.7297 19.7651C20.8936 19.8822 21.0435 20.0367 21.1747 20.21C21.5119 20.6503 21.7086 21.2263 21.6243 21.7462Z" fill="#3F0727"/>
<path d="M21.1747 20.2046C21.1278 20.2796 21.081 20.3545 21.0342 20.4201C20.5002 21.1929 19.9007 21.9141 19.2404 22.5839C18.0554 23.7922 16.6972 24.8273 15.2546 25.7031C14.7769 25.9935 14.2758 26.2464 13.7934 26.5274C13.7606 26.5274 13.7325 26.5228 13.6997 26.5228C13.7044 26.5134 13.7044 26.504 13.7044 26.49C14.0276 24.7945 14.8846 23.2068 16.1305 22.0125C17.381 20.8088 19.0155 20.0079 20.7297 19.7597C20.8421 19.8393 20.9452 19.9377 21.0435 20.0454C21.0904 20.0969 21.1325 20.1484 21.1747 20.2046Z" fill="#55062C"/>
<path d="M21.0494 20.0511L16.5672 23.0861C15.5134 24.1305 14.5533 25.2733 13.7056 26.4957C14.0287 24.8003 14.8858 23.2125 16.1316 22.0182C17.3822 20.8146 19.0167 20.0137 20.7309 19.7654C20.8433 19.8451 20.951 19.9434 21.0494 20.0511Z" fill="#6F0A32"/>
<path d="M26.7385 22.1437C26.8556 22.8649 27.2631 23.5113 27.7361 24.0686C29.4175 26.0498 31.9888 27.1551 34.5694 26.9303C34.6022 26.9303 34.6303 26.9256 34.6631 26.9256C34.3446 25.2161 33.4828 23.619 32.2323 22.4153C30.9818 21.2117 29.3473 20.4108 27.6331 20.1625C27.4692 20.2796 27.3193 20.4342 27.1881 20.6075C26.8462 21.0477 26.6542 21.6238 26.7385 22.1437Z" fill="#3F0727"/>
<path d="M27.1836 20.6028C27.2304 20.6777 27.2773 20.7526 27.3241 20.8182C27.858 21.591 28.4575 22.3123 29.1179 22.982C30.3028 24.1904 31.6611 25.2254 33.1036 26.1013C33.5813 26.3917 34.0825 26.6446 34.5649 26.9256C34.5977 26.9256 34.6258 26.9209 34.6585 26.9209C34.6539 26.9115 34.6539 26.9022 34.6539 26.8881C34.3307 25.1927 33.4736 23.6049 32.2278 22.4106C30.9773 21.207 29.3427 20.4061 27.6285 20.1578C27.5161 20.2375 27.4131 20.3358 27.3147 20.4435C27.2679 20.4997 27.2257 20.5513 27.1836 20.6028Z" fill="#55062C"/>
<path d="M27.3145 20.4481L31.7966 23.483C32.8504 24.5274 33.8105 25.6702 34.6583 26.8926C34.3351 25.1972 33.478 23.6094 32.2322 22.4151C30.9817 21.2115 29.3471 20.4106 27.6329 20.1624C27.5205 20.242 27.4128 20.3403 27.3145 20.4481Z" fill="#6F0A32"/>
<path d="M19.2964 33.9041L18.547 34.3444L17.1466 35.164L16.9499 31.1127C13.648 31.2158 6.97861 31.2064 6.57114 29.4594C6.16367 27.6937 9.33912 18.5046 9.92925 16.8232L9.93861 16.8045L10.0417 16.5656L11.0861 16.8888L12.1774 17.226L12.8658 17.4368L12.8518 17.5632L12.8331 17.7131L11.7184 26.3121C11.7184 26.3121 16.7907 25.8344 18.0131 25.6892C18.0224 25.6845 18.0271 25.6845 18.0271 25.6845C18.0271 25.6845 19.0481 29.8903 18.7765 31.0331H18.7718L19.2964 33.9041Z" fill="#FFA07F"/>
<path d="M18.5421 34.3444L17.1417 35.164L16.945 31.1127C13.6431 31.2158 6.97372 31.2064 6.56625 29.4594C6.15879 27.6937 9.33424 18.5046 9.92437 16.8232L9.93373 16.8045L10.0368 16.5656L11.0859 16.8794C11.0859 16.8794 11.0859 16.8841 11.0812 16.8888C10.9735 17.2026 7.33436 27.6563 7.62942 28.5134C7.93385 29.3798 17.0855 29.8529 17.0855 29.8529L18.5421 34.3444Z" fill="#FF7D6F"/>
<path d="M17.6711 13.7648C17.6383 13.821 17.6055 13.8772 17.5681 13.9287C17.2683 14.3596 16.7578 14.5751 16.341 14.8889C15.7696 15.3198 15.3527 15.9614 14.7111 16.2799C14.1631 16.5515 13.5355 16.5515 12.9267 16.603C12.7393 16.6171 12.5426 16.6405 12.4021 16.767C12.3506 16.8091 12.3084 16.8653 12.271 16.9262C12.2288 17.0012 12.196 17.0808 12.1632 17.1604C12.1586 17.1744 12.1539 17.1932 12.1492 17.2072L12.1679 17.2166L10.0322 16.5609L10.5099 15.4228L10.2711 14.6828C10.168 14.1301 11.6762 9.09531 12.0274 9.09531C12.1211 9.09531 12.2288 9.10468 12.3272 9.11873C12.4068 9.12809 12.477 9.14683 12.5426 9.15619C12.6082 9.17025 12.6738 9.1843 12.7206 9.19366C12.7908 9.20771 12.833 9.22177 12.833 9.22177C12.833 9.22177 13.0203 9.16088 13.2405 9.11873C13.2732 9.10936 13.306 9.10468 13.3388 9.09999C13.3716 9.09063 13.4091 9.08594 13.4419 9.08594C13.4746 9.08126 13.5074 9.07657 13.5449 9.07657C13.5777 9.07189 13.6105 9.07189 13.6432 9.07189C13.7791 9.06721 13.8962 9.09999 13.9524 9.17025C14.0086 9.2405 14.0226 9.57303 14.0179 10.0086C14.0039 11.0905 13.8681 12.8 13.9805 12.7344C14.135 12.6454 15.3574 9.05784 15.3574 9.05784C15.3574 9.05784 15.4652 9.00632 15.6197 9.00164C15.7134 8.99695 15.8258 9.01101 15.9429 9.06252C16.2567 9.19366 15.2076 14.5798 15.2076 14.5798C15.896 14.0458 16.7719 13.7461 17.6383 13.7601C17.6571 13.7648 17.6617 13.7648 17.6711 13.7648Z" fill="#FFA07F"/>
<path d="M17.887 13.9616C17.8729 14.1957 17.7511 14.4065 17.5872 14.5751C17.5591 14.6032 17.531 14.6313 17.5029 14.6594C17.4701 14.6875 17.442 14.7109 17.4092 14.7297C17.161 14.917 16.8706 15.0388 16.6037 15.198C16.2805 15.3854 16.0135 15.643 15.7747 15.9193C15.681 16.0317 15.5873 16.1441 15.4937 16.2612C15.4468 16.3221 15.4 16.3783 15.3579 16.4392C15.3297 16.4766 15.297 16.5094 15.2689 16.5422C15.2361 16.575 15.2033 16.6031 15.1658 16.6359C14.8708 16.8654 14.4539 16.9825 14.0605 17.0433C14.023 17.048 13.9856 17.0527 13.9481 17.0574C13.8497 17.0714 13.7561 17.0761 13.6671 17.0855C13.6249 17.0855 13.5828 17.0902 13.5359 17.0902C13.1847 17.1042 12.9224 17.0855 12.9224 17.0855C12.9224 17.0855 12.9224 17.0855 12.9224 17.0902C12.9224 17.0902 12.8896 17.2307 12.8662 17.3946C12.8615 17.404 12.8615 17.418 12.8568 17.4321L12.8381 17.5492L12.173 17.2213L12.1543 17.2119C12.159 17.1979 12.1637 17.1792 12.1683 17.1651C12.2011 17.0855 12.2339 17.0059 12.2761 16.9309C12.3135 16.87 12.3557 16.8185 12.4072 16.7717C12.5477 16.6452 12.7444 16.6218 12.9318 16.6078C13.5359 16.5562 14.1682 16.5516 14.7162 16.2846C15.3578 15.9661 15.7747 15.3245 16.3461 14.8936C16.7629 14.5798 17.2734 14.3643 17.5732 13.9335C17.606 13.8819 17.6387 13.8257 17.6762 13.7695C17.7324 13.7742 17.798 13.7836 17.8401 13.8211C17.8495 13.8257 17.8542 13.8304 17.8589 13.8398C17.8636 13.8445 17.8682 13.8445 17.8682 13.8492C17.8729 13.8538 17.8729 13.8585 17.8776 13.8632C17.8823 13.8679 17.8823 13.8773 17.887 13.8819C17.887 13.9007 17.887 13.9288 17.887 13.9616Z" fill="#FFA07F"/>
<path d="M14.0228 10.0084C13.7418 10.1536 13.3859 10.2332 13.1376 10.383C12.7489 10.6219 12.4117 10.9498 12.1681 11.3338C11.77 11.9661 11.6202 12.7295 11.5593 13.4695C11.4937 14.2142 11.5031 14.9682 11.3813 15.7036C11.3157 16.1017 11.2127 16.4904 11.0862 16.8698L10.0371 16.556L10.5148 15.4179L10.276 14.6779C10.1729 14.1252 11.681 9.09038 12.0323 9.09038C12.126 9.09038 12.2337 9.09975 12.3321 9.1138C12.4866 9.13722 12.6318 9.17 12.7255 9.18874C12.7957 9.20279 12.8379 9.21684 12.8379 9.21684C12.8379 9.21684 13.0252 9.15595 13.2453 9.1138C13.3765 9.0857 13.5217 9.06697 13.6481 9.06697C13.784 9.06228 13.901 9.09507 13.9572 9.16532C14.0134 9.24026 14.0275 9.56811 14.0228 10.0084Z" fill="#FF7D6F"/>
<path d="M13.2451 9.11842C13.2264 9.21677 13.2077 9.31513 13.1936 9.41348C13.0999 9.99893 13.0859 10.5422 13.0952 10.931C13.1046 11.2963 13.1327 11.5351 13.1374 11.5632C13.1468 11.5351 13.2123 11.3103 13.2966 10.9544C13.3856 10.575 13.5027 10.0551 13.5917 9.47905C13.6151 9.33855 13.6339 9.20272 13.6526 9.07158C13.5215 9.0669 13.3763 9.09032 13.2451 9.11842Z" fill="#CF4A57"/>
<path d="M12.3273 9.11761C12.1587 10.0496 12.1868 10.8224 12.1868 10.8739C12.2055 10.8271 12.524 10.1199 12.7207 9.19255C12.6271 9.16913 12.4819 9.13635 12.3273 9.11761Z" fill="#CF4A57"/>
<path d="M17.887 13.9615C17.8729 14.1957 17.7511 14.4064 17.5872 14.575C17.5591 14.6031 17.531 14.6312 17.5029 14.6593C17.4701 14.6874 17.442 14.7108 17.4092 14.7296C17.161 14.9169 16.8706 15.0387 16.6037 15.1979C16.2805 15.3853 16.0135 15.6429 15.7747 15.9192C15.6763 16.0316 15.5827 16.144 15.4937 16.2611C15.4468 16.322 15.4 16.3782 15.3579 16.4391C15.3297 16.4765 15.297 16.5093 15.2689 16.5421C15.2361 16.5749 15.2033 16.603 15.1658 16.6358C14.8708 16.8653 14.4539 16.9824 14.0605 17.0433C14.023 17.0479 13.9856 17.0526 13.9481 17.0573C13.8497 17.0714 13.7561 17.076 13.6671 17.0854C13.6249 17.0854 13.5828 17.0901 13.5359 17.0901C13.18 17.1088 12.9224 17.0854 12.9224 17.0854C12.9224 17.0854 12.8896 17.2259 12.8662 17.3898C12.8615 17.3992 12.8615 17.4133 12.8568 17.4273L12.8381 17.5444L12.173 17.2166L12.1543 17.2072C12.159 17.1931 12.1637 17.1744 12.1683 17.1603C12.2011 17.0807 12.2339 17.0011 12.2761 16.9262C12.3135 16.8653 12.3557 16.8138 12.4072 16.7669C12.5477 16.6405 12.7444 16.6171 12.9318 16.603C13.5359 16.5515 14.1682 16.5468 14.7162 16.2798C15.3578 15.9614 15.7747 15.3197 16.3461 14.8888C16.7629 14.575 17.2734 14.3596 17.5732 13.9287C17.606 13.8772 17.6387 13.821 17.6762 13.7648C17.7324 13.7695 17.798 13.7788 17.8401 13.8163C17.8495 13.821 17.8542 13.8257 17.8589 13.835C17.8636 13.8397 17.8682 13.8397 17.8682 13.8444C17.8729 13.8491 17.8776 13.8538 17.8776 13.8584C17.8729 13.8584 17.8776 13.8678 17.8776 13.8725C17.887 13.9006 17.887 13.9287 17.887 13.9615Z" fill="#FFBF90"/>
<path d="M11.7041 15.7506C11.7041 15.7506 11.7135 15.7132 11.7322 15.6476C11.7509 15.5773 11.7884 15.4837 11.8446 15.3713C11.9617 15.1464 12.1912 14.8561 12.5425 14.6594C12.889 14.4673 13.259 14.4205 13.512 14.4392C13.6384 14.4486 13.7414 14.4673 13.807 14.4861C13.8726 14.5048 13.9101 14.5189 13.9101 14.5189C13.9101 14.5189 13.8726 14.5282 13.807 14.547C13.7414 14.561 13.6478 14.5938 13.5354 14.6313C13.3106 14.7062 13.0249 14.8327 12.7298 14.9966C12.4347 15.1605 12.1771 15.3385 11.9945 15.493C11.9055 15.568 11.8306 15.6335 11.779 15.6804C11.7322 15.7225 11.7041 15.7506 11.7041 15.7506Z" fill="#CF4A57"/>
<path d="M17.9986 25.68C17.6426 25.7643 11.362 27.2022 10.7765 26.9118C10.1724 26.6121 12.1676 17.2169 12.1676 17.2169L12.8326 17.5447L12.8373 17.5541L12.8186 17.7039L11.7039 26.303C11.7039 26.3076 16.7762 25.8299 17.9986 25.68Z" fill="#FFBF90"/>
<path d="M31.2245 71.5603L31.0044 61.8887L24.9438 62.1135L26.377 71.209L31.2245 71.5603Z" fill="#FFA07F"/>
<path d="M26.3771 71.2091H28.1475L31.2246 71.5651C31.2246 71.5651 30.9483 73.7148 30.6111 74.7546C30.4003 75.4009 29.0655 80.9837 28.0913 85.1005L24.0166 84.2622L26.3771 71.2091Z" fill="#FFA07F"/>
<path d="M26.3771 71.2089L25.3046 64.3194L27.4777 64.0852L28.2178 72.0707L25.1594 84.4961L24.0166 84.262L26.3771 71.2089Z" fill="#FF7D6F"/>
<path d="M18.2188 67.4244C18.2188 67.4244 17.9659 64.8859 17.6708 61.8463C19.563 62.0242 21.4879 62.1366 23.4129 62.1507C23.0148 65.8413 22.5745 69.4289 22.2748 70.2579C21.8626 71.4101 21.0336 78.6649 20.4669 83.9386H16.4063C16.2658 79.9576 16.1018 75.3255 16.0925 74.7354C16.0691 72.6887 18.2188 67.4244 18.2188 67.4244Z" fill="#FFA07F"/>
<path d="M16.987 83.1804H16.3875C16.2563 79.3914 16.1158 75.2886 16.0971 74.7313C16.0222 72.0757 18.2187 67.4202 18.2187 67.4202L17.8768 63.8795L19.6519 63.6687L19.5863 67.2938C19.5863 67.2938 17.0432 74.3378 16.9823 74.4128C16.8558 74.572 16.9027 78.9792 16.987 83.1804Z" fill="#FF7D6F"/>
<path d="M32.7335 91.3248C32.7101 91.1515 32.6351 90.9501 32.429 90.8518C31.8295 90.5567 29.6236 89.634 29.0288 89.1188C28.5651 88.7207 28.2326 87.311 28.078 86.9457H23.7457C23.4975 88.0744 23.4647 90.9595 23.4272 91.4185L32.7335 91.3248Z" fill="#254F79"/>
<path d="M32.7475 92.3179L23.4413 92.4115L23.4272 91.4233L32.7335 91.325L32.7475 92.3179Z" fill="#FDE4D9"/>
<path d="M28.2516 89.4045C28.2469 89.4138 28.2375 89.4279 28.2328 89.4373C28.1907 89.5262 28.1626 89.6574 28.2703 89.7089C28.3265 89.737 28.3921 89.7276 28.4483 89.7136C28.6544 89.6714 28.8417 89.5731 29.0197 89.4654C29.2117 89.3483 29.4178 89.2171 29.5395 89.0157C29.666 88.805 29.4833 88.6129 29.2632 88.6645C28.8792 88.7535 28.453 89.0392 28.2516 89.4045Z" fill="#FDE4D9"/>
<path d="M28.9591 89.9292C28.9544 89.9386 28.945 89.9527 28.9404 89.962C28.8982 90.051 28.8701 90.1822 28.9778 90.2337C29.034 90.2618 29.0949 90.2524 29.1558 90.2384C29.3619 90.1962 29.5492 90.0979 29.7272 89.9901C29.9192 89.873 30.1253 89.7419 30.2471 89.5405C30.3735 89.3298 30.1909 89.1377 29.9707 89.1892C29.5867 89.2782 29.1605 89.5639 28.9591 89.9292Z" fill="#FDE4D9"/>
<path d="M29.8253 90.2712C29.8206 90.2805 29.8112 90.2946 29.8066 90.304C29.7644 90.3929 29.7363 90.5241 29.844 90.5756C29.9002 90.6037 29.9611 90.5943 30.022 90.5803C30.2281 90.5381 30.4154 90.4398 30.5934 90.3321C30.7854 90.215 30.9915 90.0838 31.1133 89.8824C31.2397 89.6717 31.0571 89.4796 30.8369 89.5312C30.4529 89.6202 30.0267 89.9059 29.8253 90.2712Z" fill="#FDE4D9"/>
<path d="M21.142 91.0858C21.2028 91.7088 18.4911 93.1138 17.9993 92.9265C17.5075 92.7391 15.5357 91.4465 15.3484 90.6175C15.2922 90.3552 15.3906 89.7932 15.5592 89.1469C15.9198 87.7465 16.5849 85.948 16.5849 85.948L20.3879 85.9105C20.3879 85.9105 20.8094 88.6738 21.0249 90.1632C21.0811 90.6034 21.1279 90.9407 21.142 91.0858Z" fill="#254F79"/>
<path d="M21.1415 91.0862C21.2024 91.7091 18.4906 93.1142 17.9988 92.9268C17.507 92.7395 15.5352 91.4468 15.3479 90.6179C15.2917 90.3556 15.3901 89.7935 15.5587 89.1472C16.2753 89.9481 17.4321 91.0909 18.2377 91.0862C18.9074 91.0815 20.083 90.6038 21.0197 90.1635C21.0806 90.6038 21.1274 90.941 21.1415 91.0862Z" fill="#FFE6E2"/>
<path d="M17.7829 87.3433C17.9422 87.4791 18.1295 87.5728 18.3262 87.6477C18.537 87.732 18.7618 87.8163 19.0007 87.7929C19.2442 87.7695 19.291 87.5072 19.1177 87.362C18.818 87.1091 18.3309 86.9405 17.9187 87.0014C17.9047 87.0014 17.8906 87.0061 17.8813 87.0061C17.7829 87.0248 17.6612 87.081 17.6846 87.1981C17.6939 87.259 17.7408 87.3011 17.7829 87.3433Z" fill="#FFE6E2"/>
<path d="M19.0099 88.6733C19.2535 88.6498 19.3003 88.3876 19.127 88.2424C18.8273 87.9895 18.3402 87.8209 17.928 87.8817C17.914 87.8817 17.8999 87.8864 17.8906 87.8864C17.7922 87.9052 17.6704 87.9614 17.6938 88.0784C17.7079 88.1393 17.75 88.1862 17.7969 88.2236C17.9561 88.3595 18.1435 88.4531 18.3402 88.5281C18.5463 88.6077 18.7711 88.6967 19.0099 88.6733Z" fill="#FFE6E2"/>
<path d="M18.9024 89.1883C18.6027 88.9354 18.1156 88.7668 17.7034 88.8277C17.6894 88.8277 17.6753 88.8323 17.6659 88.8323C17.5676 88.8511 17.4458 88.9073 17.4692 89.0244C17.4833 89.0853 17.5254 89.1321 17.5723 89.1696C17.7315 89.3054 17.9189 89.3991 18.1156 89.474C18.3263 89.5583 18.5511 89.6426 18.79 89.6192C19.0335 89.5958 19.0757 89.3335 18.9024 89.1883Z" fill="#FFE6E2"/>
<path d="M20.3827 85.9105L20.8557 82.5758L16.1675 82.3884L16.5843 85.9479L20.3827 85.9105Z" fill="#FFE6E2"/>
<path d="M28.078 86.9502L28.8976 82.9317L23.4272 82.3884L23.7457 86.9502H28.078Z" fill="#FFE6E2"/>
<path d="M32.7333 70.1743C32.4054 71.7293 31.2299 78.1551 31.2299 78.1551H24.0172L25.633 71.2094L24.0172 58.4327C24.0172 58.4327 24.167 67.411 24.0265 67.9309C23.886 68.4508 22.2655 78.1551 22.2655 78.1551H14.8374C14.8374 78.1551 14.7484 76.736 14.8374 75.359C14.9217 73.9774 17.0808 65.8046 17.0808 65.8046C17.0808 65.8046 16.3034 56.6201 16.1675 55.3275C16.0317 54.0301 16.6499 48.6768 16.6499 48.6768L31.2252 50.1662C31.2252 50.1662 31.272 50.6392 31.3516 51.4448C31.7591 55.6459 33.0096 68.8676 32.7333 70.1743Z" fill="#424242"/>
<path d="M25.9373 78.1495H24.0171L25.6329 71.2038L24.0171 58.427L24.0265 55.5981C24.0265 55.5981 27.23 69.5224 27.2956 70.1687C27.3424 70.6511 26.4198 75.6157 25.9373 78.1495Z" fill="#252727"/>
<path d="M17.6825 52.3571C17.6825 52.3571 17.6497 55.4061 17.6825 56.7643C17.7153 58.1226 18.5161 66.286 18.5161 66.286C18.5161 66.286 16.8066 73.4753 16.4835 74.8991C16.2774 75.803 16.2072 77.2315 16.1837 78.1494H14.8442C14.8442 78.1494 14.7552 76.7303 14.8442 75.3534C14.9285 73.9717 17.0877 65.7989 17.0877 65.7989C17.0877 65.7989 16.3102 56.6145 16.1744 55.3218C16.0385 54.0244 16.6568 48.6711 16.6568 48.6711L31.232 50.1605C31.232 50.1605 31.2788 50.6336 31.3585 51.4391C28.2205 52.2025 22.4363 53.2891 17.6825 52.3571Z" fill="#252727"/>
<path d="M31.9229 50.0578C31.9229 50.0578 20.0173 51.9921 16.0972 50.0438C16.0972 50.0438 17.0807 41.5572 17.1416 35.1641C17.816 34.6911 17.8582 34.574 18.35 33.9042C19.0525 32.9441 18.2984 27.9374 18.0174 25.6799C18.7808 25.2022 19.5115 24.9633 19.5115 24.9633C19.5115 24.9633 23.7969 28.6867 26.7804 25.4364C26.7804 25.4364 27.1082 25.427 27.3518 25.5488C27.9559 25.8485 28.2697 25.9796 28.7428 26.434C29.1456 27.0662 32.2554 47.5334 31.9229 50.0578Z" fill="#FFE6E2"/>
<path d="M19.5351 26.9208C20.6077 27.3001 21.5022 28.0729 22.5888 28.4523C23.9002 28.9113 25.2397 28.9019 26.5089 28.3212C26.6775 28.2415 26.8087 28.4617 26.6541 28.5694C24.5184 30.0541 21.076 28.8785 19.3852 27.169C19.2869 27.0706 19.3852 26.8693 19.5351 26.9208Z" fill="#EBD4D1"/>
<path d="M25.1181 26.8746L22.1769 24.678C22.1113 24.2611 22.1206 24.0972 21.9895 23.0575C21.8396 21.9006 21.7085 20.8187 21.7085 20.8187L25.1603 21.5681C24.9308 22.4392 24.9214 23.39 25.0104 24.2799C25.2024 26.1533 25.1181 26.8746 25.1181 26.8746Z" fill="#FFA07F"/>
<path d="M22.1392 24.364L19.5117 24.9635C19.5117 24.9635 22.1298 28.0593 24.7714 27.4271C27.4129 26.7948 27.352 25.549 27.352 25.549L25.0289 24.4717L23.3569 24.9635L22.1392 24.364Z" fill="#FFA07F"/>
<path d="M25.1649 21.5681C24.9354 22.4392 24.926 23.39 25.015 24.2799C24.9213 24.3408 24.8277 24.397 24.7387 24.4438C24.3827 24.6358 22.9964 23.76 21.9988 23.0575C21.8489 21.9006 21.7178 20.8187 21.7178 20.8187L25.1649 21.5681Z" fill="#FF7D6F"/>
<path d="M27.9329 17.1607C27.9141 17.4698 27.886 17.8024 27.8345 18.1443C27.8345 18.1443 28.2467 19.7461 28.1343 20.1348C28.0219 20.5282 27.3006 22.973 26.1297 23.0245C25.1508 23.0667 22.5796 22.0457 21.6288 21.3431C21.4368 21.2026 21.315 21.0762 21.2775 20.9731C21.0621 20.3456 20.2097 17.5682 20.1347 17.334C19.9333 16.7064 18.8608 11.8683 24.9822 12.2617C26.0829 12.332 27.057 13.0205 27.4739 14.0415C27.7783 14.7815 28.0031 15.8072 27.9329 17.1607Z" fill="#FFA07F"/>
<path d="M23.5635 20.5426C23.5635 20.5426 25.3198 19.9666 26.7389 21.0157C26.7389 21.0157 25.835 22.2147 25.0154 22.0695C24.0178 21.8962 23.5635 20.5426 23.5635 20.5426Z" fill="#FC5B68"/>
<path d="M23.6523 20.5941C23.6523 20.5941 24.8232 20.4489 26.6405 21.025C26.6405 21.025 26.0456 22.0038 24.9731 21.7931C23.8959 21.5823 23.6523 20.5941 23.6523 20.5941Z" fill="white"/>
<path d="M27.8346 18.1443C27.8346 18.1443 28.2468 19.746 28.1344 20.1348C28.022 20.5282 27.3007 22.973 26.1298 23.0245C25.1509 23.0667 22.5797 22.0457 21.6289 21.3431C22.7389 21.8724 25.6895 23.2025 26.4249 22.8044C27.3382 22.3079 28.0782 19.9943 28.022 19.7835C27.9658 19.5727 27.6754 18.2005 27.6754 18.2005C27.6754 18.2005 27.7971 17.7321 27.933 17.1607C27.9189 17.4698 27.8861 17.7977 27.8346 18.1443Z" fill="#FFBF90"/>
<path d="M21.5304 20.8466C20.781 20.9075 20.1675 20.5609 19.8209 20.2378C19.7413 20.1675 19.6757 20.0926 19.6288 20.0317C19.3525 19.6804 19.0762 18.3643 19.568 17.9616C19.9145 17.6805 20.2424 17.9522 20.411 18.1395C20.4813 18.2192 20.5234 18.2847 20.5234 18.2847L21.5304 20.8466Z" fill="#FFBF90"/>
<path d="M21.5306 20.8469C20.7812 20.9078 20.1676 20.5612 19.8211 20.238C19.7883 20.2053 19.7602 20.1725 19.7368 20.1397C19.4604 19.7884 19.1841 18.4723 19.6759 18.0742C19.9569 17.8494 20.2238 17.9806 20.4065 18.1398C20.4768 18.2194 20.5189 18.285 20.5189 18.285L21.5306 20.8469Z" fill="#FFA07F"/>
<path d="M19.5675 19.0484C19.5581 19.1608 19.5909 19.2685 19.6471 19.3669C19.8673 19.7884 20.3731 20.0554 20.8508 20.3036C20.6869 20.1069 20.5979 19.8727 20.5885 19.6292C20.5838 19.5449 20.5885 19.4606 20.5745 19.3763C20.5183 19.0391 19.6284 18.3927 19.5675 19.0484Z" fill="#FF7D6F"/>
<path d="M21.0855 20.3973C21.0855 20.3973 21.0761 20.3926 21.0574 20.3879C21.0387 20.3833 21.0153 20.3739 20.9825 20.3598C20.9169 20.3317 20.8279 20.2849 20.7389 20.2053C20.6499 20.1257 20.561 20.0179 20.5094 19.8774C20.4579 19.7416 20.4345 19.573 20.486 19.3997C20.4907 19.3763 20.5001 19.3576 20.5094 19.3341L20.5141 19.3201C20.5141 19.3154 20.5141 19.3201 20.5141 19.3201L20.5048 19.3107L20.486 19.2873C20.472 19.2733 20.4626 19.2592 20.4485 19.2405C20.397 19.1796 20.3455 19.1281 20.2893 19.0765C20.2331 19.025 20.1816 18.9829 20.1254 18.9407C20.0692 18.8986 20.0177 18.8611 19.9708 18.8377C19.9193 18.8096 19.8678 18.7955 19.821 18.8002C19.7741 18.8049 19.732 18.8189 19.7085 18.8377C19.6804 18.8564 19.6664 18.8798 19.6617 18.8939C19.657 18.9079 19.657 18.9173 19.657 18.9173C19.657 18.9173 19.6523 18.9079 19.6523 18.8939C19.6523 18.8798 19.6617 18.8517 19.6851 18.8283C19.7085 18.8002 19.7554 18.7768 19.8116 18.7627C19.8725 18.7534 19.938 18.7627 20.0036 18.7862C20.0692 18.8096 20.1254 18.8424 20.191 18.8798C20.2518 18.9173 20.3174 18.9595 20.3783 19.0063C20.4392 19.0531 20.5048 19.1093 20.561 19.1702C20.575 19.1843 20.5891 19.203 20.6031 19.2171L20.6218 19.2405L20.6499 19.2733L20.6687 19.2967C20.664 19.306 20.664 19.3154 20.6593 19.3248L20.6453 19.3669C20.6359 19.3857 20.6312 19.4044 20.6265 19.4231C20.5844 19.573 20.5937 19.7229 20.6265 19.8493C20.664 19.9758 20.7249 20.0882 20.7951 20.1678C20.8654 20.2521 20.9356 20.3083 20.9918 20.3458C21.0199 20.3645 21.0434 20.3786 21.0574 20.3879C21.0761 20.3926 21.0855 20.3973 21.0855 20.3973Z" fill="#CF4A57"/>
<path d="M28.2745 15.9055C28.2745 15.9055 27.3565 15.0203 27.0006 15.4887C26.6446 15.957 26.8413 15.9664 26.8413 15.9664L28.2745 15.9055Z" fill="#55062C"/>
<path d="M22.3403 17.034C22.3403 17.034 23.4691 15.2074 24.1295 15.6805C24.5182 15.9568 24.3215 16.2238 24.3215 16.2238L22.3403 17.034Z" fill="#55062C"/>
<path d="M24.2276 16.8939C24.1901 17.0765 23.9887 17.2498 23.8436 17.3482C23.7499 17.2685 23.6422 17.2311 23.5344 17.2498C23.2628 17.292 23.1035 17.6807 23.1738 18.1163C23.2441 18.5518 23.5204 18.8656 23.792 18.8235C24.0637 18.7813 24.2229 18.3926 24.1527 17.957C24.1293 17.8212 24.0871 17.6994 24.0356 17.5964C24.2136 17.3809 24.2276 16.8939 24.2276 16.8939Z" fill="#161818"/>
<path d="M22.6353 17.7552C22.6353 17.7552 22.8507 17.9988 23.1692 18.069C23.4877 18.1393 23.7874 18.0175 23.7874 18.0175C23.7874 18.0175 23.572 17.774 23.2535 17.7037C22.935 17.6288 22.6353 17.7552 22.6353 17.7552Z" fill="white"/>
<path d="M27.6092 16.7719C27.5811 16.8983 27.4453 17.0154 27.3469 17.0857C27.2813 17.0388 27.2111 17.0201 27.1408 17.0294C26.9347 17.0622 26.813 17.3573 26.8692 17.6851C26.9207 18.013 27.1315 18.2519 27.3375 18.2191C27.5436 18.1863 27.6654 17.8912 27.6092 17.5634C27.5904 17.4416 27.5483 17.3292 27.4921 17.2402C27.5998 17.081 27.6092 16.7719 27.6092 16.7719Z" fill="#161818"/>
<path d="M27.8811 17.2214C27.8811 17.2214 27.7781 17.4181 27.5814 17.5399C27.3847 17.6616 27.1646 17.6616 27.1646 17.6616C27.1646 17.6616 27.2676 17.4649 27.4643 17.3431C27.6563 17.2214 27.8811 17.2214 27.8811 17.2214Z" fill="white"/>
<path d="M25.8391 19.5443C25.7127 19.5209 25.5815 19.474 25.4551 19.5068C25.6284 19.7785 25.9141 19.9752 26.2279 20.0408C26.2513 20.0454 26.2794 20.0501 26.3028 20.0454C26.3309 20.0408 26.359 20.022 26.3824 19.9986C26.5323 19.8768 26.6541 19.7223 26.7431 19.5537C26.7618 19.5209 26.7805 19.4834 26.7805 19.4459C26.7899 19.3195 26.7103 19.357 26.64 19.3991C26.5604 19.4459 26.4761 19.4834 26.3871 19.5115C26.2091 19.5677 26.0218 19.5771 25.8391 19.5443Z" fill="#FF7D6F"/>
<path d="M26.2468 19.9659C26.3124 19.8863 26.3873 19.816 26.4529 19.7364C26.5372 19.638 26.6074 19.535 26.673 19.4273C26.2234 19.2165 26.1625 18.795 26.1016 18.3173C26.0735 18.1018 26.1016 17.877 26.1718 17.6756C26.2093 17.5679 26.2608 17.4649 26.3264 17.3712C26.3592 17.3244 26.392 17.2775 26.4341 17.2307C26.4716 17.1885 26.5137 17.1604 26.5606 17.1323C26.5418 17.1651 26.5278 17.2026 26.5091 17.2354C26.4622 17.3197 26.4154 17.404 26.3779 17.493C26.3405 17.5819 26.3123 17.6756 26.2889 17.774C26.2468 17.966 26.2374 18.1627 26.2608 18.3594C26.2842 18.5514 26.3451 18.7388 26.4435 18.9027C26.5559 19.0901 26.7292 19.268 26.9306 19.357C26.9306 19.357 26.7058 19.7223 26.687 19.7551C26.6261 19.8347 26.5606 19.905 26.4903 19.9706C26.4201 20.0361 26.3358 20.1111 26.2374 20.1204C26.2046 20.1251 26.1718 20.1204 26.1437 20.1111C26.1578 20.097 26.1718 20.083 26.1859 20.0642C26.1906 20.0549 26.1953 20.0502 26.1999 20.0408C26.214 20.008 26.228 19.9893 26.2468 19.9659Z" fill="#FC5B68"/>
<path d="M27.3845 19.4649C27.4782 19.6288 27.8529 19.5867 28.2229 19.3712C28.5929 19.1605 28.8177 18.8561 28.724 18.6921C28.6304 18.5282 28.2557 18.5704 27.8857 18.7858C27.5157 19.0012 27.2909 19.301 27.3845 19.4649Z" fill="#FF7D6F"/>
<path d="M22.2889 19.4743C22.2655 19.7459 22.7479 20.0082 23.3661 20.0691C23.9844 20.1253 24.5089 19.952 24.5323 19.6803C24.5557 19.4087 24.0733 19.1464 23.4551 19.0855C22.8369 19.0293 22.317 19.2026 22.2889 19.4743Z" fill="#FF7D6F"/>
<path d="M34.4521 33.5389L34.2976 34.4662L33.9744 36.3677L33.7121 37.9414L30.5086 36.8548L30.2463 35.2952L28.7476 26.4386L28.7522 26.4433C28.8459 26.4761 30.4149 27.0381 30.6912 27.7078C30.9769 28.3963 32.5787 32.7895 32.5787 32.7895L34.4521 33.5389Z" fill="#FFA07F"/>
<path d="M34.4543 33.5408L34.2997 34.4681L31.7753 33.2551C31.7753 33.2551 30.6091 28.6371 30.3515 28.0891C30.1033 27.5599 28.8481 26.5248 28.7544 26.4452C28.8481 26.478 30.4171 27.04 30.6934 27.7098C30.9791 28.3982 32.5809 32.7914 32.5809 32.7914L34.4543 33.5408Z" fill="#FFBF90"/>
<path d="M33.9742 36.368L33.7119 37.937L30.5084 36.8504L30.2461 35.2908L33.9742 36.368Z" fill="#FF7D6F"/>
<path d="M27.5769 14.3085C26.7152 15.175 24.3687 15.0673 24.3687 15.0673L25.1602 13.9713C23.8254 15.1375 20.4673 15.6433 20.4673 15.6433L20.7015 18.7579L19.451 18.0975C19.451 18.0975 18.9451 16.2007 18.8796 15.6808C18.8702 15.6106 18.8702 15.4794 18.8843 15.3108C18.9686 14.2289 19.6898 11.4703 23.4086 11.2408C25.9845 11.0816 26.9728 12.2197 27.3428 13.1517C27.6004 13.7699 27.5769 14.3085 27.5769 14.3085Z" fill="#3F0727"/>
<path d="M25.7565 13.8449C25.808 13.4421 25.8174 13.0299 25.7753 12.6225C24.5528 13.4374 23.2227 14.0884 21.8364 14.5615C22.0987 14.2617 22.3282 13.9339 22.5108 13.5826C21.3821 14.3085 20.1597 14.8893 18.8857 15.3061C18.9185 14.8565 19.0684 14.1118 19.4993 13.3812C20.0988 12.3649 21.2463 11.372 23.4147 11.2361C24.8573 11.1471 25.7987 11.4656 26.4169 11.9246C26.8993 12.2853 27.185 12.7349 27.3489 13.147C26.8525 13.4374 26.2998 13.6435 25.7565 13.8449Z" fill="#55062C"/>
<path d="M25.2117 12.3832C25.2913 12.2239 25.3663 12.06 25.4412 11.9008C24.7106 12.4066 23.8816 12.7719 23.0151 12.978C23.1743 12.6454 23.3383 12.3129 23.4975 11.9757C22.2423 12.6267 20.8935 13.1044 19.5024 13.3761C20.1019 12.3597 21.2494 11.3668 23.4179 11.231C24.8604 11.142 25.8018 11.4605 26.4201 11.9195C26.0266 12.1068 25.6239 12.2614 25.2117 12.3832Z" fill="#6F0A32"/>
<path d="M21.8345 15.6478L21.399 16.2472L19.8159 15.2028L20.1344 14.7766L21.8345 15.6478Z" fill="#D94562"/>
<path d="M21.5303 16.5564L21.0948 17.1559L19.5117 16.1115L19.8302 15.6853L21.5303 16.5564Z" fill="#D94562"/>
<path d="M64.8014 70.8999L64.764 86.9692H61.3778L60.1226 70.8999H64.8014Z" fill="#CC7256"/>
<path d="M64.8017 70.8999L64.7642 86.9692H63.9446L63.5605 70.8999H64.8017Z" fill="#A04F39"/>
<path d="M56.2632 91.0535C56.2866 90.8802 56.3615 90.6788 56.5676 90.5805C57.1671 90.2854 59.3637 89.3674 59.9538 88.8569C60.4128 88.4588 60.7453 87.0584 60.8999 86.6931H65.2228C65.4711 87.8219 65.5038 90.6976 65.5413 91.1519L56.2632 91.0535Z" fill="#D94562"/>
<path d="M56.2446 92.0416L65.5228 92.1399L65.5415 91.1517L56.2634 91.0533L56.2446 92.0416Z" fill="#FDE4D9"/>
<path d="M60.7311 89.1376C60.7357 89.147 60.7451 89.161 60.7498 89.1704C60.7919 89.2594 60.82 89.3905 60.7123 89.4421C60.6561 89.4702 60.5952 89.4608 60.5343 89.4467C60.333 89.4046 60.1456 89.3062 59.9676 89.1985C59.7756 89.0814 59.5695 88.9503 59.4478 88.7489C59.3213 88.5381 59.504 88.3461 59.7241 88.3976C60.0988 88.4913 60.5297 88.777 60.7311 89.1376Z" fill="#FDE4D9"/>
<path d="M60.024 89.662C60.0287 89.6714 60.0381 89.6855 60.0428 89.6948C60.0849 89.7838 60.113 89.9149 60.0053 89.9665C59.9491 89.9946 59.8882 89.9852 59.8273 89.9712C59.6259 89.929 59.4386 89.8306 59.2606 89.7229C59.0686 89.6058 58.8625 89.4747 58.7407 89.2733C58.6143 89.0625 58.7969 88.8705 59.0171 88.922C59.3964 89.011 59.8226 89.2967 60.024 89.662Z" fill="#FDE4D9"/>
<path d="M59.1622 90.004C59.1669 90.0133 59.1763 90.0274 59.1809 90.0367C59.2231 90.1257 59.2512 90.2569 59.1435 90.3084C59.0873 90.3365 59.0264 90.3271 58.9655 90.3131C58.7641 90.2709 58.5768 90.1726 58.3988 90.0648C58.2068 89.9478 58.0007 89.8166 57.8789 89.6152C57.7525 89.4045 57.9351 89.2124 58.1552 89.264C58.5299 89.3529 58.9608 89.6386 59.1622 90.004Z" fill="#FDE4D9"/>
<path d="M76.1218 86.6883H73.2414L69.4478 70.9001L72.8621 70.5441L74.595 70.3615C74.595 70.3615 75.5083 74.6048 75.5551 74.8202C75.6066 75.031 76.1218 86.6883 76.1218 86.6883Z" fill="#CC7256"/>
<path d="M76.1216 86.6883H75.1193C74.9975 83.7143 74.6837 76.066 74.6041 75.2979C74.5151 74.4642 73.199 71.3356 72.8618 70.5441L74.5947 70.3615C74.5947 70.3615 75.508 74.6048 75.5549 74.8202C75.6064 75.031 76.1216 86.6883 76.1216 86.6883Z" fill="#A04F39"/>
<path d="M71.9204 91.0537C71.8596 91.6767 74.562 93.077 75.0537 92.8897C75.5455 92.707 77.5126 91.4144 77.6953 90.5854C77.7515 90.3231 77.6531 89.7658 77.4845 89.1194C77.1239 87.7237 76.4588 85.9299 76.4588 85.9299L72.6698 85.8925C72.6698 85.8925 72.2483 88.6464 72.0375 90.1311C71.9766 90.5713 71.9345 90.9132 71.9204 91.0537Z" fill="#D94562"/>
<path d="M71.9204 91.0533C71.8596 91.6762 74.562 93.0766 75.0537 92.8893C75.5455 92.7066 77.5126 91.414 77.6953 90.585C77.7515 90.3227 77.6531 89.7653 77.4845 89.119C76.7726 89.9199 75.6158 91.058 74.8102 91.0533C74.1405 91.0486 72.9696 90.5709 72.0375 90.1353C71.9766 90.5709 71.9345 90.9128 71.9204 91.0533Z" fill="#FDE4D9"/>
<path d="M75.2654 87.3253C75.1062 87.4611 74.9188 87.5548 74.7221 87.6298C74.5113 87.7094 74.2865 87.7984 74.0524 87.7749C73.8088 87.7515 73.7667 87.4893 73.9399 87.3441C74.2397 87.0911 74.7268 86.9225 75.1389 86.9834C75.153 86.9834 75.167 86.9881 75.1764 86.9881C75.2748 87.0068 75.3965 87.063 75.3684 87.1801C75.3591 87.2363 75.3122 87.2832 75.2654 87.3253Z" fill="#FDE4D9"/>
<path d="M74.047 88.6506C73.8034 88.6271 73.7613 88.3649 73.9346 88.2197C74.2343 87.9668 74.7214 87.7981 75.1336 87.859C75.1476 87.859 75.1617 87.8637 75.171 87.8637C75.2647 87.8825 75.3912 87.9387 75.3631 88.0557C75.349 88.1166 75.3069 88.1635 75.26 88.2009C75.1008 88.3368 74.9134 88.4304 74.7167 88.5054C74.506 88.585 74.2812 88.674 74.047 88.6506Z" fill="#FDE4D9"/>
<path d="M74.15 89.1612C74.4497 88.9083 74.9368 88.7397 75.349 88.8006C75.363 88.8006 75.3771 88.8052 75.3865 88.8052C75.4848 88.824 75.6066 88.8802 75.5785 88.9973C75.5644 89.0582 75.5223 89.105 75.4754 89.1425C75.3162 89.2783 75.1289 89.372 74.9322 89.4469C74.7214 89.5265 74.4966 89.6155 74.2624 89.5921C74.0235 89.5687 73.9767 89.3064 74.15 89.1612Z" fill="#FDE4D9"/>
<path d="M77.1007 71.5556L72.4968 47.8708H57.205L55.7905 71.5556H77.1007Z" fill="#C79D88"/>
<path d="M58.6992 71.5566H59.6406C59.5938 70.6573 59.5516 69.7581 59.5235 68.8542C59.4018 65.1822 59.4205 61.501 59.575 57.8291C59.7156 54.5084 60.0528 51.1925 60.212 47.8718H59.8139C59.2004 50.9958 58.9521 54.2134 58.7648 57.3701C58.54 61.1965 58.4838 65.023 58.5915 68.8542C58.6196 69.7581 58.6571 70.6573 58.6992 71.5566Z" fill="#B48674"/>
<path d="M62.0053 71.5554H62.9795C62.8764 70.4595 62.7921 69.3682 62.7266 68.2722C62.5017 64.6799 62.4596 61.0736 62.5907 57.4813C62.6563 55.6828 62.7781 53.889 62.9092 52.0952C63.0122 50.7229 63.2933 49.2804 63.3823 47.8707H62.5345C62.3004 49.1165 62.2348 50.4466 62.099 51.6456C61.8929 53.4347 61.7664 55.2332 61.6774 57.0317C61.4901 60.8535 61.5229 64.6799 61.7664 68.497C61.8226 69.5181 61.9069 70.5391 62.0053 71.5554Z" fill="#B48674"/>
<path d="M65.537 71.5554H66.4924C66.3425 70.3283 66.2161 69.1012 66.1084 67.8694C65.7946 64.1554 65.6775 60.4226 65.7524 56.6945C65.8133 53.7392 66.1037 50.8073 66.3004 47.8707H65.3871C64.9749 50.7838 64.8766 53.786 64.811 56.6945C64.7267 60.4975 64.8532 64.3053 65.181 68.0943C65.2794 69.2511 65.3965 70.4033 65.537 71.5554Z" fill="#B48674"/>
<path d="M69.0731 69.537C69.1293 70.2114 69.1855 70.8858 69.2417 71.5556H70.1503C70.0519 70.4924 69.963 69.4246 69.874 68.3614C69.5695 64.7644 69.34 61.1628 69.148 57.5564C68.9747 54.3435 68.956 51.0697 68.5719 47.8661H68.0006C67.8788 51.2383 68.1645 54.6667 68.3331 58.0248C68.5298 61.87 68.764 65.7058 69.0731 69.537Z" fill="#B48674"/>
<path d="M73.3869 71.5556H74.3283C74.1503 70.5111 73.9723 69.4667 73.8037 68.4223C73.223 64.8815 72.6844 61.3361 72.1879 57.7812C71.7242 54.4793 71.3777 51.154 70.8297 47.8661H70.2349C70.5908 54.6573 71.7851 61.4953 72.8436 68.2022C73.0169 69.3262 73.1996 70.4409 73.3869 71.5556Z" fill="#B48674"/>
<path d="M69.4851 14.3878C70.0003 16.7951 71.855 18.87 74.1921 19.6521C71.7707 21.6473 68.6983 22.8416 65.5696 23.0009C62.4363 23.1648 59.2609 22.2936 56.6475 20.556C59.008 18.4625 60.3522 15.2683 60.1929 12.1163C61.7619 11.306 63.7009 11.2545 65.4198 11.6573C67.1293 12.0601 69.1151 12.6643 69.4851 14.3878Z" fill="#252727"/>
<path d="M58.1137 33.3049C58.4462 34.176 59.0176 34.9582 59.5188 35.5342L57.2051 47.8754L58.3806 48.0908C62.8441 48.9058 67.4246 48.8777 71.8787 48.0019L72.5063 47.8801L70.4783 35.6513C70.9747 35.108 71.5227 34.3961 71.8646 33.5999C72.614 31.853 71.0918 28.8789 71.0918 28.8789L71.9583 24.4108L68.5768 23.4413L65.6214 24.097L61.884 23.3008L60.4508 23.727L59.116 28.9257C59.1066 28.9164 57.4346 31.5251 58.1137 33.3049Z" fill="#456997"/>
<path d="M67.3074 23.919L65.6119 24.0876L63.79 23.8488C63.8837 23.3523 63.9212 22.6966 63.9259 22.0644C63.9399 20.959 63.8697 19.924 63.8697 19.924L66.9468 19.5399C66.914 19.9287 66.9983 20.9825 67.0919 21.9613C67.195 22.9823 67.3074 23.919 67.3074 23.919Z" fill="#CC7256"/>
<path d="M67.0968 21.9614C66.6659 22.2705 66.2069 22.5796 65.6824 22.6405C65.0641 22.7108 64.474 22.4204 63.9307 22.0691C63.9448 20.9638 63.8745 19.9287 63.8745 19.9287L66.9516 19.5447C66.9188 19.9334 67.0031 20.9872 67.0968 21.9614Z" fill="#A04F39"/>
<path d="M67.1857 22.8183L63.9119 22.7527L61.8745 23.296C62.1977 23.8065 62.7503 24.3545 63.4248 24.7666C64.0524 25.146 64.7924 25.3052 65.5277 25.2631C66.6564 25.1975 67.7102 24.6448 68.3706 23.7269C68.4362 23.6332 68.5064 23.5348 68.5673 23.4318L67.1857 22.8183Z" fill="#CC7256"/>
<path d="M65.0867 9.4798C64.9884 9.48916 61.3914 10.6179 60.8856 11.9246C60.3798 13.2313 59.9161 17.9102 61.0729 20.0319C62.2298 22.1535 63.7004 21.7132 64.2203 21.5072C64.7402 21.3011 67.1569 20.0225 67.658 19.1513C68.1638 18.2802 69.0209 13.9385 68.6416 12.8613C68.2622 11.7935 65.0867 9.4798 65.0867 9.4798Z" fill="#E1836C"/>
<path d="M65.2274 9.13312C65.129 9.14248 61.532 10.2712 61.0262 11.5779C60.5204 12.8846 60.0567 17.5635 61.2136 19.6852C62.3704 21.8068 63.841 21.3666 64.3609 21.1605C64.8808 20.9544 67.2975 19.6758 67.7986 18.8047C68.3045 17.9335 69.1616 13.5919 68.7822 12.5146C68.4028 11.4421 65.2274 9.13312 65.2274 9.13312Z" fill="#CC7256"/>
<path d="M65.6585 18.6548C65.6585 18.6548 63.8225 17.8258 62.1411 18.7672C62.1411 18.7672 62.9701 20.1536 63.8834 20.102C64.9887 20.0365 65.6585 18.6548 65.6585 18.6548Z" fill="#A04F39"/>
<path d="M65.5549 18.6972C65.5549 18.6972 64.2951 18.3975 62.2437 18.7862C62.2437 18.7862 62.7635 19.9009 63.9625 19.8119C65.1615 19.7229 65.5549 18.6972 65.5549 18.6972Z" fill="white"/>
<path d="M64.2534 16.074C64.3986 15.6478 64.8716 15.3902 65.3213 15.4183C65.7709 15.4511 66.1737 15.7321 66.4266 16.1068C65.7896 15.7461 64.9138 15.7602 64.2534 16.074Z" fill="#252727"/>
<path d="M60.6938 15.9945C60.7688 15.6526 61.0639 15.4559 61.3495 15.5027C61.6352 15.5448 61.9069 15.7931 62.0802 16.1069C61.6633 15.7884 61.106 15.765 60.6938 15.9945Z" fill="#252727"/>
<path d="M63.4108 17.3712C63.5232 17.3431 63.6403 17.2916 63.7527 17.315C63.6122 17.568 63.3639 17.76 63.0876 17.8396C63.0642 17.8443 63.0455 17.849 63.022 17.849C62.9939 17.8443 62.9705 17.8302 62.9471 17.8115C62.8066 17.7085 62.6895 17.582 62.6005 17.4321C62.5818 17.404 62.563 17.3712 62.5584 17.3338C62.5443 17.2167 62.6192 17.2495 62.6801 17.2823C62.7551 17.3197 62.8347 17.3478 62.9143 17.3666C63.0829 17.4087 63.2515 17.4087 63.4108 17.3712Z" fill="#E1836C"/>
<path d="M63.0685 17.7695C63.0076 17.6992 62.9327 17.643 62.8718 17.5728C62.7922 17.4884 62.7219 17.4041 62.6563 17.3058C63.0451 17.0903 63.0825 16.711 63.106 16.2754C63.12 16.0787 63.0825 15.882 63.0029 15.704C62.9608 15.6103 62.9093 15.5214 62.8484 15.437C62.8156 15.3949 62.7828 15.3574 62.7453 15.32C62.7079 15.2825 62.6704 15.2591 62.6282 15.2357C62.647 15.2638 62.661 15.2965 62.6798 15.3246C62.7266 15.3996 62.7734 15.4698 62.8109 15.5495C62.8484 15.6291 62.8811 15.7134 62.9046 15.7977C62.9514 15.9663 62.9748 16.1443 62.9608 16.3222C62.9514 16.4955 62.9046 16.6641 62.8296 16.8187C62.7406 16.9967 62.5955 17.1653 62.4175 17.2543C62.4175 17.2543 62.6376 17.5681 62.661 17.5962C62.7172 17.6617 62.7828 17.7273 62.853 17.7788C62.9233 17.8303 62.9982 17.8959 63.0872 17.9006C63.1153 17.9006 63.1434 17.9006 63.1668 17.8866C63.1528 17.8772 63.1387 17.8631 63.1294 17.8491C63.1247 17.8444 63.12 17.835 63.1153 17.8303C63.1013 17.8069 63.0872 17.7882 63.0685 17.7695Z" fill="#A04F39"/>
<path d="M67.6913 16.8471C67.8177 16.7722 68.4172 15.8261 68.9371 16.3225C69.457 16.819 69.6631 17.6995 69.2603 18.2381C68.8903 18.7299 68.3657 19.2732 67.6538 19.1561L67.6913 16.8471Z" fill="#CC7256"/>
<path d="M68.9835 17.0015C69.0209 17.1186 69.0116 17.2451 68.9835 17.3621C68.8664 17.8726 68.4308 18.2895 68.0093 18.6782C68.1264 18.4253 68.1545 18.149 68.103 17.8867C68.0842 17.793 68.0608 17.704 68.0514 17.6104C68.0233 17.2404 68.7586 16.313 68.9835 17.0015Z" fill="#E1836C"/>
<path d="M67.7988 18.8374C67.7988 18.8374 67.8082 18.8327 67.8222 18.8186C67.8363 18.8046 67.8644 18.7905 67.8925 18.7671C67.9487 18.7203 68.0283 18.6453 68.0986 18.5376C68.1688 18.4299 68.2297 18.2894 68.2485 18.1301C68.2672 17.9709 68.2438 17.7836 68.1501 17.6103C68.1407 17.5868 68.1267 17.5681 68.1126 17.5494L68.1033 17.5353C68.0986 17.5306 68.1033 17.5353 68.1033 17.5353C68.1033 17.5353 68.1033 17.5353 68.1033 17.5306L68.1079 17.5166L68.122 17.4885C68.1314 17.4698 68.1407 17.451 68.1501 17.4323C68.1876 17.3574 68.225 17.2824 68.2672 17.2168C68.3093 17.1513 68.3515 17.0857 68.3983 17.0295C68.4405 16.9733 68.4873 16.9171 68.5295 16.8796C68.5716 16.8375 68.6231 16.8094 68.67 16.8C68.7168 16.7906 68.7636 16.8 68.7964 16.8141C68.8292 16.8281 68.8479 16.8468 68.8573 16.8609C68.8667 16.8749 68.8667 16.8843 68.8667 16.8843C68.8667 16.8843 68.8667 16.8749 68.862 16.8562C68.8573 16.8375 68.8433 16.8141 68.8105 16.7906C68.7777 16.7719 68.7309 16.7532 68.6653 16.7532C68.6044 16.7579 68.5341 16.786 68.4779 16.8281C68.4217 16.8703 68.3702 16.9218 68.314 16.9733C68.2625 17.0295 68.2063 17.0904 68.1548 17.1606C68.1033 17.2309 68.0564 17.3011 68.0143 17.3808C68.0049 17.3995 67.9909 17.4229 67.9815 17.4417L67.9674 17.4744L67.9487 17.5166L67.9347 17.5494C67.9393 17.5587 67.9487 17.5681 67.9534 17.5775L67.9815 17.6196C67.9909 17.6384 68.0049 17.6571 68.0143 17.6758C68.0986 17.8257 68.1267 17.9849 68.122 18.1348C68.1173 18.28 68.0798 18.4158 68.033 18.5236C67.9862 18.6313 67.9253 18.7109 67.8831 18.7671C67.8597 18.7952 67.841 18.8139 67.8269 18.828C67.8035 18.8327 67.7988 18.8374 67.7988 18.8374Z" fill="#A04F39"/>
<path d="M60.6938 14.2428C60.6938 14.2428 61.3121 13.6714 61.7289 13.6761C62.1458 13.6808 62.305 14.0461 62.1504 14.1351C61.9865 14.2288 60.6938 14.2428 60.6938 14.2428Z" fill="#424242"/>
<path d="M66.6417 14.1493C66.6417 14.1493 65.4943 13.5967 64.8386 13.6529C64.1829 13.7091 64.0564 14.1353 64.3281 14.2149C64.5997 14.2945 66.6417 14.1493 66.6417 14.1493Z" fill="#424242"/>
<path d="M65.1757 17.4511C65.2179 17.6478 65.6722 17.7087 66.1827 17.5963C66.6979 17.4792 67.0773 17.231 67.0351 17.0343C66.993 16.8376 66.5387 16.7767 66.0281 16.8891C65.513 17.0062 65.1289 17.2544 65.1757 17.4511Z" fill="#E1836C"/>
<path d="M60.0194 16.8937C59.9678 17.0342 60.2723 17.2777 60.6985 17.4323C61.1247 17.5869 61.5134 17.6009 61.5649 17.4604C61.6165 17.3199 61.312 17.0763 60.8858 16.9218C60.4596 16.7625 60.0709 16.7485 60.0194 16.8937Z" fill="#E1836C"/>
<path d="M59.9588 12.7534C60.5302 13.4278 62.3615 13.587 62.3615 13.587L62.1367 12.5098C62.5067 13.3247 63.893 13.3669 63.893 13.3669L63.2514 12.2101C64.0382 13.3482 67.8881 14.046 67.8881 14.046L67.6961 16.6454C67.6961 16.6454 68.1316 16.3175 68.4688 16.2426C68.8061 16.1677 69.4102 17.0997 69.4102 17.0997C69.4102 17.0997 70.1456 15.3761 70.3048 13.6011C70.3844 12.7299 70.2907 11.8588 69.8364 11.1844C67.7429 8.08853 63.0921 8.79575 61.6824 9.59664C60.755 10.1259 60.0572 11.0251 59.8464 11.7651C59.7387 12.1726 59.7621 12.5239 59.9588 12.7534Z" fill="#252727"/>
<path d="M61.406 12.4065C61.2468 12.0272 61.2421 11.5869 61.4013 11.1888C61.7573 11.5588 62.2163 11.8445 62.7315 12.0131C62.605 11.6618 62.5675 11.2778 62.6237 10.9031C64.6892 12.5986 67.4665 13.5681 70.3095 13.6055C70.361 13.0435 70.3376 12.4815 70.1924 11.971C70.1127 11.6899 69.9957 11.4277 69.8364 11.1888C67.7429 8.09298 63.0921 8.79551 61.6823 9.60108C61.0782 9.94766 60.5723 10.4488 60.2351 10.964C60.0525 11.2356 59.9213 11.5167 59.8511 11.7743C60.3147 12.0693 60.8674 12.2379 61.406 12.4065Z" fill="#424242"/>
<path d="M60.2397 10.9688C60.3803 11.1139 60.5535 11.2217 60.7503 11.2732C60.8299 10.8704 61.0406 10.491 61.3451 10.2007C61.5511 10.5472 61.8884 10.8142 62.2771 10.9547C62.2303 10.6643 62.2443 10.3599 62.3192 10.0742C63.1108 10.6784 64.0896 11.0624 65.1013 11.1655C64.661 10.95 64.3144 10.566 64.1599 10.1117C65.9396 11.2451 68.0519 11.8914 70.197 11.9757C70.1174 11.6947 70.0003 11.4324 69.841 11.1936C67.7475 8.09774 63.0967 8.80027 61.687 9.60584C61.0828 9.95243 60.577 10.4536 60.2397 10.9688Z" fill="#595959"/>
<path d="M66.4922 17.4225C66.5016 16.9213 66.7779 16.4342 67.2041 16.1719C67.6303 15.9097 68.1923 15.8816 68.6419 16.1017C67.8083 16.0876 66.806 16.6497 66.4922 17.4225Z" fill="#252727"/>
<path d="M67.2037 18.2795C66.9929 17.8252 67.035 17.2632 67.302 16.8417C67.5737 16.4202 68.0654 16.1532 68.5666 16.1532C67.8125 16.5091 67.1521 17.4459 67.2037 18.2795Z" fill="#252727"/>
<path d="M47.8188 25.7595C48.1795 25.6799 48.7462 23.9142 48.5682 24.4481C48.3902 24.9821 48.615 27.1693 49.0272 27.2067C49.4393 27.2395 50.4557 24.2467 50.4557 24.2467C50.4557 24.2467 50.1981 26.7431 51.0083 26.6541C51.2706 26.626 51.5282 26.2513 51.753 25.7642C51.9731 26.3215 52.2542 26.7337 52.5633 26.4714C53.2939 25.8485 52.5539 23.2772 52.5539 23.2772C51.383 20.3922 47.4395 23.3615 47.4395 23.3615C47.4395 23.3615 47.4629 25.8391 47.8188 25.7595Z" fill="#CA7256"/>
<path d="M68.5111 24.7153C67.5275 25.6801 66.6096 26.5231 65.1389 26.5278C63.7292 26.5325 62.5583 25.8628 61.7059 24.7668C61.645 24.6872 61.5232 24.7902 61.5701 24.8698C63.0735 27.3474 67.4385 27.9657 68.8155 24.9495C68.8998 24.7574 68.675 24.5514 68.5111 24.7153Z" fill="#254F79"/>
<path d="M67.0168 36.0259C66.5625 35.7683 66.0567 35.67 65.607 35.403C65.223 35.1735 64.9186 34.8457 64.4502 34.7988C64.0896 34.7614 63.7196 34.9347 63.387 35.0424C62.6939 35.2625 61.9913 35.4733 61.3169 35.7543C61.1202 35.8386 61.1904 36.1243 61.4059 36.0775C62.7688 35.8011 63.8601 35.0939 65.2043 35.7356C65.8178 36.0259 66.2862 36.3866 66.984 36.232C67.0824 36.2086 67.0964 36.0728 67.0168 36.0259Z" fill="#254F79"/>
<path d="M54.6152 6.93632L58.2684 9.75113L56.5683 5.84973L54.6152 6.93632Z" fill="#FFB15F"/>
<path d="M54.3999 10.2428L57.0086 10.2334L54.8964 9.0766L54.3999 10.2428Z" fill="#FFB15F"/>
<path d="M28.8647 5.5499L26.167 9.28737L26.6822 5.06281L28.8647 5.5499Z" fill="#FFB15F"/>
<path d="M30.0118 8.65516L27.5107 9.39517L29.2062 7.68567L30.0118 8.65516Z" fill="#FFB15F"/>
<path d="M39.3281 0.355951L41.801 4.24799L41.5388 0L39.3281 0.355951Z" fill="#FFB15F"/>
<path d="M37.998 3.39103L40.4569 4.27154L38.8645 2.46368L37.998 3.39103Z" fill="#FFB15F"/>
<path d="M44.3865 1.32556L42.9019 3.47531L43.1454 1.07733L44.3865 1.32556Z" fill="#FFB15F"/>
</svg>
