<svg width="158" height="102" viewBox="0 0 158 102" fill="none" xmlns="http://www.w3.org/2000/svg">
<path d="M72.7867 89.7435C72.7867 89.7435 42.4935 88.7337 21.2874 91.1576C0.081379 93.5815 -3.75515 96.4082 3.11167 98.4279C9.97849 100.448 21.1868 103.578 40.6759 99.6399C60.1651 95.7019 59.8489 102.622 72.2826 101.054C83.4908 99.6399 86.4495 98.3914 89.045 98.0244C99.042 96.6104 119.035 100.852 134.788 100.448C150.541 100.043 160.235 98.4279 157.205 95.8026C154.176 93.1766 95.204 89.9457 72.7867 89.7435Z" fill="white" fill-opacity="0.7"/>
<path d="M125.701 87.4211L125.499 90.1471L129.437 89.6422L129.74 86.512L125.701 87.4211Z" fill="#FFAC9E"/>
<path d="M138.726 89.4406L138.928 91.8638H142.766L142.799 89.2385L138.726 89.4406Z" fill="#FFAC9E"/>
<path d="M122.065 40.7689L113.543 32.8743L114.639 30.1289L122.973 35.0133L122.065 40.7689Z" fill="#FFAC9E"/>
<path d="M131.758 22.5923L128.83 24.1071L124.589 33.902L123.377 34.7097L122.973 40.7688L126.305 40.2639L131.758 22.5923Z" fill="#3784A4"/>
<path d="M122.064 34.6089L123.882 33.9019V42.0813L121.155 41.3743L122.064 34.6089Z" fill="#88E6E2"/>
<path d="M37.8489 86.5118L39.078 91.9646H41.2819L41.8883 85.7041L37.8489 86.5118Z" fill="#FFBDB3"/>
<path d="M51.3784 86.4112C51.3784 86.4112 53.1274 90.9555 53.8076 92.2682H56.2255L55.3626 86.1084L51.3784 86.4112Z" fill="#FFBDB3"/>
<path d="M48.9557 13.2015C48.9557 13.2015 45.724 12.4945 43.9065 15.6247C42.0889 18.7549 42.4924 20.169 40.6748 22.3901L41.584 22.895C41.584 22.895 42.0889 22.5922 42.5938 22.0873L42.291 23.5006L43.9065 24.5105L44.2093 23.2985L44.31 24.7126C44.31 24.7126 46.5318 26.2274 48.7528 26.1259C50.9747 26.0253 52.5901 24.914 52.5901 24.914L52.6908 23.2985L53.2964 24.7126C53.2964 24.7126 54.9119 24.8133 55.2147 24.7126C55.2147 24.7126 54.6717 20.7127 54.0027 17.8458C53.2979 14.817 51.2782 13.5043 48.9557 13.2015Z" fill="#FF5475"/>
<path d="M45.5235 18.7551C45.5235 18.7551 45.6242 15.6249 45.5235 16.7354C45.5235 16.7354 46.3312 14.2108 45.5235 14.7157C45.5235 14.7157 43.201 15.9277 43.5038 20.0677V20.9769L45.5235 18.7551Z" fill="#D1385C"/>
<path d="M53.1981 20.977L53.6023 21.0777V20.4721C53.703 18.1495 52.189 15.9277 52.189 15.9277V20.7749L53.1981 20.977Z" fill="#D1385C"/>
<path d="M74.8758 9.46347C75.6156 12.7332 74.209 15.8373 71.7344 16.3974C69.2597 16.9575 66.6531 14.7611 65.9139 11.4914C65.1748 8.22167 66.5807 5.11754 69.0554 4.55743C71.53 3.99731 74.1359 6.19377 74.8758 9.46347Z" fill="#FFBDB3"/>
<path d="M30.6787 23.8736C30.6787 25.0066 30.2178 26.4296 28.1541 26.4296C26.0904 26.4296 23.2063 25.0066 23.2063 23.8736C23.2063 23.8736 24.8792 22.7944 26.9421 22.7944C29.0051 22.7944 30.6787 23.8736 30.6787 23.8736Z" fill="#FFAFA1"/>
<path d="M27.514 24.7939L26.5124 24.8401C25.7345 24.8759 25.0685 24.268 25.0327 23.4902L24.8201 18.8556C24.7843 18.0777 25.3922 17.4117 26.1701 17.3759L27.1717 17.3296C27.9496 17.2938 28.6156 17.9017 28.6514 18.6796L28.864 23.3141C28.8998 24.092 28.2927 24.7581 27.514 24.7939Z" fill="#FFAFA1"/>
<path d="M28.6918 20.4554C28.6918 20.4554 27.3456 21.1788 25.528 21.1788L25.3259 23.4007L24.064 23.4469C24.064 23.4469 24.5771 23.1903 25.0022 23.0934L24.8717 19.6641L28.6918 20.4554Z" fill="#DE666D"/>
<path d="M30.6398 14.3308C30.6398 14.3308 31.2678 10.5614 28.776 9.38818L28.2002 10.2533C28.2002 10.2526 29.7224 11.2789 30.6398 14.3308Z" fill="#FFE8DE"/>
<path d="M22.3753 16.7831C22.6333 17.9891 24.16 20.2042 26.0119 20.3967C28.274 20.6323 29.6374 20.3855 29.6374 20.3855C29.6374 20.3855 30.7852 18.99 30.7129 16.3274C30.6353 13.4843 29.3502 10.6174 28.2218 9.88649C26.7577 8.93854 20.7889 9.26596 22.3753 16.7831Z" fill="#FFAFA1"/>
<path d="M26.3359 17.2909C26.3359 17.8205 25.8161 18.2501 25.1747 18.2501C24.5333 18.2501 24.0134 17.8205 24.0134 17.2909C24.0134 16.7614 24.5333 16.3318 25.1747 16.3318C25.8161 16.3318 26.3359 16.7614 26.3359 17.2909Z" fill="#FF8686"/>
<path d="M29.5679 16.1805C29.5679 16.7011 30.0706 17.124 30.6963 17.1381C30.7135 16.8823 30.7209 16.6123 30.7127 16.3267C30.703 15.9582 30.6717 15.5898 30.6247 15.2251C30.0318 15.2691 29.5679 15.6801 29.5679 16.1805Z" fill="#FF8686"/>
<path d="M22.9742 16.6914C22.9742 16.6914 24.6187 16.0291 25.5279 14.8172C25.5279 14.8172 23.6096 17.1397 23.7103 17.8467C23.7103 17.8467 23.7103 17.4425 24.7201 16.534C25.73 15.6256 28.6931 12.7467 27.7668 10.5003C27.7668 10.5003 28.8602 11.4855 28.456 12.7982C28.0517 14.1109 28.0517 14.2123 28.0517 14.2123C28.0517 14.2123 29.8693 12.7982 29.5665 11.587L28.8595 10.5771L27.1426 9.66797L22.7959 16.4155L22.9742 16.6914Z" fill="#DE666D"/>
<path d="M27.0675 10.0034C27.0675 10.0034 29.5511 11.3094 27.7582 14.2181C27.7582 14.2181 29.7003 12.4139 29.7346 10.8969C29.7689 9.37918 28.0274 8.84964 27.5232 8.87201C27.0191 8.89439 26.491 8.95928 26.491 8.95928C26.491 8.95928 26.4448 9.62679 27.0675 10.0034Z" fill="#FFE8DE"/>
<path d="M21.2163 10.2614C21.2163 10.2614 20.2348 4.03825 18.1561 5.03915C16.0775 6.04005 15.7986 8.88314 15.7553 10.1988C15.7121 11.5144 16.0119 13.725 17.6997 13.0441C19.3882 12.3632 21.2603 11.2698 21.2603 11.2698L21.2163 10.2614Z" fill="#FFE8DE"/>
<path d="M17.334 5.61578C17.334 5.61578 19.2687 4.82073 20.5813 9.3643C20.5813 9.3643 19.9757 3.70945 17.334 5.61578Z" fill="white"/>
<path d="M17.1199 5.82764C17.1199 5.82764 16.2391 9.46577 20.2785 9.9707C20.2785 9.9707 18.0567 10.4756 17.0468 9.16297C16.037 7.84957 17.1199 5.82764 17.1199 5.82764Z" fill="#E0A9A0"/>
<path d="M20.6815 11.5957V10.3741C20.6815 10.3741 19.066 10.9797 17.3492 11.1818C15.6397 11.3832 15.9127 8.62957 15.9149 8.60645C15.806 9.21802 15.7688 9.78411 15.7553 10.198C15.7121 11.5137 16.0119 13.7243 17.6997 13.0434C18.8087 12.5966 19.9968 11.9716 20.6815 11.5957Z" fill="#E0A9A0"/>
<path d="M20.438 4.02881C20.438 4.02881 22.0803 6.88756 20.5461 8.7745L20.8288 9.84028C20.8288 9.84028 22.2168 7.69007 21.6365 5.99779C21.0563 4.30476 20.438 4.02881 20.438 4.02881Z" fill="#FFE8DE"/>
<path d="M19.7201 12.5048C19.7201 12.5048 18.8318 12.1804 19.7999 10.2219C20.8209 8.15519 21.7398 9.12551 21.7398 9.12551L19.7201 12.5048Z" fill="#434F97"/>
<path d="M21.4966 16.6167C21.4966 16.6167 17.7929 12.8376 21.1767 9.35315C24.5612 5.86865 28.3217 8.63417 28.3478 9.23978C28.3478 9.23978 26.3438 9.63134 25.5853 10.7762C24.8275 11.9218 21.4966 16.6167 21.4966 16.6167Z" fill="#FFE8DE"/>
<path d="M23.5645 17.9778C23.5741 18.0195 23.5891 18.036 23.5891 18.036C23.5794 18.0173 23.5712 17.9979 23.5645 17.9778Z" fill="#FFE8DE"/>
<path d="M27.1382 9.08692C27.0673 9.00115 26.9189 8.69238 26.9189 8.69238C24.1996 8.91315 21.6564 10.8441 20.8993 14.3144C20.1423 17.784 22.2441 19.612 22.2441 19.612C21.0634 18.0465 22.7206 16.66 25.1491 14.43C25.4601 14.1451 25.7189 13.8386 25.9366 13.5216C25.8091 13.8811 25.6517 14.2204 25.4563 14.5173C24.2593 16.3386 23.3106 17.2895 23.5649 17.9779C23.5232 17.7974 23.5806 17.1538 25.3952 15.4302C27.6274 13.3105 27.7788 9.86706 27.1382 9.08692Z" fill="#FFE8DE"/>
<path d="M8.86837 30.9741C8.86837 30.9741 12.3014 39.7591 14.9275 40.8697C17.5528 41.9802 18.3605 42.4851 18.3605 42.4851L23.3083 32.993L18.8654 32.0838L17.1485 37.4359C17.1485 37.4359 15.0281 34.3057 10.4838 29.9635C10.4838 29.9635 10.0796 28.5501 9.87822 27.2367C9.6761 25.9241 9.77753 25.0149 10.8881 24.0051C10.8881 24.0051 10.7874 23.6008 9.87822 23.8029C8.96906 24.0051 8.66625 25.0149 8.66625 25.5198C8.66625 26.0248 7.95921 27.0346 7.95921 27.0346C7.95921 27.0346 6.64655 26.3276 6.24232 25.722C5.83808 25.1163 3.91981 24.2072 3.01065 23.7023C2.10149 23.1973 2.40504 24.51 3.01065 24.8128C3.61626 25.1156 4.3233 25.4184 4.3233 25.4184L5.43384 26.4282C5.43384 26.4282 4.42399 26.2261 3.81838 26.2261C3.21277 26.2261 1.698 26.4282 1.39519 26.5289C1.09239 26.6296 1.59731 27.236 2.40504 27.1345C2.40504 27.1345 1.90012 27.2352 1.90012 27.3367C1.90012 27.4366 2.0008 27.9423 3.41489 27.8416C3.42757 27.8408 4.42474 28.0437 4.42474 28.0437C4.42474 28.0437 3.81913 28.1444 3.51558 28.2458C3.21277 28.3465 2.50573 28.5486 2.50573 28.5486C2.50573 28.5486 2.20292 29.0536 3.21277 28.9529C3.4037 28.9335 3.67966 28.8947 3.91981 28.8522C4.19577 28.803 4.72754 28.9529 4.72754 28.9529C4.92966 29.3571 5.03035 29.4578 5.03035 29.4578C5.03035 29.4578 5.93951 30.6698 7.45354 30.8719C8.96905 31.0747 8.86837 30.9741 8.86837 30.9741Z" fill="#FFAFA1"/>
<path d="M18.3595 33.4985L21.2876 35.2154L18.2581 42.0822C18.2581 42.0822 13.9159 40.3654 14.9258 40.8703C15.9356 41.3752 18.3588 42.4857 18.3588 42.4857L22.3631 34.8037L18.3595 33.4985Z" fill="#E07972"/>
<path d="M19.5722 57.127C19.5722 57.127 19.0673 61.0649 17.654 63.5895C16.2399 66.1142 13.716 67.9317 12.0998 76.1112C10.4844 84.2907 11.09 89.3392 11.09 89.3392C11.09 89.3392 9.47451 92.6715 9.77731 93.1765C10.0801 93.6814 11.9991 96.9123 15.8357 96.7109C16.2399 96.206 13.0082 93.0758 12.7054 90.2483C12.5115 88.4412 14.2202 81.059 15.8357 78.0302C17.4511 75.0007 19.7736 70.1536 20.38 68.6395C20.9856 67.1248 22.3997 63.6917 23.7123 61.5713L19.5722 57.127Z" fill="#FFAFA1"/>
<path d="M18.3035 62.1866C18.3035 62.1866 19.9338 64.7993 21.9938 64.9022L23.2058 62.5461L18.8636 60.1565L18.3035 62.1866Z" fill="#DE666D"/>
<path d="M27.6496 58.7432C27.6496 58.7432 28.2552 61.5318 28.1545 63.6209C28.0538 65.7107 27.044 68.6388 26.9425 71.769C26.8418 74.8992 27.6496 89.642 27.6496 89.642L27.3147 91.6505L26.9425 93.8827C26.9425 93.8827 27.1446 96.8109 30.3756 93.8827L29.1636 88.6321C29.1636 88.6321 31.4861 74.1922 32.4959 67.2247C33.5058 60.2572 34.2128 57.127 34.2128 57.127L27.6496 58.7432Z" fill="#FFAFA1"/>
<path d="M27.8665 65.713C27.8665 65.713 30.8803 66.5177 32.5972 66.5177L33.1529 63.2361L28.1543 63.5896C28.1543 63.5896 28.1543 64.3466 28.0537 64.8269C27.953 65.3065 27.8665 65.713 27.8665 65.713Z" fill="#DE666D"/>
<path d="M9.97847 91.9646C9.97847 91.9646 10.6855 93.3787 11.089 94.085C11.4932 94.792 13.9895 97.2339 15.5319 96.2054C15.8347 96.0032 15.027 95.0948 15.027 95.0948C15.027 95.0948 16.1375 95.7004 16.7439 96.3068C17.3502 96.9132 17.8544 97.1145 17.8544 97.6194C17.8544 98.1244 15.8347 98.5286 14.2192 98.1244C12.6038 97.7201 8.36226 95.5997 8.66507 94.792C8.96862 93.9843 9.37286 92.7731 9.97847 91.9646Z" fill="#5E82FF"/>
<path d="M29.8255 91.4963L30.3766 93.8829C27.145 96.8111 26.9436 93.8829 26.9436 93.8829L27.3157 91.6507L27.4067 91.1047L26.6408 92.7724C26.6408 92.7724 25.9337 94.2872 26.5401 95.7005C27.1457 97.1139 27.9534 97.316 27.9534 97.316C27.9534 97.316 29.8717 97.1139 30.7809 95.4984C30.7809 95.4984 31.1851 94.9935 30.7809 93.9836C30.3766 92.9745 29.8255 91.4963 29.8255 91.4963Z" fill="#5E82FF"/>
<path d="M35.021 32.2864C35.021 32.2864 36.1315 34.7096 37.8484 36.2243L38.8583 32.6899L36.4351 28.3477L35.021 32.2864Z" fill="#FFAFA1"/>
<path d="M37.6588 30.8029C37.6588 30.8029 36.4334 32.4885 36.0299 32.892L37.978 35.8201L37.8475 36.2243C37.8475 36.2243 36.232 34.7073 35.7771 33.699L35.3982 33.0859L35.5242 32.4885L37.3097 30.0728L37.6588 30.8029Z" fill="#E07972"/>
<path d="M24.0737 23.4291C24.0737 23.4291 20.7839 23.6021 20.3796 24.7134C19.9754 25.8239 18.8649 30.7717 18.0571 33.3978C18.0571 33.3978 21.1874 34.7104 23.5099 35.0132C23.5099 35.0132 24.0148 37.6386 25.933 39.3554C25.933 39.3554 31.79 40.466 33.7083 39.6582C33.7083 39.6582 35.4252 35.0132 35.5259 32.5901C35.5259 32.5901 36.9392 31.6809 37.4441 29.7626C37.4441 29.7626 34.2125 24.3099 33.4047 23.7043C32.597 23.0987 30.364 23.4656 29.4668 23.3C29.4668 23.3 30.628 23.8557 30.5519 24.7895C30.4759 25.7232 27.8506 26.4303 26.5379 25.9254C25.2268 25.4197 24.4354 24.8715 24.0737 23.4291Z" fill="#E3E9FE"/>
<path d="M40.4733 43.5962C40.4733 43.5962 37.3431 49.9581 36.9388 52.2806C36.5346 54.6031 33.8086 84.4928 33.8086 84.4928C33.8086 84.4928 37.3431 88.128 39.2613 88.6329C39.2613 88.6329 45.0169 86.3104 45.0169 85.5027V58.7432L47.7436 85.3005C47.7436 85.3005 50.6717 88.7336 56.9329 88.2287C56.9329 88.2287 58.3463 88.128 59.1547 87.4209C59.1547 87.4209 53.2978 63.1861 52.49 58.0361C51.6823 52.8862 49.1577 46.1208 48.7542 44.606L40.4733 43.5962Z" fill="#434F97"/>
<path d="M41.8866 47.3322C45.9879 47.9699 48.9772 47.1689 49.5217 47.0063C49.5134 46.9817 49.506 46.9578 49.4978 46.9332L41.281 43.6941C41.281 43.6941 40.9029 43.7202 40.2473 44.0603C39.5224 45.5669 37.2767 50.3364 36.9388 52.2793C36.5346 54.6018 33.8086 84.4915 33.8086 84.4915C33.8086 84.4915 37.3431 88.1267 39.2613 88.6316C37.9479 81.4635 41.8866 47.3322 41.8866 47.3322Z" fill="#2F3E97"/>
<path d="M25.3258 40.3645L25.5242 38.9541L33.7992 39.4023L33.8081 40.7687L39.5637 61.5705C39.5637 61.5705 29.8373 67.4118 21.6907 62.6811C15.4302 59.0459 14.9253 55.8142 14.9253 55.8142L25.3258 40.3645Z" fill="#EBB000"/>
<path d="M42.9983 95.502C42.9983 95.502 42.9983 96.4112 41.1808 96.4112C39.0581 96.4112 37.5456 96.0069 37.1414 95.3006C36.7371 94.5936 37.339 93.3794 37.339 93.3794H42.4285C42.4285 93.3786 42.8977 94.5936 42.9983 95.502Z" fill="white"/>
<path d="M38.3526 91.7661C38.3526 91.7661 37.0399 90.6555 38.0498 89.9485C40.0732 88.5322 42.0892 88.9327 42.0892 89.7464C42.0892 90.5601 41.7864 91.1597 41.7864 91.1597C41.7864 91.1597 41.4836 91.5341 41.7864 92.3478C42.0892 93.1615 44.1089 95.6936 41.0793 95.6026C38.0498 95.5123 37.1414 94.8791 37.1414 94.0654C37.1406 93.7947 38.3526 91.7661 38.3526 91.7661Z" fill="#FF5475"/>
<path d="M52.5925 93.6538C52.6559 92.327 53.096 91.0591 53.1377 90.8733C53.1765 90.7033 54.3072 90.5541 54.8591 91.0792C54.8591 91.0792 53.6449 89.9985 55.8481 89.3041C58.0512 88.6105 57.2532 89.7099 57.2584 90.7242C57.2636 91.7393 57.0526 91.6594 57.697 91.998C58.3421 92.3359 61.3015 93.4457 61.5238 93.6254C61.746 93.8052 62.2375 95.581 57.7134 95.0425C53.9186 94.5913 52.5925 93.6538 52.5925 93.6538Z" fill="#FF5475"/>
<path d="M52.5592 93.7688C52.5734 93.6032 52.5988 93.3854 52.645 93.1169C52.645 93.1169 57.6338 95.2545 60.0235 94.7995C62.4123 94.3446 61.3145 93.5145 61.3145 93.5145C61.3145 93.5145 61.5136 93.5257 61.7568 93.906C61.9999 94.2864 61.9633 94.8995 61.1914 95.2858C60.4195 95.6714 57.566 95.5662 55.7842 95.0434C54.5349 94.6765 53.4445 94.3931 52.9038 94.2566C52.6853 94.2006 52.5406 93.9948 52.5592 93.7688Z" fill="white"/>
<path d="M23.0369 16.7474C23.0369 16.7474 22.0971 15.7264 21.7943 16.7362C21.4915 17.7461 22.3582 19.0886 23.6917 19.0736L23.0369 16.7474Z" fill="#FFAFA1"/>
<path d="M51.6824 19.664C51.6824 19.664 53.1971 19.3612 52.995 20.5732C52.7929 21.7851 51.9829 22.0163 51.9829 22.0163L51.6824 19.664Z" fill="#FFBDB3"/>
<path d="M44.887 20.1587C44.887 20.1587 43.3424 20.1714 43.7876 21.3162C44.2329 22.4611 45.0734 22.5222 45.0734 22.5222L44.887 20.1587Z" fill="#FFBDB3"/>
<path d="M41.9429 25.3323C41.9429 25.3323 43.5173 24.051 46.6766 24.2546C49.8359 24.4582 53.2824 26.3004 53.9037 27.0611L53.3018 30.166C53.3018 30.166 51.0598 27.9241 47.9005 27.7197C44.7412 27.5161 43.0087 28.5349 43.0087 28.5349L41.9429 25.3323Z" fill="#2A878E"/>
<path d="M44.4111 27.5411C44.4111 27.5411 48.7533 26.5313 51.0758 28.2482C51.0758 28.2482 50.6716 30.3686 47.5414 30.7728C44.4111 31.1763 44.4111 27.5411 44.4111 27.5411Z" fill="#FFBDB3"/>
<path d="M48.0997 28.767C47.1548 28.6753 46.4522 27.872 46.5387 26.983L46.8221 24.072C46.9086 23.1823 47.7529 22.5304 48.6979 22.6221C49.6428 22.7139 50.3454 23.5171 50.2589 24.4062L49.9755 27.3171C49.8889 28.2069 49.0454 28.8595 48.0997 28.767Z" fill="#FFBDB3"/>
<path d="M46.6847 25.281L50.2691 25.319C50.2691 25.319 48.9565 26.8338 47.2396 26.1268L46.7346 27.4394H45.0625L46.5333 27.1993L46.6847 25.281Z" fill="#DE666D"/>
<path d="M36.144 27.6244C36.144 27.6244 37.8483 26.7323 39.0602 26.4295C40.2722 26.1267 41.282 26.4295 41.282 26.4295C41.282 26.4295 41.787 24.9148 43.2003 24.7126C43.2003 24.7126 44.4123 26.126 45.22 27.7422C46.0277 29.3577 46.9369 30.6703 46.9369 30.6703C46.9369 30.6703 52.1875 27.0351 53.5002 26.6309C53.5002 26.6309 54.6107 27.1358 54.6107 29.8626C54.6107 29.8626 55.8227 30.6703 57.3374 32.7907L56.0248 36.123L52.7931 37.335L53.803 44.4032C53.803 44.4032 51.9854 47.5334 46.7348 47.1299C41.4842 46.7257 36.8392 43.8983 36.5356 42.9899C36.2328 42.0807 38.656 32.8921 38.656 32.8921L36.144 27.6244Z" fill="#3784A4"/>
<path d="M48.8013 25.7964C46.8942 25.9478 45.2101 24.5114 45.0587 22.6043L44.7216 18.3546C44.6582 17.5543 45.228 16.2946 46.0276 16.2312L50.0669 16.3319C50.8672 16.2685 51.5936 17.0039 51.657 17.8041L51.9942 22.0539C52.1448 23.9609 50.7084 25.645 48.8013 25.7964Z" fill="#FFBDB3"/>
<path d="M45.8258 14.5143C45.8258 14.5143 43.4026 15.7263 43.7054 19.8663V20.7755C43.7054 20.7755 44.311 20.5734 45.7251 19.5635C45.7251 19.5635 46.0279 16.9382 46.1293 16.4333L46.4321 18.0488C46.4321 18.0488 49.1589 18.6544 50.2694 19.3614C50.2694 19.3614 50.4715 18.4523 50.3701 17.4431C50.3701 17.4431 51.0771 18.5537 50.9757 19.665C50.9757 19.665 51.9855 20.2706 53.2982 20.6748C53.2982 20.6748 53.7024 17.1403 51.4806 15.1206C49.2588 13.101 46.6335 14.0094 45.8258 14.5143Z" fill="#FF5475"/>
<path d="M51.4801 15.1198C50.324 14.0689 49.0591 13.8116 47.9971 13.8772C48.9159 13.9339 49.931 14.2628 50.8737 15.1198C52.78 16.8531 52.7532 19.6992 52.707 20.4726C52.8942 20.5427 53.0918 20.6106 53.2969 20.6732C53.2977 20.6739 53.7011 17.1395 51.4801 15.1198Z" fill="#FF80A3"/>
<path d="M63.7451 82.6746L64.5551 88.2287H67.4362L67.795 82.6746H63.7451Z" fill="#FFBDB3"/>
<path d="M67.6513 84.8963L67.5372 86.6378H64.3234L64.0281 84.4421L67.6513 84.8963Z" fill="#CC7F06"/>
<path d="M76.3665 82.3718L76.7252 87.926H79.7219L80.4163 82.3718H76.3665Z" fill="#FFBDB3"/>
<path d="M76.4976 84.3659L76.6139 86.2088L80.0067 85.8299L80.2341 83.5835L76.4976 84.3659Z" fill="#CC7F06"/>
<path d="M62.3519 46.4237C62.3519 46.4237 61.8821 62.6812 62.2855 65.3065C62.6898 67.9318 61.9827 68.1339 62.0834 70.1536C62.1841 72.1733 63.0933 73.8895 62.689 75.1014C62.2848 76.3134 62.4869 77.6261 63.0933 79.7465C63.6989 81.8668 62.7905 82.1696 62.8912 83.0788C63.0493 84.5048 63.3961 84.9971 64.3045 85.0985C65.2137 85.1992 68.3439 86.1084 69.0502 84.3915C69.7565 82.6746 68.3431 81.3619 68.6459 80.1499C68.9488 78.938 69.8579 78.5345 69.7565 76.7169C69.6558 74.8993 69.5544 73.3846 69.1509 71.8698C68.7466 70.355 71.2713 53.1891 71.2713 53.1891C71.2713 53.1891 72.9881 65.1044 73.2909 67.0234C73.5938 68.9417 74.2001 69.4466 73.998 69.8508C73.7959 70.2551 74.2001 73.486 74.4022 74.193C74.6044 74.9001 75.0078 76.7177 75.0078 79.0402C75.0078 81.3627 76.1184 81.4633 75.7149 82.1704C75.3106 82.8774 75.3107 83.7859 75.3107 83.7859C75.3107 83.7859 74.9064 84.8964 76.5226 84.7957C78.1381 84.695 81.6725 84.4929 81.2683 81.7662C80.8641 79.0394 80.9655 77.2218 80.8641 75.8085C80.7626 74.3952 79.9549 72.1733 80.0563 69.2452C80.1578 66.3171 79.2486 45.616 79.2486 45.616L62.3519 46.4237Z" fill="#D6A101"/>
<path d="M67.8495 85.3917C68.0777 85.1322 68.2373 84.804 68.3402 84.4289C68.4431 84.0537 68.4894 83.6316 68.4894 83.1804C68.4894 82.5113 68.3879 81.7782 68.2149 81.0428C68.1448 80.7445 68.115 80.482 68.115 80.2455C68.115 79.6944 68.2746 79.2827 68.4685 78.8874C68.6624 78.4928 68.8936 78.1162 69.0219 77.6463C69.083 77.4218 69.1077 77.1623 69.1077 76.8714C69.1077 76.2666 69.0003 75.523 68.8735 74.6757C68.7467 73.8284 68.5998 72.879 68.5192 71.8647C68.5095 71.7416 68.5043 71.5828 68.5043 71.3941C68.5043 70.4961 68.6124 68.9127 68.7743 67.0474C69.0174 64.2483 69.3829 60.8115 69.6872 58.0744C69.8393 56.7058 69.9765 55.5117 70.075 54.6607C70.1242 54.2348 70.1645 53.8947 70.1921 53.6613C70.2197 53.4279 70.2346 53.3003 70.2346 53.3003L70.1608 53.2914V53.366H71.2713V53.2168H70.0944L70.0862 53.2824C70.0862 53.2824 69.6536 56.9056 69.2203 60.9801C69.004 63.0177 68.787 65.1679 68.6251 67.0355C68.4625 68.903 68.3544 70.4864 68.3544 71.3948C68.3544 71.5865 68.3588 71.7476 68.3693 71.8774C68.4513 72.8984 68.5983 73.8523 68.725 74.6988C68.8518 75.5453 68.9577 76.2845 68.957 76.8722C68.957 77.1548 68.9324 77.4017 68.8765 77.6075C68.7556 78.0521 68.5319 78.419 68.3335 78.8217C68.1351 79.2245 67.9643 79.6645 67.9643 80.2455C67.9643 80.4946 67.9956 80.7691 68.068 81.0771C68.2388 81.8036 68.3387 82.5263 68.3387 83.1804C68.3387 83.6211 68.2932 84.0313 68.1948 84.3893C68.0963 84.7481 67.9457 85.0546 67.7361 85.2933L67.8495 85.3917Z" fill="#CC7F06"/>
<path d="M78.873 46.7288C78.873 46.7288 79.0244 51.9794 79.1885 57.4456C79.2706 60.1783 79.3556 62.9647 79.4264 65.1753C79.4973 67.3859 79.554 69.02 79.5793 69.4519C79.6808 71.1755 80.1857 74.607 80.3878 75.8212C80.437 76.1173 80.4624 76.5506 80.4751 77.0466C80.4878 77.5426 80.4878 78.1005 80.4878 78.6494C80.4878 79.1983 80.4878 79.7383 80.5004 80.1992C80.5131 80.6601 80.5377 81.0398 80.5907 81.2784C80.6653 81.6141 80.7257 82.0116 80.7257 82.4054C80.7257 82.7365 80.6832 83.0639 80.5728 83.3496C80.4624 83.636 80.2871 83.8791 80.0171 84.0522L80.0977 84.1782C80.3975 83.9865 80.5937 83.7128 80.7122 83.404C80.8308 83.0945 80.8748 82.75 80.8748 82.4061C80.8748 81.9974 80.8129 81.5902 80.7361 81.2471C80.6876 81.0308 80.6615 80.6534 80.6496 80.1962C80.6369 79.7383 80.6369 79.1998 80.6369 78.6501C80.6369 78.1012 80.6369 77.5418 80.6242 77.0436C80.6116 76.5447 80.5862 76.1076 80.5347 75.7981C80.3334 74.5891 79.8284 71.1538 79.7278 69.4444C79.7024 69.0178 79.6457 67.3822 79.5749 65.1723C79.4682 61.8564 79.3302 57.2449 79.2184 53.4629C79.1624 51.5714 79.1132 49.8874 79.0781 48.6762C79.0602 48.0705 79.0461 47.5828 79.0364 47.2471C79.0267 46.9108 79.0215 46.7273 79.0215 46.7266L78.873 46.7288Z" fill="#CC7F06"/>
<path d="M62.3045 48.2487C62.3045 48.2487 72.1047 50.7525 78.8589 47.2247L62.2866 46.3223L62.3045 48.2487Z" fill="#CC7F06"/>
<path d="M62.4558 42.7886C62.4558 42.7886 62.3536 44.5055 62.1485 45.3132C61.9442 46.1209 61.9725 47.0301 62.6885 47.2315C63.4045 47.4336 66.2416 48.342 71.5623 48.2413C76.9934 48.1384 79.439 47.3008 79.7537 46.5244C79.9581 46.0195 79.4412 45.5146 79.4412 44.7068C79.4412 43.8991 79.5822 43.5687 79.5822 43.5687L62.4558 42.7886Z" fill="#6D8CFF"/>
<path d="M66.2236 17.0391C66.2236 17.0391 67.7384 15.2215 70.263 14.7166C72.7876 14.2116 77.2895 15.1909 77.5632 15.4079C77.8369 15.625 77.0292 21.5826 72.7876 22.4918C68.5461 23.4009 66.4258 19.765 66.2236 17.0391Z" fill="#5478FF"/>
<path d="M66.6287 20.1689C66.6287 20.1689 66.8308 19.0583 71.8793 19.0583C76.9278 19.0583 76.9285 20.4717 76.9285 20.4717C76.9285 20.4717 74.606 23.7034 70.9709 23.2991C67.335 22.8956 66.6287 20.1689 66.6287 20.1689Z" fill="#FFBDB3"/>
<path d="M87.1264 33.3969L86.4193 27.2371C86.4193 27.2371 81.9765 22.0872 80.7645 21.5822C80.7645 21.5822 80.8652 19.1591 79.2497 17.24C77.6343 15.3218 77.4329 15.3218 77.4329 15.3218C77.4329 15.3218 76.1158 21.6024 71.6774 22.39C69.0327 22.8591 66.6699 17.7435 67.9415 15.6246C67.9415 15.6246 64.7882 16.3272 64.6479 20.4188C64.0602 20.6634 62.6424 21.2944 61.1761 22.8949C58.9543 25.3181 56.0262 35.7194 56.0262 35.7194L52.6938 36.9313L53.3136 41.2713C53.3136 41.2713 57.1367 40.6672 59.2571 39.6573C61.2089 38.728 62.5358 33.4319 63.0944 31.2757C62.3135 36.8933 61.684 43.2701 62.2867 44.2009C63.3972 45.9178 66.5274 46.3213 69.6584 46.3213C72.7886 46.3213 74.909 45.5136 77.5351 45.5136C80.1604 45.5136 79.6555 42.1812 79.4533 39.9594C79.2512 37.7376 80.1604 31.8814 80.1604 30.1645L87.1264 33.3969Z" fill="#2AAEE4"/>
<path d="M64.7727 89.9381C64.7727 89.9381 63.6025 89.0282 63.9531 88.093C64.3036 87.1577 66.2905 86.6901 67.3429 86.9242C68.3945 87.1577 68.7137 87.5589 68.4795 88.3771C68.2461 89.1953 67.894 89.9374 67.894 89.9374L69.9137 93.586L63.6018 93.9365L64.7727 89.9381Z" fill="#69D1D0"/>
<path d="M65.0391 87.2338L65.5418 89.7457L65.1398 92.6619C65.1338 92.7029 65.1629 92.7402 65.2032 92.7462C65.2434 92.7521 65.2815 92.7231 65.2874 92.6828L65.6932 89.742L65.186 87.2054C65.1778 87.1652 65.1383 87.1391 65.098 87.1473C65.0577 87.1555 65.0309 87.1928 65.0391 87.2338Z" fill="#52B4BA"/>
<path d="M67.4973 86.9707L67.1162 89.7064L67.7673 92.5875C67.7763 92.6278 67.8165 92.6531 67.8568 92.6442C67.8971 92.6352 67.9224 92.595 67.9135 92.5547L67.2684 89.7004L67.6457 86.9916C67.6517 86.9505 67.6226 86.9133 67.5824 86.9073C67.5421 86.9013 67.5033 86.9297 67.4973 86.9707Z" fill="#52B4BA"/>
<path d="M70.0937 94.1409C70.0937 95.1694 63.5476 95.1694 63.5476 94.1409C63.5476 93.1124 65.0132 92.2786 66.8203 92.2786C68.6289 92.2786 70.0937 93.1124 70.0937 94.1409Z" fill="white"/>
<path d="M63.6024 93.9373C63.6024 93.9373 63.5628 93.9769 63.5196 94.1007C63.3264 94.6489 63.6382 95.2463 64.1908 95.4275C64.6995 95.5946 65.5013 95.7385 66.7244 95.693C67.8715 95.6505 68.7038 95.5155 69.2781 95.3768C69.8845 95.2306 70.232 94.6511 70.138 94.035L70.0403 93.7427C70.0403 93.7427 69.1625 94.5228 66.8214 94.6205C64.4802 94.7175 63.6024 93.9373 63.6024 93.9373Z" fill="#E3E9FE"/>
<path d="M79.7923 89.9381C79.7923 89.9381 80.9626 89.0282 80.612 88.093C80.2615 87.1577 78.2746 86.6901 77.2222 86.9242C76.1706 87.1577 75.8514 87.5589 76.0856 88.3771C76.319 89.1953 76.6711 89.9374 76.6711 89.9374L74.6514 93.586L80.9633 93.9365L79.7923 89.9381Z" fill="#69D1D0"/>
<path d="M79.4798 87.204L78.9727 89.7406L79.3784 92.6814C79.3843 92.7224 79.4216 92.7507 79.4627 92.7448C79.5037 92.7388 79.532 92.7015 79.5261 92.6605L79.1241 89.7443L79.6267 87.2324C79.635 87.1921 79.6088 87.1526 79.5686 87.1444C79.5268 87.1376 79.4873 87.1637 79.4798 87.204Z" fill="#52B4BA"/>
<path d="M77.0203 86.9913L77.3977 89.7002L76.7525 92.5544C76.7436 92.5947 76.7689 92.6342 76.8085 92.6439C76.848 92.6536 76.8883 92.6275 76.898 92.588L77.5491 89.7069L77.168 86.9712C77.162 86.9301 77.1247 86.9018 77.0837 86.9078C77.0434 86.913 77.0151 86.9503 77.0203 86.9913Z" fill="#52B4BA"/>
<path d="M74.4277 94.2212C74.4277 95.2937 81.0604 95.2937 81.0604 94.2212C81.0604 93.1487 79.5754 92.2791 77.7444 92.2791C75.9134 92.2791 74.4277 93.1479 74.4277 94.2212Z" fill="white"/>
<path d="M80.964 93.8396C80.964 93.8396 81.0184 93.9112 81.0617 94.035C81.2548 94.5832 80.9282 95.2463 80.3763 95.4275C79.8676 95.5946 79.0658 95.7385 77.8427 95.693C76.6956 95.6505 75.8633 95.5155 75.289 95.3768C74.6826 95.2306 74.3351 94.6511 74.429 94.035L74.5268 93.7427C74.5268 93.7427 75.4046 94.5228 77.7457 94.6205C80.0861 94.7175 80.964 93.8396 80.964 93.8396Z" fill="#E3E9FE"/>
<path d="M95.103 88.4308V91.0561H96.9206L97.6276 88.1951L95.103 88.4308Z" fill="#FFAFA1"/>
<path d="M89.0491 87.9258C89.0491 87.9258 89.9545 90.1476 89.8538 91.1575C89.8538 91.1575 90.763 91.9652 91.6714 91.6624C92.5806 91.3596 91.6714 86.5125 91.6714 86.5125L89.0491 87.9258Z" fill="#FFAFA1"/>
<path d="M87.9342 46.3223C87.9342 46.3223 84.6019 53.286 83.3899 57.8229C82.178 62.3598 81.2695 68.7962 81.2695 68.7962C81.2695 68.7962 81.9766 71.5692 84.6019 76.212C87.2272 80.8547 89.3476 88.7337 89.3476 88.7337L91.6701 87.2189C91.6701 87.2189 91.9871 75.6921 87.0251 68.9417L93.1707 54.9306C93.1707 54.9306 94.901 66.7348 94.6989 68.7396C94.4968 70.7443 94.2946 74.4287 94.194 78.3324C94.0933 82.236 94.901 88.6322 94.901 88.6322H97.5263C97.5263 88.6322 98.9777 82.2621 99.7481 69.0424C100.517 55.8323 101.666 56.5214 101.566 46.3223H87.9342Z" fill="#434F97"/>
<path d="M88.6404 88.1281L92.0346 86.0137L92.3762 87.3815L88.6404 89.5414V88.1281Z" fill="#505FB5"/>
<path d="M94.1948 87.623L94.3037 89.0364H98.0149L98.2335 88.0265L94.1948 87.623Z" fill="#505FB5"/>
<path d="M89.8531 20.472C89.8531 20.472 90.1559 19.9671 93.5889 20.6742C97.0219 21.3812 100.152 23.0974 100.152 23.0974C100.152 23.0974 101.162 26.5304 96.1128 27.3381C91.0643 28.1466 88.6411 23.1988 89.8531 20.472Z" fill="#FFAFA1"/>
<path d="M95.49 24.0629C94.0752 24.0084 92.9616 22.8062 93.0161 21.3913L93.1518 17.8599C93.2063 16.445 94.4085 15.3315 95.8241 15.3859C97.2389 15.4404 98.3525 16.6427 98.298 18.0582L98.1623 21.5897C98.1071 23.0038 96.9048 24.1173 95.49 24.0629Z" fill="#FFAFA1"/>
<path d="M98.2247 17.3484C98.2247 17.3484 96.9203 20.3712 93.79 20.9768L93.2851 22.4916L90.9373 20.4212L91.0633 20.0677L93.083 20.5726V19.8656L98.2247 17.3484Z" fill="#DE666D"/>
<path d="M99.1619 15.058C98.7226 18.5708 95.2695 20.589 92.5263 20.0714C90.8497 19.7544 89.9502 16.8241 90.1606 13.7364C90.3709 10.6486 92.2504 8.21053 94.7213 8.37909C97.1922 8.54765 99.7392 10.4443 99.1619 15.058Z" fill="#FFAFA1"/>
<path d="M80.7647 21.5824L86.4195 27.2373C86.4195 27.2373 87.4294 36.123 87.4294 38.6477C87.4294 41.1723 87.8336 43.192 87.7322 44.3025C87.6315 45.413 87.4294 46.3222 87.4294 46.3222C87.4294 46.3222 88.2371 48.3419 94.4976 47.9377C100.758 47.5334 101.566 46.3222 101.566 46.3222L103.484 33.4977L107.624 33.5984L108.836 29.6605C108.836 29.6605 105.099 25.7225 103.181 24.7127C101.263 23.7028 99.0411 22.5923 99.0411 22.5923C99.0411 22.5923 98.4743 26.8882 93.3863 25.8239C89.0441 24.9148 91.5687 20.1691 91.5687 20.1691L79.6362 17.7571C79.6377 17.7571 80.8661 19.6642 80.7647 21.5824Z" fill="#FFC001"/>
<path d="M90.2009 13.1315C90.2009 13.1315 90.0018 11.5996 93.1864 10.9059C96.6918 10.1422 97.0081 11.0894 97.9374 9.50901C97.9374 9.50901 97.6331 6.5533 94.6699 6.95828C91.7067 7.36401 89.3186 9.73126 90.2009 13.1315Z" fill="#5E1212"/>
<path d="M99.2228 14.1919C99.2228 14.1919 97.4529 12.9173 97.2053 9.86392C97.1688 9.65882 97.4224 8.19998 96.9197 7.72266C96.9197 7.72266 100.606 8.98236 100.361 11.0908C100.116 13.2 99.2228 14.1919 99.2228 14.1919Z" fill="#5E1212"/>
<path d="M91.0596 9.647C91.0596 9.647 91.208 4.49558 96.8957 5.69263C102.583 6.88968 100.194 12.021 100.194 12.021C100.194 12.021 95.4808 8.63267 91.0596 9.647Z" fill="#3784A4"/>
<path d="M89.988 12.0032C89.988 12.0032 87.0689 10.2863 88.5016 8.56197C89.9351 6.83762 93.3234 7.67816 95.0776 8.60523C96.8362 9.53453 97.5731 10.5973 97.5731 10.5973C97.5731 10.5973 92.899 9.28542 91.5856 10.0469C90.2722 10.8084 89.988 12.0032 89.988 12.0032Z" fill="#2A878E"/>
<path d="M98.5295 14.2057C98.5295 14.2057 98.9732 12.9833 99.8466 13.1123C100.721 13.2414 100.43 14.5376 100.086 15.1208C99.7429 15.7048 99.2708 16.6848 98.3572 16.7236L98.5295 14.2057Z" fill="#FFAFA1"/>
<path d="M83.5925 94.2578V94.9022C83.5925 94.9022 85.5265 95.117 87.7818 94.9022C90.038 94.6874 90.575 94.3652 91.8637 94.1504C93.1525 93.9356 93.5829 93.8282 93.5829 93.8282L93.4755 92.8616L88.6418 93.8282L83.5925 94.2578Z" fill="#E3E9FE"/>
<path d="M83.5926 94.2579C83.5926 94.2579 83.5613 93.5434 84.8814 93.0765C86.2015 92.6096 87.2695 92.6372 88.0355 91.7631C88.8014 90.889 88.1108 90.2826 88.7813 89.8791C89.4518 89.4757 90.2498 90.3736 90.2379 91.1553C90.2379 91.1553 90.8965 91.5341 91.435 91.0553C91.9734 90.5765 91.4745 90.3774 91.9854 89.7941C92.4963 89.2116 93.5158 91.5379 93.4763 92.2158V92.9676L89.1013 93.9163C88.0825 94.143 87.0413 94.2571 85.9971 94.2571H83.5926V94.2579Z" fill="#D1385C"/>
<path d="M94.7832 91.4778C94.7832 91.4778 94.1388 90.6186 95.7498 90.0816C97.3608 89.5446 97.3608 90.2964 97.3608 90.726C97.3608 91.1556 97.3608 91.6926 97.8978 92.8747C98.4348 94.0568 98.8069 94.4484 97.5756 95.0234C95.9646 95.7752 93.6011 95.5604 93.6011 95.0234C93.6011 94.4864 94.3529 93.1969 94.5677 92.6599C94.7832 92.1221 94.7832 91.4778 94.7832 91.4778Z" fill="#D1385C"/>
<path d="M93.7079 95.1297C93.7079 95.1297 93.9227 95.6667 96.2862 95.3445C98.6661 95.02 98.3961 94.0557 98.3961 94.0557C98.3961 94.0557 98.4342 94.8075 98.4342 95.0223C98.4342 95.2371 98.4342 95.6666 96.3928 96.0962C94.3515 96.5258 93.5997 95.9888 93.5997 95.9888C93.4923 95.5593 93.5997 95.0223 93.5997 95.0223L93.7079 95.1297Z" fill="#E3E9FE"/>
<path d="M61.7597 20.4279C62.0722 20.2198 61.9701 19.8692 62.387 19.7656C62.8039 19.6612 62.9799 19.9446 63.3968 20.6747C63.8137 21.4042 64.0024 21.8867 64.0024 21.8867L64.4693 23.7632C64.0524 24.0757 63.6996 23.9064 63.5318 23.5551L63.1947 22.4931L62.387 21.6853L62.8919 22.5945L63.2961 24.4121C62.7912 24.7149 62.387 24.2099 62.387 24.2099C62.387 24.4121 62.0842 24.4121 62.0842 24.4121C61.2764 24.3114 60.5694 23.6043 60.5694 23.6043C60.5694 23.6043 60.7715 24.1093 60.8722 24.5135C60.9729 24.9177 60.6701 25.0184 60.6701 25.0184L59.7609 24.0086L59.2456 23.168C59.1665 22.9622 59.1531 22.7347 59.2224 22.5259C59.253 22.4334 59.2978 22.3491 59.3626 22.3066C59.6751 22.0985 59.6751 22.0985 59.7796 21.9941C59.9876 21.786 59.843 21.5302 60.1965 21.2647C60.1965 21.2647 60.4046 21.0566 60.7178 21.1603C61.0303 21.2647 60.8513 20.7933 61.2391 20.5353C61.5516 20.3272 61.7321 20.4286 61.7321 20.4286L61.7597 20.4279Z" fill="#FFAFA1"/>
<path d="M72.2722 21.179H70.6762C69.6708 21.179 68.8489 20.3571 68.8489 19.3517V15.0289C68.8489 14.0243 69.6708 13.2017 70.6762 13.2017H72.2722C73.2776 13.2017 74.0995 14.0243 74.0995 15.0289V19.3517C74.0995 20.3564 73.2768 21.179 72.2722 21.179Z" fill="#FFBDB3"/>
<path d="M74.0946 15.95C74.0946 15.95 72.2815 18.4522 69.8576 18.3515L69.6555 19.8663L68.2145 19.7246L68.0698 19.3919L68.8477 19.0586L68.8716 16.9046L74.0946 15.95Z" fill="#DE666D"/>
<path d="M116.209 11.9898C116.209 11.9898 113.482 10.2729 111.059 12.394C108.636 14.5144 108.837 17.1397 109.544 18.7559C110.251 20.3714 108.837 22.9967 108.837 24.6129C108.837 26.2291 109.241 27.3896 109.241 27.3896C109.241 27.3896 109.141 25.1178 109.746 24.3101C109.746 24.3101 109.241 27.5417 109.746 28.9551C110.251 30.3684 113.381 32.0853 113.584 33.2973C113.584 33.2973 116.916 31.4797 117.824 28.8544C118.734 26.2291 118.881 25.27 118.881 25.27C118.881 25.27 119.036 28.3495 118.531 29.2586C118.531 29.2586 120.955 27.8446 121.258 25.2192C121.561 22.5939 120.148 20.2714 119.945 17.9489C119.743 15.6264 119.642 12.4947 116.209 11.9898Z" fill="#443E61"/>
<path d="M119.036 18.6543C119.036 18.6543 118.632 19.5635 119.137 21.1789C119.642 22.7944 119.541 24.3091 119.44 25.2183C119.339 26.1275 117.723 26.1275 117.723 26.1275V21.6838C117.723 21.6838 118.228 19.3613 119.036 18.6543Z" fill="#292C61"/>
<path d="M110.949 18.7559C110.949 18.7559 111.782 19.4256 111.656 21.1835C111.531 22.9414 112.167 24.3227 112.602 25.1327C113.037 25.9426 115.16 25.1938 115.16 25.1938L113.681 21.0045C113.681 21.0045 112.245 19.0482 110.949 18.7559Z" fill="#292C61"/>
<path d="M111.059 12.4944C108.636 14.6147 108.837 17.2401 109.544 18.8563C110.251 20.4717 108.837 23.097 108.837 24.7132C108.837 26.3294 109.241 27.4899 109.241 27.4899C109.241 27.4899 109.144 25.2741 109.725 24.441C109.781 24.0472 109.849 23.6482 109.931 23.2462C110.52 20.3658 110.352 20.4717 109.813 17.7114C109.275 14.9511 110.554 13.4035 111.665 12.4944C112.765 11.5934 114.561 11.5076 114.591 11.5061C113.601 11.3309 112.291 11.4166 111.059 12.4944Z" fill="#292C61"/>
<path d="M118.123 25.5906C118.123 25.5906 117.62 24.31 116.207 24.31C114.793 24.31 113.406 25.3698 113.406 25.3698C113.406 25.3698 113.178 24.5121 113.279 24.1079C113.379 23.7037 116.813 22.391 118.328 24.1079C118.328 24.1079 118.631 24.5121 118.53 25.3199L118.123 25.5906Z" fill="#6D8CFF"/>
<path d="M112.775 25.319C112.775 25.319 113.482 24.2085 115.401 24.107C117.319 24.0064 118.639 24.732 118.989 25.4801C119.339 26.2274 115.703 31.5795 115.703 31.5795C115.703 31.5795 112.472 26.3289 112.775 25.319Z" fill="#FFBDB3"/>
<path d="M110.654 23.5012C110.654 23.5012 108.736 28.449 107.927 30.9736C107.12 33.4983 106.817 34.4067 108.735 35.9215C108.735 35.9215 109.038 41.0714 109.644 41.7784C109.644 41.7784 112.371 42.9904 113.684 43.1925C114.996 43.3946 119.136 42.7883 119.136 42.7883L120.954 36.7292C120.954 36.7292 121.878 36.0923 122.267 35.3158C122.974 33.9025 121.56 31.1758 121.661 29.1561C121.762 27.1364 121.863 25.2181 121.863 25.2181L118.531 24.7132C118.43 25.9252 115.401 30.7715 115.401 30.7715C115.401 30.7715 113.482 26.9343 113.28 24.5111L110.654 23.5012Z" fill="#E3E9FE"/>
<path d="M108.736 35.9216C108.736 35.9216 110.251 36.7294 111.361 36.6287C111.361 36.6287 109.644 37.1336 109.544 39.1533C109.443 41.173 110.049 41.88 110.049 41.88L109.544 41.7793C109.544 41.7786 108.938 39.8596 108.736 35.9216Z" fill="#ACBDFF"/>
<path d="M118.227 37.0321L120.359 38.7109L120.953 36.7292C120.953 36.7292 119.943 37.4363 118.227 37.0321Z" fill="#ACBDFF"/>
<path d="M115.401 30.7717C115.25 31.255 115.101 31.7376 114.968 32.2253C114.83 32.7109 114.701 33.1994 114.578 33.6879C114.338 34.6672 114.127 35.6539 114.01 36.6511C113.953 37.1493 113.914 37.6505 113.903 38.1532C113.886 38.6559 113.887 39.16 113.899 39.6635C113.913 40.1676 113.933 40.6718 113.966 41.1753C113.994 41.6794 114.039 42.1829 114.088 42.687C113.9 41.6921 113.781 40.6838 113.724 39.6709C113.666 38.6581 113.672 37.6385 113.787 36.625L113.837 36.2461C113.855 36.12 113.878 35.9947 113.898 35.8694C113.919 35.7441 113.94 35.6189 113.966 35.4943C113.991 35.3697 114.014 35.2444 114.041 35.1206C114.151 34.6247 114.271 34.1317 114.41 33.6439C114.686 32.6676 115.014 31.7077 115.401 30.7717Z" fill="#ACBDFF"/>
<path d="M116.531 27.3387H115.279C114.512 27.3387 113.885 26.7114 113.885 25.9447V21.912C113.885 21.2863 114.397 20.7747 115.023 20.7747H116.787C117.413 20.7747 117.925 21.2863 117.925 21.912V25.9447C117.925 26.7114 117.297 27.3387 116.531 27.3387Z" fill="#FFBDB3"/>
<path d="M117.925 22.0874C117.925 22.0874 117.622 24.5106 115.3 24.3092C115.092 24.2913 114.492 24.2085 114.492 24.2085L114.391 25.0163L113.281 25.6219L113.255 24.8082L113.874 24.4479L113.886 22.9966L117.925 22.0874Z" fill="#E07972"/>
<path d="M112.573 24.3091C112.573 24.3091 112.169 23.8042 108.838 22.9964C106.814 22.5057 104.193 20.9767 103.283 20.3711C102.374 19.7655 99.9511 18.9578 99.244 19.9669C98.537 20.9767 98.9621 22.8241 100.456 23.7035C105.606 26.733 108.384 30.1288 108.384 30.1288L112.573 24.3091Z" fill="#E3E9FE"/>
<path d="M103.484 25.0161C102.498 24.1711 100.455 22.5929 100.455 22.5929L98.9424 21.6204C99.0699 22.4385 99.5778 23.2888 100.455 23.8049C105.019 26.4899 107.675 29.3233 108.23 29.9647C108.369 29.6909 104.898 26.2273 103.484 25.0161Z" fill="#ACBDFF"/>
<path d="M108.927 19.3428C108.927 19.3428 104.64 20.6741 101.869 22.3903C99.0981 24.1064 98.6372 21.2797 98.6372 21.2797C98.6372 21.2797 98.5708 19.9715 99.9625 19.2235C101.354 18.4754 105.444 18.4486 107.296 18.0041C109.149 17.5595 109.927 17.6229 110.154 17.7199C110.38 17.8169 111.516 20.1438 111.755 20.4243C111.993 20.7047 112.26 21.4624 112.061 21.8063C111.86 22.1501 111.357 22.9548 111.357 22.9548L108.893 22.441C108.893 22.441 108.866 22.0002 109.748 21.9465L110.135 21.0381L108.927 19.3428Z" fill="#FFBDB3"/>
<path d="M121.256 31.6808L127.012 28.3484L128.83 24.1069L121.256 25.3189V31.6808Z" fill="#E3E9FE"/>
<path d="M115.401 30.7715L116.512 28.8533L117.622 30.5694L116.512 29.4589L115.401 30.7715Z" fill="#ACBDFF"/>
<path d="M121.459 53.0886L117.521 66.5187C117.521 66.5187 118.833 70.9616 118.531 73.5869C118.228 76.2122 115.198 83.8868 114.895 85.1994C114.593 86.5121 114.29 87.8247 114.29 87.8247H112.472L113.785 67.7299L114.895 53.7949L121.459 53.0886Z" fill="#FFAC9E"/>
<path d="M113.208 84.5637L115.374 84.6689L114.49 88.128H112.673L112.906 84.5637H113.208Z" fill="#B1C2FD"/>
<path d="M114.677 93.0736C114.677 93.0736 115.302 92.8655 115.615 92.5523C115.927 92.2398 115.682 91.655 115.682 91.655C115.682 91.655 115.615 92.0317 114.782 92.3442C113.949 92.6567 112.698 92.2398 112.281 91.9273C112.281 91.9273 112.177 92.2398 112.281 92.5523C112.384 92.8655 113.635 93.2824 114.677 93.0736Z" fill="#E3E9FE"/>
<path d="M114.364 87.3001C114.364 87.3001 114.572 86.9921 114.885 87.095C115.197 87.1979 114.677 88.3279 114.78 89.0469C114.885 89.7658 115.614 91.6155 115.614 91.6155L114.364 91.5125C114.364 91.5125 114.051 90.2797 114.051 89.3556C114.051 88.4315 114.364 87.3001 114.364 87.3001Z" fill="#5478FF"/>
<path d="M113.01 87.2106C113.01 87.2106 112.78 86.9175 112.476 87.0421C112.171 87.1666 112.771 88.257 112.717 88.982C112.663 89.7069 112.065 91.602 112.065 91.602L113.305 91.4118C113.305 91.4118 113.531 90.1604 113.467 89.2378C113.401 88.3159 113.01 87.2106 113.01 87.2106Z" fill="#5478FF"/>
<path d="M113.113 86.7275C113.113 86.7275 113.738 86.3904 114.259 86.8722C114.78 87.3532 114.363 87.9312 114.259 88.6047C114.154 89.2789 114.259 89.6638 114.259 89.6638L114.676 91.2039H113.842L112.774 91.1569L112.885 88.7516L112.696 87.7388C112.696 87.7388 112.488 87.0646 113.113 86.7275Z" fill="#456CFF"/>
<path d="M114.65 90.0647H112.39C112.371 90.0647 112.355 90.0491 112.355 90.0297C112.355 90.0103 112.371 89.9946 112.39 89.9946H114.686C114.705 89.9946 114.721 90.0103 114.721 90.0297C114.721 90.0491 114.705 90.0647 114.686 90.0647H114.65Z" fill="white"/>
<path d="M114.646 89.5428H112.39C112.371 89.5428 112.355 89.5271 112.355 89.5077C112.355 89.4883 112.371 89.4727 112.39 89.4727H114.686C114.705 89.4727 114.721 89.4883 114.721 89.5077C114.721 89.5271 114.705 89.5428 114.686 89.5428H114.646Z" fill="white"/>
<path d="M114.586 89.043H112.495C112.476 89.043 112.46 89.0273 112.46 89.008C112.46 88.9886 112.476 88.9729 112.495 88.9729H114.635C114.654 88.9729 114.67 88.9886 114.67 89.008C114.67 89.0273 114.654 89.043 114.635 89.043H114.586Z" fill="white"/>
<path d="M115.719 91.7713C115.719 91.9279 114.983 92.6573 113.947 92.6573C112.911 92.6573 111.967 92.0323 111.967 91.7713C111.967 91.4065 112.85 90.9553 113.886 90.9553C114.922 90.9546 115.719 91.511 115.719 91.7713Z" fill="white"/>
<path d="M114.764 61.9707L116.914 56.3195L120.751 55.4111L121.457 53.0886L114.764 54.5691V61.9707Z" fill="#D95D55"/>
<path d="M107.321 49.049C107.321 49.049 105.403 53.1891 107.321 59.1467C109.24 65.1044 109.947 66.922 109.947 66.922C109.947 66.922 107.624 71.2642 108.23 75.707C108.835 80.1499 110.148 83.1795 110.35 84.5928C110.552 86.0069 110.956 89.2378 110.956 89.2378H112.773C112.773 89.2378 113.48 72.7782 114.086 68.1332C114.692 63.4882 115.355 59.4264 115.125 56.0046C114.895 52.5835 109.038 45.9188 107.321 49.049Z" fill="#FFBDB3"/>
<path d="M110.35 85.4014L112.983 85.5311L112.774 90.0464H110.855L110.35 85.4014Z" fill="#E3E9FE"/>
<path d="M106.615 55.9158C106.615 55.9158 108.028 55.8151 110.856 56.118C113.683 56.4208 115.173 57.7841 115.173 57.7841C115.173 57.7841 115.299 56.0508 115.147 55.2767C114.996 54.5025 109.24 53.2905 109.24 53.2905L106.497 53.7783C106.497 53.7783 106.311 54.5017 106.615 55.9158Z" fill="#E07972"/>
<path d="M109.138 41.3745L113.379 42.7886L113.985 41.6781L115.702 42.7886L119.406 41.8854C119.406 41.8854 119.727 43.3771 119.741 43.3942C121.356 45.3125 121.873 48.3017 122.468 51.2709L115.197 54.199L105.807 52.8863C105.807 52.8863 106.514 47.1308 108.836 43.4956L109.138 41.3745Z" fill="#6D8CFF"/>
<path d="M114.895 54.4009C114.895 54.4009 116.308 53.2904 119.338 52.0784C122.367 50.8665 122.569 50.8665 122.569 50.8665L122.974 53.3911L115.198 55.7136L114.895 54.4009Z" fill="#8FA7FF"/>
<path d="M105.504 52.3813C105.504 52.3813 105.302 51.5736 110.755 52.6841L115.197 53.694L115.4 56.1172C115.4 56.1172 111.969 54.6732 108.836 54.4003C106.514 54.1982 105.504 54.501 105.504 54.501V52.3813Z" fill="#8FA7FF"/>
<path d="M113.279 24.1069C113.279 24.1069 112.673 24.7125 112.572 25.6217C112.471 26.5309 113.279 30.4688 113.279 30.4688L114.522 28.79C114.522 28.79 113.379 25.9245 113.279 24.1069Z" fill="white"/>
<path d="M118.328 24.1069C118.328 24.1069 118.53 24.7125 118.025 25.8238C117.546 26.8777 116.51 28.8534 116.51 28.8534L117.621 30.5703C117.621 30.5703 119.136 27.6421 119.136 26.4302C119.136 25.2182 118.328 24.1069 118.328 24.1069Z" fill="white"/>
<path d="M115.399 30.7717L114.49 29.459L113.279 30.4688L114.49 28.752L115.399 30.7717Z" fill="#ACBDFF"/>
<path d="M118.834 17.5439C119.425 21.3864 117.04 23.3875 116.162 23.6217C115.479 23.8044 112.137 23.3226 111.159 19.6643C110.404 16.8354 110.402 14.1855 113.426 13.3777C116.646 12.5178 118.431 14.9186 118.834 17.5439Z" fill="#FFBDB3"/>
<path d="M132.668 21.8862C132.668 21.8862 131.355 25.9256 136.909 25.9256C142.462 25.9256 143.573 22.4926 143.573 22.4926C143.573 22.4926 139.534 19.6644 132.668 21.8862Z" fill="#FFAC9E"/>
<path d="M127.72 48.2413C127.72 48.2413 125.498 55.3095 125.297 66.922C125.095 78.5345 125.297 89.7428 125.297 89.7428C125.297 89.7428 129.235 89.3385 129.639 89.2378L134.587 60.6608C134.587 60.6608 138.727 85.4006 138.323 91.3582H142.867C142.867 91.3582 143.271 50.3609 142.867 46.3215L127.72 48.2413Z" fill="#6D8CFF"/>
<path d="M141.35 47.3321V91.3589H141.888V46.76L141.35 47.3321Z" fill="#FF5475"/>
<path d="M142.26 47.3321V91.3589H142.798V46.76L142.26 47.3321Z" fill="#FF5475"/>
<path d="M127.113 50.261C127.113 50.261 129.94 53.4926 136.1 52.0785L137.009 55.0067C137.009 55.0067 141.169 48.7462 142.927 47.3321L142.967 46.3223C142.967 46.3223 134.653 50.4288 127.416 48.342L127.113 50.261Z" fill="#5478FF"/>
<path d="M127.013 48.0392C127.013 48.0392 127.457 50.9196 131.052 51.4722C134.99 52.0778 137.212 50.7652 139.332 48.7455C141.452 46.7258 142.059 47.3321 142.059 47.3321C142.059 47.3321 146.401 23.5015 144.079 22.4917C144.079 22.4917 139.938 25.4198 136.303 24.8142C132.668 24.2086 133.779 21.9867 132.87 22.5923C131.96 23.1987 125.901 41.0717 127.013 48.0392Z" fill="#E3E9FE"/>
<path d="M144.482 19.0588C144.482 19.0588 139.634 18.0489 137.009 18.1496C134.384 18.2503 132.061 20.4721 129.132 21.0777L130.647 23.7031C130.647 23.7031 126.002 32.0846 124.589 52.078L127.416 49.5534C127.416 49.5534 127.214 42.788 129.436 33.7001C131.658 24.6122 132.263 24.6122 132.768 23.9052C133.165 23.3503 134.485 22.2897 134.99 22.1883C136.993 21.7878 141.453 22.1883 141.453 22.1883L144.482 19.0588Z" fill="#2A878E"/>
<path d="M132.97 7.64746C132.97 7.64746 131.052 8.0517 131.253 10.3742C131.393 11.9867 133.171 12.3939 133.171 12.3939L132.97 7.64746Z" fill="#F2CA51"/>
<path d="M139.072 24.3091H136.966C136.101 24.3091 135.394 23.6013 135.394 22.7369V16.7934C135.394 15.9282 136.102 15.2212 136.966 15.2212H139.072C139.937 15.2212 140.644 15.929 140.644 16.7934V22.7369C140.645 23.6013 139.937 24.3091 139.072 24.3091Z" fill="#FFAC9E"/>
<path d="M140.645 17.3499C140.645 17.3499 140.616 19.2159 138.524 19.6642C137.11 19.967 136.202 20.1691 136.202 20.1691L135.798 22.7944L133.512 23.1449C133.512 23.1449 134.182 22.2581 135.394 22.1224V19.1592L140.645 17.3499Z" fill="#E07972"/>
<path d="M138.242 18.9681L136.606 19.2597C134.688 19.7646 132.901 19.4745 132.782 16.8902L132.571 8.09619L141.452 8.41764L140.957 16.2332C140.918 17.2922 140.239 18.5363 138.242 18.9681Z" fill="#FFAC9E"/>
<path d="M140.241 8.0517C140.241 8.0517 139.534 8.85943 140.443 10.8791C140.443 10.8791 140.342 11.6869 140.746 12.7974C141.149 13.9079 142.361 14.2115 142.967 12.9995C143.574 11.7875 142.765 11.2826 142.765 11.2826C142.765 11.2826 144.078 10.1721 143.573 8.65731C143.068 7.14254 140.948 6.63836 140.241 8.0517Z" fill="#F2CA51"/>
<path d="M132.649 11.3339L133.072 10.0712C133.072 10.0712 133.779 10.5762 134.789 10.0712C134.789 10.0712 136.001 10.6769 137.515 10.2734C139.03 9.86913 140.104 8.88464 140.104 8.88464L134.937 8.63404L132.65 8.34839L132.568 8.86003L132.649 11.3339Z" fill="#E07972"/>
<path d="M118.63 18.1785C118.63 18.1785 118.537 17.3387 119.19 17.0583C119.844 16.7786 119.844 18.5514 119.564 19.1115C119.284 19.6716 118.63 19.7649 118.63 19.7649V18.1785Z" fill="#FFBDB3"/>
<path d="M113.003 22.5818C113.003 22.5818 112.067 21.4817 111.865 20.2698C111.764 19.6642 111.865 18.755 111.865 18.755L112.269 19.462C112.471 18.2501 112.976 18.0487 113.38 17.7451C113.784 17.4423 115.197 16.4325 115.5 16.1297C115.5 16.1297 115.5 16.6346 114.692 17.4423C114.692 17.4423 115.803 17.1395 116.308 16.0283C116.39 15.8485 116.51 15.4226 116.51 15.4226C117.881 16.1692 118.428 18.1494 118.428 18.1494C118.933 15.6248 116.408 14.2114 116.408 14.2114H115.499C115.499 14.2114 112.369 16.4332 111.662 17.241C110.955 18.0487 111.203 20.0318 111.534 20.7061C111.865 21.381 112.323 22.0665 113.003 22.5818Z" fill="#E07972"/>
<path d="M116.006 12.8989C116.006 12.8989 116.209 15.2214 114.694 16.2312C112.514 17.6841 112.068 18.0488 112.068 19.3615C112.068 19.3615 111.463 18.6544 112.068 17.5439C112.068 17.5439 111.261 18.0488 111.463 19.3615C111.665 20.6741 110.756 21.7847 110.756 21.7847C110.756 21.7847 111.361 20.472 110.756 19.1593C110.15 17.8467 109.719 15.3817 111.059 13.9087C112.068 12.7975 115.401 12.2925 116.006 12.8989Z" fill="#443E61"/>
<path d="M115.299 12.8989C115.299 12.8989 116.062 13.9192 115.804 15.1207C115.502 16.534 114.694 17.1404 114.694 17.1404C114.694 17.1404 116.309 16.2312 116.411 14.8179C116.491 13.6917 116.31 13.2024 116.006 13.0003C115.704 12.7975 115.299 12.8989 115.299 12.8989Z" fill="#443E61"/>
<path d="M116.014 13.3524C116.014 13.3524 115.803 14.413 117.015 15.3221C118.227 16.2313 118.631 17.4425 118.53 18.2502C118.53 18.2502 119.439 17.0383 118.328 14.9179C117.217 12.7975 115.923 12.7968 116.014 13.3524Z" fill="#443E61"/>
<path d="M140.746 22.4915L139.231 23.2992L139.698 24.5947L140.948 24.1069L140.746 22.4915Z" fill="#E07972"/>
<path d="M141.049 25.016L140.241 21.8858L144.483 19.0583L144.078 22.1886C144.078 22.1886 146.401 23.7034 147.006 24.4104C147.612 25.1174 144.482 36.225 144.482 36.225C144.482 36.225 143.371 45.0101 143.674 46.3228C143.674 46.3228 139.13 50.0594 137.312 53.7952C137.313 53.7945 135.293 39.7588 141.049 25.016Z" fill="#3784A4"/>
<path d="M146.097 24.4101L144.482 36.4268L149.531 40.5669L155.286 43.1922L148.521 26.5305C148.521 26.5305 147.393 24.6122 146.644 24.0566C145.895 23.5009 146.588 24.0081 146.588 24.0081L146.097 24.4101Z" fill="#3784A4"/>
<path d="M147.916 42.0813L148.623 46.1207H153.671L147.916 42.0813Z" fill="#2A878E"/>
<path d="M147.916 42.0815L149.128 39.5569L156.196 41.3745L153.671 46.1209L147.916 42.0815Z" fill="#88E6E2"/>
<path d="M130.85 55.2087L134.586 60.8636L129.638 89.2385L128.528 89.3392C128.528 89.3392 131.051 76.0106 130.85 55.2087Z" fill="#5478FF"/>
<path d="M136.808 1.38696C136.808 1.38696 131.961 2.09401 133.173 6.94113C134.385 11.7883 140.847 8.4559 140.847 8.4559C140.847 8.4559 142.052 5.88802 141.251 4.61863C140.039 2.70036 137.818 3.60878 137.516 4.41651C137.516 4.41651 138.121 2.29612 136.708 2.39681C135.294 2.4975 134.285 3.81015 134.082 5.32492C134.081 5.32492 133.778 2.80105 136.808 1.38696Z" fill="#F2CA51"/>
<path d="M133.274 5.12354C133.274 5.12354 131.053 6.0327 131.962 7.95096C132.871 9.86923 135.092 8.96081 135.092 8.96081L133.274 5.12354Z" fill="#F2CA51"/>
<path d="M142.766 11.2833C142.766 11.2833 144.079 10.1727 143.574 8.65796C143.201 7.53922 141.947 6.97239 141.032 7.32144C141.854 7.28937 142.762 7.83606 143.069 8.75864C143.574 10.2734 142.261 11.3839 142.261 11.3839C142.261 11.3839 143.069 11.8889 142.463 13.1008C142.294 13.4387 142.078 13.6587 141.845 13.7766C142.255 13.8094 142.68 13.5759 142.968 13.0002C143.574 11.7882 142.766 11.2833 142.766 11.2833Z" fill="#FFC001"/>
<path d="M140.543 7.04184C140.543 7.04184 143.653 6.57347 142.238 4.25171C142.238 4.25171 144.017 5.69339 141.879 7.58928C139.741 9.48517 139.863 7.25888 140.543 7.04184Z" fill="#F2CA51"/>
<path d="M140.743 12.8406C140.743 12.8406 140.85 12.1977 141.707 12.0911C142.563 11.9837 142.778 13.5902 142.349 14.1257C141.921 14.6612 140.742 15.6248 140.742 15.6248V12.8406H140.743Z" fill="#FFAC9E"/>
<path d="M109.41 94.1985C109.41 94.1985 109.076 95.3135 109.744 95.9825C110.106 96.3442 111.799 96.9185 113.296 96.6358C114.054 96.4926 114.564 95.7774 114.452 95.0137C114.412 94.7414 114.341 94.4282 114.219 94.0776L109.41 94.1985Z" fill="#E3E9FE"/>
<path d="M110.074 89.9843C110.074 89.9843 109.839 89.2765 110.782 89.1587C111.726 89.0409 112.905 89.0409 113.26 89.1587C113.614 89.2765 113.024 90.8107 113.142 91.4006C113.26 91.9906 114.427 94.0289 114.427 95.0902C114.427 95.9547 112.251 96.1851 110.868 95.7317C110.552 95.628 109.83 95.4885 109.633 95.3125C108.922 94.6808 109.602 93.4054 110.429 91.5177L110.074 89.9843Z" fill="#5478FF"/>
<path d="M112.531 88.735C112.531 88.735 110.379 88.512 110.675 89.627C110.97 90.742 111.082 91.9682 111.082 91.9682L110.859 95.7584C110.859 95.7584 112.042 96.2089 113.346 95.8718L112.531 91.8563C112.531 91.8563 112.921 89.5151 112.894 89.2362C112.866 88.958 112.866 88.735 112.531 88.735Z" fill="#456CFF"/>
<path d="M109.41 94.9783C109.41 94.9783 110.079 94.0863 112.085 94.1982C114.092 94.3093 114.427 94.9783 114.427 94.9783C114.427 94.9783 114.761 96.2097 112.085 96.0933C109.522 95.9815 109.41 94.9783 109.41 94.9783Z" fill="white"/>
<path d="M110.731 93.2875H113.145C113.166 93.2875 113.182 93.2711 113.182 93.2502C113.182 93.2293 113.166 93.2129 113.145 93.2129H110.693C110.672 93.2129 110.656 93.2293 110.656 93.2502C110.656 93.2711 110.672 93.2875 110.693 93.2875H110.731Z" fill="white"/>
<path d="M110.735 92.7303H113.145C113.166 92.7303 113.182 92.7139 113.182 92.6931C113.182 92.6722 113.166 92.6558 113.145 92.6558H110.693C110.672 92.6558 110.656 92.6722 110.656 92.6931C110.656 92.7139 110.672 92.7303 110.693 92.7303H110.735Z" fill="white"/>
<path d="M110.799 92.1957H113.034C113.055 92.1957 113.071 92.1793 113.071 92.1584C113.071 92.1375 113.055 92.1211 113.034 92.1211H110.749C110.728 92.1211 110.711 92.1375 110.711 92.1584C110.711 92.1793 110.728 92.1957 110.749 92.1957H110.799Z" fill="white"/>
<path d="M142.564 53.0883C142.564 53.0883 139.938 50.5637 139.938 50.0587L140.569 49.3442C140.569 49.3442 142.261 51.1693 142.564 53.0883Z" fill="#5478FF"/>
<path d="M148.805 42.7065C148.805 42.7065 143.573 46.2283 142.259 47.588C140.947 48.9484 139.92 50.1253 139.937 50.1596C140.24 50.7652 141.351 51.8765 141.351 51.8765C142.159 51.6744 151.651 47.2315 152.761 46.1209L153.266 45.8375L148.805 42.7065Z" fill="#FFAC9E"/>
<path d="M74.604 8.55638C74.604 8.55638 74.604 7.95077 75.4117 7.84933C76.2195 7.74865 76.0173 9.16199 75.6139 10.1718C75.2096 11.1817 74.9068 11.081 74.9068 11.081L74.604 8.55638Z" fill="#FFBDB3"/>
<path d="M65.8186 10.4772C65.8186 10.4772 64.9094 9.56659 64.4045 10.7786C63.8996 11.9905 65.8887 13.0048 66.51 13.204L65.8186 10.4772Z" fill="#FFBDB3"/>
<path d="M65.8201 10.7785C66.5525 11.261 67.9404 12.6967 67.9404 12.6967C67.9404 12.6967 68.4454 11.6869 70.3636 11.1819C72.2819 10.677 73.5953 11.1819 73.5953 11.1819C73.8981 9.8693 74.6051 8.55664 74.6051 8.55664L76.1199 13.5044C76.2206 14.5143 75.0735 15.2266 75.0735 15.2266C75.0735 15.2266 74.6052 16.9375 71.2728 17.5431C67.9405 18.1487 66.325 15.7255 66.325 15.7255C65.9208 14.7157 65.8201 12.0904 65.8201 12.0904V10.7785Z" fill="#434F97"/>
<path d="M70.5664 6.43621C70.5664 6.43621 65.6186 7.54674 65.1137 4.21439C65.1137 4.21439 65.013 3.60878 65.6186 2.90174C65.6186 2.90174 65.1137 1.68977 67.2341 0.579239C69.3545 -0.531296 68.951 0.0743149 69.1523 1.38697C69.1523 1.38697 70.6671 1.18485 71.9798 2.80105C71.9798 2.80105 73.3931 1.99332 74.2016 3.10386C75.0093 4.21439 75.82 6.65623 74.6058 8.55659C74.6058 8.55659 72.5861 8.05167 71.5763 6.13341L70.5664 6.43621Z" fill="#434F97"/>
<path d="M66.8955 6.03188C66.8955 6.03188 66.9291 7.95015 66.222 9.16211L65.8178 10.7776C65.8178 10.7776 65.1107 10.4748 64.9086 9.5656C64.9086 9.5656 63.2932 8.15152 64.4037 6.23325C65.515 4.31574 66.9626 4.51711 66.8955 6.03188Z" fill="#434F97"/>
<path d="M134.485 16.5339C134.485 16.5339 135.293 15.4233 138.323 15.4233C138.323 15.4233 137.918 16.736 136.606 17.1402C135.293 17.5437 134.485 16.5339 134.485 16.5339Z" fill="#DE666D"/>
<path d="M138.323 15.4233C136.195 15.4233 135.165 15.9708 134.739 16.2974C134.912 16.4764 135.196 16.736 135.394 16.736C135.671 16.736 137.465 16.3989 138.158 15.8007C138.275 15.5792 138.323 15.4233 138.323 15.4233Z" fill="white"/>
<path d="M136.908 12.493C136.908 12.493 137.114 12.1215 137.917 11.9865C138.523 11.8844 138.927 12.1872 138.927 12.1872C138.927 12.1872 138.624 11.5816 137.816 11.6837C137.008 11.7859 136.908 12.493 136.908 12.493Z" fill="#322D47"/>
<path d="M132.848 13.145C132.848 13.145 132.978 12.7758 133.57 12.6117C134.162 12.4476 134.606 12.8071 134.606 12.8071C134.606 12.8071 134.331 12.1254 133.538 12.3104C132.746 12.4961 132.848 13.145 132.848 13.145Z" fill="#322D47"/>
<path d="M140.846 13.7572C140.846 14.2868 140.213 14.7164 139.432 14.7164C138.651 14.7164 138.019 14.2868 138.019 13.7572C138.019 13.2277 138.652 12.7981 139.432 12.7981C140.214 12.7974 140.846 13.2269 140.846 13.7572Z" fill="#FF8686"/>
<path d="M132.7 13.5022L132.746 15.4078C133.473 15.3131 134.016 14.8544 133.975 14.3495C133.937 13.8706 133.384 13.5164 132.7 13.5022Z" fill="#FF8686"/>
<path d="M140.913 51.5066L151.651 45.7175L148.609 42.8394L148.824 42.688L153.266 45.8182C153.266 45.8182 150.136 48.3428 141.351 51.8773L140.913 51.5066Z" fill="#E07972"/>
<path d="M139.938 25.7231L139.686 24.5365L140.915 24.1077L141.201 25.0668C141.201 25.0668 139.131 29.459 138.323 35.8209C137.515 42.1828 137.079 50.5084 137.079 50.5084C137.079 50.5084 137.035 50.665 136.215 50.9678C136.215 50.9678 135.798 43.8996 137.111 36.5279C138.424 29.1562 139.938 25.7231 139.938 25.7231Z" fill="#ACBDFF"/>
<path d="M142.564 35.417L144.483 36.2247L143.839 42.0056L142.564 35.417Z" fill="#369D9D"/>
<path d="M127.716 26.7234L127.012 28.3485L121.925 31.2893L127.716 26.7234Z" fill="#ACBDFF"/>
<path d="M113.371 42.7804C113.371 42.7804 112.422 47.3829 112.32 48.7962C112.32 48.7962 112.32 46.373 112.623 44.5554C112.926 42.7379 112.967 42.6797 112.967 42.6797L113.371 42.7804Z" fill="#5478FF"/>
<path d="M115.837 53.7946L115.602 52.0784L114.088 50.8665L114.996 52.0784L115.198 54.1988L115.837 53.7946Z" fill="#5478FF"/>
<path d="M118.631 44.2019L118.934 46.7265L121.669 47.585L119.439 46.3223L118.631 44.2019Z" fill="#5478FF"/>
<path d="M107.005 47.5848L109.34 46.7263L109.643 43.8989L108.734 46.3221L107.005 47.5848Z" fill="#5478FF"/>
<path d="M23.2062 32.4885C23.2062 32.4885 23.6105 34.4068 25.5287 34.811C27.447 35.2153 28.5583 34.4068 28.5583 34.4068C28.5583 34.4068 27.2456 35.7194 25.8315 36.6286C25.8315 36.6286 26.1328 38.0904 26.8406 39.0257L25.5287 38.9511C25.5287 38.9511 24.2161 37.5378 23.5597 35.1645C22.9034 32.7913 23.2062 32.4885 23.2062 32.4885Z" fill="#87A1FD"/>
<path d="M32.7991 33.1957C32.7991 33.1957 34.7173 33.7007 35.3237 34.2034C35.3237 34.2034 35.5258 32.8922 35.5258 32.5879C35.5258 32.5857 35.223 33.0943 32.7991 33.1957Z" fill="#87A1FD"/>
<path d="M34.7188 28.5508L35.6421 30.3974C35.8599 30.833 35.9456 31.3275 35.8599 31.8071C35.8054 32.1099 35.6809 32.4291 35.4258 32.6909C35.4258 32.6909 36.4356 31.9838 36.8391 31.1761L34.7188 28.5508Z" fill="#87A1FD"/>
<path d="M26.135 29.0548C26.135 29.0548 25.1885 28.1755 24.8223 29.0548C24.3174 30.2668 26.6399 30.4689 26.6399 30.4689C26.6399 30.4689 27.7064 29.6731 27.2455 28.752C26.8413 27.9443 26.0335 28.6513 26.135 29.0548Z" fill="#FF7292"/>
<path d="M22.762 22.6729C22.762 22.6729 22.1258 22.564 21.7977 22.7527C21.4688 22.9421 20.6006 23.4851 20.6006 23.4851C20.6006 23.4851 19.3797 24.1019 19.3342 24.4733C19.2887 24.8447 19.6683 25.4906 20.4947 25.9217C20.4947 25.9217 20.9198 26.1954 21.107 25.915C21.107 25.915 21.2726 26.1223 21.7671 26.1395C21.7671 26.1395 22.2377 26.0418 22.1892 25.8098C22.1892 25.8098 22.6196 26.2036 22.991 26.126C23.4616 26.0283 23.2476 25.5898 23.2476 25.5898C23.2476 25.5898 23.7204 26.0947 24.1672 25.8814C24.4916 25.7263 23.7816 24.0295 23.7816 24.0295L22.762 22.6729Z" fill="#FFBDB3"/>
<path d="M129.538 89.2385C131.053 96.711 130.447 96.3067 130.447 96.3067H122.57L122.166 94.1863C125.196 92.4694 125.39 89.7435 125.39 89.7435L129.538 89.2385Z" fill="#2B888F"/>
<path d="M122.48 94.6578C122.489 94.6555 123.183 94.5019 123.992 93.7986C124.8 93.0953 125.719 91.843 126.176 89.6585L126.03 89.6279C125.578 91.7849 124.678 93.0035 123.894 93.6867C123.502 94.0276 123.139 94.2349 122.874 94.3565C122.742 94.4169 122.634 94.4564 122.56 94.481C122.523 94.493 122.494 94.5012 122.476 94.5064C122.466 94.5086 122.459 94.5109 122.454 94.5116L122.449 94.5131H122.447L122.48 94.6578Z" fill="#489DA2"/>
<path d="M118.227 96.4083C118.227 96.4083 118.632 94.6914 120.449 94.3886C122.267 94.0858 122.367 94.1865 122.367 94.1865L122.885 96.3069L118.227 96.4083Z" fill="white"/>
<path d="M127.491 96.608V96.6058V96.5983C127.49 96.5103 127.504 95.842 127.864 95.1932C128.043 94.8687 128.308 94.548 128.701 94.3019C129.094 94.0558 129.617 93.8827 130.318 93.8589L130.313 93.7097C129.591 93.7343 129.04 93.9148 128.622 94.1759C127.996 94.5682 127.675 95.1395 127.512 95.6272C127.349 96.1158 127.342 96.5222 127.342 96.5991C127.342 96.6073 127.342 96.6117 127.342 96.6117L127.491 96.608Z" fill="#489DA2"/>
<path d="M130.394 97.2158H118.479C118.228 97.2158 118.025 97.0122 118.025 96.7616C118.025 96.5102 118.228 96.3074 118.479 96.3074H130.394C130.645 96.3074 130.848 96.511 130.848 96.7616C130.849 97.0122 130.646 97.2158 130.394 97.2158Z" fill="#E3E9FE"/>
<path d="M124.185 93.4556C124.226 93.4556 124.26 93.4891 124.26 93.5301C124.26 93.5712 124.226 93.6047 124.185 93.6047H123.175C123.134 93.6047 123.101 93.5712 123.101 93.5301C123.101 93.4891 123.134 93.4556 123.175 93.4556H124.11H124.185Z" fill="white"/>
<path d="M124.69 92.7483C124.731 92.7483 124.764 92.7819 124.764 92.8229C124.764 92.8639 124.731 92.8975 124.69 92.8975H123.68C123.639 92.8975 123.605 92.8639 123.605 92.8229C123.605 92.7819 123.639 92.7483 123.68 92.7483H124.597H124.69Z" fill="white"/>
<path d="M125.105 92.2434H124.186C124.145 92.2434 124.112 92.277 124.112 92.318C124.112 92.359 124.145 92.3926 124.186 92.3926H125.196C125.237 92.3926 125.271 92.359 125.271 92.318C125.271 92.277 125.237 92.2434 125.196 92.2434H125.105Z" fill="white"/>
<path d="M136.605 96.9131C136.605 96.9131 136.505 97.418 136.605 97.8222C136.706 98.2265 141.048 99.1349 143.573 97.8222L143.608 96.3433C143.608 96.3433 140.038 98.0236 136.605 96.9131Z" fill="#E3E9FE"/>
<path d="M136.807 96.3066C136.807 96.3066 138.725 93.6813 138.827 91.2573L142.798 91.4013C142.798 91.4013 143.807 95.7226 143.572 96.7101C143.311 97.8079 136.297 96.5855 136.807 96.3066Z" fill="#2B888F"/>
<path d="M139.83 91.2485C139.83 91.2485 139.824 91.2925 139.813 91.3723C139.773 91.652 139.667 92.374 139.504 93.1907C139.34 94.0066 139.121 94.9188 138.859 95.5728L138.998 95.628C139.304 94.8613 139.548 93.7739 139.717 92.8752C139.885 91.9772 139.978 91.2687 139.979 91.2679L139.83 91.2485Z" fill="#489DA2"/>
<path d="M141.584 91.2814C141.584 91.2814 141.586 91.2881 141.591 91.3015C141.656 91.5059 142.187 93.2623 142.187 95.9032H142.336C142.336 93.0654 141.728 91.2403 141.726 91.2344L141.584 91.2814Z" fill="#489DA2"/>
<path d="M136.606 96.913C136.606 96.913 136.606 95.2975 139.736 95.1961C142.866 95.0954 143.472 96.2059 143.573 96.913C143.573 96.913 139.333 98.2256 136.606 96.913Z" fill="white"/>
<path d="M139.548 92.3814L142.339 93.2473C142.379 93.2592 142.421 93.2376 142.432 93.198C142.444 93.1585 142.423 93.1167 142.383 93.1048L139.455 92.1964C139.416 92.1845 139.374 92.2061 139.362 92.2456C139.35 92.2851 139.372 92.3269 139.411 92.3388L139.548 92.3814Z" fill="white"/>
<path d="M139.226 93.4533C139.185 93.4503 139.153 93.4153 139.156 93.3742C139.159 93.3332 139.194 93.3019 139.235 93.3049L142.365 93.507C142.406 93.51 142.438 93.545 142.435 93.5861C142.432 93.6271 142.397 93.6584 142.356 93.6554L139.325 93.46L139.226 93.4533Z" fill="white"/>
<path d="M139.304 94.2607H142.26C142.301 94.2607 142.335 94.2272 142.335 94.1862C142.335 94.1451 142.301 94.1116 142.26 94.1116H139.231C139.19 94.1116 139.156 94.1451 139.156 94.1862C139.156 94.2272 139.19 94.2607 139.231 94.2607H139.304Z" fill="white"/>
<path d="M115.3 17.1398C115.3 17.1398 115.401 17.4426 115.603 17.4426C115.805 17.4426 116.411 17.0383 117.016 17.1398C117.622 17.2404 117.723 17.544 117.723 17.544C117.723 17.544 117.521 17.0391 116.916 16.9384C116.065 16.7959 115.3 17.1398 115.3 17.1398Z" fill="#443E61"/>
<path d="M113.43 17.7905C113.43 17.7905 113.515 18.0986 113.348 18.2112C113.181 18.3238 112.453 18.3268 112.006 18.7489C111.559 19.1711 111.645 19.4783 111.645 19.4783C111.645 19.4783 111.531 18.9466 111.978 18.5244C112.604 17.9315 113.43 17.7905 113.43 17.7905Z" fill="#443E61"/>
<path d="M115.653 17.8571C115.653 17.8571 115.759 18.1771 116.079 18.1771C116.399 18.1771 116.826 17.5372 117.573 18.0704C117.573 18.0704 117.359 17.4305 116.506 17.7505C115.653 18.0704 115.653 17.8571 115.653 17.8571Z" fill="#443E61"/>
<path d="M111.813 19.0302C111.813 19.0302 111.92 19.3502 112.24 19.3502C112.56 19.3502 112.987 18.7103 113.733 19.2435C113.733 19.2435 113.52 18.6036 112.667 18.9236C111.813 19.2435 111.813 19.0302 111.813 19.0302Z" fill="#443E61"/>
<path d="M113.093 19.6642C113.297 19.6642 113.463 19.4982 113.463 19.2935C113.463 19.0888 113.297 18.9229 113.093 18.9229C112.888 18.9229 112.722 19.0888 112.722 19.2935C112.722 19.4982 112.888 19.6642 113.093 19.6642Z" fill="#443E61"/>
<path d="M116.932 18.4528C117.136 18.4528 117.302 18.2868 117.302 18.0821C117.302 17.8774 117.136 17.7114 116.932 17.7114C116.727 17.7114 116.561 17.8774 116.561 18.0821C116.561 18.2868 116.727 18.4528 116.932 18.4528Z" fill="#443E61"/>
<path d="M96.9198 10.4527C96.9198 10.4527 95.4065 12.4947 90.7615 12.7983C90.7615 12.7983 89.8524 14.2124 90.3573 16.9384C90.3573 16.9384 89.8188 14.2116 90.3401 12.4955C90.8622 10.7786 94.8002 10.5772 95.2037 10.4758C95.6072 10.3744 96.9198 10.4527 96.9198 10.4527Z" fill="#DE666D"/>
<path d="M114.593 21.7844C114.593 21.7844 115.097 22.0872 115.703 21.7844C116.309 21.4816 116.713 20.876 116.713 20.876C116.713 20.876 116.459 20.9714 116.107 21.0781C115.824 21.1639 115.469 21.2459 115.198 21.3809C114.672 21.6442 114.593 21.7844 114.593 21.7844Z" fill="#F76D6D"/>
<path d="M115.3 22.2896C115.3 22.2896 115.906 22.2896 116.512 21.7847C116.512 21.7847 116.578 22.2061 116.007 22.4917C115.604 22.6938 115.3 22.2896 115.3 22.2896Z" fill="#E07972"/>
<path d="M118.609 19.1057C118.691 19.4592 118.36 19.8366 117.871 19.9499C117.382 20.0633 116.919 19.8687 116.837 19.5151C116.755 19.1616 117.086 18.7842 117.575 18.6709C118.064 18.5582 118.527 18.7529 118.609 19.1057Z" fill="#FF8686"/>
<path d="M113.597 20.5381C113.752 20.8655 113.509 21.3055 113.055 21.5196C112.601 21.7336 112.108 21.6419 111.953 21.3145C111.798 20.9863 112.041 20.547 112.495 20.333C112.949 20.1182 113.442 20.2106 113.597 20.5381Z" fill="#FF8686"/>
<path d="M101.566 46.322L102.273 32.0842L107.383 32.8741L107.524 33.599L103.485 33.4983L101.566 46.322Z" fill="#E88E01"/>
<path d="M80.9656 21.7847L87.1254 26.6318C87.1254 26.6318 87.6444 42.1823 87.6877 42.7886L86.4183 27.2381L80.9656 21.7847Z" fill="#E88E01"/>
<path d="M90.4919 12.3937C90.5837 12.2289 92.6795 12.4944 92.8816 12.293C92.8816 12.293 93.6222 11.721 92.276 11.6874C90.9297 11.6531 90.4919 12.3937 90.4919 12.3937Z" fill="#471212"/>
<path d="M94.6994 11.4846C94.6994 11.4846 94.3966 11.8889 95.2043 12.0902C96.0121 12.2923 97.6275 12.393 97.6275 12.393C97.6275 12.393 97.1226 11.8881 96.4155 11.686C95.7085 11.4839 94.6994 11.4846 94.6994 11.4846Z" fill="#471212"/>
<path d="M95.003 13.1009H96.8206C96.8206 13.1009 96.6185 12.8988 96.1136 12.7981C95.6087 12.6974 94.9285 13.1009 94.9285 13.1009H95.003Z" fill="#471212"/>
<path d="M96.5177 13.3024C96.5177 13.5254 96.3372 13.7067 96.1135 13.7067C95.8905 13.7067 95.7092 13.5262 95.7092 13.3024C95.7092 13.0794 95.8897 12.8982 96.1135 12.8982C96.3365 12.8989 96.5177 13.0794 96.5177 13.3024Z" fill="#471212"/>
<path d="M90.863 13.1009H92.6806C92.6806 13.1009 92.4785 12.8988 91.9735 12.7981C91.4686 12.6974 90.7556 13.1009 90.7556 13.1009H90.863Z" fill="#471212"/>
<path d="M92.3763 13.3024C92.3763 13.5254 92.1959 13.7067 91.9721 13.7067C91.7491 13.7067 91.5679 13.5262 91.5679 13.3024C91.5679 13.0794 91.7484 12.8982 91.9721 12.8982C92.1959 12.8989 92.3763 13.0794 92.3763 13.3024Z" fill="#471212"/>
<path d="M90.2229 16.1976C90.2229 16.1976 90.8621 15.6256 93.0839 15.7263C95.3057 15.827 96.6184 16.6347 96.6184 16.6347C96.6184 16.6347 98.5538 14.3472 98.6463 13.623C98.6463 13.623 99.0587 15.8896 98.6463 16.8174C98.2338 17.7452 97.1024 19.1093 95.5981 19.6896C94.0937 20.2698 92.7274 20.2892 92.0979 19.926C91.4684 19.5636 90.5936 18.9908 90.2229 16.1976Z" fill="#DB8C87"/>
<path d="M93.3595 17.4013C93.188 17.4475 93.0269 17.4669 92.877 17.4669C92.4578 17.4669 92.1222 17.3147 91.8903 17.1619C91.7746 17.085 91.6844 17.009 91.6247 16.9515C91.5949 16.9232 91.5718 16.8993 91.5569 16.8829C91.5494 16.8747 91.5434 16.8687 91.5405 16.8643L91.5367 16.8598L91.536 16.859C91.5099 16.827 91.4629 16.8225 91.4308 16.8494C91.3988 16.8755 91.3943 16.9224 91.4211 16.9545C91.4241 16.9582 91.5599 17.1223 91.809 17.2872C92.0581 17.4512 92.422 17.6168 92.8777 17.6168C93.0403 17.6168 93.2148 17.5959 93.3991 17.546C93.4386 17.5355 93.4625 17.4945 93.452 17.4542C93.4401 17.4147 93.3991 17.3908 93.3595 17.4013Z" fill="#471212"/>
<path d="M93.0835 55.1082L85.4089 68.6389C90.6596 74.6973 91.6694 86.2091 91.6694 86.2091C91.6694 86.2091 92.0289 78.1311 88.2364 70.7593C87.8761 70.059 87.0244 68.9417 87.0244 68.9417L93.0835 55.1082Z" fill="#272C6A"/>
<path d="M100.253 46.7266L100.102 51.8907L99.9197 57.054C99.8563 58.7754 99.781 60.496 99.6975 62.2159C99.6549 63.0758 99.6102 63.9365 99.5557 64.7964C99.5438 65.0112 99.5267 65.2268 99.5103 65.4416C99.4931 65.6571 99.4819 65.8712 99.4543 66.0875L99.4185 66.4111L99.3797 66.7296C99.3514 66.9407 99.3342 67.1562 99.3134 67.3695C99.153 69.082 99.0344 70.8011 98.9114 72.518L98.5563 77.6716L98.1961 82.8253C98.1633 83.2549 98.1312 83.6837 98.0939 84.1133C98.0865 84.22 98.073 84.3289 98.0619 84.4363C98.0581 84.4907 98.0462 84.5429 98.0358 84.5959L98.0052 84.7547L97.8821 85.3887L97.3914 87.9252L97.8463 85.3827L97.9597 84.7473L97.988 84.5884C97.9977 84.5355 98.0082 84.4825 98.0111 84.4296C98.0208 84.3229 98.032 84.217 98.0387 84.1096C98.0693 83.6807 98.0954 83.2511 98.1223 82.8208L98.4407 77.6642C98.5444 75.945 98.66 74.2267 98.7749 72.5083C98.8935 70.7899 99.0068 69.0723 99.1642 67.3546C99.1858 67.1398 99.203 66.9258 99.2328 66.7102L99.2731 66.388L99.3089 66.0703C99.3365 65.8592 99.3477 65.6437 99.3656 65.4296C99.382 65.2156 99.3999 65.0015 99.4125 64.7867C99.4692 63.9283 99.5162 63.0684 99.561 62.2092C99.6512 60.49 99.7236 58.7694 99.8048 57.0495L100.253 46.7266Z" fill="#272C6A"/>
<path d="M87.4788 47.3829C87.4788 47.3829 90.8111 49.7054 96.6681 48.292C102.525 46.8787 101.599 46.0203 101.599 46.0203C101.599 46.0203 96.4734 48.9916 87.883 46.4745L87.4788 47.3829Z" fill="#272C6A"/>
<path d="M89.7866 19.9333C89.7844 19.9386 89.0691 21.3437 89.0684 22.9808C89.0684 23.6267 89.1802 24.3091 89.4942 24.9543C89.8082 25.5994 90.3251 26.205 91.1268 26.695C92.1896 27.3446 93.2472 27.5945 94.2332 27.5937C95.4452 27.5937 96.5475 27.2186 97.4283 26.7539C98.3091 26.2885 98.9684 25.7351 99.2996 25.3682L99.1885 25.2682C98.873 25.6188 98.2234 26.1662 97.359 26.6219C96.4938 27.0784 95.4138 27.4446 94.2332 27.4446C93.2726 27.4446 92.2441 27.2029 91.2044 26.5675C90.425 26.0909 89.9305 25.5084 89.6277 24.8886C89.3257 24.2688 89.2168 23.6088 89.2168 22.98C89.2168 22.1828 89.392 21.4362 89.5681 20.8902C89.6561 20.6173 89.7441 20.3935 89.8097 20.2391C89.8425 20.1616 89.8701 20.1019 89.8888 20.0609C89.8985 20.0407 89.9059 20.0251 89.9111 20.0146L89.9171 20.0035L89.9186 19.9997L89.7866 19.9333Z" fill="#E88E01"/>
<path d="M96.5273 15.1407C96.5273 15.2414 96.446 15.3227 96.3453 15.3227C96.2446 15.3227 96.1633 15.2414 96.1633 15.1407C96.1633 15.04 96.2446 14.9587 96.3453 14.9587C96.446 14.9587 96.5273 15.04 96.5273 15.1407Z" fill="#DE666D"/>
<path d="M95.163 14.6856C95.163 14.7863 95.0817 14.8676 94.9811 14.8676C94.8804 14.8676 94.7991 14.7863 94.7991 14.6856C94.7991 14.585 94.8804 14.5037 94.9811 14.5037C95.0817 14.5044 95.163 14.5857 95.163 14.6856Z" fill="#DE666D"/>
<path d="M93.9824 15.1407C93.9824 15.2414 93.9011 15.3227 93.8004 15.3227C93.6997 15.3227 93.6184 15.2414 93.6184 15.1407C93.6184 15.04 93.6997 14.9587 93.8004 14.9587C93.9011 14.9587 93.9824 15.04 93.9824 15.1407Z" fill="#DE666D"/>
<path d="M92.8922 14.7766C92.9927 14.7766 93.0742 14.6951 93.0742 14.5946C93.0742 14.4941 92.9927 14.4126 92.8922 14.4126C92.7917 14.4126 92.7102 14.4941 92.7102 14.5946C92.7102 14.6951 92.7917 14.7766 92.8922 14.7766Z" fill="#DE666D"/>
<path d="M91.5283 15.1407C91.5283 15.2414 91.447 15.3227 91.3463 15.3227C91.2456 15.3227 91.1643 15.2414 91.1643 15.1407C91.1643 15.04 91.2456 14.9587 91.3463 14.9587C91.447 14.9587 91.5283 15.04 91.5283 15.1407Z" fill="#DE666D"/>
<path d="M70.8257 7.53551C70.684 7.53924 70.5945 7.69437 70.6661 7.81669C70.775 8.00314 70.8264 8.26045 71.4045 8.35144C72.4456 8.51627 73.36 8.4939 73.5733 8.56699C73.7814 8.63859 73.2474 7.47137 70.8257 7.53551Z" fill="#443E61"/>
<path d="M68.5171 7.49166C68.6334 7.41708 68.7863 7.49017 68.8027 7.62815C68.8296 7.85936 68.8259 8.17708 68.6484 8.35533C68.3455 8.65814 66.528 9.5673 66.3258 9.8701C66.3258 9.8701 66.2252 9.36518 66.8308 8.75957C67.2783 8.31058 68.1128 7.7527 68.5171 7.49166Z" fill="#443E61"/>
<path d="M68.5449 13.1121C68.5449 13.1121 69.5138 13.6424 70.3923 13.7036C71.2709 13.7655 72.1801 12.7855 72.1801 12.7855C72.1801 12.7855 70.9681 12.5401 68.5449 13.1121Z" fill="white"/>
<path d="M66.9309 10.3742C66.9309 10.3742 67.0316 9.86925 67.7386 9.56645C68.4457 9.26364 68.6478 9.76857 68.6478 9.76857C68.6478 9.76857 68.2436 9.66788 67.7386 9.86925C67.2337 10.0714 66.9309 10.3742 66.9309 10.3742Z" fill="#443E61"/>
<path d="M71.0986 9.49185C71.0986 9.49185 71.2963 9.01601 72.0481 8.8564C72.8006 8.6968 72.9006 9.23155 72.9006 9.23155C72.9006 9.23155 72.5239 9.05405 71.9892 9.15399C71.4551 9.25318 71.0986 9.49185 71.0986 9.49185Z" fill="#443E61"/>
<path d="M68.1305 11.0305C68.3937 11.3907 68.2065 11.9762 67.7113 12.3386C67.2161 12.7011 66.6015 12.7034 66.3375 12.3431C66.0742 11.9829 66.2614 11.3974 66.7566 11.0349C67.2526 10.6725 67.8672 10.671 68.1305 11.0305Z" fill="#FF8686"/>
<path d="M74.7469 10.835C74.6022 11.2571 74.0145 11.4384 73.4343 11.2392C72.854 11.0401 72.5005 10.5374 72.6452 10.1153C72.7899 9.69312 73.3776 9.51188 73.9578 9.71102C74.5381 9.91015 74.8916 10.4128 74.7469 10.835Z" fill="#FF8686"/>
<path d="M80.3589 19.2637C80.3589 19.2637 81.2681 21.179 78.9456 21.5832C76.6231 21.9874 74.5027 23.3001 74.5027 23.3001C74.5027 23.3001 76.9259 22.3917 78.4407 22.4924C79.9554 22.593 80.7632 22.6945 80.9653 21.7853C81.1674 20.8761 80.3589 19.2637 80.3589 19.2637Z" fill="#5E82FF"/>
<path d="M64.7154 19.6306C64.7154 19.6306 64.5065 20.4719 65.8192 21.0783C67.1318 21.6839 68.6466 22.4923 69.0508 23.1986C69.0508 23.1986 67.6368 22.1888 65.7185 21.5832C64.467 21.1872 64.5207 20.6069 64.7154 19.6306Z" fill="#5E82FF"/>
<path d="M70.1619 22.7437C70.1619 22.9391 70.0038 23.0972 69.8084 23.0972C69.6129 23.0972 69.4548 22.9391 69.4548 22.7437C69.4548 22.5483 69.6129 22.3901 69.8084 22.3901C70.0038 22.3901 70.1619 22.549 70.1619 22.7437Z" fill="#5E82FF"/>
<path d="M73.898 22.7437C73.898 22.9391 73.7398 23.0972 73.5444 23.0972C73.349 23.0972 73.1909 22.9391 73.1909 22.7437C73.1909 22.5483 73.349 22.3901 73.5444 22.3901C73.7398 22.3909 73.898 22.549 73.898 22.7437Z" fill="#5E82FF"/>
<path d="M69.8484 29.6612H69.7693C69.7074 29.6612 69.6575 29.6112 69.6575 29.5493V22.7049C69.6575 22.643 69.7074 22.593 69.7693 22.593H69.8484C69.9103 22.593 69.9603 22.643 69.9603 22.7049V29.5493C69.9603 29.6105 69.9096 29.6612 69.8484 29.6612Z" fill="white"/>
<path d="M73.5845 28.9542H73.5054C73.4443 28.9542 73.3936 28.9042 73.3936 28.8423V22.7042C73.3936 22.6423 73.4443 22.5923 73.5054 22.5923H73.5845C73.6456 22.5923 73.6964 22.6423 73.6964 22.7042V28.8423C73.6964 28.9042 73.6464 28.9542 73.5845 28.9542Z" fill="white"/>
<path d="M69.6563 29.3921L69.3587 30.3356C69.3065 30.5019 69.4303 30.6712 69.6049 30.6712H70.0121C70.1866 30.6712 70.3104 30.5019 70.2582 30.3356L69.9599 29.3921H69.6563Z" fill="#5E82FF"/>
<path d="M73.3941 28.7856L73.0965 29.7291C73.0443 29.8954 73.1681 30.0647 73.3427 30.0647H73.7499C73.9244 30.0647 74.0482 29.8954 73.996 29.7291L73.6984 28.7856H73.3941Z" fill="#5E82FF"/>
<path d="M68.6461 80.1505C68.9012 79.1302 69.5858 78.6827 69.7357 77.4812C69.5873 78.0622 69.0615 79.1011 67.2327 80.0498C64.506 81.4639 65.6262 81.6653 68.7013 81.1604C68.6088 80.8121 68.5648 80.4772 68.6461 80.1505Z" fill="#CC7F06"/>
<path d="M73.584 68.3037C73.8644 69.2091 74.1448 69.5567 73.9979 69.8506C73.98 69.8864 73.9673 69.9445 73.9584 70.0206C74.6341 70.4472 76.3629 71.4735 76.1183 70.659C75.8438 69.7432 73.9405 68.5252 73.584 68.3037Z" fill="#CC7F06"/>
<path d="M75.4871 82.7072C76.1204 82.7542 77.439 82.8221 78.5435 82.6751C79.9121 82.4924 76.004 80.9083 75.238 80.6047C75.5394 81.4766 75.9988 81.675 75.7161 82.1702C75.6177 82.3425 75.5431 82.5267 75.4871 82.7072Z" fill="#CC7F06"/>
<path d="M86.8001 92.3113C86.7614 92.2987 86.7397 92.2562 86.7524 92.2174C86.7651 92.1786 86.8076 92.157 86.8464 92.1696L87.8562 92.5C87.895 92.5127 87.9166 92.5552 87.904 92.594C87.8913 92.6328 87.8488 92.6544 87.81 92.6418L86.8546 92.3293L86.8001 92.3113Z" fill="white"/>
<path d="M87.221 91.9808C87.1823 91.9681 87.1606 91.9256 87.1733 91.8868C87.186 91.848 87.2285 91.8264 87.2673 91.8391L88.2771 92.1695C88.3167 92.1822 88.3375 92.2247 88.3249 92.2635C88.3122 92.3022 88.2697 92.3239 88.2309 92.3112L87.2785 91.9994L87.221 91.9808Z" fill="white"/>
<path d="M87.8097 91.7325C87.7709 91.7198 87.7493 91.6773 87.7619 91.6385C87.7746 91.5997 87.8171 91.5781 87.8559 91.5908L88.8658 91.9212C88.9045 91.9339 88.9262 91.9764 88.9135 92.0152C88.9008 92.0539 88.8583 92.0756 88.8195 92.0629L87.8559 91.7474L87.8097 91.7325Z" fill="white"/>
<path d="M95.4066 91.8376C95.3656 91.8376 95.332 91.8041 95.332 91.7631C95.332 91.722 95.3656 91.6885 95.4066 91.6885H96.82C96.861 91.6885 96.8945 91.722 96.8945 91.7631C96.8945 91.8041 96.861 91.8376 96.82 91.8376H95.4812H95.4066Z" fill="white"/>
<path d="M95.4066 92.3428C95.3656 92.3428 95.332 92.3092 95.332 92.2682C95.332 92.2272 95.3656 92.1936 95.4066 92.1936H96.82C96.861 92.1936 96.8945 92.2272 96.8945 92.2682C96.8945 92.3092 96.861 92.3428 96.82 92.3428H95.4812H95.4066Z" fill="white"/>
<path d="M95.4066 92.7463C95.3656 92.7463 95.332 92.7128 95.332 92.6718C95.332 92.6307 95.3656 92.5972 95.4066 92.5972H96.82C96.861 92.5972 96.8945 92.6307 96.8945 92.6718C96.8945 92.7128 96.861 92.7463 96.82 92.7463H95.4812H95.4066Z" fill="white"/>
<path d="M47.0381 22.9967C47.0381 22.9967 47.7668 22.6267 48.9951 22.6096C50.1683 22.5932 50.3704 22.7946 50.3704 22.7946C50.3704 22.7946 49.8282 23.8745 48.8139 23.9133C47.7996 23.9521 47.0381 22.9967 47.0381 22.9967Z" fill="#DE666D"/>
<path d="M45.8791 20.4181L45.3123 20.1071L45.9089 20.0027C45.9089 20.0027 46.4713 19.6991 46.8859 19.7297C47.3014 19.7595 47.552 20.0236 47.552 20.0236C47.552 20.0236 46.6331 19.6641 45.8791 20.4181Z" fill="#443E61"/>
<path d="M51.1393 20.1968L51.6912 19.8605L51.09 19.7836C51.09 19.7836 50.515 19.5062 50.1011 19.5554C49.6879 19.6039 49.4485 19.8791 49.4485 19.8791C49.4485 19.8791 50.3688 19.4622 51.1393 20.1968Z" fill="#443E61"/>
<path d="M48.7541 20.674C48.7541 20.7859 48.6638 20.8762 48.552 20.8762C48.4401 20.8762 48.3499 20.7859 48.3499 20.674C48.3499 20.5622 48.4401 20.4719 48.552 20.4719C48.6638 20.4719 48.7541 20.5622 48.7541 20.674Z" fill="#DE666D"/>
<path d="M49.4614 21.0781C49.4614 21.19 49.3711 21.2802 49.2592 21.2802C49.1474 21.2802 49.0571 21.19 49.0571 21.0781C49.0571 20.9662 49.1474 20.876 49.2592 20.876C49.3711 20.876 49.4614 20.9662 49.4614 21.0781Z" fill="#DE666D"/>
<path d="M48.3505 21.2795C48.3505 21.3914 48.2603 21.4816 48.1484 21.4816C48.0365 21.4816 47.9463 21.3914 47.9463 21.2795C47.9463 21.1676 48.0365 21.0774 48.1484 21.0774C48.2603 21.0774 48.3505 21.1684 48.3505 21.2795Z" fill="#DE666D"/>
<path d="M47.341 20.8762C47.341 20.9881 47.2508 21.0783 47.1389 21.0783C47.027 21.0783 46.9368 20.9881 46.9368 20.8762C46.9368 20.7643 47.027 20.6741 47.1389 20.6741C47.2508 20.6741 47.341 20.7643 47.341 20.8762Z" fill="#DE666D"/>
<path d="M50.4711 20.7746C50.4711 20.8865 50.3809 20.9767 50.269 20.9767C50.1571 20.9767 50.0669 20.8865 50.0669 20.7746C50.0669 20.6628 50.1571 20.5725 50.269 20.5725C50.3809 20.5733 50.4711 20.6635 50.4711 20.7746Z" fill="#DE666D"/>
<path d="M45.2214 19.6642C45.2214 19.6642 45.2214 18.9571 46.332 18.5536C47.4425 18.1494 47.6446 18.2508 47.6446 18.2508C47.6446 18.2508 47.6446 18.5536 47.039 18.7558C46.4327 18.9571 45.827 18.9571 45.2214 19.6642Z" fill="#D1385C"/>
<path d="M49.1972 18.5432C49.1972 18.5432 49.1785 18.7446 49.5716 18.8825C49.9646 19.0205 50.5866 18.8758 51.1617 19.2338L51.5361 19.5732C51.5361 19.5732 51.3914 18.9511 50.6053 18.6752C49.8192 18.3985 49.1972 18.5432 49.1972 18.5432Z" fill="#D1385C"/>
<path d="M41.2827 26.4298C41.2827 26.4298 41.687 26.7326 42.3933 27.2375C43.1003 27.7424 44.0087 28.5502 44.2108 28.853C44.2108 28.853 43.908 27.9438 43.1003 27.2375C42.2926 26.5305 41.4848 26.0255 41.8883 25.4199C41.8891 25.4199 41.3841 26.0263 41.2827 26.4298Z" fill="#369D9D"/>
<path d="M54.5189 28.6677C54.5189 28.6677 54.8135 29.459 53.2987 29.7618C51.7839 30.0647 50.6734 30.3675 50.3706 30.671C50.3706 30.671 51.7847 30.2668 52.491 30.2668C53.198 30.2668 54.6114 30.1661 54.6114 29.8625C54.6114 29.5597 54.6285 29.0891 54.5189 28.6677Z" fill="#369D9D"/>
<path d="M56.025 35.7195L51.9863 35.9216L53.1677 39.952L52.7941 37.3357L56.025 35.7195Z" fill="#369D9D"/>
<path d="M37.5012 30.4688L39.1614 32.4884L37.8488 36.2243L38.5603 32.6906L37.5012 30.4688Z" fill="#369D9D"/>
<path d="M44.7894 35.9218H44.8424C44.8834 35.9218 44.917 35.8882 44.917 35.8472V29.1295C44.917 29.0885 44.8834 29.0549 44.8424 29.0549H44.7894C44.7484 29.0549 44.7148 29.0885 44.7148 29.1295V35.8472C44.7148 35.8882 44.7484 35.9218 44.7894 35.9218Z" fill="white"/>
<path d="M49.233 37.0321H49.286C49.327 37.0321 49.3606 36.9985 49.3606 36.9575V30.2399C49.3606 30.1988 49.327 30.1653 49.286 30.1653H49.233C49.192 30.1653 49.1584 30.1988 49.1584 30.2399V36.9575C49.1584 36.9985 49.192 37.0321 49.233 37.0321Z" fill="white"/>
<path d="M48.9958 22.6094C48.1269 22.6221 47.5093 22.8101 47.2214 22.9197C47.4385 23.0815 48.065 23.1986 48.8056 23.1986C49.4231 23.1986 49.9609 23.1166 50.2487 22.9958C50.3293 22.8764 50.3703 22.7944 50.3703 22.7944C50.3703 22.7944 50.1689 22.5923 48.9958 22.6094Z" fill="white"/>
<path d="M44.8162 56.3193L47.7443 85.2999C47.7443 85.2999 49.5619 87.5217 53.6012 88.1273L44.8162 56.3193Z" fill="#2F3E97"/>
<path d="M115.197 43.3432C115.197 43.6498 114.949 43.8989 114.642 43.8989C114.334 43.8989 114.086 43.6505 114.086 43.3432C114.086 43.0367 114.334 42.7876 114.642 42.7876C114.949 42.7876 115.197 43.0367 115.197 43.3432Z" fill="#5478FF"/>
<path d="M26.942 39.0521L26.6392 40.4654L17.6483 59.7637C17.6483 59.7637 15.4302 57.9349 14.9253 55.8145L25.3258 40.3648L25.528 38.9514L26.942 39.0521Z" fill="#E88E01"/>
<path d="M25.8351 40.1886L25.8281 40.3376L32.291 40.6404L32.298 40.4914L25.8351 40.1886Z" fill="#CC7F06"/>
<path d="M64.7091 3.00244C64.7091 3.00244 63.6993 6.53691 68.4181 6.60404C68.4181 6.60404 65.0119 6.43622 64.7091 3.00244Z" fill="#4F5CB8"/>
<path d="M69.4546 1.38696C69.4546 1.38696 68.0412 1.89189 69.2524 4.31507C69.2524 4.31582 66.9299 1.68977 69.4546 1.38696Z" fill="#4F5CB8"/>
<path d="M73.1228 2.51914C73.1228 2.51914 74.4026 3.81091 74.8061 5.72917C75.2022 7.6094 74.604 8.5566 74.604 8.5566C74.604 8.5566 75.9226 7.49604 75.0112 4.84537C74.0998 2.1947 73.1228 2.51914 73.1228 2.51914Z" fill="#4F5CB8"/>
<path d="M76.119 13.5042L74.6124 8.58179L74.605 8.76675C74.605 8.76675 76.1197 12.6965 75.5141 13.6057C74.9085 14.5148 74.7064 14.7162 74.7064 14.7162C74.7064 14.7162 74.546 16.0192 73.9404 16.5442C74.8914 15.8954 75.0741 15.2271 75.0741 15.2271C75.0741 15.2271 76.2204 14.5141 76.119 13.5042Z" fill="#4F5CB8"/>
<path d="M66.325 15.7261C66.325 15.7261 67.9405 18.1493 71.2728 17.5437C71.5823 17.4878 71.8665 17.4214 72.1283 17.3483C70.2577 17.5571 68.3439 16.6346 67.2334 15.8268C66.1229 15.0191 65.8201 10.7776 65.8201 10.7776V12.0902C65.8201 12.091 65.9215 14.7163 66.325 15.7261Z" fill="#394380"/>
<path d="M26.6945 18.4096C26.7034 18.4171 27.2255 18.8302 28.2555 18.8295C28.2965 18.8295 28.3301 18.7959 28.3301 18.7549C28.3301 18.7139 28.2965 18.6803 28.2555 18.6803C27.7603 18.6803 27.3918 18.5811 27.1472 18.4834C27.0249 18.4342 26.9339 18.3857 26.8742 18.3499C26.8444 18.332 26.822 18.3171 26.8078 18.3067C26.8004 18.3014 26.7952 18.2977 26.7922 18.2955L26.7885 18.2925L26.7877 18.2918L26.7795 18.3022L26.7877 18.2918L26.7795 18.3022L26.7877 18.2918C26.7556 18.2656 26.7087 18.2716 26.6826 18.3037C26.6572 18.3372 26.6624 18.3842 26.6945 18.4096Z" fill="#8A2C2C"/>
<path d="M29.5844 14.1719C29.9468 14.1473 30.4391 14.2345 30.4391 14.2345L30.8813 14.0093L30.4771 14.6149C30.4771 14.6149 29.9722 14.2107 28.7625 14.5918C28.9884 14.4187 29.3002 14.1913 29.5844 14.1719Z" fill="#443E61"/>
<path d="M29.6113 15.0192C29.8119 15.0192 29.9745 14.8565 29.9745 14.6559C29.9745 14.4553 29.8119 14.2927 29.6113 14.2927C29.4107 14.2927 29.248 14.4553 29.248 14.6559C29.248 14.8565 29.4107 15.0192 29.6113 15.0192Z" fill="#443E61"/>
<path d="M26.0363 14.8026C25.6858 14.8981 25.2495 15.142 25.2495 15.142L24.7207 15.0189L25.3263 15.5238C25.3263 15.5238 25.7306 14.9182 26.95 14.9316C26.68 14.8407 26.3108 14.728 26.0363 14.8026Z" fill="#443E61"/>
<path d="M26.3684 15.2801C26.3975 15.4785 26.2595 15.6635 26.0611 15.6926C25.8627 15.7217 25.6777 15.5837 25.6486 15.3853C25.6196 15.1869 25.7575 15.002 25.9559 14.9729C26.1551 14.9438 26.3393 15.0818 26.3684 15.2801Z" fill="#443E61"/>
<path d="M22.0293 8.60645C21.7437 8.81528 21.458 9.06215 21.1754 9.35302C18.8118 11.7859 19.9052 14.362 20.7801 15.6955C20.4758 15.1608 20.1976 13.4819 20.4788 11.8881C20.7823 10.1719 22.0293 8.60645 22.0293 8.60645Z" fill="#E0A9A0"/>
<path d="M24.9728 9.84009C24.9728 9.84009 19.9541 14.2293 21.7314 19.0167C21.7314 19.0167 20.0131 15.888 22.0947 12.6966C23.6094 10.3741 24.9728 9.84009 24.9728 9.84009Z" fill="#E0A9A0"/>
<path d="M28.257 9.06152C28.257 9.06152 29.469 9.76857 29.469 10.8791C29.469 11.9889 27.8572 14.1242 27.8542 14.1279C28.2413 13.7453 29.7069 12.2141 29.7367 10.897C29.7397 10.762 29.7285 10.636 29.7054 10.5159C29.3675 9.06152 28.257 9.06152 28.257 9.06152Z" fill="white"/>
<path d="M42.7972 21.0784L42.2922 23.5016L42.6525 23.7268L42.7972 21.0784Z" fill="#D1385C"/>
<path d="M52.6938 23.2993L53.2995 24.7134L53.9051 24.7425L52.6938 23.2993Z" fill="#D1385C"/>
<path d="M48.3516 14.0093C48.3516 14.0093 49.6433 15.3152 49.6232 17.49C49.6232 17.49 50.4719 15.4234 48.3516 14.0093Z" fill="white"/>
<path d="M47.1075 14.1704C47.1075 14.1704 46.3803 15.1758 47.2238 17.053C47.2238 17.053 47.0478 15.3399 47.1075 14.1704Z" fill="#D1385C"/>
<path d="M132.768 5.42627C132.768 5.42627 131.657 7.14316 132.667 8.05158C133.677 8.96074 134.641 9.09275 134.641 9.09275C134.641 9.09275 133.677 9.62974 132.567 8.73923C131.455 7.84946 131.16 6.2877 132.768 5.42627Z" fill="#FFC001"/>
<path d="M135.981 2.56549C135.981 2.56549 134.152 4.35174 134.167 7.00912C134.167 7.00912 133.618 4.67618 134.835 3.46048C135.798 2.49762 135.981 2.56549 135.981 2.56549Z" fill="#FFC001"/>
<path d="M140.539 3.85645C140.539 3.85645 141.554 4.71937 141.149 6.13345C140.745 7.54754 139.736 8.86019 139.736 8.86019C139.736 8.86019 141.147 7.85855 141.401 6.79425C141.655 5.72921 141.745 4.71042 140.539 3.85645Z" fill="#FFC001"/>
<path d="M97.2708 5.77979C97.2708 5.77979 99.3113 6.5368 99.0249 8.8593C98.7385 11.1818 98.7385 11.1818 98.7385 11.1818L100.193 12.047C100.193 12.047 101.198 10.2294 100.423 8.1806C99.6484 6.13182 97.2708 5.77979 97.2708 5.77979Z" fill="#81EBE9"/>
<path d="M65.4833 89.8166L67.2486 89.7771C67.2897 89.7764 67.3225 89.7421 67.3217 89.701C67.321 89.66 67.2867 89.6272 67.2457 89.6279L65.4147 89.669C65.3736 89.6697 65.3408 89.704 65.3416 89.745C65.3423 89.7861 65.3766 89.8189 65.4176 89.8181L65.4833 89.8166Z" fill="white"/>
<path d="M65.4691 90.3215L67.4373 90.2813C67.4784 90.2805 67.5112 90.2462 67.5104 90.2052C67.5097 90.1642 67.4754 90.1313 67.4343 90.1321L65.4147 90.1731C65.3736 90.1739 65.3408 90.2082 65.3416 90.2492C65.3423 90.2902 65.3766 90.323 65.4176 90.3223L65.4691 90.3215Z" fill="white"/>
<path d="M65.4616 90.8197L67.4373 90.7734C67.4784 90.7727 67.5112 90.7384 67.5104 90.6974C67.5097 90.6564 67.4754 90.6235 67.4343 90.6243L65.4147 90.672C65.3736 90.6728 65.3408 90.7071 65.3416 90.7481C65.3423 90.7891 65.3766 90.8219 65.4176 90.8212L65.4616 90.8197Z" fill="white"/>
<path d="M77.2992 89.7151L79.0631 89.6755C79.1041 89.6748 79.1369 89.6405 79.1362 89.5995C79.1354 89.5584 79.1011 89.5256 79.0601 89.5264L77.2291 89.5674C77.1881 89.5681 77.1553 89.6025 77.156 89.6435C77.1568 89.6845 77.1911 89.7173 77.2321 89.7166L77.2992 89.7151Z" fill="white"/>
<path d="M77.2895 90.2209L79.0631 90.1807C79.1041 90.1799 79.1369 90.1456 79.1362 90.1046C79.1354 90.0636 79.1011 90.0308 79.0601 90.0315L77.2291 90.0725C77.1881 90.0733 77.1553 90.1076 77.156 90.1486C77.1568 90.1896 77.1911 90.2224 77.2321 90.2217L77.2895 90.2209Z" fill="white"/>
<path d="M77.3 90.7248L79.0631 90.6853C79.1041 90.6846 79.1369 90.6503 79.1362 90.6092C79.1354 90.5682 79.1011 90.5354 79.0601 90.5361L77.2291 90.5772C77.1881 90.5779 77.1553 90.6122 77.156 90.6532C77.1568 90.6943 77.1911 90.7271 77.2321 90.7263L77.3 90.7248Z" fill="white"/>
<path d="M26.2875 9.61719C26.2875 9.61719 26.9946 11.5355 25.8371 13.6633C25.0323 15.143 22.7993 16.6168 22.7993 16.6168C22.7993 16.6168 24.2179 15.5241 25.4291 13.4037C26.3174 11.8487 26.4389 10.9798 26.2875 9.61719Z" fill="white"/>
<path d="M24.6204 8.55664C24.6204 8.55664 21.3887 9.36437 21.0859 12.4946C21.0859 12.4946 21.3887 10.5763 24.6204 8.55664Z" fill="white"/>
<path d="M52.5925 16.6348C52.5925 16.6348 53.4003 18.4523 52.9968 20.5727L53.2996 20.6734C53.2996 20.6742 53.6024 18.5538 52.5925 16.6348Z" fill="white"/>
<path d="M46.0847 14.5522C46.0847 14.5522 44.4775 16.2766 44.3529 19.0168C44.3536 19.0175 43.6712 16.3295 46.0847 14.5522Z" fill="white"/>
<path d="M55.2172 24.7134C55.2172 24.7134 54.6742 20.7135 54.0052 17.8466C53.3295 14.9498 51.4523 13.623 49.2581 13.2478C50.1568 13.4358 52.7657 14.4657 53.8031 19.0585C54.5102 22.1888 54.4087 23.7035 54.449 24.7574C54.7891 24.7611 55.1009 24.7522 55.2172 24.7134Z" fill="#FF80A3"/>
<path d="M66.6267 0.907471C66.6267 0.907471 63.2943 3.20461 66.9295 4.82007C66.9295 4.82007 64.3042 3.10393 66.6267 0.907471Z" fill="white"/>
<path d="M74.4025 7.84949C74.4025 7.84949 74.8067 5.12275 73.0898 3.30518C73.0898 3.30592 75.4377 4.79534 74.4025 7.84949Z" fill="white"/>
<path d="M74.0996 12.5959C74.0996 12.5959 74.7052 14.01 74.4024 15.3227C74.0996 16.6353 73.5439 16.7867 73.5439 16.7867C73.5439 16.7867 74.9073 16.2311 74.7052 14.6156C74.5381 13.2784 74.0996 12.5959 74.0996 12.5959Z" fill="white"/>
<path d="M94.6987 10.1719C94.6987 10.1719 93.0832 11.3838 90.7607 11.9895C90.7607 11.9895 92.9826 12.4944 96.1128 10.374L94.6987 10.1719Z" fill="#5E1212"/>
<path d="M112.37 13.1011C112.295 13.2018 110.984 13.562 110.516 14.7456C110.048 15.9285 110.158 17.2143 110.368 18.0325C110.553 18.7559 110.702 19.1475 110.855 19.5637C110.992 19.9336 111.158 20.6742 110.755 21.7855C110.755 21.7855 111.36 20.8771 111.159 19.7658C110.957 18.6552 110.128 17.2024 110.755 15.4236C111.36 13.7067 112.37 13.1011 112.37 13.1011Z" fill="#292C61"/>
<path d="M112.572 16.7361C112.572 16.7361 111.765 17.8466 111.765 18.5537C111.765 19.251 112.067 19.3614 112.067 19.3614C112.067 19.3614 111.865 18.8565 111.967 18.1494C112.067 17.4424 112.572 16.7361 112.572 16.7361Z" fill="#292C61"/>
<path d="M117.218 13.2017C117.218 13.2017 118.495 14.6859 118.733 15.9284C118.97 17.1709 118.733 17.8467 118.733 17.8467C118.733 17.8467 119.443 16.2782 118.632 14.8171C118.126 13.9087 117.218 13.2017 117.218 13.2017Z" fill="white"/>
<path d="M113.885 12.5959C113.885 12.5959 110.957 13.2016 110.755 15.5241C110.755 15.5241 111.159 13.8072 113.885 12.5959Z" fill="white"/>
<path d="M133.724 3.13745C133.724 3.13745 132.398 4.97144 133.416 7.64746C133.416 7.64746 131.601 4.93862 133.724 3.13745Z" fill="white"/>
<path d="M139.736 3.81079C139.736 3.81079 141.251 5.51724 139.938 7.34004C139.938 7.34004 142.059 5.42625 139.736 3.81079Z" fill="white"/>
</svg>
