<svg width="139" height="93" viewBox="0 0 139 93" fill="none" xmlns="http://www.w3.org/2000/svg">
<path d="M119 0H20C8.95431 0 0 8.9543 0 20V73C0 84.0457 8.95431 93 20 93H119C130.046 93 139 84.0457 139 73V20C139 8.95431 130.046 0 119 0Z" fill="#E9F1FF"/>
<path fill-rule="evenodd" clip-rule="evenodd" d="M60.6366 30.4872C60.144 30.6552 59.8111 31.1159 59.8063 31.6364L59.7683 35.7232C59.7551 37.142 60.1736 38.5312 60.9683 39.7066L62.4987 41.9701C63.8905 44.0286 66.3351 45.1122 68.795 44.7608L70.7514 44.4814C72.1939 44.2754 73.3663 43.213 73.713 41.7976C74.1942 39.8329 72.9479 37.8615 70.9668 37.4534L68.8958 37.0268C68.3652 36.9175 67.8193 36.8999 67.2799 36.8497C66.8904 36.8134 66.4247 36.7247 66.0312 36.521C65.6076 36.3014 65.2676 35.9487 65.0316 35.6473C64.7528 35.2912 64.6016 34.8588 64.4942 34.4194L64.099 32.8025C63.8213 31.6664 62.9163 30.7905 61.7718 30.55L61.2848 30.4477C61.0691 30.4023 60.8452 30.416 60.6366 30.4872Z" fill="#1F3453"/>
<path fill-rule="evenodd" clip-rule="evenodd" d="M62.8256 39.6958C61.6411 38.1463 59.6841 39.5767 59.6841 41.5271V51.1988C59.6841 55.0165 61.642 58.5674 64.8705 60.605L67.6062 62.3316C67.9946 62.5767 68.4012 62.7918 68.8224 62.9751L74.4459 65.4216C77.7983 66.88 81.5407 64.4005 81.5047 60.7448C81.5044 60.7163 81.504 60.6893 81.5031 60.6608C81.4919 60.2977 81.3988 57.585 81.0187 54.3583C80.8744 53.1315 81.0212 51.3523 80.5812 50.4807C80.189 49.7041 79.6461 49.1422 79.0525 48.7363C76.7548 47.1652 73.6725 47.2345 71.042 46.3248L66.5608 44.775C65.8796 44.5394 64.8323 44.527 64.7362 43.8127C64.5969 42.78 64.0141 41.2514 62.8256 39.6958Z" fill="#B84E3D"/>
<path fill-rule="evenodd" clip-rule="evenodd" d="M63.9441 57.1212C61.6602 56.1409 59.7564 58.5061 59.743 60.9915L59.6882 71.1105C59.6528 77.646 66.0592 83.155 71.6542 79.7771C72.8823 79.0354 74.1774 78.1109 74.9529 77.5398C75.3709 77.232 75.9469 77.2456 76.3438 77.5802C77.0574 78.1816 76.7484 79.3422 75.8302 79.5092L73.1661 79.9936C72.5602 80.1037 72.3046 81.2863 72.633 81.8074C73.4249 83.0634 74.9789 85.0287 76.4538 85.2004C79.185 85.5184 83.5436 85.8259 88.7955 85.4831C91.1263 85.3312 93.3397 85.5208 94.3545 84.7879C95.11 84.2426 93.7438 81.2895 92.5174 79.5428C92.1302 78.9919 91.5632 78.4514 91.1629 78.1005C90.8519 77.8278 90.5316 77.5688 90.226 77.2902C89.4275 76.5621 87.6907 74.9321 85.817 72.8788C83.9702 70.8542 82.4683 68.641 81.095 67.3659C79.422 65.8127 76.8413 66.9095 74.7456 67.815C73.2958 68.4413 71.6601 68.8716 70.607 68.2944C69.7953 67.8496 69.0285 64.9435 68.6389 63.226C68.4682 62.4737 67.7968 61.8512 67.3292 61.2376C66.4972 60.1455 65.3832 57.7397 63.9441 57.1212Z" fill="#4D7CA7"/>
<path d="M75.1883 84.9799C75.1872 84.9799 75.1862 84.9799 75.1852 84.9799C75.1351 84.9783 75.0961 84.9362 75.0976 84.8853C75.1017 84.774 75.1072 84.6628 75.1133 84.5525C75.1366 84.1139 75.1589 83.6997 75.0541 83.2683C74.7431 81.9901 73.8104 80.8187 72.5596 80.1352C72.5156 80.1113 72.4994 80.0559 72.5232 80.0117C72.5475 79.9675 72.6022 79.9518 72.6462 79.9751C73.9415 80.6831 74.9072 81.8976 75.2298 83.2251C75.3412 83.683 75.3174 84.1297 75.2941 84.5621C75.288 84.6714 75.2824 84.7812 75.2784 84.892C75.2769 84.9412 75.2369 84.9799 75.1883 84.9799Z" fill="#462520"/>
<path d="M76.8468 77.9355C76.8017 77.9355 76.7627 77.9024 76.7566 77.8562C76.7501 77.8064 76.7855 77.7601 76.8351 77.754C77.6443 77.6473 80.4841 75.6186 81.3014 74.8863C81.5211 74.6896 81.7343 74.5031 81.9399 74.3227C83.0109 73.3851 83.8575 72.6442 84.4773 71.5012C84.5016 71.457 84.5563 71.4413 84.6004 71.4646C84.6444 71.4885 84.6606 71.5439 84.6368 71.5881C84.0013 72.76 83.1015 73.5472 82.0594 74.4594C81.8538 74.6393 81.6411 74.8253 81.4224 75.0215C80.5691 75.7853 77.7147 77.8216 76.8589 77.9345C76.8544 77.935 76.8508 77.9355 76.8468 77.9355Z" fill="#462520"/>
<path d="M77.4322 78.4246C77.4033 78.4246 77.3755 78.4109 77.3578 78.386C77.3289 78.3448 77.339 78.2879 77.38 78.2589C77.493 78.1802 77.8054 78.0099 78.2384 77.7741C79.0926 77.3091 80.3834 76.6063 81.0128 76.1133C82.3537 75.0613 83.9979 73.6587 84.8086 72.1392C84.8324 72.095 84.8881 72.0782 84.9316 72.1016C84.9762 72.1255 84.9924 72.1809 84.9691 72.2251C84.1417 73.7746 82.4797 75.1935 81.1247 76.2566C80.4836 76.7592 79.1848 77.4661 78.3255 77.9347C77.9138 78.1583 77.5892 78.3352 77.4849 78.4083C77.4682 78.419 77.4504 78.4246 77.4322 78.4246Z" fill="#462520"/>
<path d="M69.2211 73.0293C68.616 73.0293 67.9967 72.9623 67.3668 72.8123C65.6801 72.4109 64.5508 71.3101 64.011 69.5411C62.7826 65.5167 65 59.4463 65.4345 58.9726C65.4684 58.9356 65.5256 58.9335 65.5626 58.9676C65.5995 59.0016 65.6021 59.059 65.5681 59.0961C65.158 59.5439 63.0018 65.6117 64.1847 69.4882C64.7048 71.1912 65.7894 72.2503 67.4088 72.6355C70.8203 73.4476 73.9507 71.77 75.9757 70.2195C78.0113 68.6614 79.3289 66.8944 79.34 66.5656C79.3421 66.5163 79.3821 66.4777 79.4307 66.4777C79.4317 66.4777 79.4327 66.4777 79.4337 66.4777C79.4838 66.4797 79.5228 66.5214 79.5213 66.5722C79.5071 66.9818 78.1582 68.7783 76.0856 70.3649C74.4014 71.6537 71.9616 73.0288 69.2211 73.0293Z" fill="#462520"/>
<path d="M59.7676 63.9634C59.7281 63.9634 59.6921 63.938 59.6805 63.8983C59.6663 63.85 59.6937 63.7992 59.7418 63.785C60.0091 63.7057 60.238 63.4968 60.4588 63.2946C60.5798 63.1843 60.7044 63.07 60.8335 62.98C60.8751 62.951 60.9313 62.9617 60.9601 63.0024C60.989 63.044 60.9789 63.1004 60.9379 63.1294C60.8183 63.2128 60.7034 63.318 60.5819 63.4293C60.3459 63.6452 60.1013 63.8688 59.7939 63.9598C59.7848 63.9618 59.7762 63.9634 59.7676 63.9634Z" fill="#462520"/>
<path d="M62.8801 56.6137C62.8608 56.6137 62.8411 56.6076 62.8249 56.5949C62.7849 56.5644 62.7773 56.5075 62.8077 56.4673C63.07 56.1223 63.3034 55.7279 63.5292 55.3468C63.8635 54.7837 64.2088 54.2013 64.6666 53.7332C64.7015 53.6977 64.7587 53.6967 64.7947 53.7322C64.8306 53.7673 64.8311 53.8252 64.7957 53.8608C64.3536 54.3131 64.0139 54.8858 63.6852 55.4403C63.4568 55.8255 63.2204 56.2239 62.9515 56.5776C62.9343 56.6015 62.9074 56.6137 62.8801 56.6137Z" fill="#92321B"/>
<path d="M68.2109 55.4952C68.1916 55.4952 68.1724 55.4891 68.1557 55.4764C68.1157 55.4459 68.1081 55.389 68.1385 55.3488C68.5213 54.8447 68.6762 53.8288 68.7269 53.4949L68.7329 53.4588C68.8054 53.017 68.5928 52.609 68.1504 52.5399C67.8169 52.4878 67.459 52.5237 67.0938 52.573C67.0396 52.5817 66.9981 52.5446 66.992 52.4948C66.9854 52.445 67.0199 52.3987 67.07 52.3926C67.7161 52.3057 68.3415 52.26 68.8945 52.6447C68.9806 52.7052 69.014 52.8668 68.9122 53.4888L68.9071 53.5229C68.816 54.122 68.6519 54.9748 68.2833 55.4596C68.2651 55.483 68.2377 55.4952 68.2109 55.4952Z" fill="#92321B"/>
<path d="M70.2598 54.4708C70.2542 54.4708 70.2487 54.4703 70.2431 54.4693C70.194 54.4596 70.1611 54.4118 70.1707 54.3625C70.2056 54.1765 70.2816 53.9539 70.3621 53.7186C70.5956 53.0336 70.8609 52.2566 70.3196 51.9466C70.1823 51.8678 69.9712 51.8617 69.7671 51.8556C69.6385 51.8515 69.5165 51.848 69.4076 51.8276C69.3585 51.818 69.3255 51.7702 69.3352 51.7209C69.3448 51.6716 69.3939 51.6401 69.4415 51.6482C69.5362 51.6665 69.6512 51.6701 69.7727 51.6737C69.9995 51.6803 70.2335 51.6874 70.4097 51.7885C71.0812 52.1732 70.7778 53.0631 70.5343 53.7776C70.4563 54.0068 70.3824 54.2233 70.3494 54.3961C70.3408 54.4403 70.3029 54.4708 70.2598 54.4708Z" fill="#92321B"/>
<path d="M62.0223 56.5034C62.0051 56.5034 61.9873 56.4988 61.9721 56.4881C61.9306 56.4602 61.919 56.4038 61.9468 56.3616L62.1874 55.9977C62.7251 55.1815 63.2821 54.3374 63.902 53.6158C63.9349 53.5777 63.9926 53.5736 64.0301 53.6061C64.068 53.6392 64.0721 53.6966 64.0397 53.7347C63.427 54.4472 62.8735 55.2862 62.3388 56.0978L62.0982 56.4622C62.0805 56.4891 62.0516 56.5034 62.0223 56.5034Z" fill="#92321B"/>
<path d="M63.4653 56.9145C63.4481 56.9145 63.4303 56.9099 63.4151 56.8992C63.3731 56.8713 63.362 56.8149 63.3898 56.7727C63.679 56.3372 63.996 55.9103 64.3028 55.4966C64.6112 55.0814 64.9297 54.652 65.2204 54.2134C65.2482 54.1712 65.3054 54.1606 65.3464 54.188C65.388 54.2159 65.3996 54.2724 65.3718 54.3145C65.0781 54.7567 64.758 55.1886 64.4481 55.6054C64.1428 56.0165 63.8273 56.4418 63.5407 56.8733C63.5235 56.9002 63.4946 56.9145 63.4653 56.9145Z" fill="#92321B"/>
<path d="M72.0111 52.887C72.0075 52.887 72.0035 52.8865 71.9999 52.8865C71.9503 52.8804 71.9149 52.8347 71.9209 52.7849C71.9609 52.4591 71.9837 52.1197 71.9857 51.8041C71.9857 51.7797 71.9878 51.7502 71.9903 51.7182C71.9959 51.6481 72.004 51.5302 71.9741 51.4921C71.8505 51.333 71.5528 51.3228 71.3346 51.3157L71.2439 51.3122C71.1938 51.3096 71.1553 51.2669 71.1578 51.2166C71.1604 51.1663 71.2024 51.1257 71.253 51.1302L71.3411 51.1338C71.5948 51.1419 71.9422 51.1541 72.1174 51.3803C72.1908 51.4738 72.1802 51.6171 72.1716 51.7319C72.1696 51.7594 72.1675 51.7848 72.1675 51.8056C72.1655 52.1288 72.1427 52.4749 72.1017 52.8078C72.0956 52.853 72.0561 52.887 72.0111 52.887Z" fill="#92321B"/>
<path d="M73.8465 50.4435C73.8065 50.4435 73.7696 50.4166 73.7589 50.3754C73.6961 50.1361 73.642 49.9287 73.5164 49.8718C73.4227 49.8291 73.2713 49.8606 73.0637 49.9653C73.0191 49.9877 72.9644 49.9694 72.9416 49.9241C72.9193 49.8794 72.9376 49.8245 72.9826 49.8022C73.2485 49.6685 73.4409 49.638 73.5913 49.7056C73.7954 49.7986 73.8602 50.0446 73.9341 50.3287C73.9448 50.3697 73.926 50.4115 73.8908 50.4313C73.8773 50.4389 73.862 50.4435 73.8465 50.4435Z" fill="#92321B"/>
<path d="M62.0076 51.3682C61.9904 51.3682 61.9727 51.3636 61.9575 51.353C61.916 51.325 61.9043 51.2686 61.9322 51.2264C62.3737 50.5602 63.3161 50.0311 64.0503 49.7588C64.1962 49.7044 64.6954 49.5443 64.9724 49.7648C65.1091 49.8736 65.1638 50.0479 65.1345 50.2832C65.1279 50.333 65.0869 50.365 65.0332 50.3625C64.9836 50.3564 64.9481 50.3107 64.9542 50.2608C64.975 50.0931 64.9431 49.9742 64.8595 49.9077C64.699 49.7796 64.3693 49.835 64.1136 49.93C63.4062 50.1928 62.5008 50.6979 62.0836 51.3281C62.0659 51.354 62.037 51.3682 62.0076 51.3682Z" fill="#92321B"/>
<path d="M62.946 48.7113C62.9171 48.7113 62.8887 48.6976 62.871 48.6716C62.8427 48.63 62.8528 48.5736 62.8943 48.5451L62.9723 48.4912C63.2807 48.2783 63.2807 48.2783 63.5865 48.1106C63.7359 48.0288 63.9582 47.9073 64.3279 47.7C64.5724 47.5627 64.7704 47.5251 64.9305 47.5861C65.095 47.6486 65.2176 47.8072 65.3163 48.0867C65.333 48.134 65.3082 48.1863 65.2606 48.2031C65.215 48.2204 65.1614 48.1949 65.1446 48.1472C65.0667 47.9256 64.9755 47.7975 64.8666 47.7564C64.7588 47.7152 64.6114 47.7487 64.4165 47.8585C64.0463 48.0664 63.823 48.1888 63.6736 48.2707C63.3759 48.4338 63.3759 48.4338 63.0751 48.6411L62.9971 48.695C62.9819 48.7062 62.9637 48.7113 62.946 48.7113Z" fill="#92321B"/>
<path d="M63.5583 47.144C63.5325 47.144 63.5071 47.1333 63.4889 47.112C63.4565 47.0738 63.4611 47.0159 63.499 46.9834C63.5228 46.9631 63.5456 46.9417 63.5689 46.9209C63.6175 46.8761 63.6666 46.8314 63.7203 46.7938L63.7441 46.772C64.3118 46.2648 64.725 46.0513 64.9802 46.1352C65.0643 46.1636 65.1736 46.2399 65.2142 46.4432C65.2243 46.4924 65.1924 46.5402 65.1427 46.5504C65.0951 46.5605 65.046 46.528 65.0359 46.4787C65.0075 46.3364 64.9432 46.3151 64.922 46.308C64.8364 46.2785 64.566 46.281 63.8641 46.9082C63.8418 46.9285 63.8272 46.9407 63.8231 46.9432C63.776 46.9763 63.7335 47.0164 63.6904 47.0555C63.6661 47.0779 63.6413 47.1008 63.6155 47.1226C63.6003 47.1369 63.5795 47.144 63.5583 47.144Z" fill="#92321B"/>
<path d="M63.9284 45.5045C63.9173 45.5045 63.9066 45.5025 63.8955 45.4984C63.8489 45.4801 63.8256 45.4273 63.8433 45.3805C63.9254 45.1676 64.1872 44.8718 64.4844 44.7458C64.729 44.6416 64.9396 44.6807 65.0769 44.8576C65.1077 44.8972 65.1007 44.9547 65.0612 44.9857C65.0217 45.0172 64.9644 45.01 64.9336 44.9699C64.849 44.8612 64.7219 44.8423 64.5553 44.914C64.3138 45.0167 64.0798 45.2723 64.013 45.4466C63.9993 45.4827 63.9649 45.5045 63.9284 45.5045Z" fill="#92321B"/>
<path fill-rule="evenodd" clip-rule="evenodd" d="M60.5973 27.1098C61.2753 25.5756 62.3686 24.919 62.7342 23.9214C63.1003 22.9243 64.0619 20.8143 64.9496 19.9747C68.9358 16.2044 73.0298 17.729 73.4177 17.9399C74.2715 18.4039 74.5884 19.4198 74.6806 19.4218C76.3527 19.4574 78.0424 20.8321 78.2916 24.7599C78.5402 28.6873 76.5481 32.6146 77.5269 34.4711C77.5396 34.4954 76.6185 35.3782 76.3025 35.2222C75.3804 34.7653 74.6279 32.9978 73.6086 33.2102C72.683 33.4033 71.5669 33.4104 70.7886 33.9964C70.4888 34.222 70.2792 34.4949 70.0503 34.7831C70.0002 34.8456 69.827 35.1358 69.7814 35.0524C67.9737 31.7552 61.0935 30.9111 59.9061 30.6728C59.7886 30.6479 59.9193 28.6441 60.5973 27.1098Z" fill="#FCCC95"/>
<path fill-rule="evenodd" clip-rule="evenodd" d="M67.4579 39.7686C67.388 39.8682 67.3845 39.8265 67.425 39.7112C67.5298 39.4134 67.5096 39.3295 67.5688 39.0205C67.6878 38.4 67.7511 37.8039 67.899 37.1626C67.9415 36.9796 67.824 36.7387 67.8797 36.5675C68.1906 35.608 68.9684 35.544 69.7057 35.0434C70.1255 34.7583 70.3635 34.2613 70.7848 33.9752C71.6436 33.3918 72.7632 33.1636 73.7719 33.0299C74.5077 32.9323 75.3553 33.1986 76.0364 33.4522C76.3002 33.5508 76.5342 33.7683 76.7985 33.8766C77.0953 33.998 77.5039 34.1322 77.7495 34.3528C77.9829 34.5631 77.9642 34.8645 78.1591 35.0937C78.7658 35.8082 79.2782 36.5909 79.6018 37.4807C79.7897 37.9975 80.5563 37.8446 80.7513 38.4417C81.0769 39.4393 80.2874 40.4923 80.4566 41.4929C80.5102 41.81 80.8277 41.6052 80.9158 41.7358C80.9913 41.8481 80.5639 42.2069 80.4945 42.2542C80.2378 42.4285 79.8165 42.6953 79.4995 42.7233C79.2316 42.7471 78.9805 42.5815 78.7253 42.6043C78.5729 42.6176 78.4159 42.8264 78.3263 42.927C78.0761 43.2071 77.7601 43.4017 77.4811 43.6563C77.3611 43.7651 77.1277 43.9907 76.9398 43.9211C76.5904 43.791 76.5008 43.2503 76.4192 42.9586C76.2405 42.3177 75.962 41.653 75.5619 41.1158C74.7193 39.9826 73.7081 39.0388 72.3794 38.5306C70.5777 37.8415 68.5983 38.4163 67.4321 39.9429C67.3207 40.0872 67.5567 39.6273 67.4579 39.7686Z" fill="#565762"/>
<path fill-rule="evenodd" clip-rule="evenodd" d="M80.6479 62.0845C80.6084 62.5393 81.3072 61.7217 81.3563 61.6469C81.5583 61.3369 82.6141 59.8733 82.9691 59.1273C83.0693 58.9164 83.478 58.147 83.4542 57.927C83.3524 57.0046 82.7979 56.7063 82.9245 56.1884C83.1362 55.3219 83.1119 54.8742 82.7842 54.0179C82.3391 52.8557 80.7952 51.9577 79.7561 51.5466C78.6067 51.0922 76.5888 50.2842 74.0873 50.6415C73.6715 50.7009 72.7033 50.4661 72.2891 50.1597C71.9802 49.931 72.3636 52.1325 72.3023 52.3348C72.2309 52.5721 71.6324 52.9365 70.5335 56.3084C70.4485 56.5696 70.3993 56.845 70.373 57.1184C70.3684 57.1677 70.3234 57.3197 70.3836 57.3507C70.4854 57.4035 70.6783 57.1535 70.7381 57.0879C71.008 56.7922 71.2465 56.4705 71.5326 56.191C72.2289 55.5115 73.0669 55.1055 74.0356 54.982C75.4362 54.8026 76.6085 55.7473 77.7884 56.4222C78.2309 56.6753 78.754 56.5152 79.1763 56.7876C79.6857 57.1169 80.6575 57.6231 80.8945 58.2436C81.3142 59.3413 80.6868 61.6297 80.6479 62.0845Z" fill="#56372E"/>
<path fill-rule="evenodd" clip-rule="evenodd" d="M0 20C0 8.9543 8.95431 0 20 0H59.8186V93H20C8.95431 93 0 84.0457 0 73V20Z" fill="#F9FBFF"/>
<path fill-rule="evenodd" clip-rule="evenodd" d="M73.5779 21.3437C73.2959 21.6562 72.1185 21.5139 71.7859 21.5276C69.9472 21.6059 69.5816 21.0006 69.1132 21.2532C68.6251 21.5154 68.1126 21.7558 67.6538 22.0689C66.9333 22.5603 66.3251 23.2057 65.6218 23.7185C65.5347 23.782 65.2506 23.9924 65.123 23.9411C64.9392 23.8674 64.7569 23.6814 64.5503 23.6814C64.1796 23.6814 63.8261 24.6378 63.7375 24.9051C63.5147 25.5759 64.0722 25.9972 64.2363 26.5735C64.2976 26.789 64.1411 27.07 64.1067 27.2779C64.0439 27.6575 63.9938 28.0519 64.0328 28.4457C64.0687 28.804 64.1285 29.1475 64.1993 29.5028C64.2221 29.6196 64.2971 29.7335 64.2733 29.8549C64.1948 30.2493 63.8069 30.5959 63.5527 30.8744C63.1086 31.3602 62.5911 31.9726 62.2594 32.5428C62.068 32.8716 61.9561 33.6796 61.9561 34.0496C61.9561 34.9532 61.8533 36.4086 62.586 37.8931C62.6306 37.9846 62.8174 37.8011 63.0544 37.4012C63.3152 36.9611 64.0282 35.5859 64.3067 35.1082C64.5847 34.6305 64.9316 35.8888 65.8451 36.3817C66.3646 36.6622 67.9212 37.3178 67.7546 36.8142C67.6513 36.5011 68.3982 35.8583 68.6377 35.6138C68.9142 35.3318 69.6459 35.1941 69.814 34.9893C70.0996 34.6411 70.3214 34.4653 70.684 34.1822C71.0471 33.8987 71.6026 33.6954 71.92 33.3767C72.0137 33.2827 71.5048 32.8802 71.5139 32.7837C71.521 32.7019 72.3717 31.8903 73.2447 30.0608C73.8179 28.8604 74.6367 25.4768 74.5264 23.3155C74.4605 21.9998 73.6848 21.2248 73.5779 21.3437Z" fill="#FF9973"/>
<path fill-rule="evenodd" clip-rule="evenodd" d="M55.1737 3.71126C55.1876 3.68342 55.1527 3.65096 55.1278 3.66965C55.1168 3.67792 55.1126 3.68505 55.1116 3.69781C55.109 3.72974 55.1594 3.73993 55.1737 3.71126Z" fill="#FF9973"/>
<path fill-rule="evenodd" clip-rule="evenodd" d="M59.6999 40.5433C59.6174 40.6338 59.5814 40.71 59.1394 41.52C58.8371 42.075 58.5459 42.5995 58.3358 43.1966C58.2654 43.3958 58.12 43.6799 58.1879 43.8974C58.2801 44.1942 58.43 44.3121 58.3358 44.619C58.2092 45.0317 57.7408 45.5282 57.8491 45.9988C57.8866 46.1624 57.9448 46.3347 58.0816 46.4445C58.1844 46.5268 58.3089 46.5227 58.3358 46.6564C58.4067 47.0137 58.0395 47.4365 58.3145 47.7815C58.4386 47.9376 58.6796 48.0971 58.8857 47.994C58.9824 47.9452 59.1262 47.8583 59.2027 47.7815C59.231 47.7531 59.2655 47.6631 59.2872 47.6967C59.3196 47.7455 59.2513 47.8776 59.2447 47.9299C59.2072 48.2287 59.1363 49.0032 59.6255 48.928C60.0073 48.8691 60.2939 47.9731 60.3871 47.6758C60.4266 47.5478 60.4813 47.4238 60.5137 47.2937C60.5598 47.1077 60.582 46.8393 60.5137 46.6569C60.4762 46.5578 60.2732 46.571 60.26 46.4658C60.2235 46.1741 60.5147 45.9434 60.4084 45.638C60.3527 45.4789 59.9967 45.3371 60.0276 45.2131C60.1536 44.7059 60.5613 44.3715 60.5982 43.812C60.6139 43.5787 60.5076 43.4232 60.3446 43.2601C60.3192 43.2347 60.099 43.1387 60.1116 43.0904C60.2716 42.5024 60.5912 41.9967 60.7253 41.392C60.8054 41.0312 60.776 40.5555 60.3871 40.373C60.0407 40.2109 59.9395 40.28 59.6999 40.5433Z" fill="#FF9973"/>
<path fill-rule="evenodd" clip-rule="evenodd" d="M65.992 42.7973C66.0031 42.7892 65.6076 43.2948 65.5373 43.3919C65.3474 43.6521 65.1539 43.9118 64.9448 44.1562C64.9332 44.17 64.6703 44.4332 64.6911 44.4957C64.8704 45.0359 65.2527 45.4166 65.2527 46.0416C65.2527 47.6516 65.3408 49.2809 65.1048 50.8817C65.0248 51.4255 65.0035 51.9703 64.9357 52.5161C64.9195 52.6442 64.798 53.0797 64.8932 53.2164C65.0132 53.3887 65.7383 52.9735 65.8239 52.9404C66.7267 52.5918 67.6488 52.293 68.5527 51.9423C69.3523 51.6323 70.1903 51.4113 71.0061 51.1572C71.3216 51.0586 71.6669 51.0271 71.9581 50.8599C72.2285 50.7049 71.9221 50.4055 72.0639 50.2871C72.6052 49.8343 73.2458 49.5467 73.7562 49.0344C74.3745 48.4144 74.9988 47.6755 75.491 46.9544C75.6369 46.7404 75.7488 46.5041 75.9351 46.3176C76.1746 46.0772 76.4537 46.3705 76.7342 46.1865C77.3894 45.7565 78.5505 44.9373 78.431 43.9189C78.312 42.901 77.2684 43.3822 77.3196 43.6292C77.3702 43.8762 77.4249 43.0377 77.4375 42.9848C77.5672 42.4309 77.8426 41.5995 77.7758 41.0318C77.7196 40.5521 77.1904 40.0815 76.8238 39.8218C76.5028 39.5941 76.3326 39.2216 76.0202 38.994C75.7863 38.8232 75.4875 38.8151 75.2373 38.6758C74.9593 38.5208 74.6672 38.286 74.4332 38.0812C74.0205 37.7204 73.7699 37.2214 73.4179 36.8077C73.0969 36.4296 72.3698 35.8777 71.8102 36.0647C71.3413 36.2217 71.0744 36.7721 70.6045 36.9353C70.2278 37.0664 69.8237 37.0028 69.4414 37.0836C69.3614 37.1004 69.3194 37.3296 69.3148 37.3383C69.1983 37.5624 69.0449 37.7352 68.8915 37.9328C68.3324 38.6545 67.9613 39.1739 67.3815 39.8808C67.2817 40.0022 67.4767 38.9294 67.5379 38.038C67.5628 37.6772 66.8103 38.2002 66.7617 38.2449C66.3191 38.6555 66.0077 39.9738 65.9869 40.4525C65.9515 41.2676 66.5348 41.2204 66.4822 41.3718C66.4067 41.5903 66.3343 41.8033 66.2573 41.9913C66.195 42.1402 65.8629 42.8862 65.992 42.7973Z" fill="#FF9973"/>
<path fill-rule="evenodd" clip-rule="evenodd" d="M74.0153 54.1609C74.0129 54.1626 74.01 54.1636 74.007 54.1636C72.9219 54.1657 72.0546 54.9053 71.4483 55.7746C71.2265 56.0927 71.0164 56.4124 70.8012 56.7356C70.7429 56.8235 70.7039 57.0984 70.6695 57.0466C70.6224 56.9759 70.5855 56.6858 70.4756 56.485C70.3632 56.2802 70.0229 56.2726 69.7165 56.4957C69.2522 56.8341 68.9737 57.6961 68.8628 58.253C68.8061 58.5376 68.7458 58.7328 68.8455 59.0123C68.919 59.2191 69.2137 59.2293 69.2638 59.4295C69.3084 59.6084 68.8147 60.7752 68.7033 61.1553C68.6678 61.2758 68.565 61.8465 68.4572 61.9009C68.2896 61.9852 67.9017 61.7139 67.7938 61.63C67.251 61.2062 67.0348 60.8647 66.7107 60.2685C66.6428 60.1435 66.2656 59.4244 66.1405 59.5083C65.9187 59.6567 65.1703 62.0986 65.028 62.7887C64.8928 63.4453 64.8411 64.1191 64.7951 64.789C64.6097 67.4895 65.0837 71.8234 68.5022 72.0038C70.8584 72.1283 71.0549 71.7533 76.2285 68.9496C76.7551 68.6639 77.5886 67.7527 78.0069 67.333C78.1952 67.1439 78.4981 66.4863 78.3856 66.2327C78.3639 66.1834 77.8828 66.0666 77.8342 66.0503C77.7927 66.0366 78.9138 64.4723 79.4728 64.0353C79.7711 63.8025 80.203 63.8615 80.5043 63.6496C80.8178 63.4285 80.9985 62.9345 81.1813 62.5544C81.4011 62.0981 80.8968 62.096 80.8968 61.8013C80.8968 61.3231 81.0882 60.7762 81.2077 60.3204C81.474 59.3045 81.7459 58.2586 81.2335 57.2803C80.7707 56.3981 79.5478 56.3651 78.6707 56.2675C78.4393 56.2416 78.094 56.3402 77.894 56.1893C77.5289 55.9148 77.3445 55.2999 77.0139 54.9686C76.0062 53.9572 75.47 54.079 74.0229 54.1583C74.0202 54.1584 74.0175 54.1593 74.0153 54.1609Z" fill="#FF9973"/>
<path fill-rule="evenodd" clip-rule="evenodd" d="M70.8001 80.3824C69.7681 80.2742 68.7534 80.4942 67.7239 80.3656C66.8555 80.2574 65.9906 80.0338 65.1389 79.8402C64.7135 79.7431 63.996 80.0089 63.5954 80.1497C62.8997 80.3941 62.0626 80.5649 61.4702 81.0212C60.979 81.3998 60.6752 82.0544 60.3602 82.5758C60.0685 83.0591 59.551 83.8412 59.8158 84.4277C60.0072 84.8515 60.4402 84.5313 60.6508 84.3077C60.6807 84.2762 60.7911 84.1294 60.8301 84.1309C60.8807 84.1329 60.9167 84.5918 60.9501 84.666C61.0904 84.9765 61.1193 84.6696 61.3253 84.7346C61.4373 84.7697 61.46 85.0802 61.6175 85.13C61.857 85.2052 62.1801 85.1188 62.4227 85.0904C62.4854 85.0827 62.7331 84.9984 62.7802 85.0385C62.8764 85.1198 62.9062 85.2708 63.0116 85.345C63.3691 85.597 64.3261 85.5879 64.7469 85.5137C65.0634 85.4583 65.3495 85.3607 65.6017 85.1559C65.6579 85.1112 65.8549 84.8347 65.9156 84.8322C66.3592 84.8149 66.8053 85.1793 67.2682 85.1488C67.9816 85.1021 68.6506 84.7102 69.3843 84.6716C70.4198 84.6167 71.4513 84.5385 72.4823 84.4592C72.777 84.4363 73.2495 84.5639 73.5189 84.4226C73.9042 84.2208 73.4156 83.2405 73.3072 83.0235C72.8246 82.0544 71.9739 80.5059 70.8001 80.3824Z" fill="#FF9973"/>
<path fill-rule="evenodd" clip-rule="evenodd" d="M66.8506 40.8245C66.8608 40.8281 66.8711 40.8317 66.8813 40.8348L66.8506 40.8245Z" fill="#565762"/>
<path d="M64.4871 53.5574C64.4719 53.5574 64.4557 53.5554 64.44 53.5508C64.3433 53.5249 64.2856 53.4248 64.3119 53.3277C64.3349 53.2412 64.3504 53.0226 64.3589 52.7456C64.3874 51.8184 63.4598 51.3283 62.6738 51.8209C61.6737 52.4485 61.6747 52.447 61.5638 52.3052C61.4646 52.1787 61.5309 52.0033 61.6514 51.7294C61.6661 51.6964 61.6788 51.6689 61.6838 51.6537C61.7922 51.2477 62.4312 49.5731 62.9447 48.2274C63.1052 47.8072 63.251 47.425 63.3604 47.1348C63.5189 46.7135 63.6536 46.0996 63.7838 45.5066C63.9407 44.791 64.0886 44.1151 64.2861 43.6938C64.321 43.6186 64.4036 43.4418 64.6031 43.3691C64.7702 43.3091 64.9707 43.3361 65.2178 43.4519C65.3084 43.4946 65.3474 43.6034 65.3049 43.6943C65.2624 43.7858 65.153 43.8244 65.0634 43.7817C64.8618 43.6872 64.7661 43.6974 64.7266 43.7116C64.6785 43.7289 64.6481 43.7767 64.6147 43.8483C64.435 44.233 64.284 44.9201 64.1387 45.5848C64.0055 46.1911 63.8683 46.8177 63.7002 47.2634C63.5903 47.5546 63.4445 47.9373 63.284 48.3575C62.7999 49.625 62.1375 51.36 62.0327 51.7533C62.0288 51.7697 62.0456 51.7842 62.0599 51.7753C62.1893 51.6948 62.3361 51.6027 62.4814 51.5119C64.4117 50.2999 64.4324 50.3166 64.5712 50.4549C64.8102 50.6927 64.72 53.2073 64.6623 53.4222C64.641 53.504 64.5676 53.5574 64.4871 53.5574Z" fill="#92321B"/>
<path d="M66.9587 56.4399C66.901 56.4435 66.8408 56.4094 66.8063 56.3611C66.7364 56.262 66.7506 56.2219 66.979 55.5567C66.9891 55.5273 67.0001 55.4953 67.0119 55.461C67.4101 54.3022 66.471 53.1927 65.434 53.8456C65.349 53.8989 65.2371 53.873 65.1839 53.7876C65.1307 53.7022 65.1566 53.5899 65.2416 53.5366C65.7232 53.2337 67.5649 52.9404 67.6783 52.9709C67.7618 52.9908 67.8292 53.0436 67.8712 53.1204C68.0414 53.4314 67.81 54.2582 67.3223 55.6756C67.2995 55.7413 67.3724 55.8003 67.4323 55.7649C67.5605 55.6893 67.7348 55.5872 67.9406 55.4667C68.9412 54.8807 70.8041 53.7896 71.5607 53.2738C71.6432 53.2164 71.7561 53.2393 71.8128 53.3221C71.8696 53.4049 71.8478 53.5188 71.7647 53.5752C70.9976 54.0981 69.1984 55.1521 68.1234 55.7818C67.7735 55.9866 67.5152 56.1375 67.4231 56.195C67.4043 56.2061 67.3795 56.2254 67.3512 56.2473C67.2069 56.3561 67.0858 56.4399 66.9587 56.4399Z" fill="#92321B"/>
<path d="M64.8938 53.6103C64.8801 53.6103 64.8659 53.6083 64.8518 53.6052C64.754 53.5818 64.6938 53.4843 64.7166 53.3862C64.7606 53.1981 64.8123 52.2005 64.8619 51.235C64.911 50.2811 64.9621 49.2947 65.0194 48.7367C65.1627 47.3351 65.072 45.9899 64.7652 44.9496C64.5049 44.0679 64.5667 43.8854 64.7945 43.6222C64.8178 43.5958 64.8421 43.5673 64.8675 43.5338C64.9287 43.4535 65.0427 43.4392 65.1222 43.4997C65.2017 43.5612 65.2169 43.6755 65.1561 43.7553C65.1257 43.795 65.0963 43.829 65.0685 43.861C64.9464 44.0018 64.8857 44.0725 65.1136 44.8454C65.4386 45.9462 65.5308 47.3046 65.3809 48.7738C65.3247 49.3226 65.2741 50.3045 65.225 51.2538C65.1606 52.4953 65.1186 53.2642 65.0705 53.4695C65.0503 53.5534 64.9758 53.6103 64.8938 53.6103Z" fill="#92321B"/>
<path d="M65.0081 53.645C64.9463 53.645 64.886 53.6135 64.8521 53.5565C64.8005 53.4701 64.8283 53.3583 64.9144 53.3065C66.1348 52.5711 67.6954 51.9359 69.4282 51.4689C69.5685 51.4313 69.7164 51.3931 69.8693 51.354C70.6111 51.1639 71.4517 50.9485 72.0391 50.5953C72.1262 50.5434 72.2371 50.5719 72.2883 50.6578C72.3399 50.7442 72.312 50.856 72.226 50.9078C71.5935 51.2884 70.7251 51.511 69.9594 51.7072C69.808 51.7458 69.6612 51.7839 69.5224 51.821C67.8225 52.2794 66.2938 52.901 65.1018 53.6196C65.0719 53.6363 65.0395 53.645 65.0081 53.645Z" fill="#92321B"/>
<path d="M72.6288 50.4757C72.5838 50.4757 72.5382 50.4589 72.5033 50.4254C72.4309 50.3558 72.4283 50.2404 72.4977 50.1677C72.6015 50.0585 72.6967 49.9355 72.7889 49.7911C72.843 49.7063 72.9554 49.6819 73.0395 49.7352C73.1241 49.7891 73.1489 49.9019 73.0952 49.9868C72.9904 50.152 72.881 50.2932 72.7605 50.4198C72.7245 50.4569 72.6769 50.4757 72.6288 50.4757Z" fill="#92321B"/>
<path d="M73.8079 50.7206C73.7735 50.7206 73.738 50.7109 73.7066 50.6896C73.6236 50.6337 73.6013 50.5203 73.6575 50.4365C73.9289 50.0314 73.9122 49.6071 73.9011 49.3266C73.892 49.1086 73.8823 48.8616 74.1133 48.8163C74.21 48.7955 74.3067 48.8616 74.3259 48.9607C74.3275 48.9686 74.3284 48.9766 74.3289 48.9845C74.3356 49.0953 74.2599 49.2014 74.2636 49.3123C74.2758 49.6203 74.2961 50.1361 73.9588 50.6403C73.9239 50.6926 73.8666 50.7206 73.8079 50.7206Z" fill="#92321B"/>
<path d="M63.1857 38.5489C62.5912 38.5494 62.2049 37.6555 62.1041 37.3013C62.0368 37.0648 61.9924 36.7484 61.9648 36.391C61.8928 35.456 60.561 34.9874 60.1444 35.8275C60.0993 35.9175 59.9895 35.9536 59.9003 35.9094C59.8107 35.8641 59.7742 35.7549 59.8188 35.6644C60.0274 35.2457 61.7056 32.8109 61.8899 32.5639C61.9137 32.5324 61.9562 32.4633 62.0023 32.3906C62.1922 32.0882 62.2413 32.0064 62.3897 32.0491C62.4677 32.0715 62.5229 32.1487 62.5229 32.2295C62.5229 32.3134 62.5046 32.3581 62.4834 32.4033C62.4687 32.4343 62.4439 32.4862 62.412 32.6737C62.3699 32.9242 62.135 36.0837 62.4535 37.2012C62.6897 38.0333 63.5036 37.8543 63.7801 37.0347C63.9637 36.4903 64.1324 35.851 64.2147 35.3468C64.2309 35.2472 64.3266 35.1796 64.4233 35.1964C64.5225 35.2126 64.5894 35.3061 64.5732 35.4052C64.5681 35.4362 63.9833 38.4829 63.2369 38.5464C63.2196 38.5484 63.2029 38.5489 63.1857 38.5489Z" fill="black"/>
<path d="M62.8278 39.4758C62.7812 39.4758 62.7351 39.458 62.6997 39.4224C62.6288 39.3513 62.6288 39.2359 62.6997 39.1648C62.7447 39.1129 62.9118 38.805 63.0222 38.6012C63.1078 38.4426 63.1903 38.2907 63.2476 38.1951C63.2992 38.1093 63.4106 38.0813 63.4967 38.1326C63.5828 38.1845 63.6106 38.2963 63.559 38.3827C63.5038 38.4752 63.4243 38.6215 63.3412 38.775C63.126 39.1724 63.0242 39.3538 62.9559 39.4219C62.9204 39.458 62.8744 39.4758 62.8278 39.4758Z" fill="black"/>
<path d="M62.6855 31.3411C62.5442 31.3411 62.4288 31.3315 62.3457 31.3025C61.5062 31.0042 60.6965 30.8461 59.9405 30.8319C59.8402 30.8299 59.7602 30.747 59.7622 30.6464C59.7643 30.5458 59.8519 30.4685 59.9471 30.4675C60.7426 30.4823 61.5907 30.6474 62.4668 30.9584C62.5513 30.9879 62.843 30.9737 63.001 30.9661C63.0947 30.9615 63.1782 30.9564 63.2319 30.9584C63.3322 30.9605 63.4122 31.0433 63.4101 31.1439C63.4081 31.2435 63.3276 31.3228 63.2289 31.3228C63.2203 31.3218 63.2162 31.3228 63.2101 31.3228C63.1615 31.3228 63.0942 31.3264 63.0187 31.3299C62.8967 31.3365 62.7848 31.3411 62.6855 31.3411Z" fill="black"/>
<path d="M67.7081 37.044C66.2644 37.044 65.3555 36.5617 64.5696 35.3786C64.5139 35.2948 64.5367 35.1815 64.6197 35.1261C64.7033 35.0697 64.8162 35.093 64.8714 35.1764C65.5899 36.2583 66.3849 36.6796 67.7076 36.6796C67.8078 36.6796 67.8888 36.7614 67.8888 36.8616C67.8894 36.9622 67.8083 37.044 67.7081 37.044Z" fill="black"/>
<path d="M70.8121 80.4725C70.7478 80.4725 70.6856 80.438 70.6526 80.3775C70.6045 80.2891 70.6369 80.1783 70.7251 80.1305C70.7671 80.1071 74.9574 77.7953 76.5899 75.1771C76.6436 75.0923 76.7555 75.0663 76.8401 75.1192C76.9251 75.1726 76.951 75.2849 76.8978 75.3702C75.2141 78.0698 71.0739 80.3541 70.8987 80.4502C70.8709 80.4649 70.841 80.4725 70.8121 80.4725Z" fill="#3A4A63"/>
<path d="M73.4401 78.7532C73.3925 78.7532 73.3449 78.7349 73.3094 78.6973C73.2395 78.6251 73.2416 78.5098 73.314 78.4396C73.5444 78.216 73.8214 78.0427 74.0892 77.875C74.2153 77.7963 74.3404 77.718 74.4589 77.6352C75.2033 77.1158 75.8894 76.6762 76.5558 76.291C76.6763 76.2213 76.8156 76.1537 76.9584 76.0846C77.1969 75.9693 77.4435 75.8498 77.6111 75.7126C77.6891 75.6496 77.8035 75.6608 77.8663 75.7385C77.9301 75.8168 77.9179 75.9311 77.8405 75.9947C77.6394 76.1593 77.3731 76.2879 77.1158 76.4124C76.9811 76.4775 76.85 76.541 76.7371 76.606C76.0798 76.9862 75.4023 77.4202 74.666 77.934C74.5424 78.0199 74.4123 78.1017 74.2811 78.184C74.029 78.3421 73.7687 78.5052 73.5651 78.7019C73.5307 78.7364 73.4851 78.7532 73.4401 78.7532Z" fill="#3A4A63"/>
<path d="M71.289 80.5248C71.21 80.5248 71.1371 80.4725 71.1143 80.3922C71.087 80.2951 71.1432 80.1945 71.2394 80.1671C72.5722 79.7874 83.0993 78.0016 85.3562 78.6059C85.4529 78.6318 85.5106 78.7319 85.4848 78.8295C85.459 78.9266 85.3602 78.985 85.262 78.9586C83.1995 78.4026 72.9191 80.0675 71.3387 80.5182C71.322 80.5223 71.3052 80.5248 71.289 80.5248Z" fill="#3A4A63"/>
<path d="M69.1289 72.2017C67.67 72.2017 65.7979 71.4444 65.3883 69.9864C65.3609 69.8894 65.4171 69.7887 65.5133 69.7618C65.6106 69.7333 65.7103 69.7908 65.7372 69.8878C66.162 71.3997 68.543 72.0985 69.8707 71.7524C73.0826 70.9174 78.4001 67.7001 78.1504 66.4255C78.1312 66.3269 78.1955 66.2309 78.2937 66.2115C78.3905 66.1927 78.4877 66.2563 78.5069 66.3554C78.8467 68.0903 72.8365 71.3586 69.9618 72.1061C69.7127 72.1691 69.4291 72.2017 69.1289 72.2017Z" fill="#3A4A63"/>
<path d="M64.7936 66.1475C64.6969 66.1475 64.6163 66.0713 64.6123 65.9732C64.5414 64.3348 64.7672 62.706 65.3015 60.9944C65.3055 60.9807 65.7734 59.5979 66.0813 59.4368C66.1709 59.39 66.2798 59.4251 66.3264 59.514C66.4117 59.6776 66.1935 59.8249 66.1089 59.989C65.9459 60.3053 65.7291 60.8442 65.6483 61.1031C65.1273 62.7736 64.907 64.3617 64.9759 65.9569C64.9799 66.0575 64.9024 66.1424 64.8022 66.147C64.7986 66.1475 64.7961 66.1475 64.7936 66.1475Z" fill="#3A4A63"/>
<path d="M64.4354 29.9538C64.357 29.9538 64.2851 29.9024 64.2613 29.8237C63.8247 28.3575 64.0111 27.5485 64.122 27.0652C64.1312 27.0252 64.1399 26.9873 64.1477 26.9516C64.1841 26.7837 64.1241 26.6264 63.9984 26.5092C63.9311 26.4462 63.8678 26.3872 63.8268 26.3293C63.5422 25.9248 63.5928 25.4938 63.6409 25.0771C63.7037 24.5394 63.8293 24.139 64.0374 23.8076C64.3013 23.3863 64.6096 23.4392 64.7707 23.5078C64.8628 23.5474 64.9054 23.6547 64.8664 23.7471C64.8269 23.8401 64.72 23.8828 64.6279 23.8432C64.5742 23.8193 64.4841 23.7802 64.3453 24.0018C64.1676 24.2858 64.0587 24.6385 64.0035 25.1117C63.9579 25.5004 63.9194 25.8287 64.124 26.1194C64.1428 26.1463 64.1974 26.1977 64.2461 26.2424C64.3782 26.3659 64.5149 26.4934 64.5362 26.6444C64.557 26.7933 64.5215 26.9498 64.476 27.147C64.3661 27.6242 64.2005 28.3453 64.6096 29.7195C64.6385 29.816 64.5838 29.9177 64.4876 29.9467C64.4699 29.9512 64.4527 29.9538 64.4354 29.9538Z" fill="#DB5944"/>
<path d="M64.8385 25.3231C64.8324 25.3231 64.8263 25.3226 64.8202 25.3221C64.7205 25.3119 64.6476 25.2225 64.6577 25.1229C64.6921 24.7798 64.8045 24.4607 64.9129 24.1512C64.9413 24.0704 64.9691 23.9906 64.9959 23.9108C65.0273 23.8148 65.1306 23.7639 65.2258 23.7955C65.321 23.827 65.3727 23.9306 65.3408 24.0262C65.3134 24.108 65.2846 24.1903 65.2557 24.2732C65.1539 24.5618 65.0486 24.8606 65.0187 25.1595C65.0096 25.253 64.9306 25.3231 64.8385 25.3231Z" fill="#DB5944"/>
<path d="M68.7975 29.6178C68.7483 29.6178 68.6992 29.598 68.6633 29.5584C68.5954 29.4842 68.601 29.3688 68.6749 29.3007C68.7154 29.2636 68.7671 29.2215 68.8228 29.1752C68.9494 29.071 69.1408 28.914 69.1813 28.8129C69.2248 28.7051 69.2183 28.5517 69.2117 28.4033C69.2091 28.3489 69.2071 28.2955 69.2071 28.2452C69.2071 27.9876 69.5682 26.2109 69.8892 25.9908C69.9722 25.9329 70.0847 25.9553 70.1414 26.0381C70.2455 26.1916 70.0434 26.3626 69.9788 26.5364C69.8033 27.0087 69.5701 27.9711 69.5697 28.2452C69.5697 28.2899 69.5722 28.3382 69.5742 28.387C69.5818 28.5654 69.5904 28.7676 69.5175 28.9491C69.4421 29.1366 69.235 29.3063 69.0522 29.4568C69.002 29.4979 68.9554 29.536 68.919 29.5696C68.8851 29.6021 68.841 29.6178 68.7975 29.6178Z" fill="#DB5944"/>
<path d="M62.4783 32.2991C62.4388 32.2991 62.3993 32.2864 62.3659 32.2599C62.2874 32.1974 62.2737 32.0831 62.336 32.0038C62.6737 31.5744 64.6334 29.4201 64.9453 29.2992C65.7196 28.9999 66.6159 28.8779 67.6823 28.9216C67.7345 28.9236 67.8312 28.9079 67.9238 28.8926C68.178 28.8504 68.4672 28.8022 68.6378 28.9617C68.734 29.0512 68.7786 29.1676 68.7649 29.289C68.7285 29.6082 68.3031 29.8912 67.8924 30.126L67.859 30.1448C67.7724 30.1956 67.661 30.1651 67.6109 30.0782C67.5608 29.9913 67.5906 29.8795 67.6772 29.8292L67.7122 29.8089C67.8882 29.7083 68.0194 29.6231 68.1173 29.5518C68.3372 29.3914 68.25 29.207 67.9816 29.2519C67.8656 29.2707 67.7603 29.29 67.6661 29.2855C66.6508 29.2412 65.8016 29.3581 65.0755 29.6387C64.8517 29.7611 63.0758 31.6506 62.6206 32.2294C62.5846 32.2752 62.5314 32.2991 62.4783 32.2991Z" fill="#DB5944"/>
<path d="M71.8485 33.4882C71.7948 33.4882 71.7416 33.4643 71.7057 33.4185C71.5092 33.168 71.3284 32.9022 71.1537 32.6445C70.9416 32.3315 70.7223 32.0078 70.4747 31.7151C70.4215 31.652 70.3709 31.5753 70.3202 31.4965C70.2574 31.4 70.1926 31.2999 70.1273 31.246C69.8133 30.9848 69.4518 30.7495 69.1014 30.5218L68.8654 30.3673C68.7813 30.3119 68.5687 30.3002 68.4132 30.2916C68.3287 30.287 68.2492 30.2819 68.1848 30.2728C67.8132 30.221 67.4308 30.1849 67.0612 30.1498C66.7827 30.1234 66.5042 30.0975 66.2262 30.0639C66.1264 30.0522 66.0555 29.9618 66.0672 29.8617C66.0788 29.7615 66.1715 29.6909 66.2687 29.7021C66.5437 29.7346 66.8196 29.761 67.0951 29.7865C67.4688 29.8215 67.8557 29.8581 68.235 29.9115C68.2912 29.9191 68.36 29.9226 68.4335 29.9267C68.6517 29.9394 68.8988 29.9531 69.0644 30.0624L69.2984 30.2154C69.6569 30.4486 70.0275 30.6905 70.3582 30.965C70.4656 31.0544 70.5461 31.1779 70.6236 31.2973C70.6656 31.3624 70.7066 31.4264 70.7507 31.4787C71.0109 31.7867 71.2358 32.1186 71.4535 32.4392C71.6247 32.6918 71.8019 32.9525 71.9903 33.1929C72.0525 33.2717 72.0389 33.3865 71.9599 33.449C71.9275 33.4754 71.888 33.4882 71.8485 33.4882Z" fill="#DB5944"/>
<path d="M69.4824 31.5424C69.4703 31.5424 69.4581 31.5414 69.446 31.5383C69.3477 31.5185 69.2844 31.4225 69.3042 31.3234C69.3168 31.2593 69.3401 31.2055 69.3609 31.1577C69.4019 31.0626 69.3984 31.0571 69.3827 31.0332C69.3563 30.9935 69.3087 30.9407 69.2581 30.8833C69.0971 30.7003 68.9907 30.5707 68.9745 30.4406C68.9624 30.341 69.0322 30.2495 69.132 30.2368C69.3161 30.2156 69.3803 30.4699 69.5022 30.6095C69.5125 30.6214 69.5223 30.6325 69.531 30.6424C69.5943 30.7145 69.6526 30.7816 69.685 30.8309C69.8141 31.025 69.7391 31.1983 69.6946 31.3025C69.6799 31.3371 69.6657 31.3691 69.6602 31.396C69.6424 31.4824 69.567 31.5424 69.4824 31.5424Z" fill="#DB5944"/>
<path d="M71.0037 33.9597C70.9566 33.9597 70.91 33.9414 70.8746 33.9058C70.7419 33.7712 70.6179 33.6202 70.4978 33.4744C70.2867 33.2182 70.0684 32.953 69.8087 32.7822C69.7246 32.7268 69.7013 32.6135 69.7565 32.5296C69.8112 32.4453 69.9236 32.4214 70.0082 32.4773C70.314 32.679 70.55 32.9652 70.7784 33.2421C70.8989 33.388 71.0123 33.5262 71.1339 33.6492C71.2048 33.7208 71.2037 33.8362 71.1323 33.9068C71.0959 33.9424 71.0498 33.9597 71.0037 33.9597Z" fill="#DB5944"/>
<path d="M70.1895 34.5726C70.1338 34.5726 70.0791 34.5471 70.0432 34.4989C69.8507 34.2366 69.5869 33.9688 69.3707 33.8164C69.2887 33.7584 69.2689 33.6451 69.3262 33.5623C69.3839 33.4804 69.4978 33.4601 69.5793 33.5175C69.8249 33.6908 70.1217 33.9907 70.3359 34.2819C70.3951 34.3632 70.3779 34.477 70.2974 34.537C70.265 34.5609 70.227 34.5726 70.1895 34.5726Z" fill="#DB5944"/>
<path d="M69.5932 35.2352C69.5846 35.2352 69.576 35.2347 69.5674 35.2332C69.5124 35.2255 69.4673 35.194 69.4396 35.1503C69.4332 35.1402 69.4259 35.1308 69.4165 35.1234C69.3921 35.1031 69.3714 35.0843 69.3613 35.0721C69.2686 34.9608 69.1683 34.8592 69.0696 34.7591L69.0194 34.7087C68.9491 34.6371 68.9501 34.5217 69.0215 34.4511C69.0929 34.381 69.2078 34.3815 69.2782 34.4531L69.3273 34.5029C69.3664 34.5425 69.4056 34.5823 69.4446 34.6228C69.5785 34.762 69.7997 34.8881 69.7724 35.0792C69.7598 35.1697 69.6823 35.2352 69.5932 35.2352ZM69.4443 35.1468H69.4473H69.4443ZM69.4134 35.0274V35.0279V35.0274Z" fill="#DB5944"/>
<path d="M68.6302 35.6887C68.5923 35.6887 68.5543 35.677 68.5219 35.6526C68.2717 35.4651 68.0388 35.331 67.8666 35.2735C67.6914 35.2161 67.4681 35.2252 67.2509 35.2344C67.1253 35.24 67.0017 35.2446 66.8863 35.239C66.7374 35.2308 66.5911 35.2166 66.4457 35.2024C66.1576 35.1744 65.8857 35.148 65.6041 35.1719C65.438 35.1866 65.2709 35.2131 65.1033 35.2395C64.9737 35.2598 64.8436 35.2806 64.7134 35.2959C64.6942 35.2984 64.6694 35.303 64.642 35.3081C64.48 35.3376 64.3478 35.3559 64.24 35.3035C64.177 35.2734 64.1211 35.2466 64.0717 35.2225C63.906 35.1415 63.6682 35.025 63.7392 34.8548C63.7776 34.7623 63.8835 34.7186 63.9766 34.7567L64.041 34.7836C64.0985 34.8073 64.1453 34.8524 64.2011 34.8799C64.2122 34.8854 64.2241 34.8913 64.2367 34.8975C64.3418 34.949 64.4579 34.9708 64.5732 34.9505C64.5746 34.9503 64.5759 34.95 64.5772 34.9498C64.6132 34.9432 64.6456 34.9371 64.6704 34.9346C64.7965 34.9193 64.9215 34.8995 65.0471 34.8802C65.2228 34.8522 65.398 34.8248 65.5727 34.8095C65.8897 34.7821 66.19 34.8121 66.4812 34.8405C66.6214 34.8543 66.7622 34.868 66.9055 34.8756C67.0103 34.8817 67.1217 34.8761 67.2352 34.8715C67.4843 34.8604 67.7426 34.8497 67.9805 34.9285C68.2474 35.0174 68.5401 35.2125 68.7386 35.3614C68.8191 35.4214 68.8353 35.5358 68.7761 35.6166C68.7401 35.6638 68.6854 35.6887 68.6302 35.6887ZM63.9245 35.1223C63.924 35.1236 63.9246 35.125 63.9259 35.1251C63.9269 35.1252 63.9277 35.1245 63.9281 35.1237L63.9493 35.0672L63.9245 35.1223ZM63.8979 35.1188C63.8975 35.1187 63.897 35.1188 63.8968 35.1193L63.8966 35.1196C63.8964 35.1201 63.8967 35.1207 63.8972 35.1208C63.8983 35.1211 63.8989 35.1193 63.8979 35.1188Z" fill="#DB5944"/>
<path d="M68.2158 34.8772C68.1783 34.8772 68.1403 34.8655 68.1079 34.8421C68.0274 34.7822 68.0102 34.6683 68.0694 34.587C68.1165 34.5234 68.1502 34.4833 68.1745 34.4563C68.1838 34.4461 68.1897 34.4326 68.1904 34.4188C68.1905 34.4184 68.1905 34.4186 68.1905 34.4182C68.1979 34.3179 68.2924 34.247 68.3844 34.2496C68.4206 34.2522 68.4537 34.2652 68.4807 34.2856C68.5609 34.346 68.4719 34.4385 68.3717 34.4315C68.4746 34.4531 68.5618 34.5575 68.4976 34.6408C68.4889 34.652 68.4788 34.6636 68.4669 34.676C68.4487 34.6953 68.4168 34.7283 68.3621 34.803C68.3267 34.8513 68.2715 34.8772 68.2158 34.8772Z" fill="#DB5944"/>
<path d="M68.6484 33.9456C68.617 33.9456 68.5851 33.9374 68.5558 33.9201C68.4697 33.8688 68.4408 33.757 68.4925 33.6706L68.5163 33.6305C68.5644 33.5502 68.5644 33.5502 68.5472 33.4821C68.5224 33.3845 68.5811 33.2854 68.6783 33.2605C68.7755 33.2351 68.8743 33.2946 68.8991 33.3921C68.9518 33.5985 68.9082 33.6849 68.8272 33.8195L68.8049 33.8571C68.771 33.914 68.7102 33.9456 68.6484 33.9456Z" fill="#DB5944"/>
<path d="M69.125 32.7386C69.0647 32.7386 69.0065 32.7091 68.9721 32.6548C68.9179 32.5704 68.9427 32.4576 69.0273 32.4032C69.0419 32.3936 69.0647 32.3239 69.048 32.2589C69.0232 32.1613 69.0819 32.0622 69.1792 32.0373C69.2769 32.0134 69.3751 32.0719 69.3999 32.1695C69.446 32.3519 69.3999 32.5958 69.2227 32.7102C69.1923 32.7295 69.1584 32.7386 69.125 32.7386Z" fill="#DB5944"/>
<path d="M71.4468 32.7388C71.39 32.7388 71.3343 32.7123 71.2989 32.663C71.2402 32.5812 71.2589 32.4674 71.3404 32.4089C72.065 31.887 72.6028 30.9977 72.9244 30.4661C72.975 30.3818 73.0206 30.3071 73.0596 30.2456C73.1132 30.1607 73.2251 30.1348 73.3102 30.1892C73.3953 30.243 73.4201 30.3553 73.3664 30.4407C73.3284 30.5007 73.2844 30.5733 73.2348 30.6557C72.899 31.2111 72.337 32.1406 71.5521 32.7057C71.5202 32.7276 71.4832 32.7388 71.4468 32.7388Z" fill="#DB5944"/>
<path d="M69.0727 51.047C68.739 51.047 68.4271 50.9982 68.1557 50.8834C66.0183 49.9752 65.4187 46.5901 65.2855 45.5743C65.2005 44.9268 66.4006 41.1773 66.8943 40.1838C66.9394 40.0929 67.0487 40.0568 67.1379 40.102C67.2275 40.1472 67.264 40.2565 67.2194 40.3464C66.6862 41.4192 65.5833 45.0503 65.6456 45.527C65.7722 46.4946 66.3373 49.715 68.2975 50.548C69.6323 51.1161 72.3773 49.7694 73.2336 49.2526C73.5896 49.0376 75.0586 47.1913 75.9589 46.0027C76.0197 45.9224 76.1336 45.9066 76.2136 45.9681C76.2937 46.0291 76.3088 46.1434 76.2481 46.2237C76.0146 46.5317 73.9512 49.246 73.4205 49.5656C73.3911 49.5824 70.9028 51.047 69.0727 51.047Z" fill="#DB5944"/>
<path d="M70.3657 45.3902C70.3049 45.3902 70.2457 45.3597 70.2112 45.3043C70.1581 45.2189 70.1839 45.1066 70.269 45.0532C70.3882 44.9786 70.5189 44.8931 70.6278 44.8187C70.7873 44.7097 70.8952 44.5506 70.9602 44.3687C71.1151 43.9316 71.3744 43.1998 71.8271 42.4823C71.8807 42.3979 71.9927 42.3715 72.0777 42.4258C72.1623 42.4797 72.1876 42.592 72.1339 42.6774C71.703 43.3604 71.4523 44.0683 71.3025 44.4907C71.2437 44.6558 71.2052 44.7646 71.1708 44.8327C71.1506 44.8728 71.107 44.9582 70.4614 45.3622C70.432 45.381 70.3986 45.3902 70.3657 45.3902Z" fill="#DB5944"/>
<path fill-rule="evenodd" clip-rule="evenodd" d="M68.689 47.1913C68.7355 47.3392 68.9943 47.3803 69.1386 47.4302C69.2986 47.4845 69.4875 47.6136 69.6612 47.608C69.723 47.606 69.7999 47.4332 69.8212 47.3946C69.9432 47.1761 70.0151 46.8401 69.922 46.5993C69.6804 45.9727 69.129 46.396 68.8667 46.7563C68.7826 46.8727 68.6439 47.048 68.689 47.1913Z" fill="#FFC1C1"/>
<path d="M69.6493 47.7903C69.4964 47.7903 69.3531 47.7238 69.2265 47.6648C69.1758 47.6414 69.1272 47.6181 69.0806 47.6023C69.0543 47.5937 69.0244 47.585 68.993 47.5759C68.8199 47.5261 68.5831 47.458 68.5156 47.2463C68.5155 47.2461 68.5155 47.2458 68.5155 47.2456C68.5155 47.2454 68.5155 47.2455 68.5154 47.2453C68.4458 47.0233 68.6011 46.811 68.7039 46.6708C68.9242 46.3674 69.2852 46.0549 69.623 46.1001C69.7683 46.1194 69.9668 46.2099 70.0914 46.5331C70.2098 46.839 70.1207 47.2313 69.9794 47.4834C69.9116 47.616 69.8255 47.7852 69.666 47.7898C69.6604 47.7903 69.6549 47.7903 69.6493 47.7903ZM68.9777 46.9132C68.8827 47.0473 68.935 47.1798 69.0928 47.2257C69.1308 47.2369 69.1662 47.2471 69.1976 47.2577C69.2548 47.2771 69.3161 47.305 69.3789 47.3345C69.4236 47.3555 69.4691 47.3766 69.5123 47.3933C69.5644 47.4135 69.6202 47.3888 69.6457 47.3391C69.6468 47.3365 69.6619 47.3075 69.663 47.305C69.7592 47.1327 69.824 46.8492 69.7526 46.6652C69.704 46.5392 69.6447 46.4711 69.5754 46.4624C69.4371 46.4416 69.1905 46.6205 69.0133 46.8639C69.0006 46.8812 68.9887 46.8976 68.9777 46.9132Z" fill="#DB5944"/>
<path d="M58.1671 46.7635C58.0998 46.7635 58.0355 46.7523 57.9752 46.7279C57.8511 46.6771 57.7023 46.5505 57.6937 46.238C57.6783 45.6673 57.8869 45.0408 58.2641 44.4923C58.2776 44.4727 58.2694 44.4458 58.2502 44.4319C57.9144 44.1844 58.0967 43.384 58.1185 43.2935C58.353 42.3213 58.9378 41.4091 59.3571 40.8074C59.5029 40.5985 59.8437 40.1086 60.2787 40.2611C60.5132 40.3434 60.659 40.5792 60.7593 40.7749C61.1021 41.4481 60.7819 42.2007 60.4684 42.8029C60.4269 42.8828 60.4704 42.9766 60.5359 43.0384C60.7405 43.233 60.8433 43.4449 60.8418 43.668C60.8393 44.1478 60.5299 44.5701 60.2812 44.9096C59.9967 45.2978 59.6498 45.7715 59.2422 46.1714L59.0543 46.3518C58.9211 46.4804 58.5125 46.7635 58.1671 46.7635ZM60.1977 43.2752C60.115 43.2533 60.0215 43.2623 59.9521 43.3124C59.9251 43.3319 59.8983 43.3508 59.8721 43.3692C59.8118 43.4114 59.7526 43.4536 59.6994 43.4968C59.4052 43.7382 59.1495 44.0116 58.8462 44.3439C58.3357 44.9024 58.0405 45.6068 58.0572 46.2283C58.0588 46.2807 58.0679 46.3716 58.114 46.3904C58.2547 46.4489 58.6431 46.2431 58.8036 46.0881L58.989 45.9102C59.347 45.559 59.6387 45.1718 59.9835 44.7012C60.2068 44.3963 60.4777 44.0268 60.4792 43.6655C60.4796 43.5668 60.4375 43.4695 60.3504 43.369C60.3102 43.3226 60.2567 43.2921 60.1977 43.2752ZM60.1172 40.598C59.947 40.598 59.7303 40.9085 59.6548 41.0163C59.2528 41.5931 58.6917 42.4662 58.472 43.3789C58.3899 43.7189 58.4001 44.0868 58.4659 44.1381C58.489 44.1561 58.5242 44.1585 58.5435 44.1366C58.555 44.1236 58.5666 44.1107 58.5783 44.098C58.8249 43.8281 59.1318 43.4917 59.47 43.2147C59.5298 43.1659 59.5961 43.1187 59.6635 43.0709C59.788 42.983 59.9166 42.8925 59.9926 42.7889C60.0428 42.7202 60.1263 42.6743 60.1653 42.5987C60.4427 42.061 60.6949 41.448 60.4367 40.9406C60.4002 40.8689 60.2873 40.6494 60.1597 40.6046C60.146 40.6006 60.1319 40.598 60.1172 40.598Z" fill="#DB5944"/>
<path d="M58.5457 48.1995C58.4586 48.1995 58.3771 48.1751 58.3057 48.1274C58.1401 48.0161 58.0712 47.8047 58.0424 47.6471C57.975 47.2695 58.0555 46.7181 58.3918 46.3995C58.4652 46.3304 58.5796 46.3339 58.6485 46.4071C58.7174 46.4803 58.7143 46.5957 58.6409 46.6648C58.4136 46.8802 58.3472 47.2893 58.3999 47.5826C58.4257 47.7249 58.4723 47.8011 58.5077 47.825C58.5153 47.8301 58.532 47.8418 58.5751 47.8321C58.6981 47.8057 58.8536 47.6263 58.967 47.4952C59.009 47.4464 59.0491 47.4006 59.0855 47.363C59.1979 47.2467 59.326 47.1303 59.4577 47.0108C59.7727 46.7242 60.0988 46.4285 60.2431 46.0925C60.3125 45.9309 60.3064 45.7261 60.2284 45.5823C60.1732 45.4802 60.0897 45.4187 59.9798 45.3994C59.881 45.3826 59.8147 45.2881 59.8319 45.189C59.8486 45.0893 59.9423 45.0197 60.0415 45.0406C60.2598 45.0782 60.4396 45.2093 60.5474 45.4085C60.6791 45.6529 60.6902 45.9701 60.5758 46.2369C60.4006 46.6455 60.0446 46.9687 59.7008 47.2812C59.5752 47.395 59.4526 47.5058 59.3458 47.6166C59.3134 47.6507 59.2779 47.6913 59.2405 47.7345C59.0855 47.9139 58.8921 48.137 58.65 48.1889C58.6156 48.196 58.5802 48.1995 58.5457 48.1995Z" fill="#DB5944"/>
<path d="M59.5405 49.1502C59.4904 49.1502 59.4453 49.1391 59.4073 49.1233C59.0209 48.9637 58.987 48.1491 58.9951 48.0317C59.0128 47.7807 59.0969 47.5606 59.185 47.3599C59.2255 47.2674 59.3329 47.2257 59.4245 47.2669C59.5162 47.3075 59.5577 47.4153 59.5172 47.5073C59.4423 47.6775 59.3714 47.862 59.3572 48.0576C59.3455 48.2196 59.3973 48.5025 59.4638 48.6651C59.486 48.7196 59.6165 48.7334 59.6549 48.6888C59.9618 48.331 60.1912 47.7227 60.2945 47.3101C60.3497 47.0875 60.3512 46.8517 60.297 46.7841C60.2925 46.7785 60.3001 46.7714 60.256 46.7719C60.1537 46.7795 60.0727 46.6952 60.0697 46.5945C60.0671 46.4939 60.1461 46.4106 60.2464 46.4075C60.414 46.3994 60.5239 46.4858 60.5806 46.5559C60.7755 46.7998 60.6804 47.2623 60.6469 47.3985C60.5345 47.8498 60.2788 48.5211 59.9299 48.9266C59.783 49.0984 59.6494 49.1502 59.5405 49.1502Z" fill="#DB5944"/>
<path d="M71.6114 68.869C71.58 68.869 71.5476 68.8608 71.5182 68.843C71.3511 68.7424 71.1637 68.6743 70.9652 68.6032C70.706 68.5102 70.4381 68.4131 70.2001 68.2337C69.9191 68.0223 69.7596 67.6462 69.6188 67.3149C69.5742 67.2097 69.5317 67.1091 69.4871 67.0201C69.0061 66.0541 68.4911 64.9314 68.325 63.9283C68.3063 63.8149 68.2759 63.7036 68.245 63.5923C68.1746 63.3337 68.1017 63.0664 68.1518 62.7655C68.2708 62.0474 68.4633 61.2856 68.724 60.501C68.7463 60.4334 68.7939 60.3282 68.8501 60.2057C68.9377 60.0136 69.1438 59.5639 69.1124 59.4373C69.1043 59.4043 69.0274 59.3387 68.9717 59.291C68.8476 59.1853 68.6932 59.0531 68.6552 58.8432C68.5499 58.2609 68.8734 57.6134 69.1099 57.1403L69.1423 57.0752C69.1676 57.0244 69.1924 56.971 69.2178 56.9167C69.3211 56.6931 69.438 56.4395 69.6411 56.2631C69.8355 56.0944 70.1444 56.0456 70.39 56.1462C70.5946 56.2291 70.7227 56.4029 70.7414 56.6214L70.7419 57.125C70.7419 57.2257 70.6604 57.307 70.5607 57.307C70.4604 57.307 70.3794 57.2251 70.3794 57.125V56.6372C70.3728 56.5706 70.3318 56.5157 70.2538 56.4837C70.1358 56.4354 69.9702 56.4598 69.8791 56.5381C69.7348 56.6636 69.6396 56.8699 69.5469 57.0696C69.5201 57.1276 69.4942 57.184 69.4674 57.2384L69.4345 57.3034C69.2213 57.7308 68.9291 58.3152 69.0127 58.7777C69.0279 58.86 69.115 58.9342 69.2071 59.013C69.316 59.106 69.4284 59.202 69.4654 59.3489C69.5231 59.5811 69.3778 59.9283 69.1808 60.3577C69.1317 60.4654 69.0886 60.5574 69.0689 60.6163C68.8142 61.3827 68.6268 62.1262 68.5104 62.8255C68.4734 63.0476 68.5326 63.2656 68.5959 63.4963C68.6294 63.6193 68.6623 63.7423 68.6835 63.8683C68.842 64.8237 69.3433 65.9153 69.8127 66.8565C69.8598 66.9515 69.9059 67.0598 69.9535 67.1716C70.0761 67.4613 70.2153 67.789 70.4184 67.9415C70.6128 68.0879 70.8442 68.1712 71.0883 68.2596C71.2944 68.3338 71.5076 68.4106 71.7056 68.53C71.7917 68.5818 71.8195 68.6936 71.7679 68.78C71.7334 68.8374 71.6732 68.869 71.6114 68.869Z" fill="#DB5944"/>
<path d="M71.625 68.9063C71.5298 68.9063 71.4498 68.8321 71.4442 68.7355C71.4381 68.6349 71.5141 68.5485 71.6143 68.5424C71.7885 68.5312 71.986 68.4651 72.1779 68.4011C72.3162 68.3544 72.4595 68.3066 72.6002 68.2766L73.2099 68.148C73.8059 68.0225 74.3994 67.897 74.9949 67.7643C75.0784 67.746 75.1696 67.7277 75.2658 67.7089C75.6937 67.6251 76.2264 67.5209 76.4897 67.2551C76.9515 66.7896 77.3698 66.2616 77.7739 65.7514C77.9795 65.4922 78.1846 65.233 78.3967 64.9799C78.4621 64.9017 78.5365 64.7741 78.6145 64.6394C78.7512 64.4047 78.8925 64.1622 79.0651 64.0362C79.3239 63.8477 79.5989 63.7735 79.8642 63.7023C80.1807 63.617 80.4536 63.5438 80.6633 63.2882C80.8238 63.092 81.1408 62.536 81.1357 62.3221C81.1337 62.2453 81.0891 62.1493 81.0076 62.1127C80.9185 62.0731 80.7934 62.1152 80.6572 62.2331C80.5807 62.2982 80.4663 62.2901 80.401 62.2133C80.3361 62.1366 80.3448 62.0217 80.4207 61.9562C80.7569 61.668 81.0253 61.7219 81.1555 61.7798C81.3545 61.8688 81.4927 62.0827 81.4988 62.3124C81.5079 62.6732 81.1058 63.3222 80.9438 63.5194C80.6602 63.8655 80.3032 63.9615 79.9584 64.054C79.7143 64.1196 79.4834 64.1821 79.2788 64.331C79.1674 64.4123 79.0403 64.6303 78.9284 64.8229C78.8418 64.9713 78.7603 65.1121 78.6747 65.2137C78.4651 65.4642 78.262 65.7209 78.0585 65.9775C77.6478 66.4959 77.2229 67.0315 76.7475 67.5113C76.4051 67.8563 75.8122 67.9727 75.3352 68.0662C75.2425 68.0845 75.1544 68.1013 75.0734 68.1196C74.4769 68.2522 73.8819 68.3777 73.2844 68.5038L72.6752 68.6323C72.5547 68.6577 72.4276 68.7004 72.2929 68.7457C72.0831 68.816 71.8666 68.8888 71.6494 68.9039C71.6412 68.9045 71.6331 68.9063 71.625 68.9063Z" fill="#DB5944"/>
<path d="M71.6346 70.0591C71.59 70.0591 71.548 70.0388 71.5075 69.987C71.4478 69.9102 71.4619 69.7969 71.5349 69.7339C71.546 69.7243 71.5581 69.7161 71.5708 69.7095C71.5895 69.6963 71.6209 69.6744 71.6569 69.6485C71.7465 69.5845 71.8594 69.5052 71.8929 69.4864C72.2914 69.2613 72.6448 69.0758 72.974 68.9188C73.1472 68.8359 73.3229 68.7582 73.4991 68.6799C73.7351 68.5752 73.9796 68.4665 74.21 68.3491C74.243 68.3323 74.3133 68.2896 74.405 68.2342C74.8597 67.9603 75.3271 67.6889 75.6011 67.6366C75.7008 67.6193 75.7945 67.6834 75.8132 67.7819C75.832 67.881 75.7666 67.9761 75.6684 67.9949C75.4355 68.0386 74.8658 68.3816 74.5918 68.5468C74.4891 68.6083 74.4111 68.655 74.3741 68.6738C74.1346 68.7958 73.886 68.9061 73.6454 69.0128C73.4728 69.0895 73.2996 69.1663 73.1294 69.2476C72.8079 69.401 72.4615 69.5825 72.0711 69.803C72.0417 69.8203 71.944 69.8904 71.866 69.9453C71.7865 70.0032 71.708 70.0591 71.6346 70.0591Z" fill="#DB5944"/>
<path d="M66.9781 66.9936C66.9608 66.9936 66.9426 66.9911 66.9249 66.9855C66.8292 66.956 66.775 66.8544 66.8044 66.7578C66.9659 66.2273 67.1568 65.6886 67.3416 65.1677C67.7174 64.1066 68.1068 63.0094 68.2789 61.9051C68.2941 61.8055 68.3893 61.7358 68.4866 61.7531C68.5858 61.7684 68.6532 61.8619 68.638 61.9615C68.4602 63.0998 68.0658 64.2128 67.6839 65.2897C67.5006 65.8065 67.3107 66.3411 67.1512 66.8641C67.1279 66.9428 67.056 66.9936 66.9781 66.9936Z" fill="#DB5944"/>
<path fill-rule="evenodd" clip-rule="evenodd" d="M71.8499 64.4997C72.1471 64.0002 72.6181 63.7329 72.9016 63.9026C73.1857 64.0724 73.1751 64.6151 72.8778 65.1152C72.5806 65.6152 72.1097 65.8825 71.8256 65.7123C71.5425 65.5426 71.5532 64.9998 71.8499 64.4997Z" fill="#FFC1C1"/>
<path d="M72.0177 65.9452C71.9159 65.9452 71.8197 65.9208 71.7336 65.8694C71.3584 65.6443 71.3411 65.002 71.6946 64.4069C71.9149 64.0364 72.2288 63.7696 72.5342 63.6923C72.7043 63.6491 72.8638 63.6679 72.9955 63.7467C73.1909 63.8631 73.2952 64.0918 73.2897 64.3891C73.2846 64.6493 73.194 64.9405 73.0345 65.2088C72.762 65.6677 72.36 65.9452 72.0177 65.9452ZM72.007 64.5934C71.7523 65.0218 71.7513 65.4548 71.9199 65.5564C72.0886 65.657 72.4683 65.4507 72.723 65.0218C72.8491 64.8099 72.9231 64.5766 72.9271 64.382C72.9302 64.2234 72.8876 64.106 72.8096 64.0598C72.761 64.0308 72.6982 64.0262 72.6233 64.0455C72.4152 64.0979 72.1736 64.3128 72.007 64.5934Z" fill="#DB5944"/>
<path d="M73.5556 62.5408C73.4893 62.5408 73.4255 62.5042 73.3936 62.4407C73.3485 62.3513 73.3839 62.2415 73.4736 62.1958C73.9026 61.9776 74.3077 61.6744 74.4677 61.2204C74.6871 60.5979 75.017 59.781 75.3871 59.2706C75.4459 59.1888 75.5593 59.171 75.6408 59.2304C75.7224 59.2899 75.7401 59.4037 75.6808 59.485C75.0691 60.3292 74.545 62.1642 74.5395 62.1825C74.5192 62.2542 74.4574 62.306 74.3835 62.3142C74.3795 62.3147 73.9521 62.3614 73.6371 62.521C73.6108 62.5342 73.5835 62.5408 73.5556 62.5408Z" fill="#DB5944"/>
<path d="M59.8169 84.8928C59.6944 84.8928 59.5693 84.8526 59.4964 84.7129C59.4219 84.5711 59.4873 84.3978 59.5268 84.2946C59.5815 84.1467 59.6265 84.0151 59.6716 83.8835C59.7182 83.7483 59.7643 83.6126 59.8144 83.4785C59.9693 83.0617 60.1597 82.6613 60.3446 82.2745L60.4818 81.9849C60.5071 81.9305 60.5274 81.8639 60.5496 81.7948C60.5972 81.6439 60.6514 81.4726 60.7603 81.3542C61.0049 81.0894 61.3806 80.8674 61.7447 80.6626C62.1088 80.4572 62.6516 80.1711 63.1605 80.0563C63.2527 80.0354 63.3423 80.036 63.4228 80.0365C63.5079 80.037 63.5813 80.0375 63.6385 80.0141C63.7246 79.9795 63.8142 79.9353 63.9069 79.8896C64.1915 79.7503 64.5146 79.5923 64.8483 79.6319C65.0381 79.6543 65.2128 79.7158 65.3815 79.7742C65.4807 79.8088 65.5805 79.8439 65.6823 79.8693C66.0661 79.9653 66.4843 80.0065 66.8889 80.0466C67.0024 80.0578 67.1153 80.069 67.2267 80.0812C67.7407 80.1376 68.2688 80.1655 68.7792 80.1925C69.3403 80.2219 69.9201 80.2524 70.4903 80.321C70.59 80.3327 70.6609 80.4237 70.6488 80.5238C70.6371 80.6239 70.547 80.6946 70.4467 80.6829C69.8887 80.6158 69.3145 80.5858 68.7595 80.5563C68.244 80.5289 67.7113 80.5009 67.1867 80.4435C67.0768 80.4313 66.9654 80.4201 66.8535 80.4095C66.4357 80.3683 66.0043 80.3256 65.5941 80.223C65.4817 80.195 65.3718 80.1569 65.262 80.1188C65.1045 80.0639 64.9561 80.0121 64.8052 79.9938C64.5779 79.9663 64.3176 80.0939 64.0664 80.2174C63.9656 80.2667 63.8674 80.3144 63.7737 80.352C63.6512 80.4018 63.5317 80.4003 63.4208 80.4008C63.3544 80.3988 63.2922 80.3998 63.24 80.412C62.7782 80.5162 62.2668 80.786 61.9224 80.9802C61.6556 81.1301 61.253 81.3567 61.0267 81.6012C60.973 81.6591 60.9325 81.7892 60.896 81.9041C60.8692 81.9894 60.8423 82.0718 60.8109 82.1394L60.6727 82.4311C60.4833 82.8285 60.3046 83.203 60.1552 83.605C60.1061 83.7366 60.061 83.8688 60.0154 84.0014C59.9698 84.1356 59.9233 84.2702 59.8736 84.4039C59.8508 84.4655 59.8973 84.5197 59.9602 84.5005C59.9765 84.4955 59.9938 84.4899 60.0124 84.4837C60.298 84.3876 60.5162 84.2082 60.6428 83.9638C60.6894 83.8748 60.7978 83.8398 60.8879 83.8865C60.977 83.9333 61.0115 84.0431 60.9649 84.1325C60.7957 84.4577 60.4985 84.7052 60.1273 84.8297C60.061 84.8521 59.94 84.8928 59.8169 84.8928Z" fill="#DB5944"/>
<path d="M61.2453 85.0362C61.2089 85.0362 61.1719 85.025 61.14 85.0021C61.1274 84.993 61.1071 84.9838 61.0848 84.9722C60.9866 84.9213 60.8752 84.8639 60.8326 84.7572C60.7223 84.4812 60.8053 84.1042 60.8716 83.8013L60.9425 83.4542C61.0063 83.131 61.0701 82.8072 61.1415 82.484C61.1486 82.452 61.1501 82.4108 61.1527 82.3682C61.1593 82.2589 61.1669 82.1349 61.2276 82.0388C61.4585 81.6724 61.8839 81.3726 62.2257 81.1312L62.3973 81.0092C62.4789 80.9498 62.5923 80.9691 62.651 81.0504C62.7098 81.1322 62.6916 81.2461 62.61 81.305L62.4348 81.43C62.1193 81.6521 61.7269 81.9291 61.5345 82.234C61.5233 82.2563 61.5183 82.3402 61.5157 82.39C61.5117 82.453 61.5076 82.514 61.497 82.5623C61.4256 82.8835 61.3628 83.2041 61.2995 83.5248L61.2585 83.7316C61.2494 83.7769 61.2383 83.8267 61.2271 83.8795C61.1871 84.0606 61.1312 84.3154 61.1449 84.4983C61.1498 84.5641 61.1929 84.6178 61.2514 84.6484C61.2924 84.6693 61.3294 84.6896 61.3517 84.7059C61.4332 84.7648 61.4519 84.8781 61.3937 84.96C61.3583 85.0098 61.3026 85.0362 61.2453 85.0362ZM61.1699 84.622H61.1729H61.1699Z" fill="#DB5944"/>
<path d="M62.0409 85.3608C61.811 85.3608 61.6059 85.3171 61.4266 85.2302C61.2565 85.1479 61.2995 84.9279 61.3279 84.782C61.3593 84.5975 61.3993 84.4339 61.4398 84.2708C61.4661 84.1635 61.4925 84.0558 61.5153 83.9481C61.5699 83.6853 61.7213 83.5003 61.8672 83.3215C61.9224 83.2539 61.9781 83.1858 62.0282 83.1121C62.3093 82.702 62.6465 82.2187 63.0197 81.7461C63.082 81.6668 63.1959 81.6536 63.2749 81.7166C63.3534 81.7791 63.3666 81.8934 63.3043 81.9727C62.9377 82.4367 62.605 82.9134 62.3275 83.3184C62.2718 83.4007 62.2095 83.477 62.1482 83.5522C62.0186 83.7107 61.9072 83.8474 61.8702 84.0228C61.8469 84.1351 61.8196 84.2464 61.7922 84.3582C61.7543 84.5132 61.7158 84.6672 61.6894 84.8242C61.677 84.8904 61.7149 84.9553 61.7806 84.97C61.9673 85.0118 62.188 85.0046 62.4404 84.9502C62.4607 84.9456 62.5219 84.9157 62.5624 84.8964C62.6926 84.8333 62.8283 84.7693 62.9508 84.7937C63.0491 84.814 63.1124 84.9111 63.0916 85.0092C63.0836 85.0474 63.0639 85.0801 63.0372 85.1047C62.9539 85.1815 62.8226 85.175 62.7204 85.2241C62.648 85.2592 62.5802 85.2922 62.5184 85.306C62.3493 85.3425 62.1903 85.3608 62.0409 85.3608ZM61.6651 85H61.6682H61.6651Z" fill="#DB5944"/>
<path d="M64.7135 85.6658C64.5737 85.6658 64.4299 85.6475 64.2962 85.6303C64.2101 85.6191 64.1281 85.6084 64.0552 85.6049C63.9914 85.6008 63.9099 85.6064 63.8177 85.6115C63.4799 85.6308 63.0586 85.6542 62.8409 85.4051C62.7624 85.3157 62.7528 85.1775 62.7619 84.9015C62.7629 84.87 62.7639 84.8441 62.7634 84.8294C62.7619 84.7877 62.7578 84.745 62.7538 84.7013C62.7406 84.561 62.7259 84.402 62.7771 84.2454C62.8368 84.064 62.9867 83.8994 63.1189 83.754C63.1574 83.7118 63.1938 83.6722 63.2237 83.6356C63.4713 83.3348 63.6708 83.0415 63.9068 82.6888C63.9412 82.637 63.9737 82.5836 64.0061 82.5303C64.0901 82.3921 64.1767 82.2493 64.3013 82.1263C64.3732 82.0551 64.4881 82.0566 64.558 82.1283C64.6284 82.2 64.6274 82.3153 64.556 82.386C64.4633 82.4774 64.3914 82.5953 64.316 82.7198C64.281 82.7778 64.2456 82.8357 64.2081 82.8916C63.9666 83.2524 63.7615 83.5533 63.5037 83.8668C63.4698 83.908 63.4298 83.9522 63.3868 83.999C63.2845 84.1113 63.1574 84.251 63.1224 84.3583C63.0946 84.4426 63.1047 84.5514 63.1159 84.6662C63.1204 84.7165 63.125 84.7658 63.127 84.8141C63.128 84.8344 63.127 84.8695 63.1255 84.9122C63.121 85.0844 63.2112 85.2369 63.383 85.2508C63.5213 85.262 63.6811 85.2532 63.7984 85.2466C63.9053 85.2405 64.0015 85.2359 64.0754 85.2395C64.1559 85.244 64.2471 85.2557 64.3428 85.2674C64.5464 85.2933 64.7768 85.3233 64.9226 85.2725C65.0208 85.2385 65.1145 85.1394 65.2143 85.0357C65.3282 84.9158 65.4578 84.7796 65.63 84.7104C65.7222 84.6728 65.8285 84.7181 65.866 84.8121C65.9035 84.9056 65.8579 85.0113 65.7647 85.0489C65.666 85.0885 65.5743 85.1856 65.4766 85.2877C65.3576 85.4128 65.2229 85.5545 65.0416 85.6176C64.9393 85.6536 64.8279 85.6658 64.7135 85.6658Z" fill="#DB5944"/>
<path d="M64.3634 84.9786C64.3579 84.9786 64.3518 84.9786 64.3462 84.9781C64.2459 84.9731 64.169 84.8877 64.1735 84.7871C64.1791 84.6864 64.2697 84.6148 64.3639 84.6138C64.4049 84.6133 64.5179 84.5385 64.566 84.5065L64.6333 84.4628C64.7518 84.3907 64.8713 84.32 64.9913 84.2499C65.1276 84.1696 65.2643 84.0898 65.398 84.0065C65.437 83.9826 65.4815 83.9409 65.5281 83.8967C65.6172 83.8123 65.719 83.7163 65.8527 83.6787C65.9489 83.6502 66.0497 83.7077 66.0765 83.8042C66.1039 83.9013 66.0477 84.0019 65.9509 84.0288C65.9023 84.0426 65.8355 84.1061 65.7767 84.162C65.719 84.2164 65.6587 84.2733 65.5884 84.317C65.4527 84.4013 65.3134 84.4826 65.1746 84.5645C65.0567 84.6341 64.9387 84.7032 64.8227 84.7744L64.766 84.8109C64.6531 84.8856 64.5133 84.9786 64.3634 84.9786Z" fill="#DB5944"/>
<path d="M67.3091 85.2433C67.2793 85.2433 67.2489 85.2403 67.219 85.2332C66.8494 85.1452 66.4843 85.0243 66.1308 84.9069C65.8639 84.8185 65.588 84.727 65.3186 84.6533C65.2219 84.6269 65.1646 84.5268 65.191 84.4292C65.2173 84.3321 65.315 84.2747 65.4143 84.3011C65.6923 84.3773 65.9728 84.4703 66.2447 84.5603C66.5906 84.6746 66.9481 84.7936 67.3026 84.8774C67.3329 84.884 67.4205 84.854 67.4687 84.8388C67.5249 84.8205 67.5785 84.8037 67.6241 84.7966C67.9497 84.7427 68.2571 84.6792 68.5376 84.6091C69.1118 84.4653 69.6987 84.4383 70.2664 84.4114C70.4178 84.4048 70.5692 84.3977 70.7211 84.388C71.2143 84.357 71.947 84.3306 72.6028 84.4383C72.7648 84.4642 72.9537 84.4576 73.1365 84.451L73.2641 84.4434C73.3679 84.4287 73.5082 84.4094 73.5973 84.5085C73.6409 84.5567 73.6571 84.6304 73.6373 84.6929C73.6019 84.8017 73.497 84.8215 73.4621 84.8286C73.4174 84.8356 73.3731 84.8289 73.3352 84.8088C73.3287 84.8054 73.3214 84.8035 73.3142 84.8047C73.2849 84.8088 73.2596 84.8119 73.2439 84.8124L73.1492 84.8154C72.9583 84.822 72.7415 84.8302 72.5441 84.7981C71.9242 84.697 71.2189 84.7229 70.7429 84.7524C70.59 84.7621 70.4365 84.7692 70.2831 84.7763C69.7078 84.8032 69.165 84.8286 68.6257 84.9633C68.3356 85.036 68.0181 85.101 67.6828 85.1569C67.6525 85.162 67.6175 85.1742 67.5806 85.1864C67.5006 85.2123 67.4054 85.2433 67.3091 85.2433Z" fill="#DB5944"/>
<path d="M63.8828 81.3699C63.8519 81.3699 63.8205 81.3618 63.7906 81.3455C63.703 81.2962 63.6752 81.1804 63.7243 81.0924C63.8043 80.9491 64.0929 80.8043 64.1988 80.7743C64.2955 80.7454 64.3957 80.8033 64.4231 80.8998C64.4504 80.9964 64.3942 81.0975 64.298 81.125C64.2714 81.1325 64.2295 81.1523 64.1867 81.176C64.079 81.2356 64.0058 81.3699 63.8828 81.3699Z" fill="#DB5944"/>
<path d="M65.695 81.9327C65.6833 81.9327 65.6712 81.9317 65.659 81.9291C65.4469 81.8864 65.3036 81.8631 65.2291 81.8503C65.1719 81.8407 64.9987 81.8122 65.017 81.64C65.0352 81.4677 65.2114 81.4773 65.2676 81.4789C65.3215 81.4818 65.3727 81.5045 65.4259 81.5138C65.5043 81.5275 65.6057 81.5464 65.7304 81.5714C65.8287 81.5912 65.8925 81.6872 65.8732 81.7858C65.8555 81.8727 65.78 81.9327 65.695 81.9327Z" fill="#DB5944"/>
<path fill-rule="evenodd" clip-rule="evenodd" d="M66.7673 20.2874C66.7589 20.2905 66.7505 20.2931 66.7422 20.2963L66.7673 20.2874Z" fill="#56372E"/>
<path fill-rule="evenodd" clip-rule="evenodd" d="M69.0289 23.0539C69.398 23.1672 69.6102 23.4798 69.7738 23.5093C70.0811 23.5647 70.1571 23.1449 70.1338 22.934C70.0437 22.1234 69.0005 21.9313 68.2405 22.2896C67.851 22.473 67.213 22.9065 67.169 23.3624C67.1649 23.402 67.9128 22.7104 69.0289 23.0539Z" fill="#FCCC95"/>
<path fill-rule="evenodd" clip-rule="evenodd" d="M69.1357 39.1033C69.1894 39.144 69.3489 39.1399 69.357 39.1394C69.6598 39.1231 69.8163 38.9727 70.1338 39.0693C70.4331 39.1607 70.6148 39.2766 70.8255 39.4992C70.9425 39.6232 71.0554 39.888 71.2184 39.9525C71.4681 40.0516 72.0555 39.8453 72.1076 39.5602C72.1542 39.3035 71.9466 39.0479 71.7952 38.8629C71.264 38.214 70.3743 38.1672 69.631 38.4101C69.4406 38.4726 68.8025 38.8528 69.1357 39.1033Z" fill="#565762"/>
<path fill-rule="evenodd" clip-rule="evenodd" d="M74.2452 40.5281C74.2684 40.4525 74.2507 40.4417 74.2279 40.5175C74.2159 40.5577 74.2067 40.5934 74.2047 40.6003C74.1388 40.8168 74.1809 41.045 74.3232 41.2223C74.6396 41.6167 75.2164 41.6426 75.5329 42.0187C75.7344 42.258 75.8033 42.6407 75.8433 42.9446C75.8514 43.0076 75.8969 43.247 75.9896 43.1916C76.218 43.0554 76.2403 42.6427 76.2615 42.414C76.3279 41.6944 76.0701 40.8239 75.3531 40.5185C75.0179 40.3757 74.3718 40.0296 74.2452 40.5281Z" fill="#565762"/>
<path fill-rule="evenodd" clip-rule="evenodd" d="M73.0065 56.2269C73.6517 56.0587 74.3712 56.1878 74.8437 56.3209C75.1156 56.3977 75.2498 56.6289 75.426 56.7971C75.5617 56.9267 75.6837 56.9918 75.7956 56.7936C75.8245 56.7417 75.8524 56.6884 75.8696 56.6315C75.8919 56.5578 75.9101 56.4871 75.9151 56.4078C75.9232 56.2869 75.9415 56.1609 75.9303 56.0399C75.8321 54.9671 74.1677 55.2359 73.4927 55.5749C73.2977 55.6725 72.6242 56.3265 73.0065 56.2269Z" fill="#56372E"/>
<path fill-rule="evenodd" clip-rule="evenodd" d="M74.6785 55.7096C74.6791 55.705 74.6763 55.7006 74.6719 55.6993L74.6644 55.697C74.6589 55.6954 74.6532 55.699 74.6524 55.7047C74.6518 55.7092 74.6545 55.7135 74.6588 55.7149L74.6662 55.7173C74.6718 55.7191 74.6777 55.7154 74.6785 55.7096Z" fill="#565762"/>
<path fill-rule="evenodd" clip-rule="evenodd" d="M74.6132 55.9697C74.6086 55.9703 74.6053 55.9654 74.6075 55.9613C74.6083 55.96 74.6095 55.959 74.611 55.9586L74.6226 55.9555C74.626 55.9546 74.6294 55.9542 74.6329 55.9543L74.6572 55.9551C74.658 55.9551 74.6587 55.9553 74.6594 55.9558C74.663 55.958 74.6618 55.9634 74.6576 55.964L74.6132 55.9697Z" fill="#56372E"/>
<path fill-rule="evenodd" clip-rule="evenodd" d="M80.0007 60.0425C79.7576 59.3951 79.2199 58.862 78.8259 58.5403C78.5991 58.3553 78.3246 58.3797 78.0775 58.3304C77.8876 58.2923 77.7595 58.2283 77.8597 58.0153C77.8856 57.9594 77.9149 57.904 77.9524 57.8557C78.001 57.7927 78.0496 57.7353 78.1134 57.6835C78.2107 57.6047 78.3059 57.5137 78.4142 57.4512C79.3763 56.8947 80.143 58.4666 80.26 59.2411C80.2934 59.4647 80.1445 60.4262 80.0007 60.0425Z" fill="#56372E"/>
<path fill-rule="evenodd" clip-rule="evenodd" d="M72.9115 58.3308C73.031 58.1174 73.2634 58.0208 73.43 58.1148C73.5966 58.2089 73.6346 58.4584 73.5146 58.6718C73.3946 58.8853 73.1627 58.9818 72.9961 58.8878C72.83 58.7933 72.792 58.5438 72.9115 58.3308Z" fill="#643A3C"/>
<path fill-rule="evenodd" clip-rule="evenodd" d="M77.0699 60.8084C77.1899 60.5949 77.4218 60.4984 77.5884 60.5924C77.755 60.6864 77.793 60.9359 77.673 61.1494C77.5535 61.3628 77.321 61.4594 77.1544 61.3654C76.9878 61.2708 76.9503 61.0213 77.0699 60.8084Z" fill="#643A3C"/>
<path fill-rule="evenodd" clip-rule="evenodd" d="M73.491 43.4041C73.6105 43.1907 73.8429 43.0941 74.0095 43.1886C74.1761 43.2826 74.2141 43.5322 74.0941 43.7456C73.9741 43.959 73.7422 44.0556 73.5755 43.9616C73.4089 43.8671 73.371 43.6175 73.491 43.4041Z" fill="#643A3C"/>
<path fill-rule="evenodd" clip-rule="evenodd" d="M69.2258 41.4343C69.3458 41.2209 69.5778 41.1243 69.7444 41.2184C69.911 41.3124 69.9489 41.5619 69.8289 41.7753C69.7094 41.9888 69.477 42.0853 69.3104 41.9908C69.1438 41.8968 69.1058 41.6473 69.2258 41.4343Z" fill="#643A3C"/>
<path fill-rule="evenodd" clip-rule="evenodd" d="M71.5235 26.8556C71.5832 26.6183 71.7817 26.4638 71.967 26.5105C72.1524 26.5578 72.2547 26.788 72.1949 27.0258C72.1352 27.2632 71.9367 27.4177 71.7513 27.3709C71.5655 27.3237 71.4637 27.0934 71.5235 26.8556Z" fill="#643A3C"/>
<path fill-rule="evenodd" clip-rule="evenodd" d="M67.4692 25.663C67.529 25.4257 67.7275 25.2712 67.9128 25.3179C68.0981 25.3652 68.2004 25.5954 68.1407 25.8327C68.0809 26.0701 67.8824 26.2251 67.6971 26.1778C67.5117 26.131 67.4095 25.9008 67.4692 25.663Z" fill="#643A3C"/>
<path d="M65.0968 44.2802C65.0583 44.2802 65.0193 44.268 64.9864 44.2426C64.9064 44.1816 64.8917 44.0673 64.9524 43.987C64.996 43.9295 65.0436 43.8691 65.0937 43.8045C65.3823 43.4356 65.7778 42.9304 66.1394 42.1402C66.1809 42.0482 66.2888 42.0075 66.3799 42.0507C66.471 42.0924 66.5111 42.2007 66.469 42.2921C66.0897 43.122 65.6791 43.647 65.3793 44.0296C65.3302 44.0927 65.2836 44.1516 65.2406 44.208C65.2056 44.2558 65.1514 44.2802 65.0968 44.2802Z" fill="#DB5944"/>
<path d="M66.4913 41.5258C66.4513 41.5258 66.4113 41.5125 66.3779 41.4861C65.5849 40.8493 65.5459 39.7598 66.2746 38.5716C66.3885 38.3861 67.0782 37.5024 67.615 37.7697C67.7046 37.8149 67.7411 37.9242 67.6965 38.0146C67.6514 38.1046 67.5415 38.1407 67.4524 38.0965C67.2701 38.0019 66.7785 38.4461 66.584 38.7632C66.2847 39.2511 65.6882 40.4662 66.6048 41.202C66.6832 41.2651 66.6959 41.3799 66.6331 41.4582C66.5972 41.5024 66.5445 41.5258 66.4913 41.5258Z" fill="#DB5944"/>
<path d="M76.9781 44.3859C76.9493 44.3859 76.9204 44.3787 76.8931 44.3645C76.8044 44.3172 76.7705 44.2065 76.8176 44.118C77.3736 43.0681 77.565 42.1986 77.6941 41.1369C77.7063 41.0368 77.7974 40.9672 77.8962 40.9779C77.9959 40.9901 78.0668 41.081 78.0547 41.1807C77.921 42.284 77.7205 43.1885 77.1386 44.2888C77.1062 44.3508 77.0435 44.3859 76.9781 44.3859Z" fill="#DB5944"/>
<path d="M67.3992 40.045C67.3779 40.045 67.3562 40.041 67.3349 40.0333C67.2412 39.9973 67.1941 39.8926 67.2296 39.7981C67.3658 39.4372 67.3931 39.0632 67.422 38.6673C67.4584 38.1686 67.4958 37.654 67.7656 37.1635C67.7877 37.1232 67.7948 37.076 67.78 37.0324C67.7608 36.974 67.7441 36.9232 67.7435 36.8719C67.74 36.5471 67.8565 36.3022 67.9709 36.105C68.2484 35.6258 68.7067 35.2543 69.1984 35.1125C69.2571 35.0952 69.3285 35.082 69.4034 35.0688C69.527 35.0464 69.6809 35.019 69.7382 34.9656C69.8506 34.8614 69.9518 34.7466 70.0587 34.6246C70.2066 34.4569 70.3595 34.2831 70.5509 34.1317C71.9424 33.0284 73.656 32.6076 75.1336 33.006C75.5139 33.1081 75.8136 33.3013 76.1033 33.4878C76.2319 33.5711 76.3631 33.6555 76.5028 33.7327C76.6274 33.8013 76.8223 33.8369 77.0107 33.8715C77.3262 33.9289 77.6528 33.9878 77.8488 34.214C77.949 34.3299 77.9936 34.4386 78.0366 34.5433C78.0483 34.5718 78.0604 34.6007 78.0741 34.6317C78.1156 34.7232 78.0746 34.8314 77.9829 34.8726C77.8923 34.9138 77.7839 34.8731 77.7429 34.7811C77.7277 34.7471 77.7141 34.7141 77.7009 34.6825C77.6629 34.5906 77.6356 34.524 77.5743 34.4528C77.4624 34.3243 77.2001 34.2765 76.9459 34.2302C76.7287 34.1906 76.5038 34.15 76.3271 34.0524C76.1797 33.9706 76.042 33.8826 75.9063 33.7947C75.6278 33.6153 75.3645 33.4461 75.0389 33.3582C73.6702 32.9903 72.0766 33.3861 70.7752 34.4178C70.6096 34.5489 70.4739 34.7034 70.3301 34.8665C70.2217 34.9895 70.1098 35.1171 69.9832 35.2339C69.848 35.3595 69.645 35.3961 69.4662 35.4281C69.405 35.4392 69.3462 35.4494 69.2976 35.4631C68.894 35.58 68.5153 35.889 68.2833 36.289C68.1672 36.4891 68.1138 36.6453 68.106 36.8133C68.1044 36.849 68.1127 36.885 68.1233 36.9191C68.1588 37.0263 68.1988 37.1488 68.1319 37.2545C67.8555 37.6987 67.82 38.1825 67.783 38.6943C67.7537 39.0988 67.7233 39.517 67.5683 39.9276C67.5415 39.9998 67.4726 40.045 67.3992 40.045ZM67.8253 37.0606C67.8254 37.0604 67.8252 37.0604 67.8251 37.0606C67.8251 37.0608 67.8252 37.0608 67.8253 37.0606Z" fill="#3D3E49"/>
<path d="M79.1015 42.4101C79.0741 42.4101 79.0463 42.404 79.02 42.3908C78.9303 42.3456 78.8939 42.2363 78.9384 42.1459C78.9881 42.0462 78.7739 41.8242 78.6827 41.7291L78.6604 41.7058C78.4088 41.4425 78.1151 41.2072 77.8305 40.9806C77.6021 40.7976 77.3656 40.6091 77.1469 40.4027L77 40.266C76.6962 39.9855 76.3514 39.6679 76.167 39.2984C76.1063 39.1754 76.0566 39.0367 76.004 38.8898C75.886 38.56 75.7645 38.219 75.5224 38.0976C75.4328 38.0523 75.3963 37.9431 75.4409 37.8526C75.4859 37.7627 75.5953 37.7261 75.685 37.7708C76.0571 37.9578 76.2106 38.3872 76.3463 38.7663C76.3949 38.903 76.441 39.0316 76.4926 39.1353C76.6471 39.4448 76.9651 39.7385 77.2461 39.9972L77.396 40.1364C77.6046 40.3326 77.8345 40.5166 78.0573 40.695C78.351 40.9297 78.6544 41.1721 78.9227 41.4532L78.944 41.4755C79.1131 41.6514 79.4281 41.9787 79.2635 42.309C79.2321 42.373 79.1683 42.4101 79.1015 42.4101Z" fill="#3D3E49"/>
<path d="M76.4119 39.4671C76.2358 39.4671 76.1762 39.2243 76.0207 39.1417C75.9923 39.1266 75.9663 39.1152 75.9465 39.1098C75.4746 38.9807 75.0624 38.7444 74.6482 38.3663C74.4198 38.1585 74.195 37.879 73.957 37.5827C73.3807 36.8661 72.727 36.05 71.9006 36.1582C71.733 36.179 71.5512 36.3218 71.3912 36.4479L71.2879 36.5282C70.9415 36.7884 70.5521 37.016 70.0969 37.2234C69.863 37.3306 69.6138 37.321 69.3728 37.3108C69.1404 37.3011 68.9216 37.2925 68.7636 37.3982C68.6796 37.4541 68.5672 37.4312 68.512 37.3479C68.4563 37.264 68.479 37.1507 68.5621 37.0953C68.8183 36.9241 69.1206 36.9363 69.3875 36.9469C69.5961 36.9556 69.7911 36.9632 69.9465 36.8925C70.3774 36.6959 70.7451 36.4819 71.0697 36.2375L71.1674 36.1623C71.3547 36.0149 71.5882 35.8314 71.8555 35.7979C72.8855 35.6688 73.6041 36.5653 74.2396 37.3555C74.4684 37.6401 74.6847 37.9089 74.8923 38.098C75.2624 38.4359 75.6275 38.6463 76.0417 38.7592C76.1587 38.7912 76.5927 39.0041 76.5927 39.2862C76.5932 39.3853 76.5122 39.4671 76.4119 39.4671Z" fill="#3D3E49"/>
<path d="M80.023 38.8193C80.0012 38.8193 79.98 38.8152 79.9587 38.8071C79.3966 38.5931 79.2037 37.7826 79.0624 37.191C79.0259 37.038 78.9925 36.8978 78.9571 36.7875C78.6705 35.8936 78.3028 35.332 77.8329 35.0708C77.5038 34.8879 77.1574 34.7664 76.7113 34.6754C76.6131 34.6556 76.5493 34.5596 76.569 34.461C76.5888 34.3619 76.6845 34.2963 76.7827 34.3182C77.2673 34.4163 77.6456 34.5494 78.0086 34.7512C78.5636 35.0596 78.987 35.6888 79.3029 36.6757C79.3409 36.7936 79.3764 36.9425 79.4153 37.1061C79.5379 37.6184 79.7055 38.3202 80.0873 38.4661C80.181 38.5017 80.2281 38.6069 80.1926 38.7009C80.1653 38.7746 80.0964 38.8193 80.023 38.8193Z" fill="#3D3E49"/>
<path d="M80.2734 41.9781C80.2314 41.9781 80.1893 41.9639 80.1554 41.9344C80.0151 41.8145 80.0982 41.6234 80.1478 41.5091L80.1625 41.475C80.2131 41.3124 80.2775 41.1543 80.3402 41.0014C80.4041 40.8454 80.4643 40.698 80.5119 40.544C80.7438 39.7883 80.8608 38.3806 79.8303 37.8983C79.7397 37.8556 79.7002 37.7474 79.7427 37.6559C79.7847 37.5649 79.8936 37.5258 79.9843 37.568C81.0836 38.0828 81.2158 39.4874 80.8593 40.6512C80.8071 40.821 80.7413 40.9831 80.677 41.1396C80.6147 41.2915 80.556 41.4354 80.5089 41.5848C80.5043 41.6 80.4942 41.6249 80.4815 41.6534C80.4588 41.709 80.4641 41.7717 80.4524 41.8307C80.4465 41.8603 80.4331 41.8888 80.4122 41.9131C80.3757 41.9563 80.3245 41.9781 80.2734 41.9781ZM80.3914 41.6575C80.3919 41.6575 80.3919 41.658 80.3914 41.6575C80.3919 41.658 80.3919 41.6575 80.3914 41.6575Z" fill="#3D3E49"/>
<path d="M79.1787 42.7527C79.0293 42.7527 78.8794 42.7466 78.7311 42.7365C78.6313 42.7299 78.5553 42.6435 78.5619 42.5428C78.5685 42.4422 78.6561 42.37 78.7549 42.3731C79.5954 42.428 80.4238 42.3751 80.7803 41.626C80.8234 41.5356 80.9312 41.497 81.0224 41.5402C81.113 41.5834 81.151 41.6921 81.1079 41.7831C80.7297 42.5784 79.9615 42.7527 79.1787 42.7527Z" fill="#3D3E49"/>
<path d="M73.3985 54.2384C73.3519 54.2384 73.3058 54.2206 73.2704 54.1851C72.3554 53.2672 72.0308 51.518 72.0308 50.2994C72.0308 50.1987 72.1123 50.1174 72.2121 50.1174C72.3118 50.1174 72.3933 50.1993 72.3933 50.2994C72.3933 51.4484 72.6901 53.0879 73.5261 53.9274C73.597 53.9985 73.597 54.1139 73.5261 54.1851C73.4917 54.2206 73.4451 54.2384 73.3985 54.2384Z" fill="#3A2829"/>
<path d="M71.0417 55.3823C71.0205 55.3823 70.9992 55.3783 70.9779 55.3706C70.8838 55.3356 70.8361 55.2304 70.8716 55.1363C71.221 54.1987 71.6727 53.2926 72.1102 52.416L72.1735 52.2894C72.2181 52.1995 72.328 52.1624 72.4171 52.2081C72.5067 52.2528 72.5432 52.3626 72.4981 52.4525L72.4348 52.5796C72.0018 53.4471 71.5542 54.3446 71.2114 55.2639C71.1845 55.3371 71.1152 55.3823 71.0417 55.3823Z" fill="#3A2829"/>
<path d="M80.8401 62.0148C80.7737 62.0148 80.7094 61.9777 80.678 61.9142C80.633 61.8243 80.6694 61.7145 80.759 61.6698C81.0122 61.5427 81.2563 61.2546 81.4821 60.9634L81.6543 60.7423C82.0974 60.1747 82.5162 59.638 82.8342 58.9997C82.8742 58.9189 82.9147 58.8417 82.9547 58.767C83.1324 58.4315 83.2727 58.1668 83.2469 57.779C83.2352 57.6006 83.1299 57.4589 83.0089 57.2942C82.8833 57.1234 82.7405 56.9303 82.7086 56.6762C82.6716 56.3805 82.7213 56.0761 82.7689 55.7813C82.7866 55.671 82.8043 55.5628 82.8164 55.4576C82.864 55.0404 82.8083 54.5886 82.74 54.1622C82.7015 53.9203 82.586 53.6586 82.4746 53.405C82.3313 53.0787 82.183 52.7418 82.183 52.417C82.183 52.3164 82.2645 52.2351 82.3643 52.2351C82.464 52.2351 82.5455 52.3169 82.5455 52.417C82.5455 52.6645 82.6721 52.9527 82.8063 53.2576C82.9273 53.532 83.0519 53.8161 83.098 54.1043C83.1699 54.556 83.2291 55.0378 83.176 55.4987C83.1633 55.609 83.1451 55.7229 83.1263 55.8392C83.0828 56.1086 83.0377 56.3871 83.0681 56.6305C83.0879 56.7901 83.1856 56.9232 83.2995 57.0772C83.4352 57.2612 83.5892 57.47 83.6079 57.7546C83.6408 58.2461 83.4626 58.582 83.2747 58.9377C83.2362 59.0099 83.1967 59.0841 83.1583 59.1623C82.8235 59.8332 82.3941 60.384 81.9394 60.9664L81.7677 61.1865C81.5156 61.5122 81.2386 61.8354 80.9201 61.995C80.8953 62.0087 80.8674 62.0148 80.8401 62.0148Z" fill="#3A2829"/>
<path d="M78.1125 56.418C78.0781 56.418 78.0431 56.4083 78.0123 56.3875C76.7878 55.5683 75.767 54.0168 75.3487 52.3377C75.3244 52.2401 75.3837 52.141 75.4809 52.1166C75.5786 52.0912 75.6763 52.1517 75.7011 52.2493C76.0987 53.844 77.0613 55.3132 78.2138 56.0841C78.2973 56.14 78.3196 56.2528 78.2639 56.3367C78.229 56.3895 78.1713 56.418 78.1125 56.418Z" fill="#3A2829"/>
<path d="M81.6556 58.734C81.6551 58.734 81.6546 58.734 81.6536 58.734C81.5533 58.733 81.4728 58.6512 81.4738 58.5501C81.4819 57.6805 80.4196 56.6144 79.9091 56.1016C79.0493 55.2392 78.0163 54.0292 77.6573 52.3155C77.6365 52.2169 77.6993 52.1204 77.7976 52.0995C77.8968 52.0792 77.992 52.1417 78.0128 52.2403C78.2816 53.5215 78.9258 54.5988 80.1659 55.8444C81.0389 56.7206 81.8455 57.6546 81.8369 58.5536C81.8364 58.6537 81.7554 58.734 81.6556 58.734Z" fill="#3A2829"/>
<path d="M74.7999 54.1459C74.7721 54.1459 74.7432 54.1393 74.7163 54.1251C74.2216 53.8675 72.9395 52.9888 72.9395 52.0308C72.9395 51.9302 73.021 51.8489 73.1207 51.8489C73.2205 51.8489 73.302 51.9307 73.302 52.0308C73.302 52.6833 74.2272 53.4589 74.8835 53.8014C74.9726 53.8476 75.0075 53.9579 74.9609 54.0468C74.9295 54.1099 74.8657 54.1459 74.7999 54.1459Z" fill="#3A2829"/>
<path d="M71.6421 55.7995C71.6001 55.7995 71.558 55.7848 71.5231 55.7553C71.4477 55.6892 71.439 55.5744 71.5044 55.4982C72.4037 54.4533 73.4949 53.9268 74.8409 53.8892C75.3391 53.875 75.9048 53.8867 76.3129 54.2058C76.3919 54.2678 76.4061 54.3822 76.3448 54.4614C76.283 54.5407 76.1686 54.5544 76.0901 54.4934C75.7761 54.2485 75.3067 54.2409 74.851 54.2536C73.6129 54.2881 72.6083 54.773 71.7793 55.7365C71.7439 55.7782 71.6932 55.7995 71.6421 55.7995Z" fill="#3A2829"/>
<path d="M71.7494 21.7519C71.5641 21.7519 71.3853 21.7478 71.2192 21.7448C71.0997 21.7422 70.9863 21.7397 70.88 21.7387C70.7797 21.7382 70.6992 21.6559 70.7002 21.5552C70.7007 21.4551 70.7822 21.3748 70.8815 21.3748C70.882 21.3748 70.8825 21.3748 70.883 21.3748C70.9904 21.3753 71.1058 21.3779 71.2268 21.3804C72.3469 21.4033 73.8838 21.4358 74.3365 20.3747C74.3901 20.2502 74.3988 20.143 74.4099 20.0073C74.4134 19.9615 74.4175 19.9148 74.4231 19.866C74.4347 19.7654 74.5279 19.6952 74.6241 19.7059C74.7238 19.7176 74.7952 19.8075 74.7836 19.9077C74.7785 19.9529 74.775 19.9961 74.7714 20.0378C74.7593 20.1862 74.7466 20.3396 74.6702 20.5185C74.2008 21.6198 72.8528 21.7519 71.7494 21.7519Z" fill="#C2743F"/>
<path d="M65.2784 22.5183C65.2318 22.5183 65.1852 22.5005 65.1498 22.465C65.0789 22.3933 65.0789 22.2779 65.1503 22.2073C66.6036 20.7554 68.7714 20.11 71.0982 20.4378C71.2805 20.4632 71.4947 20.5186 71.7433 20.5831C72.5662 20.796 73.6939 21.0877 74.3278 20.3915C74.3962 20.3173 74.5111 20.3127 74.5846 20.3798C74.659 20.4479 74.6636 20.5633 74.5962 20.6375C73.8139 21.4958 72.5657 21.1721 71.6527 20.9363C71.4152 20.8748 71.2096 20.8215 71.048 20.7986C68.8342 20.4876 66.7788 21.0949 65.407 22.4655C65.3711 22.501 65.3245 22.5183 65.2784 22.5183Z" fill="#C2743F"/>
<path d="M64.8645 24.0143C64.7678 24.0143 64.6873 23.9376 64.6833 23.8395C64.6792 23.7389 64.7572 23.654 64.8575 23.6499C65.418 23.6266 65.9426 23.1666 66.4505 22.722C66.6703 22.5294 66.8774 22.3474 67.0855 22.2036L67.2242 22.106C67.9798 21.5729 69.5536 20.4646 71.8672 20.6714C71.9669 20.68 72.0409 20.769 72.0317 20.8691C72.0226 20.9697 71.9355 21.0449 71.8348 21.0343C69.6477 20.8376 68.1534 21.8956 67.4334 22.4043L67.2921 22.5034C67.1012 22.6356 66.9012 22.8109 66.6895 22.9964C66.1603 23.4599 65.5608 23.9859 64.8721 24.0143C64.8696 24.0143 64.8671 24.0143 64.8645 24.0143Z" fill="#C2743F"/>
<path d="M63.4014 30.7944C63.327 30.7944 63.2581 30.7492 63.2313 30.675C63.2145 30.6282 62.8302 29.5051 63.809 26.7766C63.843 26.6815 63.9463 26.6322 64.0415 26.6668C64.1357 26.7009 64.1848 26.8055 64.1509 26.9001C63.2262 29.4787 63.5695 30.5418 63.5731 30.552C63.6055 30.6465 63.5564 30.7502 63.4622 30.7837C63.4424 30.7908 63.4217 30.7944 63.4014 30.7944Z" fill="#C2743F"/>
<path d="M73.4301 84.8161C73.3592 84.8161 73.2924 84.7744 73.263 84.7053C73.2235 84.6128 73.2665 84.5056 73.3587 84.4664C73.4068 84.4456 73.5516 84.3262 73.3871 83.6543C73.3638 83.5567 73.34 83.4592 73.3065 83.3646C72.9698 82.4011 72.2832 81.4289 71.557 80.8877C71.3621 80.7428 71.0375 80.5004 70.801 80.5487C70.7043 80.568 70.6071 80.506 70.5863 80.4074C70.566 80.3088 70.6293 80.2123 70.7271 80.1919C71.1225 80.1081 71.514 80.4018 71.7737 80.5955C72.5536 81.1774 73.2898 82.2166 73.6494 83.2442C73.6863 83.3499 73.7137 83.4597 73.74 83.5684C73.8023 83.8215 73.9907 84.593 73.501 84.8023C73.4777 84.8115 73.4539 84.8161 73.4301 84.8161Z" fill="#4C4D52"/>
<path d="M62.8372 37.8628C62.8078 37.8628 62.778 37.8552 62.7506 37.8405C62.6625 37.7922 62.6301 37.6814 62.6777 37.593C62.859 37.2591 63.0347 36.9221 63.2104 36.5847C63.4717 36.0836 63.7416 35.5653 64.0267 35.0667C64.0763 34.9793 64.1877 34.9488 64.2743 34.9991C64.3614 35.0494 64.3918 35.1607 64.3417 35.2476C64.0601 35.7406 63.7917 36.2559 63.5325 36.7539C63.3562 37.0929 63.179 37.4314 62.9972 37.7673C62.9638 37.8283 62.9015 37.8628 62.8372 37.8628Z" fill="#DB5944"/>
<path fill-rule="evenodd" clip-rule="evenodd" d="M72.7545 24.3559C72.398 24.2537 72.0643 24.394 71.9169 24.3315C71.6405 24.2146 71.7974 23.837 71.9266 23.6789C72.4213 23.0732 73.3616 23.466 73.788 24.1536C74.0057 24.5058 74.2939 25.1898 74.0923 25.5801C74.0746 25.6147 73.8326 24.6648 72.7545 24.3559Z" fill="#FCCC95"/>
<path d="M73.0309 32.5881C72.9433 32.5881 72.8658 32.5241 72.8516 32.4346C72.7134 31.556 72.9499 30.6976 73.1777 29.8682C73.2491 29.6101 73.3195 29.3534 73.3783 29.0978C73.7484 27.4843 74.1232 25.7396 74.3531 23.9142C74.4442 23.1926 74.2634 21.7112 73.4319 21.5567C73.3337 21.5384 73.2684 21.4433 73.2866 21.3442C73.3048 21.2451 73.399 21.1801 73.4983 21.1984C74.6417 21.4108 74.8118 23.1839 74.7136 23.9599C74.4817 25.8016 74.1049 27.557 73.7322 29.1796C73.672 29.4403 73.6006 29.7015 73.5282 29.9653C73.3099 30.7581 73.0846 31.5773 73.2101 32.3777C73.2258 32.4773 73.158 32.5703 73.0592 32.5861C73.0496 32.5876 73.04 32.5881 73.0309 32.5881Z" fill="#C2743F"/>
<path d="M69.7154 58.6983C69.6299 58.6983 69.5534 58.6368 69.5372 58.5489L69.5245 58.4848C69.4952 58.3405 69.4587 58.1606 69.5483 57.9746C69.5924 57.8836 69.6486 57.8059 69.7028 57.7312C69.7848 57.6179 69.8557 57.5203 69.8628 57.4105C69.8694 57.3104 69.959 57.2301 70.0562 57.2413C70.156 57.2479 70.2319 57.3348 70.2248 57.4354C70.2102 57.6494 70.0967 57.8069 69.996 57.9451C69.9489 58.0102 69.9038 58.0722 69.8739 58.1337C69.84 58.2048 69.8537 58.2851 69.8795 58.4117L69.8932 58.4823C69.9114 58.5809 69.8466 58.6764 69.7479 58.6947C69.7377 58.6973 69.7266 58.6983 69.7154 58.6983Z" fill="#DB5944"/>
<path d="M79.6801 63.5166C79.6331 63.5166 79.5855 63.4978 79.55 63.4612C79.4801 63.3891 79.4827 63.2727 79.5541 63.202C79.6042 63.1533 79.6675 63.1238 79.7404 63.0902C79.8756 63.0277 80.0609 62.9423 80.2301 62.6959C80.3248 62.5582 80.3121 62.5175 80.2913 62.4489C80.2518 62.3183 80.228 62.1734 80.4108 61.9702C80.4777 61.8955 80.5921 61.8899 80.6676 61.957C80.742 62.0245 80.7476 62.1399 80.6807 62.2146C80.6205 62.2812 80.6215 62.2837 80.6392 62.3427C80.6818 62.4834 80.7086 62.642 80.5293 62.9027C80.303 63.2315 80.0457 63.3504 79.8923 63.4211C79.8335 63.4487 79.7844 63.4968 79.7212 63.5118C79.7077 63.515 79.6939 63.5166 79.6801 63.5166Z" fill="#DB5944"/>
<path d="M76.4896 45.6463C76.4567 45.6463 76.4222 45.6371 76.3924 45.6178C76.3078 45.564 76.2825 45.4511 76.3367 45.3663L76.3534 45.3398C76.4359 45.2097 76.4582 45.1747 76.5731 45.1193C76.6237 45.0949 76.723 45.0465 76.9526 44.8876C76.9699 44.8757 76.9783 44.8543 76.9722 44.8342C76.9585 44.7859 76.9382 44.7463 76.9195 44.7077C76.8658 44.5964 76.799 44.4576 76.8613 44.2554C76.8906 44.1588 76.9914 44.1044 77.0886 44.1354C77.1843 44.1654 77.238 44.2676 77.2081 44.3636C77.1889 44.4256 77.201 44.4556 77.2461 44.5491C77.2729 44.6045 77.3003 44.6634 77.3205 44.7326C77.3408 44.8027 77.4026 45.0151 77.2486 45.1244C77.0421 45.2716 76.9145 45.3498 76.8311 45.3959C76.7649 45.4323 76.7003 45.4718 76.6597 45.5355L76.6425 45.5624C76.6081 45.6163 76.5493 45.6463 76.4896 45.6463Z" fill="#DB5944"/>
<path d="M77.1374 44.477C77.0903 44.477 77.0427 44.4587 77.0072 44.4216C76.9373 44.3495 76.9394 44.2341 77.0113 44.164C77.0872 44.0898 77.1323 44.0435 77.1622 44.012C77.2402 43.9307 77.2553 43.9195 77.3657 43.8586L77.4635 43.8042C77.5516 43.7544 77.6614 43.7859 77.7111 43.8733C77.7602 43.9612 77.7293 44.0725 77.6422 44.1218L77.5409 44.1782C77.47 44.2173 77.47 44.2173 77.424 44.2651C77.3921 44.2982 77.345 44.3474 77.2645 44.4257C77.2285 44.4603 77.1829 44.477 77.1374 44.477Z" fill="#DB5944"/>
<path d="M66.9925 40.4596C66.9084 40.4596 66.8325 40.4001 66.8147 40.3143C66.7231 39.8696 66.7611 39.521 66.9282 39.2775C66.9849 39.1947 67.0983 39.1734 67.1804 39.2308C67.2629 39.2877 67.2837 39.4015 67.2269 39.4844C67.0917 39.6816 67.1216 40.0048 67.1702 40.2406C67.1905 40.3392 67.1272 40.4357 67.0294 40.456C67.0173 40.4581 67.0051 40.4596 66.9925 40.4596Z" fill="#DB5944"/>
<path d="M64.462 25.8221C64.3759 25.8221 64.2994 25.7601 64.2832 25.6722C64.2736 25.6168 64.2564 25.5619 64.2402 25.506C64.2088 25.3987 64.1729 25.2778 64.1729 25.1477C64.1729 24.8992 64.3415 24.7005 64.4772 24.5414L64.538 24.4687C64.6018 24.3905 64.7157 24.3793 64.7937 24.4423C64.8712 24.5063 64.8833 24.6207 64.82 24.699L64.7537 24.7782C64.657 24.8921 64.5359 25.0339 64.5359 25.1477C64.5359 25.2244 64.5618 25.3103 64.5886 25.4018C64.6088 25.4704 64.6286 25.539 64.6413 25.6071C64.659 25.7062 64.5932 25.8012 64.4944 25.819C64.4833 25.8211 64.4726 25.8221 64.462 25.8221Z" fill="#DB5944"/>
<path d="M80.7013 62.0331C80.6658 62.0331 80.6299 62.0229 80.5985 62.0011C80.516 61.9442 80.4952 61.8303 80.5519 61.748C81.6184 60.1934 81.6472 58.1606 81.2224 56.9298C81.0831 56.5258 80.8537 56.0486 80.6243 55.6847C80.5853 55.6232 80.5392 55.5582 80.4916 55.4916C80.36 55.3071 80.2106 55.0977 80.1549 54.8741C80.1306 54.7765 80.1893 54.6775 80.2866 54.6531C80.3843 54.6276 80.4825 54.6876 80.5068 54.7852C80.5463 54.9417 80.6684 55.1135 80.7869 55.2792C80.839 55.3518 80.8892 55.4225 80.9312 55.4895C81.1743 55.8753 81.4173 56.3814 81.5657 56.8104C82.0346 58.1698 81.9951 60.2869 80.8512 61.9543C80.8162 62.0062 80.7595 62.0331 80.7013 62.0331Z" fill="#3A2829"/>
</svg>
