<svg width="74" height="81" viewBox="0 0 74 81" fill="none" xmlns="http://www.w3.org/2000/svg">
<path opacity="0.42" d="M37.1032 81.0002C57.3509 81.0002 73.7649 78.0374 73.7649 74.3825C73.7649 70.7277 57.3509 67.7649 37.1032 67.7649C16.8554 67.7649 0.441406 70.7277 0.441406 74.3825C0.441406 78.0374 16.8554 81.0002 37.1032 81.0002Z" fill="#29ABE2" fill-opacity="0.7"/>
<path d="M37.1079 54.6722H12.3535C12.0348 54.6722 11.7742 54.4116 11.7742 54.0929V48.6948C11.7742 48.3761 12.0348 48.1155 12.3535 48.1155H37.1079C37.4265 48.1155 37.6872 48.3761 37.6872 48.6948V54.0929C37.6872 54.4116 37.4265 54.6722 37.1079 54.6722Z" fill="#A55716"/>
<path d="M29.52 52.1879C30.5946 53.0161 31.6696 53.8439 32.7442 54.6722H37.1072C37.4262 54.6722 37.6873 54.412 37.6873 54.0938V48.6939C37.6873 48.3757 37.4262 48.1155 37.1072 48.1155H17.175C21.5315 48.5909 25.6467 49.9478 29.52 52.1879Z" fill="#8E4711"/>
<path d="M13.3214 56.7937L10.0339 76.4643H11.9675L18.1558 56.6011L13.3214 56.7937Z" fill="#1A1A1A"/>
<path d="M36.9135 56.7937L40.201 76.4643H38.2674L32.0791 56.6011L36.9135 56.7937Z" fill="#1A1A1A"/>
<path d="M37.3321 57.1309H12.1288C11.9335 57.1309 11.7742 56.9712 11.7742 56.7764V55.0272C11.7742 54.8319 11.9339 54.6726 12.1288 54.6726H37.3321C37.5274 54.6726 37.6867 54.8324 37.6867 55.0272V56.7764C37.6872 56.9716 37.5274 57.1309 37.3321 57.1309Z" fill="#603813"/>
<path d="M36.334 68.3645H13.3218V69.3287H36.334V68.3645Z" fill="#1A1A1A"/>
<path d="M32.3487 19.5676L36.2445 27.6189L39.1241 16.6399C39.1241 16.6399 42.8506 16.8087 42.6809 18.4977C42.6809 18.4977 40.3095 32.1792 38.9544 33.0239C37.5992 33.8686 36.9221 34.544 35.9055 34.0375C34.8893 33.5309 28.2837 25.0852 28.2837 25.0852L32.3487 19.5676Z" fill="#CED0D8"/>
<path d="M42.3406 17.5968C42.3406 18.5606 42.331 19.168 40.7317 19.3421C39.1791 19.5109 39.1228 18.5606 39.1228 17.5968C39.1228 16.6331 39.8432 15.8516 40.7317 15.8516C41.6201 15.8516 42.3406 16.6331 42.3406 17.5968Z" fill="#D67B5B"/>
<path d="M54.4817 65.3394C54.4817 65.3394 59.307 70.3115 61.5571 70.4063C61.5571 70.4063 63.7717 71.6865 62.9759 73.0161C62.1806 74.3462 60.4072 74.6839 59.2187 74.6484C58.0302 74.6129 53.5045 71.5475 53.5045 71.5475L53.13 70.9644L52.8711 71.6683L51.2843 70.9232L51.0522 65.5996L54.4817 65.3394Z" fill="#64342F"/>
<path d="M54.8093 66.1384C55.2947 66.3947 55.8471 66.4796 56.3697 66.629C56.8516 66.7667 57.3305 66.9424 57.7452 67.2291C57.8483 67.3001 57.9461 67.3784 58.0379 67.4633C58.1258 67.5447 58.2193 67.6369 58.2578 67.7534C58.2708 67.7923 58.2921 67.8789 58.2596 67.9153C58.2284 67.9504 58.1176 67.9209 58.0751 67.9162C57.9556 67.9027 57.8366 67.8854 57.7184 67.8646C57.2387 67.7798 56.7611 67.6295 56.3606 67.3455C56.1372 67.1875 55.9632 66.9844 55.7913 66.7744C55.6224 66.5684 55.4449 66.3631 55.2064 66.2354C55.1427 66.2012 55.0812 66.2687 55.1115 66.3302C55.4111 66.9459 55.4912 67.6633 55.3388 68.3305C55.3202 68.4119 55.2981 68.4924 55.273 68.5721C55.2596 68.6141 55.238 68.7401 55.1795 68.744C55.1232 68.7479 55.0752 68.6539 55.0561 68.6128C55.021 68.5357 54.999 68.45 54.9743 68.3695C54.8673 68.0188 54.795 67.6568 54.7604 67.2918C54.7214 66.8771 54.7284 66.4571 54.7842 66.0445C54.7894 66.0072 54.7751 65.9704 54.7357 65.9592C54.7033 65.9501 54.6552 65.9704 54.6504 66.0077C54.5413 66.813 54.6041 67.6382 54.8431 68.4158C54.8899 68.5673 54.934 68.7786 55.0899 68.8591C55.1605 68.8959 55.244 68.8864 55.3025 68.8306C55.3614 68.7743 55.383 68.6834 55.4068 68.6089C55.5211 68.25 55.5683 67.8677 55.5484 67.4919C55.5259 67.0645 55.4189 66.6454 55.2315 66.2605C55.1999 66.2921 55.1683 66.3237 55.1366 66.3553C55.3618 66.4761 55.528 66.6714 55.6878 66.8662C55.8519 67.0658 56.0164 67.2585 56.2229 67.4157C56.6308 67.7265 57.1309 67.8954 57.6305 67.9893C57.7582 68.0131 57.8868 68.0322 58.0154 68.0482C58.1284 68.0621 58.299 68.1093 58.3747 67.9937C58.4466 67.8837 58.4081 67.7291 58.3501 67.6226C58.2882 67.5092 58.1925 67.4161 58.0968 67.3308C57.7011 66.9784 57.2127 66.7545 56.7131 66.59C56.4217 66.4943 56.1242 66.419 55.8268 66.3445C55.5025 66.2631 55.176 66.177 54.879 66.0198C54.8007 65.9769 54.7301 66.0964 54.8093 66.1384Z" fill="#3F1D1B"/>
<path d="M48.4175 69.2453C48.4175 69.2453 52.4444 74.8798 54.6551 75.3089C54.6551 75.3089 56.6532 76.9043 55.6674 78.1006C54.682 79.2973 52.8778 79.3674 51.708 79.1553C50.5381 78.9435 46.522 75.2387 46.522 75.2387L46.2393 74.6062L45.8778 75.2638L44.4204 74.291L44.9876 68.9924L48.4175 69.2453Z" fill="#64342F"/>
<path d="M20.7434 38.0043C20.7434 38.0043 19.3865 38.8728 19.8247 41.7659C20.2628 44.6589 20.3767 47.2424 24.0902 47.0791C25.5579 47.0146 39.2961 47.3813 42.3693 46.7609C42.3693 46.7609 43.1213 46.2427 43.9452 47.3389C44.7687 48.4352 51.1527 66.5982 51.1527 66.5982C51.1527 66.5982 54.3821 68.0711 55.3229 66.2531C55.7516 65.4253 51.6597 46.5146 50.934 44.1199C50.208 41.7252 49.5962 41.9135 48.154 40.8445C46.7114 39.7756 31.5817 37.6904 31.5817 37.6904C31.5817 37.6904 22.038 39.2417 20.7434 38.0043Z" fill="#BC3000"/>
<path d="M48.6308 70.0895C49.066 70.4108 49.5942 70.5735 50.0821 70.7961C50.5367 71.0035 50.9857 71.2468 51.3528 71.5901C51.4455 71.6772 51.533 71.7698 51.6126 71.8685C51.6901 71.9646 51.7707 72.0737 51.7919 72.1984C51.7984 72.2378 51.8049 72.34 51.7585 72.3617C51.7365 72.3721 51.6988 72.356 51.6776 72.3504C51.6447 72.3422 51.6118 72.3335 51.5789 72.3244C51.4633 72.2933 51.3485 72.2586 51.2351 72.2205C50.7779 72.0668 50.3302 71.8477 49.9804 71.5105C49.7838 71.3208 49.6422 71.097 49.5033 70.8641C49.3634 70.629 49.2153 70.3982 48.9932 70.2319C48.9439 70.1951 48.8742 70.2562 48.891 70.3103C49.0958 70.9662 49.0694 71.6832 48.8209 72.324C48.7897 72.4045 48.7547 72.4829 48.7166 72.5604C48.6971 72.5998 48.6585 72.7145 48.6018 72.7145C48.552 72.7145 48.5174 72.6284 48.5048 72.5911C48.478 72.5115 48.4689 72.4244 48.4559 72.3417C48.3988 71.9733 48.3823 71.5984 48.4018 71.226C48.4243 70.8026 48.4966 70.3835 48.6161 69.9769C48.6412 69.8912 48.507 69.8544 48.4823 69.9401C48.2511 70.7298 48.1966 71.5659 48.3221 72.3786C48.3455 72.5288 48.3615 72.7301 48.5036 72.8228C48.5668 72.8639 48.6473 72.8622 48.7088 72.8176C48.7776 72.7678 48.8127 72.6799 48.8486 72.6059C49.0127 72.2681 49.1136 71.9036 49.1517 71.53C49.1946 71.1082 49.1513 70.6783 49.0253 70.2739C48.9911 70.2999 48.9573 70.3259 48.9231 70.3523C49.1292 70.5064 49.263 70.732 49.392 70.9494C49.5219 71.1676 49.6561 71.3797 49.8349 71.562C50.1956 71.9304 50.6666 72.1703 51.1498 72.3379C51.2684 72.379 51.3884 72.4158 51.5096 72.4496C51.6239 72.4812 51.7845 72.5513 51.8767 72.4418C51.9633 72.3387 51.9425 72.1746 51.8953 72.0599C51.8451 71.9369 51.7633 71.8317 51.6784 71.7308C51.3368 71.3247 50.8801 71.0325 50.4086 70.7983C50.1358 70.6627 49.8544 70.5454 49.5734 70.4281C49.2699 70.3012 48.9677 70.1661 48.7018 69.97C48.6291 69.9168 48.5598 70.0371 48.6308 70.0895Z" fill="#3F1D1B"/>
<path d="M12.3618 38.7666C12.3618 38.7666 10.8374 39.6113 11.1764 42.6515C11.515 45.6918 11.515 48.3943 15.58 48.3943C17.1867 48.3943 32.1788 49.4079 35.5662 48.9009C35.5662 48.9009 36.4131 48.3943 37.26 49.5767C38.1068 50.7591 44.2042 70.0149 44.2042 70.0149C44.2042 70.0149 47.6614 71.7009 48.7775 69.8461C49.2858 69.0014 45.7286 49.0702 45.0511 46.5365C44.3735 44.0028 43.6959 44.1717 42.1714 42.9892C40.647 41.8068 24.2175 38.9355 24.2175 38.9355C24.2175 38.9355 13.717 40.1179 12.3618 38.7666Z" fill="#A52C02"/>
<path d="M39.7124 15.2924C39.7124 15.2924 40.5908 14.8946 41.2121 15.57C41.833 16.2458 42.0516 16.6476 41.9988 17.2347C41.946 17.8222 39.2361 19.1735 39.1794 19.5112C39.1231 19.8489 39.1231 20.8625 39.1231 20.8625C39.1231 20.8625 40.083 21.0876 40.0263 21.3127C39.97 21.5379 38.9534 21.7067 38.9534 21.7067L37.9338 21.5413L36.6388 21.3686L35.478 19.5986L35.5659 19.0038L39.7124 15.2924Z" fill="#E08A68"/>
<path d="M25.5175 14.7253C25.5175 14.7253 21.2264 14.7253 17.952 19.1168C14.6775 23.5083 11.5156 34.0933 11.5156 36.6833C11.5156 39.2732 11.6286 40.5119 12.6448 41.3003C13.6609 42.0888 19.0811 42.8767 23.1462 40.8501C27.2112 38.8229 26.3081 39.6114 26.3081 39.6114C26.3081 39.6114 27.4372 37.6973 26.9857 36.0078C26.5341 34.3189 27.4372 32.1792 28.6794 29.4767C29.9216 26.7741 32.4059 22.3826 32.6314 21.2565C32.8574 20.1304 32.1799 19.1168 32.1799 19.1168C32.1799 19.1168 31.8409 15.964 25.5175 14.7253Z" fill="#DADEEA"/>
<path d="M26.9842 36.0078C26.9232 35.7792 26.8877 35.5424 26.8734 35.2969C25.5117 34.7107 24.1734 34.0387 22.8594 33.2789C20.3911 31.3773 17.9232 29.4758 15.4549 27.5742C15.0601 27.1781 14.6769 26.775 14.3033 26.3667C12.668 30.6383 11.5142 35.1194 11.5142 36.6841C11.5142 39.2741 11.6272 40.5128 12.6433 41.3012C13.6595 42.0896 19.0797 42.8776 23.1447 40.8509C25.7338 39.5598 26.3075 39.4109 26.3824 39.4732C26.6283 39.003 27.3635 37.4262 26.9842 36.0078Z" fill="#CED0D8"/>
<path d="M31.9835 9.177C31.9835 9.177 29.3424 13.9863 28.3531 14.7284C27.3638 15.4705 25.8567 16.0766 25.8567 16.0766C25.8567 16.0766 26.6473 20.8093 28.8575 21.1479C31.0673 21.4869 31.2206 20.9747 31.2206 20.9747C31.2206 20.9747 30.847 20.3569 31.2076 19.5394C31.5683 18.722 36.3317 12.9507 36.3317 12.9507L31.9835 9.177Z" fill="#E08A68"/>
<path d="M28.3442 20.9356L30.2635 21.4837L30.8987 22.9519L31.1398 20.3801L28.3442 20.9356Z" fill="#BABBBF"/>
<path d="M27.8182 20.893L28.6923 19.2395L27.9325 13.8552L24.9624 14.8471L25.3984 20.1175L27.8182 20.893Z" fill="#DADEEA"/>
<path d="M32.0855 18.2327L32.3566 19.5454C32.1007 20.581 30.8988 22.9519 30.8988 22.9519L30.888 20.872L28.3049 20.8854C28.3049 20.8854 31.2365 20.3849 32.0855 18.2327Z" fill="#DADEEA"/>
<path d="M25.8254 19.2231L28.6916 19.2764L28.2591 20.8684L27.5919 19.789L25.8254 19.2231Z" fill="#BABBBF"/>
<path d="M40.4722 11.7942C40.4722 11.7942 39.8245 15.2141 39.3889 16.3697C38.9534 17.5252 36.1868 19.1164 35.5079 19.3792C34.829 19.642 33.8761 19.3359 33.8761 19.3359C33.8761 19.3359 31.051 16.8974 30.6995 15.9943C30.3479 15.0916 30.0431 11.3651 30.0431 11.3651C30.0431 11.3651 29.7309 6.5506 30.7073 5.44525C31.6836 4.33991 34.4026 2.09199 37.251 3.11897C40.0994 4.14595 40.9831 4.60878 40.9277 6.94199C40.9026 7.9694 40.4722 11.7942 40.4722 11.7942Z" fill="#EF9E78"/>
<path d="M40.4221 8.31105L38.2196 7.61528C38.2196 7.61528 38.0707 7.42998 38.2763 7.21913C38.482 7.00784 40.0519 7.29663 40.3065 7.58411C40.5619 7.8716 40.5879 8.22532 40.4221 8.31105Z" fill="#330F1D"/>
<path d="M35.4113 6.79712L32.9413 7.65221C32.9413 7.65221 32.7785 7.86609 33.0179 8.09903C33.2569 8.33152 35.0242 7.95658 35.3035 7.6232C35.5827 7.28983 35.6018 6.88934 35.4113 6.79712Z" fill="#330F1D"/>
<path d="M36.2887 14.1775C36.5792 14.1563 36.929 14.1044 37.0572 13.8883C37.1581 13.7186 37.1018 13.487 36.8857 13.1804C36.5099 12.6475 37.1139 10.19 37.3789 9.28769L37.168 9.23877C37.1658 9.247 36.9247 10.0722 36.7459 10.9702C36.5021 12.1928 36.487 12.9665 36.7 13.2687C36.8727 13.5138 36.9273 13.6935 36.8623 13.803C36.7987 13.91 36.6086 13.9714 36.2627 13.9965L36.2887 14.1775Z" fill="#F07A6E"/>
<path d="M29.6415 10.4035C29.6415 10.4035 30.8711 10.0832 30.8741 8.88732C30.8772 7.69106 31.5522 5.14396 31.9072 4.85085C32.2618 4.55773 38.57 5.90727 40.6897 5.39811L40.7685 9.21204L41.492 4.98333C41.492 4.98333 42.4952 4.7504 41.8397 3.60176C41.1842 2.45312 40.3927 0.421682 37.4737 0.149351C34.5547 -0.12298 30.8486 -0.142029 29.4198 1.13866C27.9911 2.41935 26.5857 2.28817 26.5857 2.28817L27.5555 3.57492C27.5555 3.57492 27.5837 7.92788 28.3019 9.57183L29.6415 10.4035Z" fill="#3D1623"/>
<path d="M29.4198 1.13896C30.8486 -0.141733 34.5547 -0.122251 37.4737 0.149647C40.3927 0.421978 41.1838 2.45342 41.8397 3.60206C42.4952 4.7507 41.492 4.98363 41.492 4.98363L41.4881 5.0161C41.1989 5.11655 40.9313 5.26419 40.6936 5.44993L40.6897 5.39797C38.57 5.90713 32.2618 4.5576 31.9072 4.85071C31.8985 4.85807 31.8894 4.8676 31.8803 4.87755C31.4045 4.34935 30.7395 3.98479 30.0316 3.91898C29.041 3.82676 28.1647 4.25799 27.5988 4.96718C27.5594 4.15321 27.5555 3.57522 27.5555 3.57522L26.5857 2.28846C26.5857 2.28846 27.9911 2.41965 29.4198 1.13896Z" fill="#330F1D"/>
<path d="M29.5067 9.51704C29.9743 9.56076 30.4159 9.48673 30.8121 9.32307C30.5623 10.1634 29.6418 10.4037 29.6418 10.4037L28.3022 9.57202C28.2252 9.39537 28.1559 9.18712 28.094 8.95679C28.5053 9.26549 28.995 9.46941 29.5067 9.51704Z" fill="#330F1D"/>
<path d="M30.2132 9.53301C30.2132 9.53301 29.9409 8.36575 28.9174 8.81386C27.8939 9.26241 27.9584 10.8994 28.4485 11.4891C28.9386 12.0788 29.8106 13.2474 30.0366 13.1599C30.263 13.0724 30.5094 12.7689 30.5094 12.7689L30.2132 9.53301Z" fill="#EF9E78"/>
<g opacity="0.69">
<path opacity="0.43" d="M38.8625 12.4808C39.8484 12.4808 40.6476 11.6837 40.6476 10.7005C40.6476 9.71725 39.8484 8.92017 38.8625 8.92017C37.8766 8.92017 37.0774 9.71725 37.0774 10.7005C37.0774 11.6837 37.8766 12.4808 38.8625 12.4808Z" fill="white"/>
<path opacity="0.43" d="M38.5529 7.83301L41.5355 12.1968L41.0511 12.5263L38.0688 8.16249L38.5529 7.83301Z" fill="white"/>
<path opacity="0.43" d="M37.7603 8.40063L40.7429 12.7644L40.3948 13.0008L37.4126 8.63703L37.7603 8.40063Z" fill="white"/>
</g>
<g opacity="0.69">
<path opacity="0.43" d="M34.4108 12.1578C35.3967 12.1578 36.1959 11.3607 36.1959 10.3775C36.1959 9.39425 35.3967 8.59717 34.4108 8.59717C33.4249 8.59717 32.6257 9.39425 32.6257 10.3775C32.6257 11.3607 33.4249 12.1578 34.4108 12.1578Z" fill="white"/>
<path opacity="0.43" d="M34.1012 7.51001L37.0839 11.8738L36.5994 12.2028L33.6172 7.83906L34.1012 7.51001Z" fill="white"/>
<path opacity="0.43" d="M33.3086 8.07715L36.2913 12.4409L35.9432 12.6778L32.9609 8.31398L33.3086 8.07715Z" fill="white"/>
</g>
<path d="M38.8714 12.5105C39.8683 12.5105 40.6764 11.7047 40.6764 10.7107C40.6764 9.71669 39.8683 8.91089 38.8714 8.91089C37.8745 8.91089 37.0664 9.71669 37.0664 10.7107C37.0664 11.7047 37.8745 12.5105 38.8714 12.5105Z" stroke="#42210B" stroke-miterlimit="10"/>
<path d="M36.1887 10.9514L37.0195 11.0117L37.0797 10.183L36.2488 10.1227L36.1887 10.9514Z" fill="#42210B"/>
<path d="M32.6779 9.5968L31.8471 9.53662L31.8081 10.0692C31.8081 10.0692 32.3294 10.2856 32.4814 10.6537L32.6779 9.5968Z" fill="#42210B"/>
<path d="M40.6299 10.1743L41.2828 10.2215L41.2438 10.754C41.2438 10.754 40.8113 10.9013 40.6455 11.2459L40.6299 10.1743Z" fill="#42210B"/>
<path d="M31.8471 9.53672L30.4517 9.03882L30.5417 9.4419L31.8086 10.0693L31.8471 9.53672Z" fill="#8C6239"/>
<path d="M34.376 12.1248C35.3729 12.1248 36.1811 11.319 36.1811 10.325C36.1811 9.33095 35.3729 8.52515 34.376 8.52515C33.3792 8.52515 32.571 9.33095 32.571 10.325C32.571 11.319 33.3792 12.1248 34.376 12.1248Z" stroke="#42210B" stroke-miterlimit="10"/>
<path d="M33.1941 10.165C33.1941 10.165 34.154 10.8972 35.0571 10.6716C35.9603 10.4465 35.791 10.5027 35.791 10.5027L35.678 10.8967C35.678 10.8967 34.9441 11.2344 34.4925 11.1219C34.041 11.0093 33.1941 10.165 33.1941 10.165Z" fill="#2B203E"/>
<path d="M37.4861 10.6152C37.4861 10.6152 38.2806 11.2209 39.0283 11.0348C39.776 10.8482 39.6357 10.8949 39.6357 10.8949L39.5422 11.2209C39.5422 11.2209 38.9348 11.5006 38.5607 11.4075C38.187 11.314 37.4861 10.6152 37.4861 10.6152Z" fill="#2B203E"/>
<path d="M33.8612 16.2684L33.6594 15.9974C33.6806 15.9818 34.1824 15.6129 34.8631 15.3817C35.79 15.0669 36.5979 15.1652 37.1997 15.6653L36.9828 15.9246C35.7471 14.8981 33.8798 16.255 33.8612 16.2684Z" fill="#F07A6E"/>
<path d="M37.7117 42.9898C37.7117 42.9898 40.5913 44.2848 40.7606 44.8477C40.9299 45.4105 41.0429 46.9873 41.2689 47.2688C41.4949 47.5502 43.0189 48.9015 43.0189 49.2396C43.0189 49.5773 42.6201 50.7337 42.6201 50.7337C42.6201 50.7337 41.6074 50.7034 41.6074 50.9848C41.6074 51.2663 41.8897 51.717 42.5106 51.6607C43.1314 51.6044 43.6397 51.0979 43.6397 51.0979C43.6397 51.0979 44.1965 51.0459 44.7369 50.6497C45.2772 50.2536 45.753 49.214 45.753 49.214C45.753 49.214 45.3257 45.8106 44.652 44.7381C43.9783 43.6661 42.1079 41.9819 41.0952 41.7823C40.0826 41.5827 38.4451 40.8506 38.4451 40.8506L37.7117 42.9898Z" fill="#EF9E78"/>
<path d="M21.4368 21.031C21.4368 21.031 16.3704 21.399 21.3251 38.09C22.1149 40.7497 38.5184 45.2286 38.5184 45.2286C38.5184 45.2286 39.9242 42.7084 39.9636 41.1636L27.6308 36.2759L25.5222 24.5124C25.5222 24.5124 24.5736 20.5578 21.4368 21.031Z" fill="#E4E6ED"/>
</svg>
