<svg width="43" height="96" viewBox="0 0 43 96" fill="none" xmlns="http://www.w3.org/2000/svg">
<path d="M27.8647 16.8497C27.592 16.433 27.2473 16.0677 26.9694 15.6561C26.6916 15.2445 26.4704 14.766 26.491 14.267C26.5167 13.6959 26.8511 13.1917 27.0363 12.6464C27.5148 11.2521 26.8614 9.55945 25.5752 8.83917L16.5408 9.96075C16.0726 10.8817 16.0366 12.0135 16.4585 12.9602C16.6334 13.3512 16.8804 13.7319 16.9061 14.1589C16.9421 14.8484 16.3968 15.404 15.9903 15.9648C14.8842 17.4722 14.6578 19.5816 15.4193 21.2897H28.0653C28.7856 19.9263 28.7136 18.1411 27.8647 16.8497Z" fill="#FF8035"/>
<path d="M26.2033 16.8498C26.0026 16.433 25.7557 16.0678 25.5499 15.6562C25.3441 15.2446 25.1846 14.7661 25.2 14.2671C25.2155 13.696 25.4624 13.1918 25.5962 12.6464C25.9409 11.2522 25.4727 9.55951 24.5312 8.83923L17.9561 9.96081C17.6165 10.8817 17.5908 12.0136 17.8944 12.9603C18.0178 13.3513 18.203 13.732 18.2185 14.159C18.2442 14.8484 17.8481 15.4041 17.5496 15.9649C16.7471 17.4723 16.5824 19.5817 17.1329 21.2898H26.3371C26.8721 19.9264 26.8207 18.1411 26.2033 16.8498Z" fill="#E94E21"/>
<path d="M14.2046 9.42556L12.4297 12.8417L11.2926 15.0334L7.66553 13.1504L9.36333 11.0153L13.1294 6.29749L14.2046 9.42556Z" fill="#FFA07F"/>
<path d="M12.4297 12.8418L11.2926 15.0335L7.66553 13.1505L9.36333 11.0154L12.4297 12.8418Z" fill="#FF7D6F"/>
<path d="M17.5747 18.2851L14.5444 26.3265L13.7572 28.4204C13.7572 28.4204 13.4743 28.4925 13.0164 28.6005C11.1591 29.0481 6.39495 30.1594 5.71068 29.933C5.36084 29.8147 4.46048 28.9092 3.51898 27.731C2.16588 26.0332 0.730469 23.7746 0.730469 22.4884C0.735614 21.0016 3.80194 16.6181 5.96793 13.7165C6.15829 13.4644 6.33321 13.2277 6.50813 13.0013C6.62647 12.847 6.73451 12.7029 6.84255 12.564C7.0432 12.3016 7.22842 12.0598 7.38791 11.854C7.80464 11.3138 8.06703 10.9897 8.06703 10.9897L12.2601 14.4779L11.9617 15.1004L11.5244 16.0162L11.3289 16.4278L10.8916 17.3487L9.27092 20.7392L17.5747 18.2851Z" fill="#FFB15F"/>
<path d="M11.957 15.0952L11.5197 16.011L6.83789 12.5588C7.03854 12.2964 7.22376 12.0546 7.38325 11.8488L11.957 15.0952Z" fill="#FFE6E2"/>
<path d="M11.324 16.4174L10.8867 17.3383L5.96826 13.7112C6.15862 13.4591 6.33354 13.2225 6.50847 12.9961L11.324 16.4174Z" fill="#FFE6E2"/>
<path d="M35.5924 12.3119L32.1042 14.7557L30.9157 12.7801L28.9658 9.54915L30.0411 6.42108L33.6785 10.2797L35.5924 12.3119Z" fill="#FFA07F"/>
<path d="M35.5927 12.3119L32.1045 14.7557L30.916 12.7801L33.6788 10.2797L35.5927 12.3119Z" fill="#FF7D6F"/>
<path d="M32.2788 27.4481C32.2788 27.4481 35.1239 31.7183 36.2198 31.744C37.3208 31.7749 40.6855 29.5935 40.6855 29.5935L41.1074 23.965L32.2788 27.4481Z" fill="#254F79"/>
<path d="M42.6095 22.1695C42.6146 24.3509 38.4833 29.3311 37.6293 29.6192C36.7752 29.9022 29.2586 28.2249 29.2586 28.2249L26.2231 18.7687L34.8716 21.1353L32.7622 17.2407L32.2838 16.3506L32.0677 15.9596L31.5892 15.0747L31.0953 14.1589L35.2884 10.6707C35.2884 10.6707 35.6382 11.108 36.1836 11.818C36.3482 12.029 36.5283 12.2708 36.7289 12.528C36.8318 12.6669 36.945 12.8161 37.0582 12.9653C37.2331 13.1917 37.4132 13.4335 37.5933 13.6805C39.7232 16.577 42.6043 20.7289 42.6095 22.1695Z" fill="#FFB15F"/>
<path d="M36.7085 12.5229L32.0576 15.9545L31.5791 15.0696L36.1683 11.8129C36.333 12.0239 36.513 12.2657 36.7085 12.5229Z" fill="#FFE6E2"/>
<path d="M37.5775 13.6805L32.7568 17.2356L32.2783 16.3455L37.0425 12.9602C37.2122 13.1866 37.3923 13.4284 37.5775 13.6805Z" fill="#FFE6E2"/>
<path d="M31.3217 47.5541C31.3114 47.585 31.3011 47.6107 31.2857 47.6416C30.8381 48.6963 29.8297 50.0442 29.8297 50.0442C27.5505 50.6822 11.6169 50.4609 11.6169 50.4609C11.6169 50.4609 10.2432 49.1953 10.0272 48.4905C9.85223 47.5026 11.6221 36.7345 13.0163 28.6005C13.1295 27.9471 13.2375 27.3091 13.3456 26.6917C14.0607 22.5295 14.6061 19.4478 14.6061 19.4478L17.5747 18.285L26.218 18.7635L28.4766 19.3757C28.4766 19.3809 31.7487 46.484 31.3217 47.5541Z" fill="#FFB15F"/>
<path d="M15.6606 18.851C15.6606 18.851 16.0722 22.4576 17.626 22.8537C19.1797 23.2447 21.7624 21.2897 21.7624 21.2897C21.7624 21.2897 23.7175 23.6254 25.4101 23.3425C27.1028 23.0595 27.9671 19.242 27.9671 19.242C27.9671 19.242 20.5791 16.9989 15.6606 18.851Z" fill="#FFE6E2"/>
<path d="M19.3429 59.5673C19.2863 62.505 19.2194 65.0363 19.168 65.3398C19.168 65.3398 20.4079 68.9926 20.7783 70.9168C21.051 72.3214 19.6567 89.7367 19.6567 89.7367H16.1016C16.1016 89.7367 14.8772 68.2003 14.409 66.8472C14.1929 66.2247 13.6681 63.0761 13.2051 59.4747C15.2321 59.6445 17.2901 59.665 19.3429 59.5673Z" fill="#FFA07F"/>
<path d="M19.1625 65.3398C19.1625 65.3398 20.4024 68.9927 20.7729 70.9168C21.0455 72.3214 19.6513 89.7367 19.6513 89.7367H18.859L19.9188 71.9201L18.1284 64.9437L18.1696 59.6136C18.5606 59.6033 18.9516 59.5879 19.3426 59.5724C19.2809 62.505 19.2191 65.0363 19.1625 65.3398Z" fill="#FF7D6F"/>
<path d="M28.2899 64.4343C28.2899 64.4343 31.0785 69.8056 31.2431 71.9715C31.3306 73.0983 32.1486 88.0132 32.1486 88.0132H28.6604C28.6604 88.0132 25.1413 69.713 24.2667 67.8248C23.8757 66.9759 23.0576 63.2202 22.2808 59.3461C24.3233 59.1454 26.3452 58.8367 28.3363 58.4663C28.3157 61.7179 28.2899 64.4343 28.2899 64.4343Z" fill="#FFA07F"/>
<path d="M28.2896 64.4344C28.2896 64.4344 31.0782 69.8056 31.2428 71.9716C31.3303 73.0983 32.1483 88.0132 32.1483 88.0132H31.5772C31.3611 84.2369 30.5277 71.9664 30.2756 71.7195C29.972 71.4159 26.8594 63.8684 26.8594 63.8684C26.8594 63.8684 26.9674 61.6201 27.0652 58.6979C27.4871 58.6258 27.9141 58.5487 28.3308 58.4715C28.3154 61.7179 28.2896 64.4344 28.2896 64.4344Z" fill="#FF7D6F"/>
<path d="M10.3921 93.6004C10.4178 93.4152 10.5001 93.1939 10.7214 93.0808C11.3748 92.7618 13.7723 91.7585 14.4205 91.1977C14.9247 90.7604 15.3569 89.8241 15.5267 89.4279L20.013 89.5977C20.2856 90.8273 20.4811 93.2042 20.5172 93.6981L10.3921 93.6004Z" fill="#424242"/>
<path d="M10.377 94.6808L20.502 94.7837L20.5175 93.7033L10.3924 93.6004L10.377 94.6808Z" fill="#FDE4D9"/>
<path d="M15.27 91.5115C15.2752 91.5218 15.2855 91.5373 15.2906 91.5476C15.3369 91.6402 15.3678 91.7894 15.2494 91.846C15.1877 91.8768 15.1208 91.8665 15.0539 91.8511C14.8327 91.8048 14.6269 91.6968 14.4314 91.5784C14.2205 91.4498 13.9992 91.3109 13.8655 91.0897C13.7266 90.8633 13.9272 90.6524 14.1639 90.7089C14.5806 90.8016 15.0488 91.1154 15.27 91.5115Z" fill="#FDE4D9"/>
<path d="M14.499 92.0827C14.5042 92.0929 14.5145 92.1084 14.5196 92.1187C14.5659 92.2113 14.5968 92.3605 14.4785 92.4171C14.4167 92.4479 14.3498 92.4376 14.2829 92.4222C14.0617 92.3759 13.8559 92.2679 13.6604 92.1495C13.4495 92.0209 13.2283 91.882 13.0945 91.6608C12.9556 91.4344 13.1562 91.2235 13.3929 91.2801C13.8148 91.3727 14.2829 91.6814 14.499 92.0827Z" fill="#FDE4D9"/>
<path d="M13.5571 92.4531C13.5623 92.4634 13.5726 92.4788 13.5777 92.4891C13.624 92.5817 13.6549 92.7309 13.5366 92.7875C13.4748 92.8184 13.4079 92.8081 13.3411 92.7926C13.1198 92.7463 12.914 92.6383 12.7185 92.52C12.5076 92.3913 12.2864 92.2524 12.1526 92.0312C12.0137 91.8048 12.2143 91.5939 12.451 91.6505C12.8677 91.7431 13.3359 92.0569 13.5571 92.4531Z" fill="#FDE4D9"/>
<path d="M27.4787 93.6005C27.4118 94.2796 30.3649 95.8076 30.9 95.6069C31.435 95.4063 33.5856 93.9966 33.7862 93.0911C33.848 92.803 33.7399 92.1959 33.5599 91.4911C33.1689 89.9682 32.4434 88.0131 32.4434 88.0131L28.307 87.972C28.307 87.972 27.8491 90.9766 27.6176 92.5972C27.5455 93.0757 27.4941 93.4461 27.4787 93.6005Z" fill="#424242"/>
<path d="M27.4787 93.6005C27.4118 94.2796 30.3649 95.8076 30.9 95.607C31.435 95.4063 33.5856 93.9966 33.7862 93.0911C33.848 92.803 33.7399 92.1959 33.5599 91.4911C32.783 92.3657 31.5174 93.6056 30.6427 93.6005C29.9122 93.5953 28.6362 93.0757 27.6176 92.5972C27.5455 93.0757 27.4941 93.4461 27.4787 93.6005Z" fill="#FDE4D9"/>
<path d="M31.1358 89.5258C30.966 89.675 30.7602 89.7727 30.5441 89.8551C30.3126 89.9425 30.0708 90.0403 29.8136 90.0146C29.546 89.9888 29.4997 89.7007 29.6901 89.5464C30.0142 89.2737 30.5493 89.0885 30.9969 89.1502C31.0123 89.1502 31.0226 89.1554 31.038 89.1554C31.1409 89.1759 31.2747 89.2377 31.249 89.3663C31.2335 89.4332 31.1821 89.4846 31.1358 89.5258Z" fill="#FDE4D9"/>
<path d="M29.8033 90.9715C29.5358 90.9458 29.4895 90.6577 29.6798 90.5033C30.004 90.2307 30.539 90.0454 30.9866 90.1072C31.0021 90.1072 31.0123 90.1123 31.0278 90.1123C31.1307 90.1329 31.2644 90.1947 31.2387 90.3233C31.2233 90.3902 31.177 90.4365 31.1255 90.4828C30.9557 90.632 30.75 90.7297 30.5339 90.812C30.3075 90.9046 30.0605 90.9972 29.8033 90.9715Z" fill="#FDE4D9"/>
<path d="M29.9166 91.5323C30.2407 91.2596 30.7758 91.0744 31.2234 91.1361C31.2388 91.1361 31.2491 91.1413 31.2646 91.1413C31.3674 91.1618 31.5012 91.2236 31.4755 91.3522C31.4601 91.4191 31.4137 91.4654 31.3623 91.5117C31.1925 91.6609 30.9867 91.7586 30.7706 91.841C30.5391 91.9284 30.2973 92.0262 30.0401 92.0005C29.7777 91.9799 29.7262 91.6918 29.9166 91.5323Z" fill="#FDE4D9"/>
<path d="M26.0888 18.8664L23.537 17.3178L23.146 17.0812L22.9299 17.0915L19.9973 17.1995L19.7607 17.2098L19.4108 17.3899L17.605 18.3211C19.8173 20.9861 23.5987 20.9398 26.0888 18.8664Z" fill="#FFA07F"/>
<path d="M22.3077 16.1654C21.5154 16.3095 20.6871 16.1552 19.9668 15.795C20.0131 14.8587 20.008 13.7319 20.008 13.7319L23.1618 13.7731C23.1618 13.7731 23.1052 14.7815 23.1875 15.7127C22.9457 15.9597 22.5907 16.1089 22.3077 16.1654Z" fill="#FF7D6F"/>
<path d="M22.8833 18.1102C23.2177 17.8684 23.4029 17.5083 23.6293 17.1893C23.6242 17.1841 23.619 17.179 23.6139 17.179C23.3618 16.9732 23.2434 16.361 23.1868 15.7127C22.945 15.9648 22.5952 16.1089 22.3071 16.1706C21.5148 16.3147 20.6864 16.1603 19.9662 15.8002C19.9404 16.2992 19.9044 16.7468 19.8427 16.932C19.8118 17.0349 19.6369 17.1841 19.3745 17.3591C19.9302 17.925 20.5321 18.424 21.2627 18.599C21.8132 18.743 22.3688 18.4755 22.8833 18.1102Z" fill="#FFA07F"/>
<path d="M23.6246 17.1893C23.6195 17.1841 23.6143 17.179 23.6092 17.179C23.5989 17.1687 23.5835 17.1584 23.5732 17.143C23.568 17.1378 23.5629 17.1327 23.5577 17.1276C23.5474 17.1121 23.532 17.0967 23.5217 17.0812C23.5166 17.071 23.5063 17.0607 23.5011 17.0504C23.496 17.0401 23.4857 17.0298 23.4806 17.0195C23.4754 17.0092 23.4703 16.9989 23.4651 16.9886C23.4394 16.9423 23.4137 16.8857 23.3931 16.8291C23.3828 16.8086 23.3777 16.788 23.3725 16.7674C23.3519 16.7005 23.3314 16.6336 23.3108 16.5565C23.3056 16.5359 23.3005 16.5153 23.2953 16.4896C23.2902 16.4587 23.2799 16.4278 23.2748 16.397C23.2696 16.3713 23.2645 16.3455 23.2593 16.3198C23.2593 16.3095 23.2542 16.3044 23.2542 16.2941C23.249 16.2735 23.249 16.2581 23.2439 16.2375C23.2336 16.1603 23.2233 16.0831 23.213 16.006C23.213 16.0008 23.213 16.0008 23.213 15.9957C23.2079 15.9648 23.2079 15.9339 23.2027 15.9082C23.2027 15.8928 23.1976 15.8722 23.1976 15.8568C23.1925 15.8259 23.1924 15.8002 23.1873 15.7693C23.1873 15.7642 23.1873 15.7642 23.1873 15.759C23.1873 15.7436 23.1822 15.723 23.1822 15.7076C23.1822 15.6921 23.1822 15.6767 23.177 15.6613C23.1719 15.5789 23.1667 15.4966 23.1616 15.4143C23.1616 15.3937 23.1616 15.3732 23.1564 15.3474C23.1461 15.1725 23.141 15.0027 23.141 14.8432C23.141 14.8124 23.141 14.7815 23.141 14.7558C23.1359 14.2001 23.1564 13.768 23.1564 13.768L22.7037 13.7628C22.6831 14.2259 22.6574 15.2034 22.7243 16.0214C22.7603 16.4536 22.822 16.8446 22.9249 17.0864C22.9712 17.1996 23.0278 17.2819 23.0896 17.3231C23.1513 17.3642 23.2593 17.4311 23.3982 17.5134C23.9539 17.8478 25.0189 18.4704 25.9192 18.9951C26.017 18.918 26.1147 18.8408 26.2125 18.7533C25.2504 18.2183 24.0053 17.4928 23.6246 17.1893Z" fill="#FFBF90"/>
<path d="M19.941 17.293C19.9616 17.2673 19.9771 17.2364 19.9976 17.2055C20.1263 16.9534 20.1931 16.4647 20.224 15.9193C20.2703 15.1116 20.2394 14.1855 20.2189 13.7431L20.0079 13.7379C20.0079 13.7379 20.0079 13.8768 20.0079 14.0981C20.0079 14.1238 20.0079 14.1495 20.0079 14.1752C20.0079 14.3193 20.0028 14.4891 20.0028 14.6743C20.0028 14.6949 20.0028 14.7154 20.0028 14.736C20.0028 14.7669 20.0028 14.7978 20.0028 14.8235C20.0028 14.8543 20.0028 14.8904 20.0028 14.9212C20.0028 14.9367 20.0028 14.947 20.0028 14.9624C20.0028 15.0087 20.0028 15.055 19.9976 15.1013C19.9976 15.127 19.9976 15.1476 19.9976 15.1733C19.9976 15.1991 19.9976 15.2248 19.9976 15.2505V15.2556C19.9976 15.2762 19.9976 15.2968 19.9976 15.3174C19.9976 15.3225 19.9976 15.3225 19.9976 15.3277C19.9976 15.3791 19.9925 15.4357 19.9925 15.4872C19.9873 15.5695 19.9873 15.6467 19.9822 15.7238C19.9822 15.7496 19.9771 15.7753 19.9771 15.801C19.9771 15.8061 19.9771 15.8164 19.9771 15.8216C19.9771 15.8473 19.9771 15.873 19.9719 15.8936C19.9719 15.9399 19.9668 15.9862 19.9668 16.0325C19.9668 16.0788 19.9616 16.12 19.9565 16.1663C19.941 16.3721 19.9256 16.5522 19.905 16.7014C19.905 16.7116 19.905 16.7168 19.8999 16.7271C19.8947 16.7528 19.8947 16.7734 19.8896 16.794C19.8896 16.8042 19.8844 16.8145 19.8844 16.83C19.8844 16.8403 19.8793 16.8506 19.8793 16.8608C19.8793 16.8711 19.8742 16.8814 19.8742 16.8917C19.869 16.9123 19.8639 16.9277 19.8587 16.9432C19.586 17.1798 18.5571 17.7663 17.5898 18.3014C17.667 18.3992 17.7493 18.4918 17.8317 18.5792C18.5314 18.2294 19.2053 17.8641 19.6118 17.5914C19.761 17.4628 19.8793 17.365 19.941 17.293Z" fill="#FFBF90"/>
<path d="M18.1103 12.1524C17.4672 12.1421 16.9682 11.6997 16.6852 11.3138C16.6235 11.2263 16.572 11.144 16.5309 11.072C16.3148 10.6707 16.1501 9.21985 16.5875 8.84942C16.8961 8.58704 17.1637 8.91116 17.2923 9.12725C17.3489 9.21985 17.3798 9.29188 17.3798 9.29188L18.1103 12.1524Z" fill="#FFBF90"/>
<path d="M18.1113 12.1524C17.4681 12.1422 16.9691 11.6997 16.6861 11.3138C16.6604 11.2727 16.6398 11.2367 16.6192 11.2006C16.4032 10.7993 16.2385 9.3485 16.6758 8.97807C16.9279 8.76713 17.1492 8.93691 17.2932 9.12727C17.3498 9.21988 17.3807 9.29191 17.3807 9.29191L18.1113 12.1524Z" fill="#FFA07F"/>
<path d="M16.5372 10.0122C16.5218 10.1305 16.5475 10.2488 16.5887 10.362C16.7533 10.8405 17.1701 11.18 17.5611 11.4939C17.4324 11.2675 17.3707 11.0051 17.3707 10.7427C17.3707 10.6501 17.381 10.5627 17.3707 10.47C17.345 10.1048 16.6196 9.31246 16.5372 10.0122Z" fill="#FF7D6F"/>
<path d="M17.7487 11.6173C17.7487 11.6173 17.7435 11.6121 17.7281 11.6019C17.7127 11.5916 17.6921 11.5813 17.6664 11.5607C17.6149 11.5247 17.5429 11.4629 17.4709 11.3652C17.3988 11.2726 17.3319 11.144 17.2908 10.9896C17.2548 10.8353 17.2445 10.6552 17.2959 10.4751C17.3011 10.4546 17.3114 10.4288 17.3165 10.4082L17.3217 10.3928C17.3217 10.3877 17.3217 10.3928 17.3217 10.3928L17.3165 10.3774L17.3011 10.3517C17.2908 10.3362 17.2805 10.3156 17.2702 10.3002C17.229 10.2333 17.1879 10.1664 17.1416 10.1099C17.1004 10.0533 17.0541 9.99666 17.0078 9.94521C16.9615 9.89891 16.9204 9.8526 16.8792 9.81659C16.838 9.78058 16.7969 9.76515 16.7557 9.76C16.7146 9.76 16.6785 9.77029 16.658 9.79087C16.6322 9.81145 16.622 9.83203 16.6168 9.84746C16.6117 9.8629 16.6117 9.87318 16.6117 9.87318C16.6117 9.87318 16.6065 9.8629 16.6117 9.84746C16.6117 9.83203 16.622 9.8063 16.6425 9.78058C16.6683 9.75485 16.7043 9.72913 16.7557 9.72399C16.8072 9.71884 16.8638 9.73428 16.9152 9.77029C16.9667 9.80116 17.0181 9.84232 17.0696 9.88862C17.121 9.93493 17.1725 9.98637 17.2239 10.043C17.2753 10.0996 17.3268 10.1664 17.3731 10.2385C17.3834 10.2539 17.3937 10.2745 17.4091 10.2951L17.4245 10.3208L17.4451 10.3619L17.4606 10.3877C17.4606 10.398 17.4554 10.4083 17.4503 10.4185L17.4348 10.4597C17.4297 10.4803 17.4194 10.4957 17.4143 10.5163C17.368 10.6706 17.368 10.8301 17.3937 10.9742C17.4194 11.1131 17.4657 11.2366 17.5223 11.3343C17.5789 11.4321 17.6355 11.5041 17.6766 11.5453C17.6972 11.571 17.7178 11.5864 17.7281 11.5967C17.7435 11.6121 17.7487 11.6173 17.7487 11.6173Z" fill="#CF4A57"/>
<path d="M25.4653 11.5659C26.0981 11.4527 26.52 10.9331 26.7361 10.5164C26.7824 10.4238 26.8236 10.3312 26.8493 10.254C26.9985 9.82183 26.9316 8.36584 26.4377 8.06744C26.093 7.8565 25.8821 8.21664 25.7843 8.4533C25.7432 8.55105 25.7226 8.62823 25.7226 8.62823L25.4653 11.5659Z" fill="#FFBF90"/>
<path d="M25.4663 11.5659C26.0991 11.4528 26.521 10.9331 26.7371 10.5164C26.7577 10.4752 26.7731 10.4341 26.7834 10.3929C26.9326 9.96075 26.8657 8.50476 26.3718 8.20636C26.0888 8.03658 25.8985 8.24237 25.7853 8.44817C25.7441 8.54592 25.7236 8.62309 25.7236 8.62309L25.4663 11.5659Z" fill="#FFA07F"/>
<path d="M26.6802 9.20455C26.7111 9.31774 26.7059 9.44121 26.6853 9.55955C26.5979 10.0586 26.2429 10.4599 25.9033 10.8303C25.9959 10.5834 26.0165 10.3158 25.9702 10.0586C25.9548 9.97113 25.9342 9.87853 25.9239 9.79107C25.8982 9.42064 26.4898 8.52543 26.6802 9.20455Z" fill="#FF7D6F"/>
<path d="M25.7334 10.9794C25.7334 10.9794 25.7385 10.9743 25.754 10.964C25.7643 10.9537 25.7848 10.9383 25.8106 10.9125C25.8569 10.8662 25.9186 10.7942 25.9752 10.6913C26.0318 10.5884 26.0781 10.4495 26.0935 10.2951C26.1038 10.1357 26.0884 9.95558 26.0061 9.7858C25.9958 9.76522 25.9855 9.74465 25.9752 9.72407L25.9649 9.70863C25.9649 9.70348 25.9649 9.70863 25.9649 9.70863C25.9649 9.70863 25.9649 9.70863 25.9649 9.70349L25.9701 9.68805L25.9803 9.65718C25.9855 9.6366 25.9958 9.62117 26.0009 9.60059C26.0318 9.52856 26.0627 9.45653 26.0935 9.38965C26.1296 9.32277 26.1604 9.26617 26.1964 9.20958C26.2324 9.15299 26.2685 9.10154 26.2993 9.06553C26.3353 9.02437 26.3765 8.99864 26.4125 8.98835C26.4537 8.97806 26.4897 8.98835 26.5154 9.00379C26.5411 9.01922 26.5566 9.03465 26.5669 9.05009C26.572 9.06552 26.5772 9.07581 26.5772 9.07581C26.5772 9.07581 26.5771 9.06552 26.572 9.05009C26.5669 9.03465 26.5566 9.00893 26.5308 8.98835C26.5051 8.96777 26.464 8.94719 26.4125 8.95234C26.3611 8.95748 26.3045 8.98321 26.2582 9.02437C26.2119 9.06552 26.1707 9.11183 26.1244 9.16328C26.0832 9.21473 26.0369 9.27646 25.9958 9.34335C25.9546 9.41023 25.9186 9.48226 25.8826 9.55943C25.8723 9.58001 25.8672 9.60059 25.8569 9.61602L25.8466 9.64689L25.8311 9.68805L25.8209 9.71892C25.826 9.72921 25.8311 9.7395 25.8363 9.74464L25.8569 9.7858C25.8672 9.80124 25.8775 9.82182 25.8826 9.83725C25.9495 9.98645 25.9752 10.1408 25.9803 10.2849C25.9803 10.4289 25.9495 10.5575 25.9135 10.6604C25.8774 10.7633 25.8311 10.8456 25.7951 10.8971C25.7797 10.9228 25.7591 10.9434 25.7488 10.9537C25.7385 10.9743 25.7334 10.9794 25.7334 10.9794Z" fill="#CF4A57"/>
<path d="M25.7404 8.36069C25.7404 8.36069 25.8484 11.1904 25.1848 12.2965C24.6291 13.2226 23.8522 14.6889 22.4683 15.2754C22.1956 15.3886 21.8972 15.4143 21.6091 15.3423C20.1479 14.9821 19.1498 13.6547 18.4553 12.8316C17.6218 11.8438 17.2823 9.03467 17.2823 9.03467C17.2617 8.84945 17.2463 8.66938 17.236 8.48931V8.48417C16.8964 3.13867 21.0689 3.10265 21.0689 3.10265C21.0689 3.10265 25.159 2.81454 25.7147 8.08287C25.725 8.17548 25.7301 8.26808 25.7404 8.36069Z" fill="#FFBF90"/>
<path d="M25.7147 8.08287C25.725 8.53562 25.761 10.9434 25.159 11.9415C24.6034 12.8676 23.8265 14.3339 22.4426 14.9204C22.1699 15.0336 21.8715 15.0593 21.5834 14.9873C20.1222 14.6271 19.1241 13.2998 18.4296 12.4766C17.5961 11.4888 17.2565 8.67967 17.2565 8.67967C17.2514 8.61279 17.2411 8.55105 17.236 8.48931V8.48417C16.8964 3.13867 21.0689 3.10265 21.0689 3.10265C21.0689 3.10265 25.1539 2.81454 25.7147 8.08287Z" fill="#FFA07F"/>
<path d="M18.3667 7.72278C18.449 7.89256 18.6805 8.01089 18.8452 8.07777C18.9172 7.98002 19.015 7.91828 19.123 7.90799C19.3957 7.88741 19.6426 8.22697 19.6786 8.66943C19.7095 9.10674 19.514 9.48232 19.2413 9.5029C18.9686 9.52348 18.7217 9.18392 18.6857 8.74146C18.6754 8.60769 18.6857 8.47393 18.7165 8.36074C18.4953 8.19096 18.3667 7.72278 18.3667 7.72278Z" fill="#161818"/>
<path d="M19.2157 8.78779C19.2157 8.78779 18.9173 8.92156 18.5983 8.85467C18.2793 8.78779 18.0581 8.55113 18.0581 8.55113C18.0581 8.55113 18.3565 8.41736 18.6755 8.48424C18.9945 8.54598 19.2157 8.78779 19.2157 8.78779Z" fill="white"/>
<path d="M24.2588 7.34717C24.2074 7.52724 23.9913 7.68158 23.8421 7.77419C23.7546 7.68673 23.6466 7.64042 23.5437 7.65071C23.271 7.67644 23.0807 8.05201 23.1167 8.48932C23.1527 8.92664 23.4099 9.2662 23.6826 9.24047C23.9553 9.21475 24.1457 8.83917 24.1096 8.40186C24.0993 8.2681 24.0633 8.13947 24.017 8.03143C24.2074 7.83078 24.2588 7.34717 24.2588 7.34717Z" fill="#161818"/>
<path d="M23.5952 8.53042C23.5952 8.53042 23.909 8.61274 24.2177 8.49955C24.5213 8.38636 24.7065 8.11368 24.7065 8.11368C24.7065 8.11368 24.3927 8.03137 24.084 8.14455C23.7753 8.26289 23.5952 8.53042 23.5952 8.53042Z" fill="white"/>
<path d="M21.5056 10.0122C21.7217 10.0019 21.9326 10.1203 22.0407 10.3055C22.0561 10.3261 22.0664 10.3569 22.0612 10.3826C22.0509 10.4238 22.0098 10.4444 21.9738 10.4547C21.7114 10.5524 21.4284 10.5987 21.1454 10.5782C20.6361 10.5524 21.2586 10.0277 21.5056 10.0122Z" fill="#FF7D6F"/>
<path d="M21.2746 10.4443C21.2746 10.4443 21.2746 10.4135 21.2746 10.362C21.2746 10.3363 21.2746 10.3003 21.2746 10.2643C21.2746 10.2282 21.2746 10.1819 21.2695 10.1356C21.2695 10.0893 21.2643 10.0379 21.2643 9.98129C21.2643 9.9247 21.2592 9.8681 21.254 9.81151C21.2437 9.69318 21.2334 9.55941 21.2232 9.4205C21.2077 9.28159 21.1923 9.15297 21.182 9.03464C21.1717 8.9729 21.1666 8.91631 21.1563 8.86486C21.1511 8.81341 21.1408 8.76196 21.1305 8.71566C21.1254 8.66935 21.1151 8.62819 21.11 8.59218C21.1048 8.55616 21.0997 8.5253 21.0945 8.49443C21.0842 8.44298 21.0791 8.41211 21.0791 8.41211C21.0791 8.41211 21.0997 8.43269 21.1305 8.47899C21.146 8.49957 21.1666 8.5253 21.1871 8.56131C21.2077 8.59218 21.2334 8.63334 21.254 8.6745C21.2797 8.71565 21.3003 8.7671 21.3261 8.81855C21.3518 8.87 21.3724 8.92659 21.3929 8.98833C21.4341 9.11181 21.465 9.25072 21.4804 9.39992C21.4958 9.54912 21.4907 9.69318 21.4752 9.8218C21.465 9.88354 21.4547 9.94527 21.4444 10.0019C21.4341 10.0585 21.4187 10.1099 21.4032 10.1562C21.3878 10.2025 21.3724 10.2437 21.3569 10.2797C21.3415 10.3157 21.3312 10.3466 21.3158 10.3723C21.29 10.4186 21.2746 10.4443 21.2746 10.4443Z" fill="#FC5B68"/>
<path d="M23.5278 11.3292C23.5278 11.3292 21.3978 10.9999 19.9624 12.4714C19.9624 12.4714 21.228 13.6804 22.1438 13.3563C23.2602 12.9704 23.5278 11.3292 23.5278 11.3292Z" fill="#FC5B68"/>
<path d="M23.4406 11.4064C23.4406 11.4064 22.0618 11.4579 20.0811 12.4663C20.0811 12.4663 20.9454 13.4798 22.1441 13.0373C23.3429 12.5897 23.4406 11.4064 23.4406 11.4064Z" fill="white"/>
<path d="M25.498 10.8662C25.498 10.8662 25.5032 10.7994 25.5186 10.6862C25.5238 10.6553 25.5238 10.6244 25.5289 10.5936C25.5341 10.5575 25.5341 10.5215 25.5392 10.4804C25.5444 10.3981 25.5598 10.3106 25.5649 10.2077C25.5701 10.1563 25.5752 10.1048 25.5804 10.0482C25.5855 9.99162 25.5855 9.93502 25.5907 9.87843C25.6009 9.7601 25.6061 9.63662 25.6112 9.50286C25.6215 9.24047 25.6318 8.95236 25.637 8.65396C25.6421 8.35555 25.637 8.06744 25.6318 7.80505C25.6267 7.67129 25.6267 7.54781 25.6215 7.42948C25.6164 7.37289 25.6164 7.31115 25.6164 7.2597C25.6112 7.20311 25.6112 7.15166 25.6061 7.10021C25.6009 6.99731 25.5958 6.9047 25.5907 6.82753C25.5855 6.78637 25.5855 6.75036 25.5855 6.71435C25.5804 6.67833 25.5804 6.64746 25.5752 6.61659C25.5649 6.50341 25.5598 6.43652 25.5598 6.43652C25.5598 6.43652 25.5855 6.49312 25.6318 6.59601C25.6421 6.62174 25.6575 6.65261 25.6678 6.68348C25.6833 6.71435 25.6936 6.75036 25.709 6.79152C25.7347 6.86869 25.7707 6.95615 25.7964 7.05391C25.8119 7.10535 25.8273 7.1568 25.8428 7.20825C25.8582 7.26484 25.8685 7.32144 25.8839 7.37803C25.9148 7.49636 25.9354 7.62498 25.9611 7.76389C26.0022 8.03657 26.028 8.34526 26.028 8.66939C26.0228 8.98837 25.9868 9.29192 25.9354 9.56459C25.9096 9.69836 25.8839 9.82698 25.8479 9.94017C25.8325 9.99676 25.817 10.0534 25.8016 10.1099C25.7862 10.1614 25.7656 10.2128 25.7501 10.2643C25.7193 10.362 25.6833 10.4444 25.6524 10.5215C25.637 10.5575 25.6215 10.5936 25.6112 10.6244C25.5958 10.6553 25.5855 10.681 25.5701 10.7067C25.5238 10.8096 25.498 10.8662 25.498 10.8662Z" fill="#E94E21"/>
<path d="M18.1149 12.3119C18.1149 12.3119 18.0841 12.2604 18.0326 12.1575C17.9812 12.0598 17.904 11.9106 17.8217 11.7305C17.7394 11.5453 17.6468 11.3241 17.5593 11.0668C17.4718 10.8096 17.3895 10.5266 17.3175 10.2179C17.2506 9.90923 17.2043 9.61597 17.1734 9.34329C17.1426 9.07061 17.1323 8.82366 17.1271 8.61787C17.122 8.41207 17.1271 8.24229 17.1323 8.12911C17.1374 8.01592 17.1426 7.94904 17.1426 7.94904C17.1426 7.94904 17.1631 8.01077 17.194 8.11882C17.2249 8.232 17.2712 8.39149 17.3226 8.587C17.3741 8.7825 17.4358 9.01402 17.4976 9.27126C17.5593 9.5285 17.6313 9.81147 17.6931 10.1099C17.76 10.4083 17.8165 10.6912 17.868 10.9536C17.9194 11.216 17.9606 11.4527 18.0018 11.6533C18.0378 11.854 18.0635 12.0186 18.0841 12.1318C18.1098 12.245 18.1149 12.3119 18.1149 12.3119Z" fill="#E94E21"/>
<path d="M19.3284 11.0926C19.2718 11.283 18.7625 11.3036 18.1914 11.1389C17.6152 10.9743 17.1984 10.6862 17.2499 10.4958C17.3065 10.3055 17.8158 10.2849 18.3869 10.4495C18.9631 10.6142 19.3799 10.9023 19.3284 11.0926Z" fill="#FF7D6F"/>
<path d="M26.0066 9.7653C26.0992 9.94022 25.739 10.3055 25.2091 10.5782C24.6792 10.8509 24.175 10.928 24.0824 10.7531C23.9898 10.5782 24.3499 10.2129 24.8798 9.94022C25.4098 9.66755 25.914 9.59037 26.0066 9.7653Z" fill="#FF7D6F"/>
<path d="M21.5054 5.46497C21.706 5.76852 21.9015 6.07207 22.1022 6.37561C20.4301 5.99489 19.5298 5.72736 18.6088 4.28166C18.6551 6.42192 17.7496 8.57246 16.1445 9.97701C16.0107 9.52941 15.8872 9.07151 15.7895 8.61362C15.5425 7.44574 15.4859 6.26243 15.9901 5.19744C16.3451 4.44115 16.9625 3.81348 17.7136 3.44819C17.9194 2.61987 18.5934 1.81213 19.3446 1.40569C20.0957 0.999243 20.9755 0.870621 21.8192 0.952939C22.416 1.01468 23.0025 1.17417 23.5325 1.44684C24.6232 2.01792 25.4206 3.07262 25.8528 4.23021C25.9403 4.46173 26.0174 4.77556 26.0946 5.12541C26.3879 6.51452 26.5731 8.51073 26.5731 8.51073C26.5731 8.51073 22.9202 6.4888 21.5054 5.46497Z" fill="#E94E21"/>
<path d="M17.3735 7.32141C17.3735 7.32141 19.5086 6.44164 20.0437 7.05388C20.3575 7.41402 20.0128 7.52721 20.0128 7.52721L17.3735 7.32141Z" fill="#FF8035"/>
<path d="M25.2299 6.65254C25.2299 6.65254 22.9816 6.12262 22.5494 6.81203C22.2973 7.21333 22.6523 7.27507 22.6523 7.27507L25.2299 6.65254Z" fill="#FF8035"/>
<path d="M23.6405 4.88791C22.3646 4.59466 21.1556 4.06474 19.9928 3.47308C20.0134 3.77663 20.0649 4.08017 20.1523 4.36828C19.4423 4.12648 18.7632 3.80235 18.1253 3.41134C18.1098 4.50205 17.7857 5.58761 17.2043 6.50854C17.2095 6.16898 17.1117 5.82942 16.9265 5.54646C16.9779 5.62363 16.8545 6.00949 16.839 6.1021C16.803 6.2976 16.7619 6.48796 16.7156 6.67832C16.5509 7.33686 16.2988 7.99026 15.8667 8.52018C15.8461 8.5459 15.8204 8.57677 15.7946 8.60764C15.63 7.84106 15.5528 7.06419 15.6609 6.31818C15.7175 5.93232 15.8204 5.55674 15.9953 5.19146C16.3503 4.44546 16.9625 3.81779 17.7034 3.4525C17.7085 3.44736 17.7137 3.44736 17.7188 3.44736C17.8268 3.0049 18.0738 2.57273 18.3876 2.19716C18.6655 1.86789 18.9947 1.59006 19.3497 1.39971C20.1009 0.993262 20.9806 0.86464 21.8244 0.946958C22.4212 1.0087 23.0077 1.16819 23.5376 1.44086C24.3248 1.85245 24.9576 2.51614 25.4104 3.28787C25.5904 3.58627 25.7345 3.9001 25.858 4.22423C25.9454 4.45575 26.0226 4.76958 26.0998 5.11943C25.2714 5.16574 24.438 5.07313 23.6405 4.88791Z" fill="#FF8035"/>
<path d="M17.6983 3.45245C17.6983 3.47303 17.6931 3.48847 17.688 3.5039C17.6005 4.04926 17.3844 4.58947 16.9831 4.97533C16.9728 4.81584 16.9626 4.66149 16.9471 4.502C16.623 5.17083 16.1805 5.79336 15.6558 6.32328C15.7124 5.93742 15.8152 5.56184 15.9902 5.19656C16.3452 4.44541 16.9574 3.82288 17.6983 3.45245Z" fill="#FFA049"/>
<path d="M19.6685 1.87818C19.6994 2.09426 19.7354 2.3052 19.7714 2.51614C19.2981 2.48012 18.8248 2.37208 18.3823 2.19716C18.6601 1.86789 18.9894 1.59006 19.3444 1.39971C20.0956 0.993262 20.9753 0.86464 21.8191 0.946958C22.4159 1.0087 23.0024 1.16819 23.5323 1.44086C24.3195 1.85245 24.9523 2.51614 25.405 3.28787C23.4397 3.53996 21.3921 2.902 19.6685 1.87818Z" fill="#FFA049"/>
<path d="M16.6897 0.895482L16.8338 6.06606C16.8441 6.42105 17.1373 6.69887 17.4923 6.68858L25.8321 6.45192C26.1871 6.44163 26.4649 6.14838 26.4547 5.79338L26.3106 0.622805C26.3003 0.267811 26.0071 -0.0100129 25.6521 0.000276829L17.3123 0.236942C16.9573 0.247231 16.6794 0.540487 16.6897 0.895482Z" fill="#254F79"/>
<path d="M24.6383 1.31738C24.6434 1.58491 24.8698 1.79585 25.1322 1.78556C25.3997 1.78041 25.6107 1.55404 25.6004 1.29165C25.5901 1.02927 25.3688 0.813183 25.1065 0.823473C24.8389 0.828618 24.6331 1.04985 24.6383 1.31738Z" fill="#FDE4D9"/>
<path d="M17.6003 1.57974C17.9295 1.96045 15.0844 3.91035 15.0844 3.91035L15.3108 4.83643L16.5764 4.13158L18.6858 4.10586C18.6858 4.10586 18.8608 4.47629 19.0511 4.93932C19.0717 4.98048 19.0871 5.02679 19.1026 5.06794C19.1026 5.07309 19.1077 5.07309 19.1077 5.07823C19.1129 5.08852 19.118 5.1091 19.1231 5.11939C19.1437 5.17084 19.1694 5.22743 19.1849 5.28403C19.2723 5.51555 19.3547 5.75221 19.4113 5.96829C19.4164 5.99402 19.4267 6.02489 19.437 6.04546C19.4679 6.17923 19.4884 6.30271 19.4987 6.41075C19.509 6.52908 19.5039 6.62169 19.4679 6.69372L17.8678 7.06415C17.8678 7.06415 16.88 9.10665 16.597 9.30216C16.4838 9.37933 15.887 9.4102 15.2079 9.42049C14.9661 9.42049 14.7243 9.42049 14.4825 9.42049C14.4825 9.42049 14.4773 9.42049 14.4619 9.42049C14.3796 9.41534 14.2921 9.42049 14.2098 9.42049L13.3866 8.68992L13.1294 6.29242C13.1397 6.24097 13.1551 6.18952 13.1706 6.13293C13.2169 5.94257 13.2837 5.7162 13.3609 5.46924C13.4124 5.3149 13.4638 5.15541 13.5204 4.99077C13.7262 4.39397 13.9937 3.7663 14.3024 3.33413C14.431 3.14892 14.57 2.99457 14.714 2.90196C15.7224 2.22799 17.271 1.20416 17.6003 1.57974Z" fill="#FFA07F"/>
<path d="M19.0518 4.94965C19.0775 5.00624 19.0981 5.06798 19.1238 5.12971C19.1084 5.13486 19.0929 5.13486 19.0826 5.13486C18.8408 5.16058 18.5115 5.1966 18.1566 5.24805C17.8016 5.29949 17.4826 5.36638 17.2511 5.44355C17.1945 5.46413 17.143 5.47957 17.0967 5.50014C17.0504 5.52072 17.0093 5.53616 16.9784 5.55159C16.9115 5.58246 16.8755 5.5979 16.8755 5.5979C16.8755 5.5979 16.9012 5.56703 16.9527 5.51043C16.9784 5.48471 17.0093 5.4487 17.0504 5.41268C17.0916 5.37667 17.1379 5.34065 17.1945 5.2995C17.4106 5.13486 17.7553 4.97022 18.1463 4.91878C18.4961 4.85189 18.8151 4.89305 19.0518 4.94965Z" fill="#CF4A57"/>
<path d="M19.4065 5.97347C19.4168 5.9992 19.4219 6.02492 19.4271 6.05065C19.3602 6.05579 19.2676 6.06608 19.1596 6.07637C18.9177 6.10209 18.5885 6.13811 18.2335 6.18441C17.8785 6.23586 17.5647 6.30274 17.328 6.37992C17.2714 6.4005 17.2148 6.42108 17.1685 6.43651C17.1222 6.45709 17.081 6.47252 17.0502 6.48796C16.9833 6.51368 16.9473 6.53426 16.9473 6.53426C16.9473 6.53426 16.973 6.50339 17.0244 6.4468C17.0502 6.42108 17.081 6.38506 17.1222 6.34905C17.1634 6.31303 17.2097 6.27702 17.2662 6.23586C17.4823 6.07637 17.827 5.91173 18.218 5.85514C18.6039 5.80369 18.9486 5.85 19.1853 5.91174C19.2779 5.93231 19.3499 5.95289 19.4065 5.97347Z" fill="#CF4A57"/>
<path d="M25.5691 1.69804C25.2399 2.07876 28.085 4.02866 28.085 4.02866L27.8586 4.95473L26.593 4.24989L24.4836 4.22416C24.4836 4.22416 24.3087 4.59459 24.1183 5.05763C24.0977 5.09879 24.0823 5.14509 24.0669 5.18625C24.0669 5.19139 24.0617 5.19139 24.0617 5.19654C24.0566 5.20683 24.0514 5.22741 24.0463 5.2377C24.0257 5.28914 24 5.34574 23.9845 5.40233C23.8971 5.63385 23.8148 5.87051 23.7582 6.0866C23.753 6.11232 23.7427 6.14319 23.7324 6.16377C23.7016 6.29754 23.681 6.42101 23.6707 6.52905C23.6604 6.64739 23.6656 6.73999 23.7016 6.81202L25.3016 7.18245C25.3016 7.18245 26.2894 9.22496 26.5724 9.42046C26.6856 9.49763 27.2824 9.5285 27.9615 9.53879C28.2033 9.53879 28.4451 9.53879 28.6869 9.53879C28.6869 9.53879 28.6921 9.53879 28.7075 9.53879C28.7898 9.53365 28.8773 9.53879 28.9596 9.53879L30.004 8.76192L30.0349 6.41072C30.0246 6.35927 30.0092 6.30783 29.9937 6.25123C29.9474 6.06087 29.8805 5.8345 29.8034 5.58755C29.7519 5.4332 29.7005 5.27371 29.6439 5.10907C29.4381 4.51227 29.1705 3.8846 28.8619 3.45243C28.7332 3.26722 28.5943 3.11287 28.4503 3.02027C27.447 2.35144 25.8984 1.32761 25.5691 1.69804Z" fill="#FFA07F"/>
<path d="M24.1189 5.0679C24.0932 5.1245 24.0726 5.18624 24.0469 5.24797C24.0623 5.25312 24.0777 5.25312 24.088 5.25312C24.3298 5.27884 24.6591 5.31486 25.0141 5.36631C25.3691 5.41775 25.6881 5.48464 25.9196 5.56181C25.9762 5.58239 26.0276 5.59782 26.0739 5.6184C26.1203 5.63898 26.1614 5.65442 26.1923 5.66985C26.2592 5.70072 26.2952 5.71616 26.2952 5.71616C26.2952 5.71616 26.2695 5.68529 26.218 5.62869C26.1923 5.60297 26.1614 5.56695 26.1203 5.53094C26.0791 5.49493 26.0328 5.45891 25.9762 5.41776C25.7601 5.25312 25.4154 5.08848 25.0244 5.03704C24.6746 4.9753 24.3504 5.01646 24.1189 5.0679Z" fill="#CF4A57"/>
<path d="M23.7637 6.09695C23.7535 6.12267 23.7483 6.14839 23.7432 6.17412C23.81 6.17926 23.9027 6.18955 24.0107 6.19984C24.2525 6.22557 24.5818 6.26158 24.9368 6.30789C25.2918 6.35933 25.6056 6.42622 25.8423 6.50339C25.8989 6.52397 25.9554 6.54455 26.0018 6.55998C26.0481 6.58056 26.0892 6.596 26.1201 6.61143C26.187 6.63716 26.223 6.65774 26.223 6.65774C26.223 6.65774 26.1973 6.62687 26.1458 6.57027C26.1201 6.54455 26.0892 6.50853 26.0481 6.47252C26.0069 6.43651 25.9606 6.40049 25.904 6.35933C25.6879 6.19984 25.3432 6.03521 24.9522 5.97862C24.5612 5.92717 24.2216 5.97347 23.985 6.03521C23.8924 6.05064 23.8203 6.07637 23.7637 6.09695Z" fill="#CF4A57"/>
<path d="M29.3513 60.3185H21.5002L21.0012 56.4753L20.0442 56.5833V60.3545L18.5831 60.3905L12.79 60.5346C12.2343 56.9537 11.8948 53.6096 11.7301 51.8192C11.653 50.96 11.6118 50.4609 11.6118 50.4609L28.6001 50.0699L29.8246 50.0391C29.8246 50.0391 29.9378 50.7748 30.0407 51.6391C30.1281 52.3491 30.2105 53.1414 30.231 53.6868C30.267 54.9009 29.3513 60.3185 29.3513 60.3185Z" fill="#82473E"/>
<path d="M30.231 53.6926C30.2156 53.1473 30.1333 52.3498 30.0407 51.645C29.9378 50.7806 29.8246 50.0449 29.8246 50.0449L11.6118 50.4617C11.6118 50.4617 11.6478 50.9607 11.7301 51.8199C15.1618 51.8713 23.8103 51.9588 28.9397 51.7067C29.1197 52.6791 29.2638 53.6566 29.1866 54.0579C29.0477 54.7988 28.5795 58.75 28.3943 60.3192H29.3513C29.3513 60.3192 30.267 54.9017 30.231 53.6926Z" fill="#59302D"/>
<path d="M18.5835 60.3957L20.0446 60.3596V56.5885L21.0067 56.4804L21.9328 55.0193L18.5835 55.2868V60.3957Z" fill="#59302D"/>
<path d="M31.2858 47.6365C30.8382 48.6912 29.8298 50.0391 29.8298 50.0391C27.5506 50.6771 11.617 50.4559 11.617 50.4559C11.617 50.4559 10.2434 49.1902 10.0273 48.4854C9.85236 47.4976 11.6222 36.7294 13.0164 28.5954C11.1591 29.043 6.39502 30.1543 5.71075 29.9279C5.3609 29.8096 4.46055 28.9041 3.51904 27.7259C4.68692 28.2507 5.82908 28.6829 6.35386 28.6263C7.19247 28.5337 10.8865 27.4378 13.3457 26.6918C13.7933 26.5529 14.2049 26.4294 14.5445 26.3265C15.1979 26.1259 15.6094 25.9973 15.6094 25.9973C15.6094 25.9973 12.5946 43.783 14.2049 45.6352C15.6197 47.2609 24.0727 49.3806 31.2858 47.6365Z" fill="#F79244"/>
</svg>
