<svg width="70" height="70" viewBox="0 0 70 70" fill="none" xmlns="http://www.w3.org/2000/svg">
<path d="M50.5712 25.8201C50.5712 28.0475 48.7668 29.8531 46.5393 29.8531C44.3129 29.8531 42.5073 28.0475 42.5073 25.8201C42.5073 23.5926 44.3129 21.7881 46.5393 21.7881C48.7668 21.7881 50.5712 23.5926 50.5712 25.8201Z" fill="#F2CA51"/>
<path d="M27.3886 25.8201C27.3886 28.0475 25.5831 29.8531 23.3567 29.8531C21.1303 29.8531 19.3247 28.0475 19.3247 25.8201C19.3247 23.5926 21.1303 21.7881 23.3567 21.7881C25.5831 21.7881 27.3886 23.5926 27.3886 25.8201Z" fill="#F2CA51"/>
<path d="M38.0834 55.6954H32.484C25.3926 55.6954 19.6228 49.9953 19.6228 42.987C19.6228 42.0688 20.3672 41.3255 21.2843 41.3255C22.2014 41.3255 22.9458 42.0688 22.9458 42.987C22.9458 48.2497 27.135 52.3724 32.484 52.3724H38.0834C43.4324 52.3724 47.6216 48.3183 47.6216 43.1421C47.6216 42.2239 48.366 41.4806 49.2831 41.4806C50.2013 41.4806 50.9446 42.2239 50.9446 43.1421C50.9447 50.1813 45.2954 55.6954 38.0834 55.6954Z" fill="#F2CA51"/>
<path d="M35.0009 70C15.7062 70 0.00927734 54.2986 0.00927734 34.9994C0.00927734 15.7014 15.7062 0 35.0009 0C54.2946 0 69.9915 15.7014 69.9915 34.9994C69.9915 54.2985 54.2946 70 35.0009 70ZM35.0009 3.32421C17.5383 3.32421 3.33238 17.5336 3.33238 34.9994C3.33238 52.4665 17.5384 66.6758 35.0009 66.6758C52.4625 66.6758 66.6684 52.4664 66.6684 34.9994C66.6684 17.5335 52.4625 3.32421 35.0009 3.32421Z" fill="#F2CA51"/>
</svg>
