<svg width="70" height="70" viewBox="0 0 70 70" fill="none" xmlns="http://www.w3.org/2000/svg">
<path d="M51.4408 49.1838H19.977C19.0467 49.1838 18.2915 48.4289 18.2915 47.4987C18.2915 46.5674 19.0467 45.8125 19.977 45.8125H51.4408C52.3711 45.8125 53.1263 46.5674 53.1263 47.4987C53.1264 48.429 52.3713 49.1838 51.4408 49.1838Z" fill="#F2CA51"/>
<path d="M50.5657 25.8266C50.5657 28.0532 48.761 29.8575 46.535 29.8575C44.3089 29.8575 42.5054 28.0532 42.5054 25.8266C42.5054 23.6011 44.3089 21.7969 46.535 21.7969C48.761 21.7969 50.5657 23.6011 50.5657 25.8266Z" fill="#F2CA51"/>
<path d="M27.3912 25.8266C27.3912 28.0532 25.5865 29.8575 23.3616 29.8575C21.1356 29.8575 19.332 28.0532 19.332 25.8266C19.332 23.6011 21.1356 21.7969 23.3616 21.7969C25.5877 21.7969 27.3912 23.6011 27.3912 25.8266Z" fill="#F2CA51"/>
<path d="M35 70C15.7003 70 0 54.299 0 35.0006C0.0010012 15.701 15.7015 0 35 0C54.2985 0 70 15.701 70 35.0005C70 54.2988 54.2985 70 35 70ZM35 3.37148C17.5601 3.37148 3.37104 17.5604 3.37104 35.0006C3.37104 52.4408 17.5601 66.6296 35 66.6296C52.4411 66.6296 66.629 52.4407 66.629 35.0005C66.629 17.5603 52.4411 3.37148 35 3.37148Z" fill="#F2CA51"/>
</svg>
